<?xml version="1.0" standalone="no"?><!DOCTYPE svg PUBLIC "-//W3C//DTD SVG 1.1//EN" "http://www.w3.org/Graphics/SVG/1.1/DTD/svg11.dtd"><svg class="icon" width="200px" height="200.00px" viewBox="0 0 1024 1024" version="1.1" xmlns="http://www.w3.org/2000/svg"><path d="M335.453793 427.652033l15.578367-81.843602 81.843602-15.578367a119.589361 119.589361 0 0 1 141.488906 106.973789l4.666711 52.905873c4.221674 47.866238-35.833747 87.921658-83.699984 83.699985l-52.905874-4.666711a119.597602 119.597602 0 0 1-106.971728-141.490967z" fill="#8AC9FE" /><path d="M579.031379 490.107666l-4.666711-52.905874a119.574938 119.574938 0 0 0-140.969696-107.054142 119.558456 119.558456 0 0 1 62.733781 32.998694 119.595542 119.595542 0 0 1 34.564566 74.055448l4.666711 52.905874c3.479945 39.449675-23.127519 73.569204-59.383639 81.991947l19.357064 1.708037c47.864177 4.221674 87.919598-35.833747 83.697924-83.699984z" fill="#60B7FF" /><path d="M525.437346 819.050006l-122.302853 64.344981-44.400715 23.343857a25.400094 25.400094 0 0 0-13.577759 22.478506v79.521578a14.822216 14.822216 0 0 1-14.822216 14.822216h-32.16631a14.822216 14.822216 0 0 1-14.822215-14.822216v-78.305967c0-19.944266-3.255366-39.76491-9.663079-58.658393l-123.312428-364.106471 58.534771-19.820644 117.378597 346.531617c2.946312 8.735918 13.000859 12.753616 21.159877 8.447468l58.308132-30.658128 90.902996-47.82091z" fill="#6FD7A3" /><path d="M290.432909 834.377009c2.956614 8.729737 13.015282 12.747435 21.172239 8.45571l14.914932-7.845844c-0.080354-0.206036-0.17513-0.399709-0.245182-0.611926l-117.364175-346.531617-32.153947 10.888992zM525.439406 819.045885l-28.77702-54.704566-28.072378 14.766586 0.00206 0.002061-62.838859 33.056384s-0.719065 8.311484-1.582355 18.376333a64.250205 64.250205 0 0 1-34.103046 51.377088l-47.169837 24.812892a25.412456 25.412456 0 0 0-13.58188 22.492928v78.406925a16.952626 16.952626 0 0 1-11.146537 15.926567l32.166309 0.004121a14.820155 14.820155 0 0 0 14.822216-14.820155v-79.517458c0-9.4385 5.229189-18.098185 13.58188-22.492928l44.394534-23.352098 0.002061 0.012362 122.302852-64.344981-0.00206-0.002061z" fill="#3EC3A4" /><path d="M766.404459 589.548786l-13.971288 82.132052 71.255422 43.168621a119.589361 119.589361 0 0 0 169.930089-50.849636l22.841129-47.948652c20.665391-43.380838-2.886562-94.89803-49.215772-107.651647l-51.206079-14.096969a119.587301 119.587301 0 0 0-149.633501 95.246231z" fill="#8AC9FE" /><path d="M967.246099 508.401585l-51.206078-14.09491a119.556395 119.556395 0 0 0-53.523981-2.260212 120.695773 120.695773 0 0 1 9.852632 2.260212l51.206078 14.09491c46.32715 12.753616 69.881163 64.270808 49.213712 107.651646l-22.841129 47.948652a119.589361 119.589361 0 0 1-86.085879 66.137493 119.556395 119.556395 0 0 0 129.757228-66.137493l22.841129-47.948652c20.665391-43.380838-2.886562-94.89803-49.213712-107.651646z" fill="#60B7FF" /><path d="M629.155769 671.672596l-71.24718 43.185104a117.475434 117.475434 0 0 1-18.790466 9.209801 119.459558 119.459558 0 0 1-92.901543-2.740276c-12.77422-5.851417-24.312225-13.845606-34.18134-23.529289a119.768612 119.768612 0 0 1-24.064982-33.789872l-22.84937-47.944531c-20.665391-43.39114 2.884501-94.900091 49.221953-107.653707l51.199897-14.113452a119.702681 119.702681 0 0 1 81.466557 6.551938 119.282368 119.282368 0 0 1 47.820909 39.579478c10.260583 14.422506 17.307007 31.152613 20.356338 49.118935l9.518854 55.918117z" fill="#8AC9FE" /><path d="M624.705396 645.464842l-46.337452-31.523478a119.399808 119.399808 0 0 1-38.446281-42.937861 119.574938 119.574938 0 0 1-12.011887-76.995579c6.510731 1.730701 12.897841 3.997095 19.099519 6.840388a119.282368 119.282368 0 0 1 45.101237 35.891437 119.292669 119.292669 0 0 1 23.07601 52.806976z" fill="#60B7FF" /><path d="M629.155769 671.672596l-71.24718 43.185104a117.475434 117.475434 0 0 1-18.790466 9.209801c-3.111141-1.112593-6.448921-1.792511-9.992736-1.936737l-26.001718-1.071386c-9.889719-0.412072-12.279734-13.989831-3.131745-17.760286l24.064982-9.910322c22.643335-9.312818 27.876644-39.023181 9.786701-55.526649l-19.223141-17.533647c-7.314271-6.67556-0.412072-18.625637 9.024369-15.617514l24.786107 7.870568c23.343856 7.417289 46.461074-11.97068 43.205707-36.241698l-3.461401-25.775079c-0.700522-5.192102 2.596051-8.962557 6.654956-10.136961 10.260583 14.422506 17.307007 31.152613 20.356338 49.118935l9.518854 55.918117z" fill="#60B7FF" /><path d="M622.035172 613.949606l68.88807 46.856662 68.888071-46.856662a119.58524 119.58524 0 0 0 24.407001-175.68879l-34.109227-40.708554c-30.860043-36.83096-87.507526-36.83096-118.367569 0l-34.109227 40.708554a119.591421 119.591421 0 0 0 24.402881 175.68879z" fill="#8AC9FE" /><path d="M784.218314 438.260816l-34.109227-40.708554c-20.624184-24.613037-52.755467-32.753512-81.019459-24.468811 14.028978 4.112475 27.110191 12.250889 37.34811 24.468811l34.111288 40.708554a119.591421 119.591421 0 0 1-24.407001 175.68879l-47.052397 32.003541 21.835675 14.853121 68.88807-46.856662a119.58524 119.58524 0 0 0 24.404941-175.68879z" fill="#60B7FF" /><path d="M690.925303 819.523888a119.562576 119.562576 0 0 1-35.026087 84.53649 119.653232 119.653232 0 0 1-74.069871 34.572808l-52.88939 4.656409c-47.862117 4.223734-87.936081-35.829626-83.712347-83.691743l4.677013-52.909994a119.554335 119.554335 0 0 1 34.552204-74.049268 119.591421 119.591421 0 0 1 106.932581-32.924521l81.837421 15.59691 13.042067 68.486301 2.53424 13.35112c1.421647 7.458496 2.122169 14.937596 2.122169 22.375488z" fill="#8AC9FE" /><path d="M686.268894 783.79728c-11.579212 2.946312-21.530741 12.011887-24.435847 25.218782l-5.562966 25.404215c-2.122169 9.683683-15.926568 9.683683-18.048737 0l-5.562966-25.404215c-5.233309-23.920757-33.604439-34.24315-52.992409-19.284951l-20.60358 15.885361c-7.829361 6.036849-18.398997-2.82269-13.804399-11.599816l12.053095-23.055406c11.373176-21.69557-3.729248-47.82091-28.185698-48.830486l-26.001718-1.071386c-1.462854-0.061811-2.76088-0.412072-3.894077-0.968368a119.591421 119.591421 0 0 1 92.159814-20.376941l81.837421 15.59691z" fill="#60B7FF" /><path d="M688.811375 797.144279l-15.578367-81.843602-81.843602-15.578367a119.500766 119.500766 0 0 0-44.190559-0.082414c0.17307 0.032966 0.34614 0.049449 0.519211 0.082414l81.843602 15.578367 15.578367 81.843602a119.589361 119.589361 0 0 1-106.973789 141.488907l-33.54881 2.958674a77.238702 77.238702 0 0 0 24.316346 1.708037l52.905873-4.666711a119.593482 119.593482 0 0 0 106.971728-141.488907z" fill="#60B7FF" /><path d="M693.035109 797.144279l15.578367-81.843602 81.843602-15.578367a119.589361 119.589361 0 0 1 141.488907 106.973789l4.666711 52.905874c4.221674 47.866238-35.833747 87.921658-83.699985 83.699984l-52.905873-4.666711a119.593482 119.593482 0 0 1-106.971729-141.490967z" fill="#8AC9FE" /><path d="M936.610635 859.599912l-4.666711-52.905873a119.601723 119.601723 0 0 0-34.564566-74.055449 119.58318 119.58318 0 0 0-106.40513-33.000754 119.531671 119.531671 0 0 1 62.733781 33.000754 119.595542 119.595542 0 0 1 34.564567 74.055449l4.666711 52.905873c3.479945 39.449675-23.125459 73.569204-59.383639 81.991948l19.357063 1.708037c47.864177 4.221674 87.919598-35.833747 83.697924-83.699985z" fill="#60B7FF" /><path d="M408.825202 220.056539l-13.971287 82.132052 71.255422 43.168622a119.589361 119.589361 0 0 0 169.930088-50.849637l22.841129-47.948652c20.665391-43.380838-2.886562-94.89803-49.215772-107.651646l-51.206078-14.09697a119.587301 119.587301 0 0 0-149.633502 95.246231z" fill="#8AC9FE" /><path d="M609.664782 138.909338l-51.206078-14.096969a119.556395 119.556395 0 0 0-53.523981-2.260213 120.695773 120.695773 0 0 1 9.852632 2.260213l51.206078 14.096969c46.329211 12.753616 69.881163 64.270808 49.215773 107.651647l-22.841129 47.948652a119.589361 119.589361 0 0 1-86.08588 66.137492 119.556395 119.556395 0 0 0 129.757228-66.137492l22.841129-47.948652c20.665391-43.380838-2.886562-94.89803-49.215772-107.651647z" fill="#60B7FF" /><path d="M271.580633 302.188591l-71.267784 43.164501a119.515188 119.515188 0 0 1-111.671405 6.490128c-12.77422-5.830813-24.312225-13.825002-34.181339-23.549893a119.185531 119.185531 0 0 1-24.064982-33.789871l-22.849371-47.944532c-20.665391-43.370536 2.884501-94.900091 49.221953-107.653707l51.199897-14.092848c20.500562-5.645381 42.031304-5.686588 62.367038-0.288451a119.214376 119.214376 0 0 1 64.180153 42.711222c0.947765 1.215611 1.854322 2.47243 2.719672 3.729248 10.260583 14.422506 17.327611 31.152613 20.376941 49.098332l9.518854 55.918117z" fill="#8AC9FE" /><path d="M271.580633 302.188591l-71.267784 43.164501a118.944469 118.944469 0 0 1-18.749258 9.230404 33.130557 33.130557 0 0 0-10.033943-1.95734l-25.981115-1.071386c-9.889719-0.391468-12.300337-13.989831-3.131744-17.760287l24.044378-9.889718c22.663938-9.312818 27.897248-39.043785 9.807304-55.547253l-19.22314-17.513043c-7.314271-6.67556-0.412072-18.625637 9.024368-15.638117l24.786107 7.891171c23.343856 7.417289 46.461074-11.991284 43.205708-36.262301l-3.461402-25.775079c-0.700522-5.192102 2.596051-8.941954 6.634353-10.095755 10.260583 14.422506 17.327611 31.152613 20.376941 49.098332l9.518854 55.918117z" fill="#60B7FF" /><path d="M267.13026 275.980837l-46.337452-31.523478a119.630568 119.630568 0 0 1-52.333094-98.876581c0-7.108235 0.638711-14.134056 1.874926-21.05686a119.214376 119.214376 0 0 1 64.180153 42.711222c11.723437 15.246649 19.779437 33.315989 23.096613 52.82758z" fill="#60B7FF" /><path d="M264.455915 244.457359l68.888071 46.856663 68.888071-46.856663a119.58524 119.58524 0 0 0 24.407001-175.688789l-34.109227-40.708554c-30.860043-36.83096-87.507526-36.83096-118.367569 0l-34.109227 40.708554a119.591421 119.591421 0 0 0 24.40288 175.688789z" fill="#8AC9FE" /><path d="M426.636998 68.76857l-34.109228-40.708554C371.903587 3.446979 339.770243-4.693496 311.508312 3.591204c14.028978 4.112475 27.110191 12.250889 37.34811 24.468812l34.111287 40.708554a119.591421 119.591421 0 0 1-24.407001 175.688789l-47.052396 32.003541 21.835674 14.853122 68.888071-46.856663a119.58524 119.58524 0 0 0 24.404941-175.688789z" fill="#60B7FF" /><path d="M333.329564 449.998676c0 31.42046-12.382752 61.934362-35.005483 84.577697a119.653232 119.653232 0 0 1-74.069871 34.572808l-52.909995 4.656409c-47.862117 4.223734-87.915477-35.829626-83.691743-83.691743l4.677013-52.909994c1.215611-13.989831 4.903652-27.526383 10.755069-40.073964a119.220557 119.220557 0 0 1 23.797135-33.975304 119.636749 119.636749 0 0 1 106.932582-32.924521l81.837421 15.576307 13.042066 68.4863 2.53424 13.35112c1.421647 7.437892 2.101565 14.916992 2.101566 22.354885z" fill="#8AC9FE" /><path d="M328.693758 414.292671c-11.579212 2.946312-21.530741 12.011887-24.435846 25.218783l-5.562967 25.424818c-2.122169 9.663079-15.926568 9.663079-18.048736 0l-5.562967-25.424818c-5.253913-23.920757-33.604439-34.24315-52.992408-19.284951l-20.603581 15.88536c-7.849964 6.057453-18.419601-2.82269-13.825002-11.599816l12.073698-23.034802c11.352573-21.69557-3.729248-47.82091-28.206301-48.851089l-25.981115-1.071386c-1.462854-0.061811-2.76088-0.412072-3.873473-0.968369a119.636749 119.636749 0 0 1 92.139211-20.356337l81.837421 15.576307z" fill="#60B7FF" /><path d="M331.232119 427.652033l-15.578367-81.843602-81.843602-15.578367a119.500766 119.500766 0 0 0-44.190559-0.082414c0.17307 0.032966 0.34614 0.049449 0.51921 0.082414l81.843602 15.578367 15.578367 81.843602a119.589361 119.589361 0 0 1-106.973788 141.488906l-33.54881 2.958674a77.238702 77.238702 0 0 0 24.316345 1.708037l52.905874-4.666711a119.591421 119.591421 0 0 0 106.971728-141.488906zM775.84914 675.560492a15.454746 15.454746 0 0 1-14.064004-9.03467 15.450625 15.450625 0 0 1 7.631566-20.475838l159.034916-71.813779a15.444444 15.444444 0 0 1 20.475838 7.631566 15.450625 15.450625 0 0 1-7.631566 20.475838l-159.034916 71.813779a15.359969 15.359969 0 0 1-6.411834 1.403104zM604.18629 675.560492a15.388814 15.388814 0 0 1-6.413894-1.403104l-157.462863-71.813779a15.452685 15.452685 0 0 1 12.848393-28.109465l157.462862 71.813779a15.452685 15.452685 0 0 1 7.629506 20.477899 15.452685 15.452685 0 0 1-14.064004 9.03467zM690.925303 618.812051a15.452685 15.452685 0 0 1-15.452685-15.452686v-143.141313c0-8.534003 6.916622-15.452685 15.452685-15.452685s15.452685 6.918682 15.452685 15.452685v143.141313a15.452685 15.452685 0 0 1-15.452685 15.452686zM531.393841 872.598711a15.452685 15.452685 0 0 1-10.928139-26.378764l83.061274-85.239072a15.452685 15.452685 0 0 1 21.854217 21.852158l-83.061273 85.239071a15.413538 15.413538 0 0 1-10.926079 4.526607zM850.458825 872.598711a15.409418 15.409418 0 0 1-10.926079-4.524546l-91.807493-90.542434a15.452685 15.452685 0 0 1 21.850097-21.856278l91.807493 90.542434a15.452685 15.452685 0 0 1-10.924018 26.380824zM418.269884 306.068245a15.456806 15.456806 0 0 1-6.434499-29.508447l159.016373-71.826142a15.452685 15.452685 0 0 1 12.848392 28.105344L424.683778 304.665142a15.362029 15.362029 0 0 1-6.413894 1.403103zM247.111822 306.070306a15.388814 15.388814 0 0 1-6.413895-1.403104L82.711734 232.841061a15.452685 15.452685 0 0 1-7.629506-20.477899 15.452685 15.452685 0 0 1 20.477898-7.629506l157.986194 71.826142a15.458866 15.458866 0 1 1-6.434498 29.510508zM333.350167 242.467053a15.452685 15.452685 0 0 1-15.452685-15.452685V90.713443c0-8.534003 6.916622-15.452685 15.452685-15.452685s15.452685 6.918682 15.452685 15.452685v136.300925a15.452685 15.452685 0 0 1-15.452685 15.452685z" fill="#60B7FF" /><path d="M173.818705 503.094102a15.452685 15.452685 0 0 1-10.928139-26.378763l75.55745-76.972916a15.452685 15.452685 0 0 1 21.854218 21.852157l-75.55745 76.972916a15.399116 15.399116 0 0 1-10.926079 4.526606z" fill="#60B7FF" /><path d="M305.143866 196.865149l-13.9239-21.971658c-5.301301-8.365054-18.265074-3.646834-16.950565 6.168712l3.45728 25.78126c3.253305 24.271018-19.863912 43.671349-43.203647 36.252l-24.788167-7.88087c-9.4385-2.999881-16.336579 8.946075-9.018188 15.621635l19.21902 17.527465c18.094064 16.501407 12.854574 46.222072-9.792882 55.541072l-24.05468 9.895899c-9.160352 3.768395-6.764155 17.354396 3.131745 17.764407l25.989356 1.073447c24.468812 1.009575 39.558874 27.145217 28.19806 48.840787l-12.065457 23.043044c-4.594598 8.775065 5.975038 17.642846 13.816761 11.593635l20.597399-15.8833c19.39209-14.954079 47.752918-4.631685 52.996529 19.289071l5.569148 25.408336c2.120108 9.675441 15.916266 9.675441 18.038435 0l5.569148-25.408336c5.243611-23.920757 33.602379-34.24315 52.996529-19.289071l20.597399 15.8833c7.843783 6.047151 18.411359-2.82063 13.816761-11.593635l-12.065457-23.043044c-11.358754-21.69557 3.729248-47.831212 28.19806-48.840787l25.989356-1.073447c9.8959-0.407951 12.292096-13.996012 3.131745-17.764407l-24.05468-9.895899c-22.647455-9.316939-27.886946-39.037604-9.792882-55.541072l19.21902-17.527465c7.318392-6.6735 0.420313-18.621516-9.018188-15.621635l-24.788167 7.88087c-23.337675 7.419349-46.456953-11.978922-43.203647-36.252l3.45728-25.78126c1.316569-9.815546-11.647204-14.535826-16.950565-6.168712l-13.9239 21.971658c-13.103877 20.685995-43.284001 20.685995-56.394059 0z" fill="#FFEAD9" /><path d="M388.489469 243.095463l14.313307-4.551331c-9.595087-6.793-15.611333-18.522619-13.843546-31.700669l3.457281-25.78126c1.316569-9.815546-11.647204-14.535826-16.950565-6.168712l-13.9239 21.971658c-4.155742 6.556059-10.027763 11.027036-16.526132 13.427353-0.74791 22.61655 21.252593 39.867928 43.473555 32.802961zM480.597774 333.800664l-24.05468-9.895899c-22.647455-9.316939-27.889006-39.039664-9.792881-55.541072l19.219019-17.527465c7.318392-6.6735 0.420313-18.621516-9.018187-15.621635l-24.788167 7.88087a34.113348 34.113348 0 0 1-6.838329 1.421647c-0.096837 2.225187-1.001334 4.473037-3.024605 6.319118l-19.21902 17.527465c-18.094064 16.501407-12.854574 46.222072 9.792882 55.541072l24.05468 9.895899c9.160352 3.768395 6.764155 17.354396-3.131744 17.764407l-25.989357 1.073447c-24.468812 1.009575-39.558874 27.145217-28.198059 48.840787l6.405653 12.234406a33.1491 33.1491 0 0 1 14.914931 6.518973l20.5974 15.8833c7.843783 6.047151 18.411359-2.82063 13.816761-11.593635l-12.065457-23.043044c-11.358754-21.69557 3.729248-47.831212 28.19806-48.840787l25.989356-1.073447c9.8959-0.410011 12.290036-13.996012 3.131744-17.764407z" fill="#FEDBA6" /><path d="M333.343986 321.378766m-43.815574 0a43.815574 43.815574 0 1 0 87.631148 0 43.815574 43.815574 0 1 0-87.631148 0Z" fill="#FFD15B" /><path d="M333.343986 277.563192c-7.623325 0-14.78925 1.953219-21.032135 5.377534 13.575699 7.444074 22.783439 21.862459 22.783439 38.43804s-9.20774 30.993966-22.783439 38.438039a43.605417 43.605417 0 0 0 21.032135 5.377535c24.198905 0 43.815574-19.616669 43.815574-43.815574s-19.616669-43.815574-43.815574-43.815574z" fill="#FFC344" /><path d="M662.725182 566.357396l-13.923899-21.971658c-5.301301-8.365054-18.265074-3.646834-16.950566 6.168712l3.457281 25.78126c3.253305 24.271018-19.863912 43.671349-43.203647 36.251999l-24.788168-7.880869c-9.4385-2.999881-16.336579 8.946075-9.018187 15.621634l19.21902 17.527466c18.094064 16.501407 12.854574 46.222072-9.792882 55.541071l-24.05468 9.8959c-9.160352 3.768395-6.764155 17.354396 3.131744 17.764407l25.989357 1.073446c24.468812 1.009575 39.558874 27.145217 28.19806 48.840787l-12.065457 23.043045c-4.594598 8.775065 5.975038 17.642846 13.816761 11.593634l20.597399-15.8833c19.39209-14.954079 47.752918-4.631685 52.996529 19.289072l5.569148 25.408335c2.120108 9.675441 15.916266 9.675441 18.038434 0l5.569148-25.408335c5.243611-23.920757 33.602379-34.24315 52.996529-19.289072l20.5974 15.8833c7.843783 6.047151 18.411359-2.82063 13.816761-11.593634l-12.065457-23.043045c-11.358754-21.69557 3.729248-47.831212 28.19806-48.840787l25.989356-1.073446c9.8959-0.407951 12.292096-13.996012 3.131744-17.764407l-24.05468-9.8959c-22.647455-9.316939-27.886946-39.037604-9.792881-55.541071l19.219019-17.527466c7.318392-6.6735 0.420313-18.621516-9.018187-15.621634l-24.788167 7.880869c-23.337675 7.419349-46.456953-11.978922-43.203648-36.251999l3.457281-25.78126c1.316569-9.815546-11.647204-14.535826-16.950565-6.168712l-13.9239 21.971658c-13.105937 20.685995-43.286062 20.685995-56.39406 0z" fill="#FFEAD9" /><path d="M746.068725 612.587709l14.313307-4.551331c-9.595087-6.793-15.611333-18.522619-13.843545-31.700668l3.45728-25.78126c1.316569-9.815546-11.647204-14.535826-16.950565-6.168712l-13.9239 21.971658c-4.155742 6.556059-10.027763 11.027036-16.526131 13.427353-0.74791 22.61655 21.254653 39.865867 43.473554 32.80296zM838.177031 703.292911l-24.05468-9.8959c-22.647455-9.316939-27.889006-39.037604-9.792882-55.541071l19.21902-17.527466c7.318392-6.6735 0.420313-18.621516-9.018187-15.621634l-24.788168 7.880869a34.113348 34.113348 0 0 1-6.838328 1.421647c-0.096837 2.225187-1.001334 4.473037-3.024606 6.319118l-19.219019 17.527466c-18.094064 16.501407-12.854574 46.222072 9.792881 55.541071l24.05468 9.8959c9.160352 3.768395 6.764155 17.354396-3.131744 17.764407l-25.989356 1.073446c-24.468812 1.009575-39.558874 27.145217-28.19806 48.840787l6.405653 12.234406c5.192102 0.855049 10.307971 2.966916 14.916992 6.518973l20.597399 15.8833c7.843783 6.047151 18.411359-2.82063 13.818822-11.593634l-12.065457-23.043045c-11.358754-21.69557 3.729248-47.831212 28.19806-48.840787l25.989356-1.073446c9.891779-0.410011 12.287975-13.996012 3.127624-17.764407z" fill="#FEDBA6" /><path d="M690.923242 690.871012m-43.815573 0a43.815574 43.815574 0 1 0 87.631147 0 43.815574 43.815574 0 1 0-87.631147 0Z" fill="#FFD15B" /><path d="M690.923242 647.055439c-7.623325 0-14.78925 1.953219-21.032134 5.377534 13.575699 7.444074 22.783439 21.862459 22.783439 38.438039s-9.20774 30.993966-22.783439 38.43804a43.605417 43.605417 0 0 0 21.032134 5.377534c24.198905 0 43.815574-19.616669 43.815574-43.815574s-19.616669-43.815574-43.815574-43.815573z" fill="#FFC344" /></svg>