<?xml version="1.0" standalone="no"?><!DOCTYPE svg PUBLIC "-//W3C//DTD SVG 1.1//EN" "http://www.w3.org/Graphics/SVG/1.1/DTD/svg11.dtd"><svg class="icon" width="200px" height="200.00px" viewBox="0 0 1024 1024" version="1.1" xmlns="http://www.w3.org/2000/svg"><path d="M454.235686 115.505964L523.331992 69.191082a143.796797 143.796797 0 0 1 100.117119-22.942132l49.03868 6.910454a57.438777 57.438777 0 0 1 48.880032 48.97893l11.60808 83.617738a57.438777 57.438777 0 0 1-34.325633 60.718874l-165.216322 80.224322z" fill="#FE646F" /><path d="M732.975903 185.756072l-11.60808-83.617738a57.438777 57.438777 0 0 0-48.880032-48.97893l-49.03868-6.910454a143.718503 143.718503 0 0 0-40.679791 0.105078l48.29901 6.805376a57.440837 57.440837 0 0 1 48.880032 48.97893l11.608081 83.617738a57.438777 57.438777 0 0 1-34.325634 60.718874l-130.177803 63.209851 6.380942 17.014471 165.216322-80.224322a57.436716 57.436716 0 0 0 34.325633-60.718874z" fill="#FD4755" /><path d="M648.799807 211.244813a15.446535 15.446535 0 0 1-13.614873-8.121948l-2.596057-4.815066a69.821553 69.821553 0 0 0-43.86511-34.375083l-61.555381-15.798857a15.452716 15.452716 0 1 1 7.730479-29.92264l61.55538 15.798857c27.013408 6.980507 50.099767 25.070487 63.339654 49.634125l2.593996 4.813006a15.452716 15.452716 0 0 1-13.588088 22.787606z" fill="#FD4755" /><path d="M515.197682 689.83192a15.374423 15.374423 0 0 1-8.511356-2.567212l-54.708797-36.748619a15.452716 15.452716 0 1 1 17.049497-25.777192l54.708797 36.74862a15.450656 15.450656 0 0 1 4.361787 21.413344 15.432113 15.432113 0 0 1-12.899928 6.931059z" fill="#3EC3A4" /><path d="M480.977127 955.27868a15.448596 15.448596 0 0 1-13.47889-7.872644 15.452716 15.452716 0 0 1 5.880274-21.046599l51.445183-28.365006a15.452716 15.452716 0 0 1 15.168386 26.926873l-51.445183 28.365006a15.364121 15.364121 0 0 1-7.56977 1.99237z" fill="#6FD7A3" /><path d="M281.128177 245.700249l-15.852426-73.031597c-9.304596-41.864499 10.940523-84.711791 49.191146-104.10598L438.061843 5.892636a54.496579 54.496579 0 0 1 60.164636 7.273078l53.973247 46.380813a25.682414 25.682414 0 0 1 4.984016 33.175952L416.018028 316.533441z" fill="#FE646F" /><path d="M527.584579 182.844781c0.618109 31.783147-2.913352 63.640467-11.146559 94.333682-22.528 94.240966-162.422471 86.906076-176.35876-8.657642-14.381328-56.839211-23.576724-150.668105 57.995074-153.014857 55.063179-1.497883 126.048837-7.446149 129.510245 67.338817z" fill="#FD4755" /><path d="M498.228539 13.165714a54.496579 54.496579 0 0 0-56.258189-9.057352 54.455372 54.455372 0 0 1 14.840789 9.057352l53.973247 46.380813a25.682414 25.682414 0 0 1 4.984016 33.175952L384.904499 300.194769l31.113529 16.338672 141.167775-223.810962a25.676233 25.676233 0 0 0-4.984016-33.175952z" fill="#FD4755" /><path d="M478.391372 1024h-33.048209a14.092877 14.092877 0 0 1-14.090817-14.090817v-107.17798a221.303501 221.303501 0 0 1 39.062407-125.55641l3.238889-4.701747a160.015968 160.015968 0 0 0 28.241384-90.777497v-165.552161h61.231904v165.533618c0 44.833481-13.616934 88.607936-39.047984 125.531686l-3.249191 4.71823a160.090141 160.090141 0 0 0-28.245506 90.806342v107.177979a14.092877 14.092877 0 0 1-14.092877 14.088757z" fill="#6FD7A3" /><path d="M529.820072 516.143388v165.529497c0 44.835541-13.618994 88.616177-39.050044 125.539928l-3.249191 4.718229a160.061296 160.061296 0 0 0-28.241384 90.79192v102.779106a19.243783 19.243783 0 0 1-13.93629 18.497932h33.048209a14.092877 14.092877 0 0 0 14.090817-14.090817v-107.17798a160.090141 160.090141 0 0 1 28.245505-90.804281l3.249191-4.71823a221.319984 221.319984 0 0 0 39.047984-125.537867v-165.529497h-33.204797z" fill="#3EC3A4" /><path d="M583.550197 725.181553l-16.458173-19.983452a19.006841 19.006841 0 0 1 0-24.163928l16.458173-19.983453a64.101988 64.101988 0 0 1 49.481658-23.352145h14.474044a64.097867 64.097867 0 0 1 49.481658 23.352145l12.137594 14.737771a27.258592 27.258592 0 0 1 0 34.655292l-12.137594 14.73777a64.101988 64.101988 0 0 1-49.481658 23.352145h-14.474044a64.097867 64.097867 0 0 1-49.481658-23.352145z" fill="#6FD7A3" /><path d="M709.127211 675.788491l-12.137593-14.737771a64.101988 64.101988 0 0 0-49.481658-23.352145h-14.474045c-4.571944 0-9.082076 0.502728-13.472708 1.446375a64.077264 64.077264 0 0 1 36.00895 21.90577l12.137594 14.737771a27.258592 27.258592 0 0 1 0 34.655292l-12.137594 14.73777a64.087565 64.087565 0 0 1-36.00895 21.905771c4.390632 0.943646 8.900765 1.446374 13.472708 1.446374h14.474045a64.097867 64.097867 0 0 0 49.481658-23.352145l12.137593-14.73777a27.262712 27.262712 0 0 0 0-34.655292z" fill="#3EC3A4" /><path d="M411.654181 910.593545l16.458173-19.983452a19.006841 19.006841 0 0 0 0-24.163928l-16.458173-19.983453a64.101988 64.101988 0 0 0-49.481658-23.352145h-14.474044a64.097867 64.097867 0 0 0-49.481658 23.352145l-12.137594 14.737771a27.258592 27.258592 0 0 0 0 34.655292l12.137594 14.73777a64.101988 64.101988 0 0 0 49.481658 23.352145h14.474044a64.097867 64.097867 0 0 0 49.481658-23.352145z" fill="#6FD7A3" /><path d="M411.654181 846.462712a64.101988 64.101988 0 0 0-49.481658-23.352145h-14.476104c-4.571944 0-9.082076 0.502728-13.472709 1.446375a64.077264 64.077264 0 0 1 36.00895 21.90577l16.458173 19.983453a19.006841 19.006841 0 0 1 0 24.163928l-16.458173 19.983452a64.087565 64.087565 0 0 1-36.00895 21.905771c4.390632 0.943646 8.900765 1.446374 13.472709 1.446374h14.474044a64.097867 64.097867 0 0 0 49.481658-23.352145l16.458173-19.983452a19.006841 19.006841 0 0 0 0-24.163928z" fill="#3EC3A4" /><path d="M569.008161 182.836539v9.580684c0 17.6367-1.42165 35.232193-4.26495 52.601047-0.844748 5.171509-1.813119 10.322414-2.90511 15.452716-0.782938 3.605634-1.607082 7.211268-2.493039 10.796298l-1.174406 4.656418-0.309054 1.256821c-9.972153 40.012233-45.904869 68.09497-87.132717 68.09497-41.372072 0-77.387203-28.268169-87.21513-68.465835l-2.019155-8.282656a324.486439 324.486439 0 0 1-8.612314-56.227284c-0.494487-7.067042-0.721127-14.154688-0.721127-21.262937v-8.200242c0-4.450382 0.432676-8.81835 1.256821-13.021489 5.872032-29.895855 31.502938-52.704064 62.758632-54.228732 1.091992-0.061811 2.204588-0.082414 3.317183-0.082415h62.18173c37.189537 0 67.332636 30.163702 67.332636 67.332636z" fill="#FC8B96" /><path d="M501.681706 115.505964h-48.480322c38.51435 2.993706 72.032322 16.534406 74.383195 67.340877 0.618109 31.783147-2.913352 63.640467-11.146559 94.333682-9.04705 37.844732-37.022648 59.293103-68.162962 65.243429 7.211268 1.860507 14.743952 2.847421 22.462069 2.84742 41.227847 0 77.156443-28.078616 87.120354-68.090849l1.47934-5.91942c0.898318-3.576789 1.722463-7.174181 2.490978-10.790117a325.625819 325.625819 0 0 0 7.174181-68.051702v-9.572443c0.00206-37.183356-30.136918-67.340877-67.320274-67.340877z" fill="#FE646F" /><path d="M769.234157 262.119276l-45.801851 84.59847a174.788765 174.788765 0 0 0-15.102455 37.807646l-15.24668 56.474528c-17.966358 66.632113-78.396781 112.928451-147.418913 112.92845h-67.188411c-68.980926 0-129.390744-46.255131-147.39831-112.846036l-14.772797-54.661408a175.410994 175.410994 0 0 0-16.997987-41.18664l-44.338994-77.655051c-7.705755-13.515976 4.944869-29.545594 19.882495-25.177625l129.102293 67.806519a157.450817 157.450817 0 0 0 67.188411 17.945754 157.41167 157.41167 0 0 0 62.902857-10.487243c1.977948-0.74173 3.935292-1.545272 5.892636-2.39002l158.709698-68.795493 52.250785-9.601288c14.27831-2.637264 25.26004 12.465191 18.337223 25.239437z" fill="#FE646F" /><path d="M750.890753 236.873658l-26.069763 4.792402c5.037586 5.074672 6.957843 13.14305 2.993706 20.463517l-45.805972 84.594351c-12.980282 22.486793-23.286213 69.036555-30.334712 94.288354-20.344016 76.035606-79.773103 106.114833-147.091316 112.914028h41.089803c69.009771 0 129.442254-46.288097 147.420974-112.914028l15.240499-56.484829a175.281191 175.281191 0 0 1 15.094213-37.801465l45.808032-84.59435c6.916636-12.784547-4.050672-27.884942-18.345464-25.25798z" fill="#FD4755" /><path d="M564.743211 245.01827c-0.844748 5.171509-1.813119 10.322414-2.90511 15.452716-0.782938 3.605634-1.607082 7.211268-2.493039 10.796298l-1.174406 4.656418h-47.017465c-8.159034 0-16.44169-0.597505-24.600724-1.751308a174.549763 174.549763 0 0 1-91.274044-42.093199l-22.396137-19.779477c-0.494487-7.067042-0.721127-14.154688-0.721127-21.262937v-8.200242c0-4.450382 0.432676-8.81835 1.256821-13.021489l14.195895 14.237103 28.123944 24.868571c21.180523 18.708089 47.182294 30.678793 75.162012 34.655292 6.716781 0.947767 13.536579 1.442254 20.25336 1.442254z" fill="#FE646F" /><path d="M564.743211 245.01827c-0.844748 5.171509-1.813119 10.322414-2.90511 15.452716-0.782938 3.605634-1.607082 7.211268-2.493039 10.796298l-1.174406 4.656418h-41.392676c2.699074-10.198793 4.862455-20.521207 6.531348-30.905432zM488.22136 201.688853c-8.344467 1.710101-16.524105-3.688048-18.213601-12.032515a161.301634 161.301634 0 0 0-19.800081-50.849738l-14.031066-23.220282c1.091992-0.061811 2.204588-0.082414 3.317183-0.082415h32.986398l8.797747 15.452717c8.859557 16.482897 15.24668 34.098994 18.996539 52.498028a15.452716 15.452716 0 0 1-12.053119 18.234205zM534.043815 317.66664c-20.603622 11.579235-73.410704 48.274286-91.438873 127.598229a15.448596 15.448596 0 0 1-15.040644 12.032515c-1.133199 0-2.287002-0.123622-3.440805-0.370865a15.456837 15.456837 0 0 1-11.641046-18.502052c11.455614-50.499477 35.335211-86.143742 58.658511-110.270584a157.41167 157.41167 0 0 0 62.902857-10.487243z" fill="#FD4755" /></svg>