<?xml version="1.0" standalone="no"?><!DOCTYPE svg PUBLIC "-//W3C//DTD SVG 1.1//EN" "http://www.w3.org/Graphics/SVG/1.1/DTD/svg11.dtd"><svg class="icon" width="200px" height="200.00px" viewBox="0 0 1024 1024" version="1.1" xmlns="http://www.w3.org/2000/svg"><path d="M571.085558 475.004855l-59.086574 63.024325-59.086574-63.024325a218.476063 218.476063 0 0 1-59.09267-149.429296v-20.619345c0-45.532017 10.171506-90.491048 29.772887-131.58954l58.330722-122.305958c12.067234-25.302789 48.082005-25.302789 60.149239 0l58.330721 122.305958a305.673461 305.673461 0 0 1 29.772888 131.58954v20.619345a218.474031 218.474031 0 0 1-59.090639 149.429296z" fill="#D691C6" /><path d="M600.405341 173.368706L542.074619 51.060716c-9.7184-20.377553-34.962266-24.329527-50.72749-11.884367 3.809743 3.007157 7.072915 6.961162 9.421749 11.884367l58.330721 122.305958a305.673461 305.673461 0 0 1 29.772888 131.58954v20.619345a218.476063 218.476063 0 0 1-59.09267 149.429296l-38.432688 40.994867 20.651855 22.029458 59.086574-63.024325a218.476063 218.476063 0 0 0 59.092671-149.429296v-20.619345c0-45.532017-10.173538-90.489016-29.772888-131.587508z" fill="#CD7CBB" /><path d="M535.003736 269.16698a15.238972 15.238972 0 0 1-14.938256-18.325372c23.941441-115.885271 91.545585-200.424993 94.044776-203.068446a15.241004 15.241004 0 0 1 22.143243 20.944443c-0.11988 0.125976-14.05846 15.100805-30.542964 43.126291-15.159729 25.776213-44.268198 89.355237-55.796988 145.166448a15.249131 15.249131 0 0 1-14.909811 12.156636z" fill="#FFD15B" /><path d="M519.067835 558.193388l-32.217219 80.156993-77.915848-37.315163a218.476063 218.476063 0 0 1-109.245143-117.839923l-4.26488-10.963932a344.823397 344.823397 0 0 1-22.515074-150.514312l9.366889-126.302632c2.0725-27.95437 35.636844-41.011122 56.057066-21.805953l98.703838 92.837849a305.679557 305.679557 0 0 1 75.453231 111.843896l7.475224 19.215328a218.486222 218.486222 0 0 1-0.898084 160.687849z" fill="#FFCEEC" /><path d="M519.965919 397.507571l-7.475224-19.215328a305.673461 305.673461 0 0 0-75.453231-111.841864l-98.703838-92.83785c-16.067972-15.112997-40.26746-10.240589-50.863625 6.142322 8.279841-0.288525 16.80757 2.501223 23.797179 9.0743l84.466575 77.621228a305.689716 305.689716 0 0 1 75.45323 111.841864l7.475224 19.215328a218.480127 218.480127 0 0 1-0.898084 160.685817l-25.550676 63.568864 34.637167 16.588129 32.217219-80.156993a218.480127 218.480127 0 0 0 0.898084-160.685817z" fill="#FFBEE6" /><path d="M504.932165 558.193388l32.217219 80.156993 77.915848-37.315163a218.486222 218.486222 0 0 0 109.247175-117.839923l4.26488-10.963932a344.823397 344.823397 0 0 0 22.515073-150.514312l-9.366888-126.302632c-2.0725-27.95437-35.636844-41.011122-56.057066-21.805953l-98.703839 92.837849a305.679557 305.679557 0 0 0-75.45323 111.843896l-7.475224 19.215328a218.476063 218.476063 0 0 0 0.896052 160.687849z" fill="#FFCEEC" /><path d="M751.090329 321.719083l-9.366889-126.302632c-2.001385-26.979076-33.326616-40.072401-53.866718-23.691522 6.906302 5.390532 11.809187 13.554558 12.560977 23.691522l10.021148 135.133108a305.703939 305.703939 0 0 1-19.95899 133.430408l-7.475224 19.21736a218.484191 218.484191 0 0 1-109.245143 117.839923l-43.278681 20.727034 6.666543 16.588129 77.915848-37.315163a218.478095 218.478095 0 0 0 109.247175-117.841955l4.26488-10.963932a344.843715 344.843715 0 0 0 22.515074-150.51228z" fill="#FFBEE6" /><path d="M488.994232 266.35285a15.243036 15.243036 0 0 1-14.907779-12.158668c-11.530822-55.809179-40.637259-116.576105-55.796988-142.352318-16.482472-28.023454-30.423084-42.998284-30.563282-43.14661-5.752204-6.128099-5.465711-15.767256 0.650196-21.531651 6.115907-5.762363 15.734747-5.500253 21.511333 0.607527 2.499191 2.641422 70.103335 84.369045 94.044776 200.254316a15.238972 15.238972 0 0 1-11.839665 18.006369 15.115028 15.115028 0 0 1-3.098591 0.321035z" fill="#FFD15B" /><path d="M878.197579 308.174685l-105.711734 27.30011a39.172286 39.172286 0 0 0-27.186326 25.056934c-10.758714 30.870094-35.21828 93.622149-75.130164 156.345758-11.73604 18.44322-40.088656 10.043499-39.99519-11.817315l0.002032-0.944816v-20.619345a305.673461 305.673461 0 0 0-29.772888-131.58954L542.074619 229.600513c-12.067234-25.302789-48.082005-25.302789-60.149238 0l-58.330722 122.305958a305.673461 305.673461 0 0 0-29.772888 131.587508v20.619345l0.002032 0.944816c0.095498 21.858782-28.25915 30.258503-39.99519 11.817315-39.911884-62.723609-64.37145-125.475664-75.130164-156.345758a39.164158 39.164158 0 0 0-27.186326-25.056934L145.800389 308.172653c-17.169242-4.433525-33.907729 8.529761-33.907729 26.26386a188.183018 188.183018 0 0 0 74.526701 149.981963l146.572498 111.069756a349.291463 349.291463 0 0 1 106.713442 133.172362 406.433545 406.433545 0 0 1 36.790942 168.971754v103.474652l35.502741 22.882841 35.502741-22.882841v-103.474652c0-58.310403 12.546754-115.940131 36.790943-168.971754a349.297559 349.297559 0 0 1 106.715473-133.172362l146.572498-111.069756a188.178955 188.178955 0 0 0 74.526701-149.981963c-0.002032-17.732068-16.740519-30.697385-33.909761-26.261828z" fill="#C365AF" /><path d="M500.768878 229.600513l58.330721 122.305958a305.673461 305.673461 0 0 1 29.772888 131.58954v20.619345l-0.002032 0.944816c-0.095498 21.858782 28.25915 30.258503 39.99519 11.817315 0.869637-1.367444 1.733179-2.734888 2.588593-4.102331a22.62073 22.62073 0 0 1-1.278041-7.712952l0.002032-0.944816v-20.619345c0-45.532017-10.171506-90.491048-29.772888-131.58954L542.074619 229.600513c-9.7184-20.377553-34.962266-24.329527-50.72749-11.884367 3.809743 3.007157 7.072915 6.959131 9.421749 11.884367zM209.206704 335.216749a41.039568 41.039568 0 0 1 28.488751 26.17649c10.909072 31.164714 35.285332 93.337688 74.829448 155.484248 10.23043 16.078131 33.084824 11.752295 38.715117-4.102331-38.416433-61.394771-62.057158-122.147473-72.567985-152.318606a39.086947 39.086947 0 0 0-27.15788-24.979723l-105.711734-27.30011c-8.497251-2.194412-16.880717-0.117848-23.189652 4.67938zM878.197579 308.174685l-18.11609 4.67938c6.438974 4.89679 10.718077 12.625996 10.718077 21.58448a188.183018 188.183018 0 0 1-74.526701 149.981963l-146.572497 111.069756a349.297559 349.297559 0 0 0-106.715474 133.172361 406.411194 406.411194 0 0 0-36.790942 168.971755v122.616833l5.803 3.74066 35.502741-22.882841v-103.474652c0-58.310403 12.546754-115.940131 36.790943-168.971755a349.297559 349.297559 0 0 1 106.715473-133.172361l146.572498-111.069756a188.183018 188.183018 0 0 0 74.526701-149.981963c0-17.7341-16.738487-30.699417-33.907729-26.26386z" fill="#B2529F" /><path d="M511.998984 1023.991873l-60.323979-104.301621a459.241663 459.241663 0 0 0-233.308662-198.94986l-53.177917-20.363331c-10.610388-4.063726-18.89023 9.681827-10.338119 17.161115l129.242738 113.034567a163.808791 163.808791 0 0 1 26.424378 29.459981l107.7375 154.112741a23.059613 23.059613 0 0 0 18.898358 9.846408z" fill="#BBF49B" /><path d="M451.677037 919.690252a459.241663 459.241663 0 0 0-233.308663-198.94986l-53.177917-20.363331c-8.653704-3.313968-15.74897 5.217824-13.434677 12.534563 1.95262-0.570953 4.157192-0.575017 6.487738 0.321034 177.021995 53.100706 231.171143 152.13777 312.451756 310.759215h41.305742z" fill="#9BE69D" /><path d="M511.998984 1023.991873l60.323979-104.301621a459.241663 459.241663 0 0 1 233.308663-198.94986l53.177917-20.363331c10.610388-4.063726 18.89023 9.681827 10.338118 17.161115l-129.242738 113.034567a163.808791 163.808791 0 0 0-26.424377 29.459981l-107.735469 154.112741a23.059613 23.059613 0 0 1-18.898358 9.846408z" fill="#BBF49B" /><path d="M858.809543 700.377061l-27.476883 10.520987c-0.211314 2.354929-1.280074 4.705795-3.490741 6.640128l-129.242738 113.034567c-21.342688 14.44045-123.226392 170.780112-141.04583 193.41913h29.289305c7.530084 0 14.584712-3.67564 18.898357-9.846408l107.737501-154.112741a163.796599 163.796599 0 0 1 26.424377-29.457949l129.242738-113.034567c8.554143-7.481319 0.274301-21.226872-10.336086-17.163147z" fill="#9BE69D" /><path d="M683.327699 15.830244m-15.82618 0a15.82618 15.82618 0 1 0 31.652361 0 15.82618 15.82618 0 1 0-31.652361 0Z" fill="#FFC344" /><path d="M511.998984 114.339023m-15.82618 0a15.82618 15.82618 0 1 0 31.652361 0 15.82618 15.82618 0 1 0-31.652361 0Z" fill="#FFC344" /><path d="M340.672301 15.830244m-15.826181 0a15.82618 15.82618 0 1 0 31.652361 0 15.82618 15.82618 0 1 0-31.652361 0Z" fill="#FFC344" /><path d="M511.998984 703.652424a15.238972 15.238972 0 0 1-15.238972-15.238972V544.193852a15.238972 15.238972 0 0 1 30.477944 0v144.2196a15.238972 15.238972 0 0 1-15.238972 15.238972zM511.998984 486.222771a15.238972 15.238972 0 0 1-15.238972-15.238972v-43.991865a15.238972 15.238972 0 0 1 30.477944 0v43.991865a15.238972 15.238972 0 0 1-15.238972 15.238972z" fill="#B2529F" /></svg>