<?xml version="1.0" standalone="no"?><!DOCTYPE svg PUBLIC "-//W3C//DTD SVG 1.1//EN" "http://www.w3.org/Graphics/SVG/1.1/DTD/svg11.dtd"><svg class="icon" width="200px" height="200.00px" viewBox="0 0 1024 1024" version="1.1" xmlns="http://www.w3.org/2000/svg"><path d="M809.275194 735.176411l-20.078227 22.350806a50.960991 50.960991 0 0 1-50.734351 15.267281l-29.079948-7.557407a93.579576 93.579576 0 0 1-66.069624-63.603372l-46.432316-154.29432 185.957962-55.959429 46.432316 154.294321a93.581637 93.581637 0 0 1-19.995812 89.50212z" fill="#EAF6FF" /><path d="M829.268945 645.67223l-46.432315-154.29432-41.396791 12.456948 42.682457 141.837372a93.577516 93.577516 0 0 1-19.995812 89.504181l-20.078227 22.350806a50.907421 50.907421 0 0 1-16.839338 12.343628l11.249576 2.923653a50.965112 50.965112 0 0 0 50.734351-15.267281l20.078227-22.350806a93.569275 93.569275 0 0 0 19.997872-89.504181z" fill="#C8EFFE" /><path d="M740.014068 701.499796a15.458895 15.458895 0 0 1-14.791337-11.004393l-26.46947-87.960969a15.452714 15.452714 0 0 1 10.345077-19.249961 15.452714 15.452714 0 0 1 19.249962 10.345077l26.469469 87.960969a15.452714 15.452714 0 0 1-14.803701 19.909277z" fill="#C8EFFE" /><path d="M800.512474 557.225015c0 18.893518-11.105351 36.447802-28.783255 44.318385-1.854326 0.824145-3.791066 1.545271-5.789617 2.142776-13.042091 3.935291-26.455047 2.101569-37.498586-3.997102-9.580683-5.315734-21.386556-1.64829-26.496254 8.076618a48.500919 48.500919 0 0 1-30.699392 24.394685c-25.445469 6.675573-51.509047-8.900763-59.111782-34.098989l-83.877333-278.746359 54.208121-16.318066 38.776011-11.661649 63.726993-19.181969 29.257139-8.797745 9.044988 30.06068 75.162002 249.798275c1.401046 4.656418 2.080966 9.374647 2.080965 14.01046z" fill="#8379C1" /><path d="M800.512474 557.225015c0 18.893518-11.105351 36.447802-28.783255 44.318385l-26.537461-21.819233a145.094805 145.094805 0 0 1-35.252792-42.649491L582.464376 302.996963l38.776011-11.661649 63.726993-19.181969 38.302127 21.262935 75.162002 249.798275c1.401046 4.656418 2.080966 9.374647 2.080965 14.01046z" fill="#6E61B6" /><path d="M981.680095 634.632811l-13.660199 36.55082c-7.643943 20.479997-33.171826 27.320399-50.066794 13.454163l-127.618815-104.913627a145.094805 145.094805 0 0 1-35.252792-42.649491L621.240387 291.335314l39.249894-27.979714h53.734238l150.530039 83.485864c29.731022 16.482895 53.775445 41.536896 69.022123 71.906629l40.65094 80.951619a168.8652 168.8652 0 0 1 7.252474 134.933099z" fill="#EAF6FF" /><path d="M974.425561 499.705893l-40.642699-80.947498a168.900226 168.900226 0 0 0-69.028304-71.918992l-150.5321-83.475561-22.734033-0.008242-6.531347 8.814228 134.652891 74.669575a168.887864 168.887864 0 0 1 69.028304 71.918992l40.642698 80.947498a168.889924 168.889924 0 0 1 7.260716 134.933099l-13.66432 36.542579a31.71309 31.71309 0 0 1-7.359613 11.451491l2.433287 2.000612c16.884666 13.880658 42.41461 7.021713 50.070915-13.452103l13.66432-36.542579a168.889924 168.889924 0 0 0-7.260715-134.933099z" fill="#C8EFFE" /><path d="M639.392175 625.155147l-48.542126 157.906134c-6.407725 20.892069-31.48233 29.257139-49.160234 16.421085l-31.564744-22.931828a168.92701 168.92701 0 0 1-68.424618-116.534068l-10.775693-89.934796a168.863139 168.863139 0 0 1 17.883941-98.073226l79.447554-152.693419 0.515091-0.432676 30.34913-25.50728 11.249576-9.457061 50.870335 7.417302 24.003216 278.787567c1.607082 18.543257-0.391469 37.230739-5.851428 55.032266z" fill="#EAF6FF" /><path d="M645.245663 570.127002l-24.003216-278.781386-21.318564-3.113207-22.684584 16.357213 22.863835 265.53944a144.967062 144.967062 0 0 1-5.861729 55.019904l-48.525643 157.918497a31.634796 31.634796 0 0 1-8.154912 13.421197l4.120723 2.993706c17.684086 12.848417 42.75869 4.479227 49.178778-16.414903l48.525643-157.918497a144.981485 144.981485 0 0 0 5.859669-55.021964z" fill="#C8EFFE" /><path d="M549.389387 552.35226a15.452714 15.452714 0 0 1-15.440352-15.048884l-1.098173-42.113796a15.452714 15.452714 0 0 1 15.044763-15.850364 15.448593 15.448593 0 0 1 15.850364 15.044762l1.098173 42.113797a15.452714 15.452714 0 0 1-15.044763 15.850364l-0.410012 0.004121zM824.865952 469.577221a15.463016 15.463016 0 0 1-21.304142-4.924265l-124.960948-201.297356h35.623657l115.545094 184.917479a15.456835 15.456835 0 0 1-4.903661 21.304142zM561.881361 422.807006a15.452714 15.452714 0 0 1-15.040642 15.864787h-0.412072c-8.344466 0-15.226074-6.654969-15.452714-15.040642l-2.711436-104.307881 30.855979-25.948197c0.020604 0.185433 0.041207 0.391469 0.041207 0.597505z" fill="#C8EFFE" /><path d="M112.487589 543.025001l-56.552812-224.49703A802.688144 802.688144 0 0 1 32.257098 90.357315L35.341459 13.268875c0.595445-14.865511 21.044536-18.405213 26.603393-4.606969l40.449025 100.426158a232.375855 232.375855 0 0 1 14.167048 51.768653l39.643423 260.003247-5.128241 80.407683z" fill="#BBF49B" /><path d="M116.560925 160.856717a232.23575 232.23575 0 0 0-14.167048-51.768653L61.944852 8.661906C56.385996-5.138398 35.936904-1.596636 35.341459 13.268875l-2.153078 53.810471c4.810945 0.315235 9.485906 3.01637 11.729641 8.587588l12.331265 33.42113a232.375855 232.375855 0 0 1 14.167049 51.768653l36.373628 238.55488a85.85528 85.85528 0 0 1-4.040369 41.874795l-9.912401 27.701565 18.650395 74.037044 38.588518-41.759414 5.128241-80.407683z" fill="#9BE69D" /><path d="M204.843311 477.20056l-59.653658-16.493197L230.101287 153.565096c20.319289-73.499289 87.769356-124.831145 164.02541-124.831145h36.936107c52.994568 0 103.726859 25.229131 135.705736 67.489214l45.783301 60.504587-49.353909 37.346119-45.783301-60.504587c-20.348134-26.889783-52.629884-42.944123-86.349766-42.944122h-36.936108c-48.521522 0-91.440921 32.662917-104.371752 79.431071z" fill="#9BE69D" /><path d="M392.103421 90.625162H355.165253c-48.521522 0-91.440921 32.662917-104.371751 79.431071l-82.146629 297.135089 36.194378 10.007178 84.913694-307.142267c12.823692-46.386987 55.153827-78.878894 103.187044-79.406347-0.280209-0.00206-0.558358-0.024724-0.838568-0.024724zM566.76854 96.223165c-31.978877-42.260083-82.709107-67.489214-135.705736-67.489214H394.126697c-0.280209 0-0.558358 0.016483-0.838568 0.018543 52.563952 0.372926 102.779092 25.527884 134.518967 67.470671l45.783302 60.504587-24.580117 18.598887 14.185591 18.747232 49.353909-37.346119z" fill="#6FD7A3" /><path d="M714.222458 263.363842l-185.957961 55.959428-11.997488-83.508527c-6.012136-41.856252 19.482782-81.819031 59.977135-94.006071 40.492292-12.18498 83.80934 7.069102 101.895197 45.292935z" fill="#BBF49B" /><path d="M678.139341 187.103667c-17.778863-37.57482-59.935927-56.795936-99.826594-45.863655 23.350081 6.409786 43.683793 22.620713 54.682005 45.863655l27.124664 57.327509c4.716168 9.96597-0.541875 21.790387-11.09917 24.967465l-122.626558 36.903142 1.870809 13.021487 185.957961-55.959428z" fill="#9BE69D" /><path d="M55.590696 1005.706047l56.896893-462.681046 43.716759-122.167097h22.070596c40.667423 0 72.353728 35.271335 68.010486 75.705937L191.199594 1009.437362A16.305704 16.305704 0 0 1 174.988667 1024H71.772778c-9.7929 0-17.377092-8.573166-16.182082-18.293953z" fill="#6FD7A3" /><path d="M178.274944 420.857904H156.204348l-1.267123 3.541762c29.502322 9.90622 49.730955 39.332308 46.203616 72.164175L147.192325 997.079312A30.336768 30.336768 0 0 1 120.201584 1024h54.787083a16.305704 16.305704 0 0 0 16.210927-14.562638l55.087896-512.873521c4.341182-40.434602-27.345123-75.705937-68.012546-75.705937z" fill="#3EC3A4" /></svg>