<?xml version="1.0" standalone="no"?><!DOCTYPE svg PUBLIC "-//W3C//DTD SVG 1.1//EN" "http://www.w3.org/Graphics/SVG/1.1/DTD/svg11.dtd"><svg class="icon" width="200px" height="200.00px" viewBox="0 0 1024 1024" version="1.1" xmlns="http://www.w3.org/2000/svg"><path d="M308.047806 923.090227c-3.42015 5.810134-9.086061 9.930797-15.637915 11.537856-7.169953 1.751282-13.6806 5.253845-18.975651 10.07502s-9.395111 10.960962-11.805698 17.945485l-2.472398 7.169953c-1.792488 5.192035-5.212638 9.724764-9.82778 12.732847a47.789384 47.789384 0 0 1-41.824725 5.233242l-6.263407-2.163348-55.093259-19.037461-21.860115-21.860115-21.200809-61.356666a47.809988 47.809988 0 0 1 4.965399-41.433262c3.17291-4.924192 8.097102-8.447358 13.701203-10.13683l1.194992-0.37086a48.687689 48.687689 0 0 0 32.450218-32.079358l0.659306-2.080934c1.689472-5.439275 5.150828-10.219243 9.930796-13.350947 3.584976-2.328174 7.458399-4.161869 11.517252-5.439275 5.974961-1.936711 12.341384-2.657827 18.749015-2.101538l88.594245 7.788053 20.08823 1.771884 1.771885 20.108834 7.788053 88.573642c0.885942 10.033813-1.421629 19.985214-6.448837 28.473778z" fill="#6FD7A3" /><path d="M308.047806 923.090227c-3.42015 5.810134-9.086061 9.930797-15.637915 11.537856-7.169953 1.751282-13.6806 5.253845-18.975651 10.07502s-9.395111 10.960962-11.805698 17.945485l-2.472398 7.169953c-1.792488 5.192035-5.212638 9.724764-9.82778 12.732847a47.789384 47.789384 0 0 1-41.824725 5.233242l-6.263407-2.163348c4.759365-2.286968 9.168474-5.356861 13.021293-9.209681l4.738762-13.763013c4.821175-13.969046 16.42084-24.517942 30.78135-28.020505l8.282532-2.019125c9.992607-9.992607 15.040418-23.899843 13.804219-37.992509L263.73008 802.210591a19.46395 19.46395 0 0 0-17.698246-17.698246l-68.526619-6.036771c5.974961-1.936711 12.341384-2.657827 18.749015-2.101538l108.682475 9.559937 9.559938 108.682476c0.885942 10.033813-1.421629 19.985214-6.448837 28.473778z" fill="#3EC3A4" /><path d="M390.543471 722.207927l-83.834881 83.83488-160.561617 160.541014-4.862382-1.668869c-7.190556-2.472398-12.856467-8.138309-15.328865-15.328864l-1.668868-4.862382 160.561617-160.561617 83.834881-83.814277a15.456605 15.456605 0 1 1 21.860115 21.860115z" fill="#BBF49B" /><path d="M845.773669 197.359134c-3.17291 4.924192-8.097102 8.467962-13.701203 10.13683l-1.194992 0.37086c-15.452485 4.635745-27.608439 16.66808-32.450218 32.079358l-0.638703 2.060331c-1.710075 5.459878-5.171432 10.26045-9.9514 13.37155-8.880028 5.768928-19.511337 8.488565-30.245663 7.540813l-23.87924-2.101538-64.735609-5.686515-20.067627-1.771884-1.771885-20.08823-7.808655-88.614849c-0.885942-10.01321 1.421629-19.96461 6.428233-28.453175 3.440753-5.810134 9.106664-9.9514 15.658518-11.537856 7.169953-1.751282 13.6806-5.274448 18.975651-10.095623s9.395111-10.940359 11.805699-17.924882l2.472397-7.169953c1.813092-5.212638 5.233241-9.724764 9.82778-12.732847 1.751282-1.153786 3.584976-2.183951 5.459878-3.090497A47.682247 47.682247 0 0 1 746.321477 51.508282l61.37727 21.180206 21.860115 21.860115 21.180205 61.377269c4.841779 14.010253 2.86386 29.277308-4.965398 41.433262z" fill="#6FD7A3" /><path d="M845.773669 197.359134c-3.17291 4.924192-8.097102 8.467962-13.701203 10.13683l-1.194992 0.37086c-15.452485 4.635745-27.608439 16.66808-32.450218 32.079358l-0.638703 2.060331c-1.710075 5.459878-5.171432 10.26045-9.9514 13.37155-8.880028 5.768928-19.511337 8.488565-30.245663 7.540813l-23.87924-2.101538c7.169953-2.286968 13.783616-6.263407 19.222891-11.702682l2.86386-9.168474a48.646482 48.646482 0 0 1 32.450218-32.079358l8.488565-2.554811a47.752298 47.752298 0 0 0 11.373029-49.386141l-22.849074-66.219048a24.839354 24.839354 0 0 0-15.349468-15.349468l-59.955641-20.685726v-0.020603A47.682247 47.682247 0 0 1 746.321477 51.508282l61.37727 21.180206 21.860115 21.860115 21.180205 61.377269c4.841779 14.010253 2.86386 29.277308-4.965398 41.433262z" fill="#3EC3A4" /><path d="M829.558862 94.548603l-160.582221 160.58222-68.979892 68.959289c-3.008084 3.028687-6.96392 4.532729-10.919755 4.532729s-7.911672-1.504042-10.919756-4.532729c-6.036771-6.016167-6.036771-15.802741 0-21.839512l208.505526-208.505526 21.035983-21.056586 4.841778 1.668868c7.21116 2.493001 12.856467 8.158912 15.349468 15.349468z" fill="#BBF49B" /><path d="M829.558862 94.548603l-31.687896 31.687895-11.208202-32.491424 21.035983-21.056586 4.841778 1.668868c7.21116 2.493001 12.856467 8.158912 15.349468 15.349468z" fill="#9BE69D" /><path d="M522.979505 75.919087v40.598828a101.362118 101.362118 0 0 1-25.679969 67.418161l-135.252508 33.45772-135.252507-33.45772a101.362118 101.362118 0 0 1-25.679969-67.418161V75.919087C201.112491 33.989285 235.101776 0 277.031579 0c7.330659 0 14.580965 1.05901 21.542823 3.127583a75.861398 75.861398 0 0 1 19.793603 9.110785 80.060353 80.060353 0 0 0 43.676963 12.928579 80.066534 80.066534 0 0 0 43.679023-12.928579 75.758381 75.758381 0 0 1 19.793603-9.110785A75.603857 75.603857 0 0 1 447.058358 0c20.963871 0 39.941582 8.500927 53.688113 22.230975 13.730048 13.748591 22.233035 32.724242 22.233034 53.688112z" fill="#978ECB" /><path d="M255.944088 3.127583c21.106034 7.485184 39.997211 23.918386 63.472626 22.037303 7.454279 0.55835 14.440862-0.719056 21.188447-2.940092a79.860501 79.860501 0 0 1-22.237156-9.984366 75.824312 75.824312 0 0 0-19.793603-9.110785A75.537926 75.537926 0 0 0 277.031579 0a75.943811 75.943811 0 0 0-21.332671 3.059592c0.082413 0.026784 0.164827 0.043267 0.24518 0.067991z" fill="#978ECB" /><path d="M500.746471 22.233035C486.99994 8.500927 468.024289 0 447.058358 0c-7.242064 0-14.403776 1.042528-21.287343 3.061652 31.537491 9.222043 54.578176 38.338645 54.578176 72.857435 1.048709 36.416356 2.060331 80.282869-25.68409 108.014928l10.112106 8.045594 32.518209-8.043533a101.362118 101.362118 0 0 0 25.679969-67.418161V75.919087c0.00206-20.963871-8.498867-39.939522-22.228914-53.686052z" fill="#8379C1" /><path d="M497.297476 183.936076c-0.191611 0.224576-0.385282 0.43267-0.576893 0.640763l-134.675615 148.630239-134.675615-148.630239c-0.191611-0.208093-0.385282-0.416187-0.576893-0.640763a75.651244 75.651244 0 0 1 50.239119-18.992134c7.330659 0 14.580965 1.05901 21.542823 3.127583a75.861398 75.861398 0 0 1 19.793603 9.110785 80.060353 80.060353 0 0 0 43.676963 12.945061 80.066534 80.066534 0 0 0 43.679023-12.945061 75.758381 75.758381 0 0 1 19.793603-9.110785 75.607977 75.607977 0 0 1 21.542824-3.127583c19.264098 0 36.842844 7.169953 50.237058 18.992134z" fill="#8379C1" /><path d="M466.965279 167.595588c-3.290349 5.871944-7.326538 11.368908-12.300178 16.338427-0.319351 0.459454-75.929389 83.801915-113.944562 125.739959l21.324429 23.533104 134.675615-148.630239c0.191611-0.208093 0.385282-0.416187 0.576893-0.640763a75.74808 75.74808 0 0 0-30.332197-16.340488z" fill="#6E61B6" /><path d="M701.027154 398.346512c0 13.826883-3.770406 27.79799-11.677957 40.357769a75.898484 75.898484 0 0 1-32.369865 28.455235c-28.391365 13.153155-46.549065 41.591908-46.549065 72.82241 0 0.368799 0.016483 0.754081 0.016483 1.139363v1.075493a75.910846 75.910846 0 0 1-11.644993 40.42164c-22.32781 35.480965-69.198287 46.1473-104.679252 23.81949l-34.374567-21.623177a101.388903 101.388903 0 0 1-43.629575-58.451599l-4.571875-16.313703 130.070774-208.52613 17.949606-3.160548a101.349756 101.349756 0 0 1 71.588271 14.034977l34.358085 21.623177c22.937668 14.424379 35.51393 39.111269 35.51393 64.325603z" fill="#978ECB" /><path d="M665.513224 334.025029l-34.358085-21.623177a101.335334 101.335334 0 0 0-70.817707-14.152415c9.871047 2.849438 19.383597 8.296954 28.189453 14.154476 33.437116 19.09309 71.880838 42.935244 69.872015 85.942599-0.302869 79.306272-92.531539 60.347103-90.578344 143.85027a75.917027 75.917027 0 0 1-11.647053 40.42164c-12.460884 18.192725-26.856418 28.362521-42.16262 32.650069 31.547793 8.880028 66.447744-3.502563 84.790874-32.650069a75.910846 75.910846 0 0 0 11.644993-40.42164v-1.075493c0-0.385282-0.016483-0.770564-0.016483-1.139363 0-31.230502 18.1577-59.669254 46.549065-72.82241a75.898484 75.898484 0 0 0 32.369865-28.455235 75.494659 75.494659 0 0 0 11.677957-40.357769c0-25.214334-12.576262-49.901224-35.51393-64.321483zM553.567184 337.504929c0 10.907394-2.966877 21.942528-9.207621 31.856842a59.965942 59.965942 0 0 1-25.552228 22.472034 63.344885 63.344885 0 0 0-36.731587 57.489423v1.732739a59.963882 59.963882 0 0 1-9.191138 31.920713c-13.410696 21.285283-37.99869 31.263467-61.338122 27.076874l-49.50152-176.844416 179.572294-31.679654a60.068959 60.068959 0 0 1 11.949922 35.975445z" fill="#8379C1" /><path d="M23.062782 398.346512c0 13.826883 3.770406 27.79799 11.677958 40.357769a75.898484 75.898484 0 0 0 32.369864 28.455235c28.391365 13.153155 46.549065 41.591908 46.549065 72.82241 0 0.368799-0.016483 0.754081-0.016482 1.139363v1.075493a75.910846 75.910846 0 0 0 11.644992 40.42164C147.615989 618.099387 194.486466 628.765722 229.967431 606.437912l34.374567-21.623177a101.388903 101.388903 0 0 0 43.629575-58.451599l4.571876-16.313703-130.070775-208.52613-17.949606-3.160548a101.349756 101.349756 0 0 0-71.588271 14.034977L58.576712 334.020909c-22.937668 14.424379-35.51393 39.111269-35.51393 64.325603z" fill="#978ECB" /><path d="M187.745062 309.976842l-47.902703-8.447358c-4.367902-1.050769-8.797615-1.916108-13.24793-2.616621a100.744019 100.744019 0 0 1 37.930699-0.535686l17.945486 3.152307zM312.539328 510.055614l-4.573936 16.317824a101.382722 101.382722 0 0 1-43.617213 58.451598l-34.386929 21.612876c-19.799784 12.465004-43.163941 14.648955-63.829063 7.952878 19.037461-5.253845 38.116129-16.214807 55.587738-29.586357a101.273524 101.273524 0 0 0 43.617213-58.430995l4.573936-16.317824 13.206723-47.181587z" fill="#8379C1" /><path d="M362.049089 333.217379l-19.346511 69.103512-30.16325 107.734723c-23.343554 4.182473-47.923306-5.789531-61.336063-27.072753a59.974183 59.974183 0 0 1-9.189077-31.935135v-1.730679c0-24.641562-14.298699-47.099173-36.735707-57.483242a60.75917 60.75917 0 0 1-14.401716-9.374508 59.178896 59.178896 0 0 1-11.146392-13.103707 59.537393 59.537393 0 0 1-9.209681-31.852722c0-12.856467 4.141266-25.548108 11.949922-35.973384l63.49941 11.208202z" fill="#8379C1" /><path d="M362.049089 333.217379l-0.006181-0.00206 0.00206-0.008241-179.572294-31.679654a59.125327 59.125327 0 0 0-4.328756 6.755826l54.240281 9.568179c6.762007 1.192932 8.369066 10.390251 2.276667 13.55904l-0.146284 0.074172c-10.816739 7.623226-7.870466 24.414926 4.924192 27.896885 14.360509 1.916108 20.912363 13.0625 15.308261 26.537067-3.955836 16.462047 14.793179 24.785785 27.196373 15.679121a7.169953 7.169953 0 0 1 0.18337-0.082413c8.235144-3.677691 16.970949 4.275187 14.541818 12.961544l-24.748699 88.414997c12.211584 7.054574 26.633903 9.669135 40.625612 7.159651l30.155009-107.728542 0.00412-0.00206z" fill="#6E61B6" /><path d="M373.080103 251.640622l4.281368-4.252523c9.401292-9.337421 25.428609-3.504624 26.627722 9.691798l0.545987 6.009986a15.658518 15.658518 0 0 0 16.905019 14.185381l6.014107-0.504781c13.204663-1.110519 21.732374 13.659996 14.168898 24.540606l-3.444874 4.955097a15.658518 15.658518 0 0 0 3.832216 21.732374l4.930373 3.477839c10.829101 7.637648 7.866345 24.433469-4.920071 27.907188l-5.822496 1.582334a15.658518 15.658518 0 0 0-11.035135 19.111633l1.541128 5.834858c3.385124 12.81114-9.679436 23.774163-21.70765 18.215389l-5.478421-2.532147a15.658518 15.658518 0 0 0-20.737235 7.546994l-2.569233 5.459878c-5.641187 11.989068-22.696609 11.989068-28.337796 0l-2.569234-5.459878a15.656457 15.656457 0 0 0-20.737234-7.546994l-5.478421 2.532147c-12.028214 5.558774-25.092775-5.404249-21.70765-18.215389l1.541127-5.834858a15.658518 15.658518 0 0 0-11.035134-19.111633l-5.822496-1.582334c-12.786416-3.473719-15.749172-20.269539-4.920071-27.907188l4.930372-3.477839a15.658518 15.658518 0 0 0 3.832217-21.732374l-3.444874-4.955097c-7.563476-10.88061 0.964235-25.651125 14.168898-24.540606l6.014107 0.504781a15.658518 15.658518 0 0 0 16.905018-14.185381l0.545988-6.009986c1.199113-13.196422 17.22643-19.02922 26.627722-9.691798l4.281368 4.252523a15.664699 15.664699 0 0 0 22.07439 0z" fill="#FEA95C" /><path d="M446.942979 331.476399l-4.930373-3.477839a15.658518 15.658518 0 0 1-3.832216-21.732374l3.444874-4.955097c7.563476-10.88061-0.964235-25.651125-14.168898-24.540606l-6.014107 0.504781a15.658518 15.658518 0 0 1-16.905018-14.185381l-0.545988-6.009986c-1.199113-13.196422-17.22643-19.02922-26.627722-9.691798l-4.281368 4.252523a15.600829 15.600829 0 0 1-11.896353 4.508005c0.051508 0.317291 0.140103 0.603677 0.179249 0.93333-0.55835 10.460302 5.849281 21.297645 17.453066 20.193307 19.439226-4.578056 30.499084 14.372871 16.736071 28.990922-6.809395 9.506369-0.521264 20.457029 8.76465 25.210213 13.55698 10.064718 4.670771 28.502623-10.746688 29.487462-11.325641 2.907127-13.548739 15.337106-9.489886 24.946491 3.385124 12.81114-9.679436 23.774163-21.707651 18.215389-7.919913-5.056053-15.753293-4.959217-21.505738-0.572772a15.569924 15.569924 0 0 1 4.442074 5.589679l2.569234 5.459878c5.641187 11.989068 22.696609 11.989068 28.337796 0l2.569233-5.459878a15.656457 15.656457 0 0 1 20.737235-7.546994l5.478421 2.532147c12.028214 5.558774 25.092775-5.404249 21.70765-18.215389l-1.541128-5.834858a15.658518 15.658518 0 0 1 11.035135-19.111633l5.822496-1.582334c12.782295-3.471658 15.742991-20.269539 4.91595-27.907188z" fill="#FE9738" /><path d="M978.693882 610.171232l-28.706596 28.706596a101.355937 101.355937 0 0 1-65.829645 29.512185L774.692239 591.156434l-81.811634-114.041397a101.366239 101.366239 0 0 1 29.512185-65.829645l28.706596-28.706596c29.648167-29.648167 77.717757-29.648167 107.365924 0a75.552348 75.552348 0 0 1 13.021293 17.444825 75.764562 75.764562 0 0 1 7.553175 20.438487 80.031509 80.031509 0 0 0 21.742676 40.026056 80.050052 80.050052 0 0 0 40.026056 21.742676 75.832553 75.832553 0 0 1 20.438486 7.553174 75.593555 75.593555 0 0 1 17.444825 13.021294c14.824084 14.824084 22.230975 34.253008 22.241276 53.683992-0.008241 19.426864-7.415132 38.857848-22.239215 53.681932z" fill="#C2BCE0" /><path d="M978.693882 502.805308a75.552348 75.552348 0 0 0-17.444825-13.021294 75.764562 75.764562 0 0 0-20.438487-7.553174c-15.493691-3.288289-29.275247-10.989807-40.026056-21.742676s-18.454387-24.534425-21.742676-40.026056a75.832553 75.832553 0 0 0-7.553174-20.438487 75.593555 75.593555 0 0 0-13.021294-17.444825c-25.06187-25.06187-63.281015-28.935293-92.4141-11.628509 25.397704 1.43193 50.068111 15.106349 62.807139 39.377051 9.632049 20.218031 11.368908 45.195427 29.299971 60.464542 20.265419 23.553707 57.149469 19.097211 77.907308 42.319205 29.648167 29.650228 29.648167 77.715696 0 107.365924-15.147556 16.04586-32.242124 34.009889-52.081055 45.681665l-1.897565 0.776745 2.068573 1.460775a101.366239 101.366239 0 0 0 65.829645-29.512185l28.706596-28.706596c14.824084-14.824084 22.230975-34.253008 22.241276-53.681932-0.010302-19.437165-7.417193-38.866089-22.241276-53.690173z" fill="#ACA6D6" /><path d="M884.15558 668.390013c-0.294627 0.022664-0.578953 0.035026-0.861218 0.045327l-200.328072 9.866927 9.866927-200.328072c0.010302-0.284326 0.022664-0.566591 0.045327-0.861218a75.653305 75.653305 0 0 1 48.953472 22.094993 75.552348 75.552348 0 0 1 13.021293 17.444825 75.764562 75.764562 0 0 1 7.553175 20.438486c3.288289 15.493691 10.979505 29.285549 21.732374 40.038418s24.544727 18.442025 40.038418 21.732374a75.832553 75.832553 0 0 1 20.438487 7.553175 75.593555 75.593555 0 0 1 17.444825 13.021294 75.643003 75.643003 0 0 1 22.094992 48.953471z" fill="#8379C1" /><path d="M876.602406 964.059915a75.486418 75.486418 0 0 1-36.793396 20.279841 75.894363 75.894363 0 0 1-43.009416-2.769085c-29.376204-10.775533-62.325021-3.504624-84.409713 18.578007-0.261662 0.261662-0.521264 0.543927-0.793227 0.815891l-0.760262 0.760262a75.902605 75.902605 0 0 1-36.81606 20.347832c-40.876973 9.300335-81.562335-16.299281-90.86267-57.176253l-9.01807-39.595447a101.378601 101.378601 0 0 1 10.480905-72.181647l8.303135-14.768454 239.424918-55.47442 14.9271 10.458241a101.339455 101.339455 0 0 1 40.695664 60.544896l9.005708 39.585145c6.018228 26.417568-2.544509 52.765084-20.374616 70.595191z" fill="#C2BCE0" /><path d="M668.206077 1001.728952a75.93763 75.93763 0 0 1-32.380167 19.171383 75.548228 75.548228 0 0 0 38.192362 1.176449 75.919087 75.919087 0 0 0 36.81812-20.347832l0.760262-0.760262c0.271964-0.271964 0.533626-0.556289 0.793227-0.815891a80.091258 80.091258 0 0 1 33.424755-20.011998c-25.426548-4.491522-51.048828-6.424113-77.608559 21.588151z" fill="#C2BCE0" /><path d="M896.972901 893.466784l-9.005708-39.585145a101.357998 101.357998 0 0 0-40.695663-60.544895l-14.927101-10.458242h-42.628254c26.42993 16.146816 49.338753 39.752032 55.620704 71.003137 10.143011 37.143652 20.467331 81.187354-11.364788 110.178276-10.75905 10.730205-21.402721 16.474409-31.986643 19.208469a75.855217 75.855217 0 0 0 37.819441 1.071372 75.486418 75.486418 0 0 0 36.793396-20.279841c17.834228-17.830107 26.396964-44.177623 20.374616-70.593131z" fill="#ACA6D6" /><path d="M815.354938 816.770952a59.615686 59.615686 0 0 1-29.036249 16.014955 59.790814 59.790814 0 0 1-17.137836 1.372181 60.01745 60.01745 0 0 1-16.820545-3.549951 63.344885 63.344885 0 0 0-66.624932 14.6778l-1.225898 1.225897a59.980364 59.980364 0 0 1-29.069214 16.072644c-24.534425 5.569075-48.976135-4.763486-62.518692-24.227435l90.046779-160.050655 149.378139 104.576235a60.106045 60.106045 0 0 1-16.991552 33.888329z" fill="#8379C1" /><path d="M789.716175 782.878502c11.81394 7.217341 22.910884 15.938723 32.147349 26.153846a59.935037 59.935037 0 0 0 10.480905-26.153846L682.96629 678.302267l-12.044696 21.410963 118.794581 83.165272z" fill="#6E61B6" /><path d="M397.210703 484.668212a75.486418 75.486418 0 0 0-20.279841 36.793396 75.894363 75.894363 0 0 0 2.769085 43.009416c10.775533 29.376204 3.504624 62.325021-18.578007 84.409712-0.261662 0.261662-0.543927 0.521264-0.815891 0.793228l-0.760263 0.760262a75.902605 75.902605 0 0 0-20.347832 36.81606c-9.300335 40.876973 16.299281 81.562335 57.176254 90.86267l39.595447 9.01807a101.388903 101.388903 0 0 0 72.181646-10.480905l14.768455-8.303135 55.47442-239.424919-10.458242-14.9271a101.339455 101.339455 0 0 0-60.544895-40.695663l-39.585145-9.005708c-26.417568-6.018228-52.765084 2.544509-70.595191 20.374616z" fill="#C2BCE0" /><path d="M682.96629 678.302267l-108.538252 61.068219-51.508282 28.988862c-19.470131-13.55698-29.79239-37.992509-24.229496-62.531055a60.07926 60.07926 0 0 1 16.070584-29.071275l1.215595-1.215595a63.340765 63.340765 0 0 0 14.690162-66.631114c-1.998521-5.418671-3.17291-11.084582-3.543769-16.812303s0.06181-11.496649 1.359818-17.141957a59.537393 59.537393 0 0 1 16.008774-29.030067 60.099864 60.099864 0 0 1 33.89245-16.997734l40.588527 57.977723z" fill="#8379C1" /><path d="M682.96629 678.302267l-108.538252 61.068219c-3.17291-5.418671-3.48196-12.856467 0.391463-19.202287 2.905067-8.097102-1.256802-17.03894-9.333301-20.005817-15.205245-2.328174-22.581231-21.468652-8.138308-30.307473 13.474567-5.562894 16.72989-18.089709 7.932275-29.586358-8.035292-14.854989 7.808656-27.814472 22.189768-22.189768 11.496649 2.142745 18.769618-8.179515 19.161081-18.604791 1.236199-6.90211 6.428234-11.393632 12.341385-12.568021z" fill="#6E61B6" /><path d="M748.445679 628.429888l6.03471 0.020603c13.249991 0.045327 20.45909 15.501933 11.976706 25.68203l-3.863121 4.635745a15.658518 15.658518 0 0 0 1.924349 21.983735l4.608962 3.894026c10.122408 8.552435 5.707118 25.026844-7.33478 27.371501l-5.939935 1.067252a15.658518 15.658518 0 0 0-12.658675 18.077346l1.028105 5.946117c2.256063 13.056319-11.715044 22.838772-23.211692 16.253953l-5.235302-2.999842a15.658518 15.658518 0 0 0-21.316188 5.711238l-3.034868 5.214699c-6.665172 11.453382-23.654664 9.965822-28.228599-2.470338l-2.082995-5.66385a15.658518 15.658518 0 0 0-20.001696-9.32712l-5.678273 2.043849c-12.467065 4.489462-24.526184-7.569657-20.036722-20.036722l2.043849-5.678273a15.658518 15.658518 0 0 0-9.32712-20.001696l-5.66385-2.082995c-12.43616-4.573935-13.921659-21.565488-2.470338-28.228599l5.214699-3.034868a15.658518 15.658518 0 0 0 5.711238-21.316188l-2.999842-5.235302c-6.586879-11.498709 3.195574-25.469815 16.253953-23.211692l5.946116 1.028105a15.658518 15.658518 0 0 0 18.077347-12.658675l1.067252-5.939935c2.344657-13.041897 18.819066-17.455127 27.371501-7.33478l3.894026 4.608961a15.658518 15.658518 0 0 0 21.983735 1.92435l4.635745-3.863121c10.180097-8.482384 25.636702-1.275345 25.68203 11.976706l0.020603 6.03471a15.664699 15.664699 0 0 0 15.60907 15.60907z" fill="#FEA95C" /><path d="M664.509843 594.813522c3.677691-2.917429 7.532571-3.984681 11.115487-3.687993-8.77083-8.723443-24.114117-4.207196-26.374301 8.354644l-0.471816 2.624862c5.342439 0.360558 10.909454-2.041788 15.73063-7.291513z" fill="#FEA95C" /><path d="M769.125224 684.648087l-4.608961-3.894026a15.658518 15.658518 0 0 1-1.924349-21.983735l3.863121-4.635745c8.482384-10.180097 1.275345-25.636702-11.976706-25.68203l-6.03471-0.020603a15.658518 15.658518 0 0 1-15.604949-15.604949l-0.020604-6.03471c-0.045327-13.249991-15.501933-20.45909-25.682029-11.976706l-4.635746 3.863121a15.617311 15.617311 0 0 1-13.243809 3.282108c1.291828 3.263565 1.726558 7.005126 0.951873 10.866187a15.662638 15.662638 0 0 0 15.607009 15.604949c15.089866-3.008084 28.558252 12.446461 18.009356 25.704693-7.790113 7.001006-10.923876 19.196107-1.938772 26.61948 16.983311 10.50769 11.401873 31.729102-8.665753 32.33484-11.535795 1.907867-14.834385 14.096787-11.62851 24.023463 2.468277 16.703106-16.85145 23.456872-28.449054 13.25205-4.794391-2.837076-9.650592-2.659888-13.851607-0.675788 0.729357 1.05901 1.351577 2.210735 1.815151 3.471658l2.082995 5.663851c4.573935 12.43616 21.565488 13.921659 28.228599 2.470337l3.034868-5.214699a15.658518 15.658518 0 0 1 21.316188-5.711238l5.235302 2.999842c11.498709 6.586879 25.469815-3.195574 23.211692-16.253953l-1.028105-5.946116a15.658518 15.658518 0 0 1 12.658675-18.077347l5.939935-1.067252c13.046018-2.350838 17.461308-18.825247 7.3389-27.377682z" fill="#FE9738" /><path d="M682.96629 678.304327m-15.85837 0a15.85837 15.85837 0 1 0 31.71674 0 15.85837 15.85837 0 1 0-31.71674 0Z" fill="#FE9738" /><path d="M362.049089 333.207078m-15.85837 0a15.85837 15.85837 0 1 0 31.71674 0 15.85837 15.85837 0 1 0-31.71674 0Z" fill="#FE9738" /></svg>