<?xml version="1.0" standalone="no"?><!DOCTYPE svg PUBLIC "-//W3C//DTD SVG 1.1//EN" "http://www.w3.org/Graphics/SVG/1.1/DTD/svg11.dtd"><svg class="icon" width="200px" height="200.00px" viewBox="0 0 1024 1024" version="1.1" xmlns="http://www.w3.org/2000/svg"><path d="M896.246612 972.810149l-11.52888-2.395085a149.333502 149.333502 0 0 1-52.022041-21.61665 148.797653 148.797653 0 0 1-23.382518-19.059187l-77.799643-77.799643 35.317344-61.034054 42.380813-22.875084 13.558612-7.327334 24.2756 24.2756 53.524044 53.524043a149.365978 149.365978 0 0 1 40.65554 75.404559l2.395084 11.52888c5.8436 28.233578-19.142406 53.199286-47.373955 47.373955z" fill="#FE646F" /><path d="M943.616507 925.428075l-2.384935-11.52685a149.441078 149.441078 0 0 0-40.671778-75.39644l-77.801673-77.801673-26.92846 14.543033 63.496119 63.25864a149.441078 149.441078 0 0 1 40.671778 75.39644l2.384936 11.52685c3.921443 18.953641-6.056722 36.425578-21.576056 44.108115 1.299029 0.30446 2.596028 0.612979 3.905205 0.882934l11.526851 2.384935c28.237637 5.84157 53.219584-19.142406 47.378013-47.375984z" fill="#FD4755" /><path d="M859.851481 962.965946c-9.519445-3.775302-18.612646-8.524876-27.15782-14.167532 5.074331-7.124361 16.176967-32.374232 0.771298-98.847968-8.768444-37.874807-21.129514-73.212448-24.255302-81.92l13.558613-7.327334 24.275599 24.2756c5.013439 15.791318 11.062042 36.413399 16.095778 58.090941 13.030882 56.20329 10.168959 97.447453-3.288166 119.896293z" fill="#FD4755" /><path d="M524.145919 1024a15.222993 15.222993 0 0 1-15.222993-15.222993V787.775683c0-21.523282 8.380765-41.757685 23.599698-56.978648l37.383612-37.381582c30.957479-30.957479 81.696729-31.32892 113.106838-0.83625l41.069606 40.328753a15.220963 15.220963 0 0 1 0.316638 21.525313 15.222993 15.222993 0 0 1-21.525312 0.318668l-41.069606-40.328754c-19.540234-18.973939-51.110692-18.740519-70.366763 0.519612l-37.383611 37.381582a49.805574 49.805574 0 0 0-14.683084 35.449276V1008.777007a15.227053 15.227053 0 0 1-15.225023 15.222993zM406.610204 1024a15.222993 15.222993 0 0 1-15.222993-15.222993V596.221717c0-8.407152 6.813812-15.222993 15.222993-15.222994s15.222993 6.815841 15.222993 15.222994V1008.777007a15.222993 15.222993 0 0 1-15.222993 15.222993zM286.734208 1024a15.222993 15.222993 0 0 1-15.222993-15.222993v-170.923766c0-8.407152 6.813812-15.222993 15.222993-15.222993s15.222993 6.815841 15.222993 15.222993V1008.777007a15.222993 15.222993 0 0 1-15.222993 15.222993z" fill="#3EC3A4" /><path d="M446.271175 248.155084l-109.747631 109.747632-106.703033-30.080635a226.832745 226.832745 0 0 1-98.807373-57.928563c-17.415104-17.415104-26.122656-40.229296-26.122656-63.063786 0-22.814192 8.707552-45.628385 26.122656-63.043488l101.141566-101.141566c34.809911-34.830208 91.277066-34.830208 126.107274 0 13.720991 13.720991 25.574628 29.086065 35.297047 45.689276 9.742716 16.603211 17.354212 34.444559 22.631516 53.118098z" fill="#FE646F" /><path d="M446.271175 248.155084l-48.571496 48.571497h-109.930307l-54.173558-96.716749a226.863191 226.863191 0 0 1-28.923687-110.843687c0-7.489713 0.91338-14.756155 2.658949-21.69784l24.823628-24.823627c34.809911-34.830208 91.277066-34.830208 126.107274 0 13.720991 13.720991 25.574628 29.086065 35.297047 45.689276 9.742716 16.603211 17.354212 34.444559 22.631516 53.118098z" fill="#FD4755" /><path d="M567.306149 89.166145c0 19.424539-2.496571 38.666402-7.347632 57.279048a227.269138 227.269138 0 0 1-21.576055 53.564639l-54.173558 96.716749h-155.213637l-7.489713-13.355639-14.532884-25.939981-32.150961-57.421129a226.863191 226.863191 0 0 1-28.923687-110.843687c0-24.620654 9.986283-46.907116 26.122656-63.043489S310.443512 0 335.086494 0h143.035242c43.375382 0 79.524916 30.953419 87.522062 71.974311 1.094026 5.561467 1.662351 11.30561 1.662351 17.191834z" fill="#FE646F" /><path d="M446.902422 296.726581h-117.907155l-7.489713-13.355639-14.532884-25.939981c15.162101-14.553181 35.743588-23.504301 58.415699-23.504301 39.133241 0 72.014906 26.650387 81.514053 62.799921z" fill="#FD4755" /><path d="M567.306149 89.166145c0 19.424539-2.496571 38.666402-7.347632 57.279048a227.269138 227.269138 0 0 1-21.576055 53.564639l-54.173558 96.716749h-155.213637l-7.489713-13.355639 91.297364-134.408881c11.366501-15.730426 24.661249-29.857364 39.51889-42.116947a227.045867 227.045867 0 0 1 48.855659-30.750446c21.068622-9.763013 43.964004-10.6155 64.464301-4.120357 1.096056 5.561467 1.664381 11.30561 1.664381 17.191834z" fill="#FD4755" /><path d="M478.123766 0h-41.231984c49.251457 0 89.176293 39.924836 89.176293 89.176293 0 38.810513-9.957867 76.971512-28.923686 110.833539l-54.171529 96.724868h41.231984l54.171529-96.724868a226.828686 226.828686 0 0 0 28.923686-110.833539C567.300059 39.924836 527.375223 0 478.123766 0z" fill="#FD4755" /><path d="M419.744603 397.685471l-64.951437 89.835956a226.997154 226.997154 0 0 1-88.37455 72.867394 88.679009 88.679009 0 0 1-37.46886 8.301605c-4.729277 0-9.458553-0.385649-14.086343-1.13665-28.29447-4.526303-53.909693-22.590922-66.859385-50.540337l-60.181566-129.78109c-20.723568-44.67441-1.299029-97.691021 43.375381-118.414589a226.964678 226.964678 0 0 1 95.397424-21.048325c5.76444 0 11.549177 0.223271 17.313617 0.669812l67.366819 5.15552 43.172408 3.288167 38.422834 82.853677 21.758732 46.927413z" fill="#FE646F" /><path d="M419.744603 397.685471l-64.951437 89.835956a226.997154 226.997154 0 0 1-88.37455 72.867394 88.679009 88.679009 0 0 1-37.46886 8.301605c-4.729277 0-9.458553-0.385649-14.086343-1.13665a90.079524 90.079524 0 0 1-2.293597-20.256729c0-38.808484 9.945689-76.967453 28.923686-110.82339l32.130665-57.400832 22.022596-39.336214h97.224182l21.758732 46.927413z" fill="#FD4755" /><path d="M414.627647 386.664024a83.937554 83.937554 0 0 1-49.261605 15.872507c-46.562061 0-84.294787-37.732725-84.294787-84.294787 0-25.980575 11.731853-49.200714 30.202418-64.646977l43.172408 3.288167z" fill="#FD4755" /><path d="M567.304119 547.297047c0 7.489713-0.933677 14.776452-2.679247 21.738434-9.702121 38.747592-44.7556 67.448008-86.507195 67.448008h-143.035243c-24.620654 0-46.907116-9.986283-63.043489-26.122656s-26.122656-38.443132-26.122656-63.063786c0-38.808484 9.945689-76.967453 28.923687-110.82339l32.130664-57.400832 22.022597-39.336214h155.213637l54.173558 96.737046a227.472111 227.472111 0 0 1 21.576056 53.544341 227.33003 227.33003 0 0 1 7.347631 57.279049z" fill="#FE646F" /><path d="M446.900392 339.736611c-9.499148 36.149534-42.40111 62.799921-81.53435 62.79992-22.672111 0-43.2333-8.95112-58.395402-23.463706l22.022597-39.336214z" fill="#FD4755" /><path d="M567.304119 547.297047c0 7.489713-0.933677 14.776452-2.679247 21.738434l-24.80333 24.80333c-17.415104 17.415104-40.229296 26.122656-63.063786 26.122656-22.814192 0-45.628385-8.707552-63.043488-26.122656a226.899726 226.899726 0 0 1-57.928563-98.827671l-30.080635-106.703033 48.571497-48.571496h109.930307l54.173558 96.737046a227.472111 227.472111 0 0 1 21.576056 53.544341 227.33003 227.33003 0 0 1 7.347631 57.279049z" fill="#FD4755" /><path d="M476.682656 278.570624l-109.745601 109.745602 30.088753 106.698973a226.824626 226.824626 0 0 0 57.918414 98.821582c34.826149 34.826149 91.289245 34.826149 126.113364 0l101.145625-101.145625c34.826149-34.826149 34.826149-91.289245 0-126.113364a226.79824 226.79824 0 0 0-98.821582-57.918414z" fill="#FE646F" /><path d="M682.203211 366.577792a226.79824 226.79824 0 0 0-98.821582-57.918414l-106.698973-30.088754-9.070874 9.070875 74.535833 21.019908a226.824626 226.824626 0 0 1 98.821582 57.918415c34.826149 34.826149 34.826149 91.289245 0 126.113363l-101.145625 101.145626a88.74396 88.74396 0 0 1-42.439675 23.703215c29.096214 6.884852 60.979251-1.006747 83.673689-23.703215l101.145625-101.145626c34.826149-34.826149 34.826149-91.289245 0-126.115393z" fill="#FD4755" /><path d="M393.463627 238.789899l65.296492 140.798478 110.539227 8.451805a226.79418 226.79418 0 0 0 112.7151-20.390691c44.6805-20.719508 64.103009-73.738149 43.381471-118.416619l-60.179536-129.764852c-20.719508-44.6805-73.738149-64.103009-118.416619-43.381471a226.818537 226.818537 0 0 0-88.378608 72.867394z" fill="#FE646F" /><path d="M725.395917 249.232872l-60.179536-129.764852c-18.166105-39.171806-61.155837-58.923132-101.588107-49.237249 25.667996 6.097316 48.39491 23.447469 60.356122 49.237249l60.179537 129.764852c20.719508 44.6805 1.296999 97.69711-43.381471 118.416619a226.80027 226.80027 0 0 1-75.067624 20.116677l3.584508 0.274014a226.79418 226.79418 0 0 0 112.7151-20.390691c44.67847-20.719508 64.100979-73.738149 43.381471-118.416619z" fill="#FD4755" /><path d="M822.760151 760.703112l-91.242561 91.242561-45.880072-45.880071c-18.153927-18.153927-18.153927-47.587076 0-65.741003l25.501558-25.501558c18.153927-18.153927 47.587076-18.153927 65.741003 0z" fill="#BBF49B" /><path d="M776.880079 714.823041c-14.474022-14.474022-36.10488-17.36842-53.487508-8.762355a46.332702 46.332702 0 0 1 12.253494 8.762355l33.22875 33.228749a17.894121 17.894121 0 0 1 0 25.302644l-57.975247 57.975247 20.615992 20.615992 91.242561-91.242561z" fill="#9BE69D" /><path d="M406.604115 318.237685m-84.308995 0a84.308995 84.308995 0 1 0 168.61799 0 84.308995 84.308995 0 1 0-168.61799 0Z" fill="#8379C1" /><path d="M406.604115 233.92869c-7.114212 0-14.017332 0.891053-20.615992 2.549344 36.594046 9.198747 63.693003 42.309772 63.693003 81.759651 0 39.447849-27.096928 72.558874-63.693003 81.759651a84.475433 84.475433 0 0 0 20.615992 2.549344c46.562061 0 84.308995-37.746934 84.308995-84.308995s-37.746934-84.308995-84.308995-84.308995z" fill="#6E61B6" /><path d="M311.746601 846.905847h-46.176413c-14.358327 0-25.998842-11.640515-25.998842-25.998842v-41.836844c0-27.109106 21.977943-49.087049 49.087048-49.087049 27.109106 0 49.087049 21.977943 49.087049 49.087049v41.836844c0 14.360357-11.640515 25.998842-25.998842 25.998842z" fill="#BBF49B" /><path d="M288.658394 729.983112c-7.365899 0-14.346149 1.633935-20.615992 4.540511 16.808214 7.792143 28.471056 24.80333 28.471057 44.546538v41.836844c0 14.358327-11.640515 25.998842-25.998843 25.998842h41.234014c14.358327 0 25.998842-11.640515 25.998843-25.998842v-41.836844c-0.00203-27.109106-21.977943-49.087049-49.089079-49.087049z" fill="#9BE69D" /></svg>