<?xml version="1.0" standalone="no"?><!DOCTYPE svg PUBLIC "-//W3C//DTD SVG 1.1//EN" "http://www.w3.org/Graphics/SVG/1.1/DTD/svg11.dtd"><svg class="icon" width="200px" height="200.00px" viewBox="0 0 1024 1024" version="1.1" xmlns="http://www.w3.org/2000/svg"><path d="M911.80896 608.047515a34.349987 34.349987 0 0 0-0.659309 38.548959 34.00385 34.00385 0 0 1 5.583521 18.72849c0 11.290663-5.542314 22.375291-15.7616 28.927173l-66.816823 42.85507a130.446301 130.446301 0 0 1-70.525436 20.685812c-20.562192 0-40.526886-4.841799-58.43124-13.804277a130.324741 130.324741 0 0 1-46.0692-38.466546l-16.132461-21.530552-41.886711-70.422418v-162.457802l330.849383-53.568838 54.31056 59.873478c10.837388 11.949971 11.888161 29.854325 2.493012 42.999294l-76.809472 107.446726c-0.022664 0.020603-0.06181 0.082414-0.144224 0.185431z" fill="#FFCEEC" /><path d="M988.764716 500.407116a34.310841 34.310841 0 0 0-2.499192-43.001354l-54.310561-59.873478-41.849624 6.778519 48.162506 53.097019a34.30672 34.30672 0 0 1 2.499192 43.001355l-76.811532 107.459088a34.30466 34.30466 0 0 0-0.803533 38.726149c10.431501 15.955272 5.857546 37.353963-10.18632 47.649481l-66.802401 42.871553a130.576102 130.576102 0 0 1-46.48951 18.440042 130.487508 130.487508 0 0 0 23.957633 2.24371 130.56374 130.56374 0 0 0 70.529556-20.685812l66.802401-42.871553c16.043867-10.295519 20.617821-31.694209 10.18632-47.649481a34.30466 34.30466 0 0 1 0.803533-38.726149z" fill="#FFBEE6" /><path d="M912.942147 649.666381c-20.953657 16.709357-55.072886 36.42681-99.555625 36.42681-0.659309 0-1.318618 0-1.977926-0.020604a15.431946 15.431946 0 0 1-15.246515-15.658583c0.103017-8.529807 7.149379-15.390739 15.658583-15.246516 59.749857 0.803533 97.371664-43.905844 99.988296-47.119973a34.349987 34.349987 0 0 0-0.659309 38.548959c0.659309 1.009567 1.256807 2.039737 1.792496 3.069907z" fill="#FFBEE6" /><path d="M285.960108 796.362583l-58.905118 58.884514a147.765518 147.765518 0 0 1-113.874987 42.999294l-50.704965-3.21413-0.700515-0.06181a27.897002 27.897002 0 0 1-24.167788-19.511419c-0.659309-2.080943-1.071377-4.2443-1.2156-6.510674l-3.234734-50.704966a147.885018 147.885018 0 0 1 42.999294-113.89559l58.905118-58.884515a147.769639 147.769639 0 0 1 129.40995-41.186194l34.036815 5.810158c11.682127 1.99853 20.830037 11.146439 22.807963 22.807963l5.830762 34.057419a147.788182 147.788182 0 0 1-41.186195 129.40995z" fill="#BBF49B" /><path d="M327.140122 666.944391l-5.816339-34.042996a27.911425 27.911425 0 0 0-22.812084-22.812083l-34.042996-5.81634a147.703708 147.703708 0 0 0-48.910409-0.142164c0.30493 0.049448 0.6078 0.090655 0.91273 0.142164l34.042996 5.81634a27.911425 27.911425 0 0 1 22.812084 22.812083l5.81634 34.042996a147.812906 147.812906 0 0 1-41.182075 129.412011l-58.894816 58.894816a147.77994 147.77994 0 0 1-84.088653 41.839322l18.196922 1.155851a147.814966 147.814966 0 0 0 113.887349-42.995173l58.894817-58.894816a147.808785 147.808785 0 0 0 41.184134-129.412011z" fill="#9BE69D" /><path d="M516.532748 789.213203v83.299543c0 42.463606-18.254612 82.866871-50.12807 110.928701l-38.136892 33.58354c-0.947756 0.844739-1.957323 1.607065-2.987493 2.286977a27.917606 27.917606 0 0 1-30.905099 0c-1.03017-0.679912-2.039737-1.442238-2.987492-2.286977l-38.136892-33.58354a147.849992 147.849992 0 0 1-50.12807-110.928701v-83.299543c0-47.94411 23.261238-92.92133 62.387092-120.612298l28.18545-19.964694a27.929968 27.929968 0 0 1 32.264923 0l28.18545 19.964694a147.773759 147.773759 0 0 1 62.387093 120.612298z" fill="#BBF49B" /><path d="M454.145655 668.590603l-28.18545-19.960573a27.909364 27.909364 0 0 0-32.260802 0l-7.868438 5.571159 20.317012 14.387354a147.810846 147.810846 0 0 1 62.387092 120.62672v83.289241a147.817027 147.817027 0 0 1-50.12807 110.934882l-32.576034 28.686113 5.552616 4.889186a27.907304 27.907304 0 0 0 36.890386 0l38.12865-33.575299a147.812906 147.812906 0 0 0 50.12807-110.934882v-83.289241a147.800544 147.800544 0 0 0-62.385032-120.62466zM222.151381 729.298518l-160.376858 165.671933a27.897002 27.897002 0 0 1-24.167788-19.511419l162.272372-167.588049a15.479334 15.479334 0 0 1 21.860206-0.412068 15.452549 15.452549 0 0 1 0.412068 21.839603z" fill="#9BE69D" /><path d="M425.278233 691.717918c0-8.533928-6.916561-15.452549-15.45255-15.452549s-15.452549 6.918621-15.452549 15.452549l0.00206 327.594046a27.917606 27.917606 0 0 0 30.905099 0z" fill="#9BE69D" /><path d="M422.890299 451.111424v162.457802l-41.886711 70.422418-16.132461 21.530552a130.324741 130.324741 0 0 1-46.0692 38.466546 130.485447 130.485447 0 0 1-58.43124 13.804277 130.56374 130.56374 0 0 1-70.546039-20.685812l-66.79622-42.85507c-10.219286-6.551881-15.782204-17.63651-15.782204-28.927173 0-5.913176 1.524652-11.888161 4.718179-17.306855 0.288448-0.473878 0.576895-0.947756 0.885946-1.421635 7.746878-11.846954 7.417224-27.21709-0.803533-38.73439l-76.809472-107.446726a34.310841 34.310841 0 0 1 2.493012-42.999294l54.31056-59.873478 181.000861 29.298033z" fill="#FFCEEC" /><path d="M363.779147 441.530843l0.010301 0.008241-90.749731-14.698465c-11.352473 9.127306-18.625473 23.117014-18.625473 38.837408v19.567048c0 19.210609-15.283601 35.648001-34.492151 35.464631-11.713032-0.111258-19.509359 9.438417-19.509358 19.408402 0 4.656368 1.710082 9.39515 5.501107 13.309796l108.318251 111.285139a31.46139 31.46139 0 0 1 2.633114 40.809153 130.324741 130.324741 0 0 1-46.0692 38.466546 130.68324 130.68324 0 0 1-34.42828 11.57911c7.891102 1.483445 15.905824 2.225167 24.00296 2.225167 20.562192 0 40.526886-4.841799 58.43124-13.804277a130.324741 130.324741 0 0 0 46.0692-38.466546l16.132461-21.530552 41.886711-70.422418v-162.457802z" fill="#FFBEE6" /><path d="M439.702673 268.070826l-17.183235 52.002979-10.940405 33.109663-20.706416 62.716747-20.479779 61.995627-116.677049 15.102292-65.745447 8.509204c-47.078767 6.098606-91.89116-22.025034-106.869831-67.064064l-34.387073-103.326047c-0.12362-0.412068-0.267844-0.803533-0.370861-1.2156a57.866707 57.866707 0 0 1-0.556292-31.440787c2.451804-9.45696 7.314207-18.295818 14.339966-25.589422l8.179549-8.467997a58.204602 58.204602 0 0 0 16.256082-40.341456v-17.657113c0-0.247241 0-0.473878 0.020603-0.721119 0.12362-10.693164 3.193527-20.953657 8.612221-29.771911 4.944816-8.035326 11.846954-14.896258 20.273745-19.779264l64.076571-37.250945a58.078922 58.078922 0 0 1 57.318657-0.638705c9.539374 5.253867 20.603399 11.352473 31.852855 17.533492 32.388543 17.739527 66.384152 36.117759 70.19578 37.168532z" fill="#FFBEE6" /><path d="M439.700612 268.070826l-102.790358-95.125894c-3.811629-1.050773-37.807237-19.429005-70.195781-37.168532-1.833703 7.376017-2.781459 15.040481-2.781459 22.828566v72.729999c0 27.855796 12.238419 54.31056 33.45992 72.379741l26.434162 22.498912c6.341726 5.398091 8.356739 14.500672 4.495661 21.87875a51.916445 51.916445 0 0 0-5.915236 24.149244v25.465801a18.151595 18.151595 0 0 1-18.151594 18.151595c-27.526141 0-49.839622 22.313481-49.839623 49.839622v20.314952c0 2.389994-0.247241 4.738782-0.700515 6.984552l116.677049-15.102292 20.479779-61.995627h-0.006181l20.712597-62.716747 10.940405-33.109663z" fill="#FEAEE1" /><path d="M380.991226 683.993704l75.387838 103.688667a111.215088 111.215088 0 0 0 45.214159 36.418568L529.51701 836.370263a111.210967 111.210967 0 0 0 92.626701-1.442238l60.349417-28.78913c20.463296-9.761891 27.649762-35.312166 15.27742-54.31056l-44.179869-67.834631-120.31973-24.087434z" fill="#FFCEEC" /><path d="M697.768488 751.830396l-44.179869-67.834632-28.883905-5.783374-19.111713 5.783374 44.179869 67.834632c12.374402 18.998394 5.187936 44.54867-15.277421 54.31056l-60.349416 28.789129a111.122373 111.122373 0 0 1-23.864917 8.185731 111.180062 111.180062 0 0 0 71.860535-8.185731l60.349416-28.789129c20.465356-9.763951 27.651822-35.312166 15.277421-54.31056zM978.440353 327.058358c-0.329654 1.359824-0.721119 2.719649-1.153791 4.058869l-38.445943 113.813177c-15.844014 46.893336-63.849934 74.934563-112.473955 65.724843l-172.759502-32.759405-69.330438-209.825016 102.810962-95.125894c5.15085-1.421635 65.106741-34.30466 102.048635-54.702024 17.904354-9.889632 39.661543-9.642391 57.318657 0.638705l64.055968 37.250945c3.564388 2.06034 6.840329 4.491541 9.827821 7.169983 8.158946 7.39662 14.030915 16.935994 16.956598 27.484935 1.401031 5.027229 2.142754 10.260493 2.142753 15.617376v17.657113c0 15.040481 5.830762 29.504068 16.256082 40.341456l8.158946 8.467997c6.325244 6.551881 10.878595 14.360569 13.536433 22.725549 3.193527 10.054459 3.646802 20.933054 1.050774 31.461391z" fill="#FFBEE6" /><path d="M963.861387 272.877599l-8.169247-8.48242a58.142792 58.142792 0 0 1-16.260203-40.329093v-17.669475a58.142792 58.142792 0 0 0-28.91481-50.261992L846.459099 118.881613a58.109827 58.109827 0 0 0-53.241244-2.670201c1.778073 0.805593 3.535543 1.677117 5.243565 2.670201l64.060088 37.250945a58.142792 58.142792 0 0 1 28.914811 50.261993v17.669475c0 15.040481 5.828702 29.495826 16.262263 40.329093l8.167187 8.48242a58.138672 58.138672 0 0 1 13.431356 58.247869L890.83882 444.930404c-11.171163 33.056094-38.318202 56.719097-70.397694 64.593716l5.925538 1.122886c48.634324 9.217961 96.6217-18.821205 112.469835-65.716602l38.458305-113.804935a58.142792 58.142792 0 0 0-13.433417-58.24787z" fill="#FEAEE1" /><path d="M721.145104 159.799964v71.699828c0 31.028719-15.164102 60.120719-40.609299 77.901452l-62.67554 43.782224h-214.337161l-58.142793-49.468762a95.055842 95.055842 0 0 1-33.439316-72.379741v-72.729999a95.064084 95.064084 0 0 1 49.386347-83.361352l58.596067-32.100096 27.09347-14.855051 39.476113-21.612966a54.215784 54.215784 0 0 1 51.240653-0.473878l15.802808 8.282567 27.423124 14.360569 89.253925 46.769716a95.057902 95.057902 0 0 1 50.931602 84.185489z" fill="#D691C6" /><path d="M670.2032 75.606233L537.739827 6.197502a54.238448 54.238448 0 0 0-49.182375-0.574834c0.393525 0.193672 0.795291 0.370861 1.184696 0.574834l132.463374 69.408731a95.04348 95.04348 0 0 1 50.931602 84.18755v71.695708a95.047601 95.047601 0 0 1-40.605179 77.909693l-62.669359 43.790465h47.997679l62.669359-43.790465a95.04142 95.04142 0 0 0 40.605179-77.909693V159.793783a95.049661 95.049661 0 0 0-50.931603-84.18755z" fill="#CD7CBB" /><path d="M811.863931 821.216463l-18.021793 3.078148a14.772637 14.772637 0 0 0-12.075652 12.075652l-3.078148 18.021793a78.243468 78.243468 0 0 0 21.800456 68.504242l31.177064 31.177063a78.249649 78.249649 0 0 0 60.287606 22.760575l26.840048-1.703901a14.776758 14.776758 0 0 0 13.808398-13.808398l1.703901-26.840048a78.241408 78.241408 0 0 0-22.760575-60.287606l-31.177063-31.177063a78.243468 78.243468 0 0 0-68.504242-21.800457z" fill="#BBF49B" /><path d="M911.545236 874.191923l-31.177063-31.175003a78.247589 78.247589 0 0 0-68.504242-21.800457l-12.561892 2.146874a78.179598 78.179598 0 0 1 33.070516 19.653583l31.175003 31.175003a78.249649 78.249649 0 0 1 22.760575 60.287606l-1.703901 26.840048a14.774698 14.774698 0 0 1-13.808398 13.808398l-0.527447 0.032965a78.13221 78.13221 0 0 0 21.685077 1.670936l26.840048-1.703901a14.774698 14.774698 0 0 0 13.808398-13.808398l1.703901-26.840048a78.249649 78.249649 0 0 0-22.760575-60.287606z" fill="#9BE69D" /><path d="M653.588619 477.899963H370.390778v-105.664532c0-28.813854 23.358074-52.169867 52.169866-52.169867h178.858108c28.813854 0 52.169867 23.358074 52.169867 52.169867z" fill="#B2529F" /><path d="M601.418752 320.065564h-47.997678c28.811793 0 52.169867 23.358074 52.169866 52.169867v105.664532h47.997679v-105.664532c0-28.813854-23.356013-52.169867-52.169867-52.169867z" fill="#9A4588" /><path d="M792.556486 458.508044v16.72996c0 44.688773-17.739527 87.543843-49.345141 119.128854l-89.624786 89.624786h-272.603574l-127.081766-130.56374c-3.791025-3.894042-5.501108-8.653428-5.501107-13.309796 0-9.910235 7.726275-19.408402 19.325988-19.408402 19.161161 0 34.696124-15.534963 34.696124-34.696124v-20.335555c0-27.526141 22.313481-49.819019 49.819019-49.819019h82.722648c5.171453 0 10.342906 0.144224 15.493756 0.453275 20.685813 1.215601 41.165591 4.862402 61.047871 10.857991l35.149399 10.631354 1.256808 0.370861c8.859462 2.678442 18.419439 1.957323 26.805022-1.99853l3.811629-1.813099 21.283311-10.095665a264.691868 264.691868 0 0 1 113.277488-25.465802h19.75866c32.986042 0 59.708651 26.722609 59.708651 59.708651z" fill="#D691C6" /><path d="M732.849895 398.793212h-19.76278c-6.358209 0-12.701996 0.253422-19.021058 0.708757 28.603699 4.429731 50.498931 29.15793 50.498931 59.004015v16.72996a168.471934 168.471934 0 0 1-49.347201 119.132974l-89.624786 89.626846h47.995618l89.626847-89.626846a168.484296 168.484296 0 0 0 49.347201-119.132974v-16.72996c0-32.979861-26.734971-59.712771-59.712772-59.712772zM580.959577 28.844759c-3.21413 8.200153-21.922017 58.472447-23.075807 124.629961-0.164827 8.447394-7.046362 15.184705-15.45255 15.184705h-0.267844a15.446368 15.446368 0 0 1-15.184705-15.720393c1.359824-78.37533 24.991923-134.952264 26.00149-137.321655 0.164827-0.391465 0.350258-0.762326 0.556292-1.133187zM487.894023 211.184841c0 8.529807-6.922742 15.452549-15.452549 15.452549s-15.452549-6.922742-15.45255-15.452549c0-87.111171-33.562937-160.582893-37.065515-168.041323l27.09347-14.855051c0.12362 0.206034 0.226637 0.412068 0.329655 0.618102 1.648272 3.378957 40.547489 83.711611 40.547489 182.278272z" fill="#CD7CBB" /><path d="M937.295365 190.787476c-12.774107 2.369391-28.988983 10.322303-45.863167 20.768226-34.902158 21.592362-72.606378 53.795475-88.161945 68.73294a15.411343 15.411343 0 0 1-10.713767 4.30611 15.436067 15.436067 0 0 1-10.693164-26.578385c0.90655-0.885946 22.478308-21.530552 50.890395-43.699809 18.955127-14.793241 36.261982-26.578385 51.796946-35.33483 13.227382-7.437827 25.177354-12.691694 35.788104-15.679187 8.158946 7.39662 14.030915 16.935994 16.956598 27.484935zM978.440353 327.058358c-0.350258-0.041207-0.721119-0.082414-1.091981-0.164828-13.165572-2.389994-29.751308-3.193527-46.172217-3.21413-33.975005-0.041207-67.208288 3.337751-67.70277 3.378958a15.411343 15.411343 0 0 1-16.956597-13.763071 15.452549 15.452549 0 0 1 13.763071-16.977201c2.019133-0.206034 33.810178-3.440768 68.114837-3.543785 16.771167-0.041207 34.181039 0.659309 48.994883 2.822666 3.193527 10.054459 3.646802 20.933054 1.050774 31.461391z" fill="#FEAEE1" /><path d="M203.917373 246.210619a15.427825 15.427825 0 0 1-12.444453 6.263434c-3.193527 0-6.407657-0.988963-9.168513-3.0287-0.700516-0.515085-45.636529-33.233283-97.721922-43.76162 0.12362-10.693164 3.193527-20.953657 8.612221-29.771911 58.019172 12.403246 105.4688 47.181784 107.487933 48.685832a15.460791 15.460791 0 0 1 3.234734 21.612965zM172.023311 360.003193c-2.678442 5.459901-8.179549 8.632824-13.886691 8.632824-2.286977 0-4.594558-0.494482-6.799121-1.586462-0.597499-0.288448-58.225206-28.412087-104.994922-37.147928a57.866707 57.866707 0 0 1-0.556292-31.440787l0.515085 0.06181c52.18841 8.30317 115.997137 39.476113 118.675579 40.79473a15.442248 15.442248 0 0 1 7.046362 20.685813z" fill="#FEAEE1" /><path d="M578.528376 434.36086c-1.112584 6.737312-2.554821 15.988238-4.141283 27.278901-3.481974 24.930113-7.623258 59.832271-10.23989 99.905882a15.452549 15.452549 0 0 1-15.411342 14.442983c-0.350258 0-0.679912 0-1.03017-0.020604-8.509204-0.556292-14.958068-7.911705-14.401776-16.441512 3.461371-53.053753 9.436357-96.753562 13.351002-121.724882l1.256808 0.370861c8.859462 2.678442 18.419439 1.957323 26.805022-1.99853zM462.387015 562.884864c-1.710082 0.618102-3.481974 0.90655-5.21266 0.906549-6.325244 0-12.279626-3.935249-14.546-10.239889-0.782929-2.204564-19.346592-54.825645-23.09641-136.992001-0.020603-0.247241-0.020603-0.453275-0.020604-0.700515h15.45255c5.171453 0 10.342906 0.144224 15.493756 0.453275 3.667405 76.891885 21.097881 126.31944 21.262708 126.813921 2.884476 8.035326-1.298014 16.874184-9.33334 19.75866z" fill="#CD7CBB" /><path d="M231.340497 663.223417c0 8.529807-6.922742 15.452549-15.452549 15.45255-48.479798 0-83.114112-16.482719-103.923545-30.657858 0.288448-0.473878 0.576895-0.947756 0.885946-1.421635 7.746878-11.846954 7.417224-27.21709-0.803533-38.73439 1.462841 1.668875 35.58207 39.908784 103.841132 39.908784 8.529807 0 15.452549 6.922742 15.452549 15.452549z" fill="#FFBEE6" /></svg>