<?xml version="1.0" standalone="no"?><!DOCTYPE svg PUBLIC "-//W3C//DTD SVG 1.1//EN" "http://www.w3.org/Graphics/SVG/1.1/DTD/svg11.dtd"><svg class="icon" width="200px" height="200.00px" viewBox="0 0 1024 1024" version="1.1" xmlns="http://www.w3.org/2000/svg"><path d="M528.398422 1024h-32.796844a15.679356 15.679356 0 0 1-15.679356-15.679356V734.214187h64.155556V1008.320644a15.679356 15.679356 0 0 1-15.679356 15.679356z" fill="#BBF49B" /><path d="M511.99794 734.214187V1002.984306c0 9.935066-6.757988 18.598889-16.396362 21.013634h32.796844a15.679356 15.679356 0 0 0 15.679356-15.679356V734.214187z" fill="#9BE69D" /><path d="M387.395479 727.977471l-89.001463 99.074573a152.913896 152.913896 0 0 0-36.631178 74.492393l-7.709875 41.850076c-2.649626 14.379267 15.609304 22.822631 24.850028 11.4927l63.129495-77.407806a133.30543 133.30543 0 0 1 8.58759-9.553899l113.297253-114.463418z" fill="#BBF49B" /><path d="M387.395479 727.977471l-8.336225 9.27781 48.657512 16.202688c-48.972748 47.610848-121.961076 113.45178-161.361381 168.144093-2.591936 3.177078-5.892636 4.798583-9.242784 5.171509l-3.061698 16.618881c-2.649626 14.379267 15.609304 22.822631 24.850027 11.4927l63.129496-77.407805a133.30543 133.30543 0 0 1 8.587589-9.553899l113.297254-114.463418-11.216612-56.746494z" fill="#9BE69D" /><path d="M231.10671 680.5809l-61.429697 35.875026a152.930379 152.930379 0 0 0-64.310083 73.886646l-20.354318 49.487838c-5.622728 13.670503 10.86429 25.707138 22.171557 16.186205l74.690188-62.880192a153.089027 153.089027 0 0 1 13.173955-9.928885l112.444264-75.586445z" fill="#BBF49B" /><path d="M231.10671 680.5809l-13.662261 7.977722 53.847564 19.060411c-55.137351 34.886052-120.908231 71.86131-167.944238 116.389856-4.083638 3.436684-8.836893 4.054793-12.984402 2.808274l-5.350761 13.009126c-5.622728 13.670503 10.86429 25.707138 22.171557 16.186205l74.690188-62.880192a153.089027 153.089027 0 0 1 13.173955-9.928885l112.444264-75.586445z" fill="#9BE69D" /><path d="M636.604521 727.977471l89.001463 99.074573a152.913896 152.913896 0 0 1 36.631178 74.492393l7.709875 41.850076c2.649626 14.379267-15.609304 22.822631-24.850028 11.4927l-63.129495-77.407806a133.30543 133.30543 0 0 0-8.58759-9.553899l-113.297253-114.463418 11.154801-50.377915z" fill="#BBF49B" /><path d="M769.947037 943.392452l-7.709875-41.850075a152.922138 152.922138 0 0 0-36.631178-74.492393l-89.001463-99.074574-28.325859 9.432338c38.019862 43.747669 112.679145 109.423772 117.757937 164.132568l2.765006 15.92866c0.958068 5.204475-0.828266 9.623952-3.92911 12.617658l20.222454 24.796458c9.240724 11.334052 27.499653 2.890688 24.852088-11.49064z" fill="#9BE69D" /><path d="M792.89329 680.5809l61.429697 35.875026a152.930379 152.930379 0 0 1 64.310083 73.886646l20.354318 49.487838c5.622728 13.670503-10.86429 25.707138-22.171557 16.186205l-74.690188-62.880192a153.089027 153.089027 0 0 0-13.173955-9.928885l-112.444264-75.586445z" fill="#BBF49B" /><path d="M938.985327 839.82835l-20.354317-49.487838a152.913896 152.913896 0 0 0-64.312144-73.886647L792.889169 680.57884l-22.315782 7.899428c43.566357 24.557456 95.553415 53.291267 111.85294 101.864304 0.00206-0.00206 7.751082 21.157859 7.751082 21.157859 2.975163 7.233931-0.241062 14.006342-5.602125 17.372973l32.236426 27.13909c11.309328 9.522994 27.796346-2.513642 22.173617-16.184144z" fill="#9BE69D" /><path d="M659.206693 771.15648l-0.063871 0.026785c-32.634076 13.518036-69.092184-0.978672-79.966775-31.795509l-108.605809-307.743929a52.79884 52.79884 0 0 0-2.188104-5.272467L330.78703 139.533925c-14.146446-29.487903 1.378382-65.556602 34.035122-79.082879 32.646438-13.522157 69.114848 0.988974 79.977077 31.824353L551.868007 396.207659c0.632531 1.796636 1.361899 3.556185 2.183984 5.274527l139.204247 290.620259c14.123782 29.483782-1.403107 65.531878-34.049545 79.054035z" fill="#FC8B96" /><path d="M693.256238 692.100385L554.051991 401.480125a53.008997 53.008997 0 0 1-2.183984-5.274527L444.801289 92.275399c-10.223517-29.022261-43.1275-43.574599-74.181278-33.913561 16.303646 5.23538 29.776354 17.156635 35.679291 33.913561L513.36602 396.207659c0.632531 1.796636 1.361899 3.556185 2.183984 5.274527l139.204247 290.620259c14.123782 29.485842-1.403107 65.533938-34.049545 79.056095l-0.063871 0.026785a67.600482 67.600482 0 0 1-5.795799 2.089207c13.697287 4.398873 29.393126 4.083638 44.297786-2.089207l0.063871-0.026785c32.646438-13.524217 48.173327-49.572313 34.049545-79.058155z" fill="#FE646F" /><path d="M156.645222 563.041361l-0.026784-0.063871c-13.518036-32.634076 0.978672-69.092184 31.795508-79.966775l307.74393-108.605809a52.79884 52.79884 0 0 0 5.272466-2.188104l286.835375-137.595104c29.487903-14.146446 65.556602 1.378382 79.082879 34.035122 13.522157 32.646438-0.988974 69.114848-31.824353 79.977077L531.594044 455.700615c-1.796636 0.632531-3.556185 1.361899-5.274527 2.183984l-290.62026 139.204247c-29.483782 14.123782-65.531878-1.401046-79.054035-34.047485z" fill="#FC8B96" /><path d="M867.348596 268.65682c-12.91641-31.18152-46.376691-46.722832-75.042509-35.753464 15.652571 5.754591 29.314832 18.306318 36.540522 35.753464 13.522157 32.646438-0.988974 69.114848-31.824353 79.977077l-303.93226 107.066718c-1.796636 0.632531-3.556185 1.361899-5.274527 2.183984L197.19727 597.088846a53.837262 53.837262 0 0 1-4.013586 1.703919c13.637537 5.014921 28.78738 4.872756 42.515573-1.703919l290.62026-139.204247a53.008997 53.008997 0 0 1 5.274527-2.183984l303.932259-107.066718c30.833319-10.862229 45.34445-47.330639 31.822293-79.977077z" fill="#FE646F" /><path d="M867.348596 562.97749l-0.026784 0.063871c-13.518036 32.634076-49.545528 48.163025-79.029311 34.061907L493.889417 456.291939a52.827685 52.827685 0 0 0-5.276588-2.181924L188.498421 348.580327c-30.853923-10.847807-45.381536-47.328579-31.853199-79.987378 13.522157-32.646438 49.570253-48.173327 79.056095-34.049545l290.62026 139.204247c1.718342 0.822084 3.477891 1.551453 5.274527 2.183984l303.93226 107.066718c30.831259 10.86429 45.342389 47.332699 31.820232 79.979137z" fill="#FC8B96" /><path d="M835.524243 483.000413L531.594044 375.933695a53.008997 53.008997 0 0 1-5.274527-2.183984l-290.62026-139.204246c-13.728193-6.576676-28.878036-6.716781-42.515573-1.70392 1.347477 0.515091 2.688773 1.069328 4.013586 1.70392L487.81753 373.749711c1.718342 0.822084 3.477891 1.551453 5.274527 2.183984l303.932259 107.066718c30.83538 10.862229 45.34651 47.330639 31.824354 79.977077l-0.026785 0.063871c-7.22569 17.445086-20.887951 29.996812-36.542583 35.751404 28.669939 10.971428 62.12816-4.574004 75.04457-35.751404l0.026785-0.063871c13.520096-32.646438-0.991034-69.114848-31.826414-79.977077z" fill="#FE646F" /><path d="M364.824212 771.183265l-0.063871-0.026785c-32.634076-13.518036-48.163025-49.545528-34.061907-79.02931l140.811329-294.403085a52.827685 52.827685 0 0 0 2.181924-5.276587l105.527628-300.11853c10.847807-30.853923 47.328579-45.381536 79.987378-31.853198 32.646438 13.522157 48.173327 49.570253 34.049545 79.056095L554.051991 430.152125a53.008997 53.008997 0 0 0-2.183984 5.274527l-107.066718 303.932259c-10.862229 30.83538-47.330639 45.34651-79.977077 31.824354z" fill="#FC8B96" /><path d="M659.206693 60.47783c-14.90466-6.174905-30.600498-6.48808-44.297786-2.089207a67.600482 67.600482 0 0 1 5.795799 2.089207c32.646438 13.522157 48.173327 49.570253 34.049545 79.056095l-139.204247 290.62026a53.008997 53.008997 0 0 0-2.183984 5.274527L406.299302 739.360972c-5.902938 16.756925-19.375645 28.678181-35.679291 33.91356 31.053778 9.661038 63.957761-4.8913 74.181278-33.91356l107.066718-303.93226c0.632531-1.796636 1.361899-3.556185 2.183984-5.274527l139.204247-290.62026c14.123782-29.485842-1.403107-65.533938-34.049545-79.056095z" fill="#FE646F" /><path d="M96.183896 415.834668v-0.067992c0-35.322848 29.560016-63.457093 64.841656-61.711966l352.301321 17.430663c2.056241 0.100958 4.116604 0.100958 6.170785-0.00412l343.412918-17.354431c35.304305-1.784274 64.905528 26.360273 64.905528 61.709907 0 35.337271-29.580619 63.475637-64.872562 61.709906l-347.85712-17.393577c-2.056241-0.103018-4.114543-0.103018-6.170784 0L161.058518 477.546635c-35.294003 1.76367-64.874622-26.376756-64.874622-61.711967z" fill="#FEA95C" /><path d="M862.910576 354.124762l-24.456498 1.236217c27.87876 5.851428 49.0428 30.584015 49.0428 60.473689 0 29.908217-21.192885 54.655226-49.102551 60.483991l24.549215 1.227976c35.291943 1.76367 64.872562-26.374696 64.872562-61.709906 0.00206-35.351693-29.601223-63.49624-64.905528-61.711967z" fill="#FE9738" /><path d="M806.040461 709.831861l-0.049449 0.049449c-24.97777 24.97777-65.775001 23.968193-89.487708-2.212829L479.714125 446.22707a61.839709 61.839709 0 0 0-4.365907-4.361787L220.246541 211.3087C194.022252 187.606294 192.99001 146.774038 217.986324 121.777724c24.986012-24.986012 65.801785-23.966132 89.508312 2.235493l233.673911 258.270514c1.380443 1.526728 2.837119 2.983404 4.363847 4.363847l258.270514 233.673911c26.203686 23.708587 27.223565 64.524361 2.237553 89.510372z" fill="#FEA95C" /><path d="M803.802908 620.323549L545.532394 386.649639a61.404973 61.404973 0 0 1-4.363847-4.363847L307.494636 124.013217c-17.187541-18.996539-43.362381-24.744949-65.981037-16.95678a61.460602 61.460602 0 0 1 25.66181 16.95678l233.673911 258.270514c1.380443 1.526728 2.837119 2.983404 4.363847 4.363847l258.270514 233.673911c26.203686 23.708587 27.223565 64.522301 2.235493 89.508312l-0.049449 0.049449a61.497689 61.497689 0 0 1-23.525215 14.719227c21.571992 7.419364 46.514735 2.610479 63.846502-14.719227l0.049449-0.049449c24.986012-24.983951 23.966132-65.799725-2.237553-89.506252z" fill="#FE9738" /><path d="M217.986324 709.856586l-0.049449-0.049449c-24.97777-24.97777-23.968193-65.775001 2.212829-89.487708l261.439351-236.789179a61.839709 61.839709 0 0 0 4.361787-4.365907L716.509485 124.062666c23.702406-26.22635 64.534663-27.256531 89.530976-2.260217 24.986012 24.986012 23.966132 65.801785-2.235493 89.508312L545.532394 444.984672a61.404973 61.404973 0 0 0-4.363847 4.363847L307.494636 707.619033c-23.708587 26.203686-64.522301 27.223565-89.508312 2.237553z" fill="#FEA95C" /><path d="M806.040461 121.802449c-17.331766-17.331766-42.276571-22.138591-63.848562-14.719227a61.520353 61.520353 0 0 1 23.527275 14.719227c24.986012 24.986012 23.966132 65.801785-2.235493 89.508312L505.213167 444.984672a61.404973 61.404973 0 0 0-4.363847 4.363847L267.175409 707.619033a61.481206 61.481206 0 0 1-25.66181 16.95678c22.620716 7.788169 48.795556 2.039759 65.981037-16.95678l233.673911-258.270514a61.404973 61.404973 0 0 1 4.363847-4.363847L803.802908 211.310761c26.203686-23.706527 27.223565-64.522301 2.237553-89.508312z" fill="#FE9738" /><path d="M792.889169 415.84291c0 33.542696-27.279195 60.327403-60.244988 60.327403-1.504064 0-3.008129-0.061811-4.512193-0.164829l-123.498107-9.148008-88.183499-6.531348c-2.966921-0.22664-5.933843-0.22664-8.900764 0l-162.933438 12.073722-48.748168 3.605634c-34.964345 2.575453-64.757182-25.095211-64.757181-60.162574v-0.123622c0-35.04676 29.751629-62.69682 64.695371-60.162574l49.077826 3.58503 166.745107 12.17674c2.966921 0.206036 5.933843 0.206036 8.900764-0.020604l84.000964-6.304708 123.539314-9.271629c34.984949-2.637264 64.818993 25.054004 64.818992 60.121367z" fill="#FE646F" /><path d="M614.090944 416.069549c0 17.904547-3.35839 35.026156-9.457063 50.787927l-88.183499-6.531348c-2.966921-0.22664-5.933843-0.22664-8.900764 0l-162.933438 12.073722c-7.561529-17.245231-11.744064-36.303581-11.744064-56.330301 0-20.25336 4.285553-39.517746 12.011912-56.927805l166.745107 12.17674c2.966921 0.206036 5.933843 0.206036 8.900764-0.020604l84.000964-6.304708a140.572327 140.572327 0 0 1 9.560081 51.076377z" fill="#FD4755" /><path d="M728.068116 355.713301l-19.690881 1.47934c26.352032 6.300587 46.253069 30.007114 46.25307 58.65851 0 28.678181-19.938124 52.40119-46.331363 58.674993l19.833046 1.466978c34.964345 2.587815 64.759242-25.082849 64.759242-60.144031 0.00206-35.083846-29.834044-62.762751-64.823114-60.13579z" fill="#FD4755" /><path d="M710.639513 614.420612l-0.082414 0.082414c-24.786156 24.786156-65.37529 23.302696-88.286518-3.214165l-68.774888-79.591789-72.710179-84.145189c-1.93674-2.245795-4.03831-4.347364-6.304708-6.284105l-118.697463-102.132151-39.064466-33.604506c-26.599275-22.890623-28.123943-63.541568-3.317183-88.368932 11.826479-11.826479 27.237987-17.657303 42.628893-17.657303 16.874366 0 33.728128 7.046438 45.698832 20.933279l49.016015 56.865995 89.584545 103.883459c1.93674 2.266398 4.03831 4.367968 6.284105 6.304708l64.818992 55.877021 95.951065 82.723539c26.558068 22.890623 28.062132 63.520965 3.255372 88.327725z" fill="#FE646F" /><path d="M707.382081 526.092887l-160.759756-138.602621a58.116635 58.116635 0 0 1-4.262889-4.106301c-0.68404-0.725247-1.380443-1.436072-2.029457-2.196346l-46.438502-53.849625-92.168239-106.901889c-16.563251-19.210817-42.408434-25.299187-64.825174-17.815952a59.952417 59.952417 0 0 1 26.562188 17.815952l44.011396 51.047532c6.073948 7.044378 4.281433 17.918969-3.791066 22.540362a141.029728 141.029728 0 0 0-47.899299 45.111628l118.697462 102.132151c2.266398 1.93674 4.367968 4.03831 6.304708 6.284105l72.71018 84.145189a140.906106 140.906106 0 0 0 50.056498-62.134341l65.628715 56.581665c26.545706 22.886503 28.020925 63.516844 3.205923 88.270035l-0.098897 0.098897a59.977142 59.977142 0 0 1-23.49637 14.552338c20.898253 6.955783 44.961222 2.243734 61.757295-14.552338l0.098897-0.098897c24.792338-24.792338 23.290334-65.426799-3.263613-88.321544z" fill="#FD4755" /><path d="M728.31742 259.852893c0 16.874366-7.046438 33.707524-20.933279 45.678228l-96.033479 82.805954-64.736578 55.81521c-2.245795 1.93674-4.347364 4.03831-6.284105 6.284105l-89.934807 104.316135-48.665753 56.453922c-22.890623 26.537464-63.541568 28.041529-88.327725 3.255372l-0.103018-0.103018c-24.765553-24.765553-23.282092-65.37529 3.214165-88.265914l38.920241-33.62511 124.837341-107.859957a60.512836 60.512836 0 0 0 6.284105-6.304708l66.982373-77.840482 68.754284-79.921447c22.87002-26.599275 63.541568-28.123943 88.348328-3.317183a60.047194 60.047194 0 0 1 17.677907 42.628893z" fill="#FE646F" /><path d="M710.647755 217.219879c-16.798132-16.798132-40.861102-21.50606-61.757295-14.552337a59.983323 59.983323 0 0 1 23.494309 14.552337c24.792338 24.792338 23.290334 65.424739-3.263613 88.319484l-65.721431 56.664079c-10.400708-25.064305-27.845794-46.465287-49.862824-61.740812l-66.982373 77.840482a60.512836 60.512836 0 0 1-6.284105 6.304708l-124.837341 107.859957a140.990581 140.990581 0 0 0 50.41294 46.846454c6.846583 3.758101 8.523718 12.838116 3.424322 18.753416l-45.808031 53.130558a59.952417 59.952417 0 0 1-26.562189 17.815952c22.41674 7.483235 48.261923 1.394865 64.823114-17.815952l48.667814-56.447741h0.00412l89.934807-104.316135c1.93674-2.245795 4.03831-4.347364 6.284105-6.284104l64.736578-55.81521 96.031419-82.795652c26.553947-22.892684 28.055951-63.527146 3.265674-88.319484z" fill="#FD4755" /><path d="M512.018543 831.63429h-0.067992c-35.322848 0-63.457093-29.560016-61.711966-64.841657l17.430663-352.301321c0.100958-2.056241 0.100958-4.116604-0.00412-6.170785l-17.354431-343.412918C448.524363 29.601243 476.66891 0.000021 512.018543 0.000021c35.337271 0 63.475637 29.580619 61.709906 64.872562l-17.393577 347.857119c-0.103018 2.056241-0.103018 4.114543 0 6.170785l17.393577 347.85712c1.76573 35.294003-26.374696 64.876683-61.709906 64.876683z" fill="#FEA95C" /><path d="M556.334872 418.902547c-0.103018-2.056241-0.103018-4.114543 0-6.170784l17.393577-347.85712C575.49418 29.58064 547.353754 0.000021 512.018543 0.000021a61.749053 61.749053 0 0 0-19.252023 3.061698c25.71744 8.42276 43.887774 33.241883 42.459942 61.810864l-17.393577 347.857119c-0.103018 2.056241-0.103018 4.114543 0 6.170785l17.393577 347.85712c1.429891 28.581343-16.756925 53.412828-42.492908 61.823226a61.773777 61.773777 0 0 0 19.216997 3.049336h0.070053c35.337271 0 63.475637-29.580619 61.709906-64.872562z" fill="#FE9738" /><path d="M512.035026 696.709415h-0.140104c-35.036458 0-62.69682-29.75369-60.148152-64.695371l15.745287-215.827054a60.312981 60.312981 0 0 0-0.010302-8.904885l-15.586639-207.532036c-2.626962-34.98907 25.051943-64.825174 60.13785-64.825174 35.061182 0 62.731846 29.794897 60.144031 64.759242l-15.669054 211.681606a60.568466 60.568466 0 0 0 0 8.902824l15.669054 211.681606c2.589875 34.966406-25.080788 64.759242-60.141971 64.759242z" fill="#FE646F" /><path d="M556.512063 420.268567a60.003926 60.003926 0 0 1 0-8.902824l15.666994-211.681606c2.587815-34.964345-25.082849-64.759242-60.144031-64.759242-6.702358 0-13.128628 1.096113-19.130462 3.100845 25.398084 8.484571 43.106897 33.375806 41.013568 61.658397l-15.666993 211.681606a60.568466 60.568466 0 0 0 0 8.902824l15.666993 211.681606c2.095388 28.307315-15.64639 53.221214-41.08156 61.683121a60.244989 60.244989 0 0 0 19.06041 3.076121h0.140105c35.061182 0 62.731846-29.794897 60.144031-64.759242z" fill="#FD4755" /><path d="M511.752757 416.065429m-140.609414 0a140.609414 140.609414 0 1 0 281.218827 0 140.609414 140.609414 0 1 0-281.218827 0Z" fill="#FFD15B" /><path d="M511.752757 275.456015a141.526275 141.526275 0 0 0-19.130463 1.330994c68.599757 9.337561 121.478951 68.115572 121.478951 139.27842s-52.877134 129.940859-121.478951 139.278419a141.526275 141.526275 0 0 0 19.130463 1.330994c77.655049 0 140.609414-62.952305 140.609413-140.609413s-62.954365-140.609414-140.609413-140.609414z" fill="#FFC344" /><path d="M512 415.816125m-15.858607 0a15.858607 15.858607 0 1 0 31.717214 0 15.858607 15.858607 0 1 0-31.717214 0Z" fill="#FFC344" /></svg>