<?xml version="1.0" standalone="no"?><!DOCTYPE svg PUBLIC "-//W3C//DTD SVG 1.1//EN" "http://www.w3.org/Graphics/SVG/1.1/DTD/svg11.dtd"><svg class="icon" width="200px" height="200.00px" viewBox="0 0 1024 1024" version="1.1" xmlns="http://www.w3.org/2000/svg"><path d="M912.741226 355.531976h-112.392757l33.588024-59.214809 55.955316-29.648612c5.542374 2.946318 11.167163 7.149457 14.607968 12.918471 0.020604 0.020604 0.020604 0.041207 0.041207 0.061811l26.1666 44.400805c8.220845 13.928048-1.813119 31.482334-17.966358 31.482334z" fill="#FEA95C" /><path d="M912.741226 355.531976h-46.605393c16.153239 0 26.187203-17.554286 17.986962-31.482334l-19.223179-32.59493 5.492925-14.45344 19.499268-10.332717c5.542374 2.946318 11.167163 7.149457 14.607968 12.918471 0.020604 0.020604 0.020604 0.041207 0.041207 0.061811l26.1666 44.400805c8.220845 13.928048-1.813119 31.482334-17.966358 31.482334z" fill="#FE9738" /><path d="M223.653097 355.531976H111.26034c-16.153239 0-26.187203-17.554286-17.966358-31.482334l19.223179-32.59493 6.943421-11.805875c0.041207-0.082414 0.103018-0.164829 0.144225-0.247243 3.461408-5.6866 9.024386-9.807324 14.50495-12.733039l68.855243 29.842286z" fill="#FEA95C" /><path d="M223.653097 355.531976H177.068308l-64.551147-64.077264 6.943421-11.805875c0.041207-0.082414 0.103018-0.164829 0.144225-0.247243 3.461408-5.6866 9.024386-9.807324 14.50495-12.733039l68.855243 29.842286z" fill="#FE9738" /><path d="M512.000783 451.359421v128.216338l-113.505352-50.520081-174.842334-173.523702-89.54334-88.863421c8.014809-4.26495 15.864789-5.933843 16.66833-6.098672 0.041207-0.020604 0.061811-0.020604 0.061811-0.020603l140.351871-11.414407a133.808161 133.808161 0 0 1 100.689899 34.160805l76.027364 68.754286a133.849368 133.849368 0 0 1 44.091751 99.309457z" fill="#FE646F" /><path d="M467.913153 352.052024l-76.027364-68.762527a133.913239 133.913239 0 0 0-100.689899-34.154624l-14.970592 1.217674a133.86173 133.86173 0 0 1 69.067461 32.93695l76.027364 68.762527a133.913239 133.913239 0 0 1 44.08763 99.317698v107.466431l46.59303 20.745787v-128.212218a133.913239 133.913239 0 0 0-44.08763-99.317698z" fill="#FD4755" /><path d="M889.891809 266.668555l-24.992193 24.786157-64.551147 64.077264-174.842334 173.523702-113.505352 50.520081v-128.216338c0-37.848853 16.009014-73.925795 44.09175-99.309457l76.027365-68.754286a133.701022 133.701022 0 0 1 77.803396-34.028942c0.327598-0.030905 0.653135-0.05563 0.980732-0.084474a132.742954 132.742954 0 0 1 8.616435-0.461522c2.410624-0.061811 4.841851-0.041207 7.273078 0.061811 1.998551 0.061811 4.017706 0.185433 6.016258 0.350262l140.351871 11.414406s0.020604 0 0.061811 0.020604c0.803541 0.166889 8.653521 1.835783 16.66833 6.100732z" fill="#FE646F" /><path d="M889.891809 266.668555l-24.992193 24.786157-64.551147 64.077264-174.842334 173.523702-113.505352 50.520081v-20.747848l66.89996-29.772233 249.86012-247.985191c7.458511-7.376097 2.802093-20.109135-7.643943-20.953883l-119.933682-9.766117c6.036861-0.947767 12.156137-1.504064 18.337223-1.627686 2.410624-0.041207 4.841851-0.020604 7.273078 0.061811 1.998551 0.061811 4.017706 0.185433 6.016258 0.350261l140.351871 11.414407s0.020604 0 0.061811 0.020603c0.803541 0.164829 8.653521 1.833722 16.66833 6.098672z" fill="#FD4755" /><path d="M512.000783 579.58194l-108.447163-89.992499a196.694535 196.694535 0 0 0-125.60998-45.330029H165.680686a152.357602 152.357602 0 0 0-135.730479 83.147976L1.818022 582.579767c-6.733264 13.202801 6.407726 27.734535 20.220395 22.36111l67.322334-26.193384a88.296821 88.296821 0 0 1 38.815163-5.74635l277.975823 21.468974z" fill="#FC8B96" /><path d="M403.55362 489.589441a196.694535 196.694535 0 0 0-125.60998-45.330029h-46.59303a196.694535 196.694535 0 0 1 125.60998 45.330029l108.447163 89.992499-89.335244 12.566149 30.077167 2.322028 105.849047-14.888177z" fill="#FE646F" /><path d="M512.000783 579.58194l108.447163-89.992499a196.690414 196.690414 0 0 1 125.60998-45.330029h112.262954a152.357602 152.357602 0 0 1 135.730478 83.147976l28.134246 55.174439c6.733264 13.202801-6.407726 27.734535-20.220395 22.361111l-67.322334-26.193385a88.296821 88.296821 0 0 0-38.815162-5.74635l-277.975823 21.468974z" fill="#FC8B96" /><path d="M1022.183544 582.579767l-28.134246-55.174439a152.357602 152.357602 0 0 0-135.730479-83.147976h-57.484104c60.836314 4.083638 118.503791 21.322688 146.617432 83.154157 0.004121-0.006181 28.136306 55.166197 28.136306 55.166197 2.171622 4.256708 2.254036 8.643219 0.937465 12.465191l25.435171 9.89592c13.814728 5.375485 26.953658-9.156249 20.222455-22.35905z" fill="#FE646F" /><path d="M637.827101 169.460668v168.022535c0 38.363944-10.281207 76.130382-29.731026 109.199195l-78.170141 132.893361h-35.850302l-78.170141-132.893361a215.581875 215.581875 0 0 1-29.731026-109.199195v-168.022535c0-8.529899 6.922817-15.452716 15.452716-15.452716s15.452716 6.922817 15.452717 15.452716v168.022535c0 32.862777 8.797746 65.210463 25.466076 93.540443l54.002093 91.809738v-256.164829c0-8.529899 6.922817-15.452716 15.452716-15.452716s15.452716 6.922817 15.452716 15.452716v256.164829l54.002093-91.809738a184.600209 184.600209 0 0 0 25.466076-93.540443v-168.022535c0-8.529899 6.922817-15.452716 15.452717-15.452716s15.452716 6.922817 15.452716 15.452716z" fill="#FFD15B" /><path d="M855.834022 942.858817l-184.938108-99.577304a215.703437 215.703437 0 0 1-98.258672-110.517827l-54.455373-137.570382-6.181086-15.617545 29.689819-13.206922 14.010463-6.242897a180.483606 180.483606 0 0 1 140.702132-2.596057l43.865111 17.616097c69.228169 27.794286 117.811509 91.068008 126.835895 165.117424l21.922254 179.931429c2.204588 18.213602-17.039195 31.358712-33.192435 22.663984z" fill="#FE646F" /><path d="M889.020276 920.192773l-21.911952-179.927308c-9.018205-74.047356-57.620089-137.316958-126.840016-165.119485l-43.869231-17.620217a180.456821 180.456821 0 0 0-90.439598-11.476218 180.467123 180.467123 0 0 1 43.848628 11.476218l43.869231 17.620217c69.219928 27.802527 117.821811 91.072129 126.840016 165.119485l21.911952 179.927308c0.632531 5.192113-0.484185 9.968032-2.769127 13.946591l16.175904 8.711211c16.1553 8.696789 35.403203-4.442141 33.184193-22.657802z" fill="#FD4755" /><path d="M512.000783 579.575759l-6.181087 15.617545-54.455372 137.570382a215.703437 215.703437 0 0 1-98.258672 110.517827l-184.938108 99.577304c-16.153239 8.694728-35.397022-4.450382-33.192435-22.663984l21.922253-179.931429c9.024386-74.049416 57.607726-137.323139 126.835896-165.117424l43.86511-17.616097c45.327968-18.213602 96.095292-17.265835 140.702133 2.596057l14.031067 6.242897z" fill="#FE646F" /><path d="M468.306682 560.12594a180.512451 180.512451 0 0 0-96.857625-14.078455 180.329078 180.329078 0 0 1 50.264595 14.078455l43.694101 19.453939-60.634399 153.192049a215.637505 215.637505 0 0 1-98.271034 110.503404l-168.751903 90.864032c5.736048 9.982455 18.864676 14.929384 30.415066 8.711211l184.929867-99.573183a215.637505 215.637505 0 0 0 98.271035-110.503404l60.634398-153.192048z" fill="#FD4755" /><path d="M277.216332 733.136612a15.452716 15.452716 0 0 1-13.328483-23.249127 301.435107 301.435107 0 0 1 24.893296-36.301521 15.452716 15.452716 0 0 1 24.12272 19.317956 270.698624 270.698624 0 0 0-22.330205 32.572265 15.444475 15.444475 0 0 1-13.357328 7.660427zM512.000783 579.575759l-6.181087 15.617545c-19.614648 1.009577-84.31002 7.746962-144.019315 51.055774a15.452716 15.452716 0 0 1-9.065594 2.946318 15.411509 15.411509 0 0 1-12.506398-6.387122c-5.027284-6.902213-3.482012-16.565312 3.420201-21.571992 51.87992-37.622213 106.129256-50.478873 138.682978-54.867445zM754.855672 731.032982a15.47332 15.47332 0 0 1-7.788169 2.101569 15.411509 15.411509 0 0 1-13.351147-7.664547c-67.971348-116.307445-188.152274-128.937465-215.534487-130.2767l-6.181086-15.617545 29.689819-13.206922c16.276861 2.183984 38.075493 6.510744 62.305352 14.999437 46.6466 16.338672 111.630423 51.87992 156.402093 128.525392 4.306157 7.355493 1.813119 16.833159-5.542375 21.139316z" fill="#FD4755" /><path d="M402.199962 190.659734c-16.04404 0-29.049046-13.005006-29.049046-29.049046v-54.166921c0-16.04404 13.005006-29.049046 29.049046-29.049047s29.049046 13.005006 29.049046 29.049047v54.166921c0 16.04404-13.007066 29.049046-29.049046 29.049046zM622.376445 190.659734c-16.04404 0-29.049046-13.005006-29.049046-29.049046v-54.166921c0-16.04404 13.005006-29.049046 29.049046-29.049047s29.049046 13.005006 29.049046 29.049047v54.166921c0 16.04404-13.007066 29.049046-29.049046 29.049046zM512.287173 287.867622c-16.04404 0-29.049046-13.005006-29.049046-29.049047v-54.166921c0-16.04404 13.005006-29.049046 29.049046-29.049046s29.049046 13.005006 29.049047 29.049046v54.166921c0 16.04198-13.005006 29.049046-29.049047 29.049047z" fill="#FEA95C" /></svg>