<?xml version="1.0" standalone="no"?><!DOCTYPE svg PUBLIC "-//W3C//DTD SVG 1.1//EN" "http://www.w3.org/Graphics/SVG/1.1/DTD/svg11.dtd"><svg class="icon" width="200px" height="200.00px" viewBox="0 0 1024 1024" version="1.1" xmlns="http://www.w3.org/2000/svg"><path d="M528.217866 3.388839l-0.008301-0.004151a40.508349 40.508349 0 0 0-32.41498 0l-0.008301 0.004151c-47.398088 20.694121-103.053488 82.247304-129.265626 117.092369-21.876998 29.080097-23.89204 68.650445-10.073131 102.314709l48.881872 119.074207c17.761832 43.268395 59.901305 71.520478 106.672676 71.520478s88.910844-28.252083 106.672676-71.520478l48.881873-119.074207c13.820984-33.664264 11.803867-73.232536-10.073132-102.314709-26.212139-34.845066-81.867538-96.398248-129.265626-117.092369z" fill="#FFD15B" /><path d="M657.483492 120.481208c-26.212139-34.845066-81.867538-96.398248-129.265626-117.092369l-0.008301-0.004151a40.508349 40.508349 0 0 0-32.41498 0l-0.008301 0.004151a130.890526 130.890526 0 0 0-6.918792 3.299604c45.78564 23.298526 97.400581 80.62863 122.348909 113.792765 21.876998 29.080097 23.89204 68.650445 10.073131 102.314709l-48.881872 119.074207c-14.771436 35.982288-46.406132 61.561484-83.538093 69.16095a115.243346 115.243346 0 0 0 23.134583 2.357453c46.771371 0 88.910844-28.252083 106.672677-71.520478l48.881872-119.074207c13.816833-33.664264 11.801792-73.232536-10.075207-102.312634z" fill="#FFC344" /><path d="M528.217866 1020.613236l-0.008301 0.004151a40.508349 40.508349 0 0 1-32.41498 0l-0.008301-0.004151c-47.398088-20.694121-103.053488-82.247304-129.265626-117.092369-21.876998-29.080097-23.89204-68.650445-10.073131-102.314709l48.881872-119.074207c17.761832-43.268395 59.901305-71.520478 106.672676-71.520478s88.910844 28.252083 106.672676 71.520478l48.881873 119.074207c13.820984 33.664264 11.803867 73.232536-10.073132 102.314709-26.212139 34.845066-81.867538 96.398248-129.265626 117.092369z" fill="#FFD15B" /><path d="M667.556624 801.206158l-48.881873-119.074207c-17.761832-43.26632-59.901305-71.520478-106.672676-71.520478-7.87547 0-15.616051 0.819713-23.134583 2.357453 37.131961 7.601541 68.766657 33.180737 83.538092 69.16095l48.881873 119.074207c13.820984 33.664264 11.803867 73.232536-10.073131 102.314709-24.948328 33.164135-76.561194 90.494239-122.348909 113.792765a130.116468 130.116468 0 0 0 6.918792 3.299604l0.008301 0.004151a40.508349 40.508349 0 0 0 32.41498 0l0.008301-0.004151c47.398088-20.694121 103.053488-82.247304 129.265626-117.092369 21.879074-29.080097 23.894115-68.648369 10.075207-102.312634z" fill="#FFC344" /><path d="M1020.614274 528.216828l0.00415-0.008301a40.508349 40.508349 0 0 0 0-32.414979l-0.00415-0.008301c-20.694121-47.398088-82.247304-103.053488-117.09237-129.265627-29.080097-21.876998-68.650445-23.89204-102.314708-10.073131l-119.074207 48.881872c-43.268395 17.761832-71.520478 59.901305-71.520478 106.672677s28.252083 88.910844 71.520478 106.672676l119.074207 48.881872c33.664264 13.820984 73.232536 11.803867 102.314708-10.073131 34.845066-26.212139 96.398248-81.867538 117.09237-129.265627z" fill="#FFD15B" /><path d="M1020.614274 495.783172c-20.694121-47.398088-82.247304-103.053488-117.09237-129.265627-23.396062-17.599964-53.578102-22.323171-82.012804-16.309176 12.795824 2.861732 24.989833 8.219957 35.743637 16.309176 34.845066 26.212139 96.398248 81.867538 117.09237 129.265627l2.37198 5.430858a26.948843 26.948843 0 0 1 0 21.569865l-2.37198 5.430858c-20.694121 47.398088-82.247304 103.053488-117.09237 129.265627-10.75588 8.091294-22.949889 13.449519-35.743637 16.309175 28.436778 6.013996 58.616742 1.290789 82.012804-16.309175 34.845066-26.212139 96.398248-81.867538 117.09237-129.265627l0.00415-0.008301a40.508349 40.508349 0 0 0 0-32.414979z" fill="#FFC344" /><path d="M413.387489 512.001038c0 23.387761-7.055757 45.613397-19.527846 64.207392a115.249572 115.249572 0 0 1-39.387728 36.357903c-4.025932 2.282745-8.238634 4.316463-12.596603 6.101155l-119.076282 48.892249c-33.660113 13.820984-73.234612 11.808018-102.308483-10.085583-34.863743-26.210064-96.41485-81.867538-117.104821-129.265627a40.508349 40.508349 0 0 1 0-32.414979c20.689971-47.398088 82.241078-103.055563 117.104821-129.265627 29.073871-21.8936 68.648369-23.906566 102.308483-10.085582l119.076282 48.892248c4.357968 1.784692 8.57067 3.81841 12.596603 6.101155a115.268249 115.268249 0 0 1 58.915574 100.565296z" fill="#FFD15B" /><path d="M413.387489 512.001038c0 23.387761-7.055757 45.613397-19.527846 64.207392a115.249572 115.249572 0 0 1-39.387728 36.357903c-16.705543-19.195811-26.811878-44.264502-26.811879-71.698947v-57.732697c0-27.434445 10.106335-52.503136 26.811879-71.698947a115.268249 115.268249 0 0 1 58.915574 100.565296z" fill="#FFC344" /><path d="M540.876725 650.080135h-57.749299c-60.312199 0-109.206523-48.892249-109.206524-109.206523v-57.749299c0-60.312199 48.892249-109.206523 109.206524-109.206523h57.749299c60.312199 0 109.206523 48.892249 109.206523 109.206523v57.749299c-0.002075 60.314275-48.894324 109.206523-109.206523 109.206523z" fill="#FEA95C" /><path d="M540.876725 373.919865h-46.269167c60.312199 0 109.206523 48.892249 109.206523 109.206523v57.749299c0 60.312199-48.894324 109.206523-109.206523 109.206523h46.269167c60.312199 0 109.206523-48.892249 109.206523-109.206523v-57.749299c-0.002075-60.314275-48.894324-109.206523-109.206523-109.206523z" fill="#FE9738" /><path d="M416.28035 173.463721a15.564171 15.564171 0 0 1-12.42851-24.9172c6.013996-7.999984 12.756394-16.317477 20.040427-24.720053a15.564171 15.564171 0 0 1 23.520575 20.391139c-6.812956 7.856793-13.098806 15.60775-18.679081 23.034972a15.543419 15.543419 0 0 1-12.453411 6.211142zM607.754929 173.505226a15.543419 15.543419 0 0 1-12.453412-6.211142c-24.512531-32.607975-58.695601-66.826324-83.309818-83.888806-4.51776 3.12321-9.396609 6.854461-14.586741 11.152248a15.566246 15.566246 0 0 1-19.853656-23.9792c9.658087-7.997909 18.606447-14.418648 26.589829-19.087899a15.574547 15.574547 0 0 1 15.713587 0c32.014462 18.720585 74.703869 63.016215 100.326645 97.097599a15.566246 15.566246 0 0 1-12.426434 24.9172zM512.002075 974.636676a15.568321 15.568321 0 0 1-7.856793-2.127103c-32.014462-18.720585-74.703869-63.016215-100.326645-97.097599a15.566246 15.566246 0 0 1 24.881921-18.706058c24.512531 32.6059 58.689375 66.820098 83.301517 83.884655 24.612142-17.066632 58.776535-51.262153 83.268314-83.841075a15.564171 15.564171 0 0 1 24.881921 18.706058c-25.602023 34.054406-68.272754 78.327208-100.293441 97.056094a15.566246 15.566246 0 0 1-7.856794 2.125028zM866.072434 623.305611a15.566246 15.566246 0 0 1-9.36548-28.005131c32.6059-24.512531 66.820098-58.689375 83.884655-83.301518-17.066632-24.612142-51.262153-58.776535-83.841076-83.268313a15.564171 15.564171 0 0 1 18.706059-24.881921c34.054406 25.602023 78.327208 68.272754 97.056093 100.293441a15.570396 15.570396 0 0 1 0 15.713587c-18.720585 32.014462-63.016215 74.703869-97.097598 100.326645a15.51229 15.51229 0 0 1-9.342653 3.12321zM157.888137 623.274483a15.489463 15.489463 0 0 1-9.340578-3.123211c-34.054406-25.602023-78.327208-68.272754-97.056094-100.293441a15.570396 15.570396 0 0 1 0-15.713587c18.720585-32.014462 63.016215-74.703869 97.097598-100.326645a15.566246 15.566246 0 0 1 18.706058 24.881921c-32.6059 24.512531-66.820098 58.689375-83.884655 83.301518 17.066632 24.612142 51.262153 58.776535 83.841076 83.268313a15.564171 15.564171 0 0 1-9.363405 28.005132z" fill="#FFC344" /><path d="M508.021798 524.686874a15.562096 15.562096 0 0 1-15.564171-15.56417c0-95.022376 14.640697-190.816734 23.367009-239.462031 1.514913-8.460683 9.608281-14.101139 18.066889-12.5717a15.564171 15.564171 0 0 1 12.5717 18.06689c-8.541617 47.626363-22.875181 141.351724-22.875181 233.964765a15.566246 15.566246 0 0 1-15.566246 15.566246zM441.959156 527.569359a15.564171 15.564171 0 0 1-13.856262-8.454458c-0.595589-1.157974-60.698191-116.967856-163.757904-223.356227a15.564171 15.564171 0 0 1 0.348637-22.007737 15.562096 15.562096 0 0 1 22.007737 0.348637c106.421574 109.858143 166.580207 225.906676 169.089152 230.793826a15.566246 15.566246 0 0 1-13.83136 22.675959zM574.215179 524.655746c-0.520881 0-1.045912-0.026978-1.57717-0.080934-8.52709-0.861217-14.754834-8.425404-13.928895-16.95457 0.201297-2.071072 5.40388-51.345162 48.004053-108.214566a15.564171 15.564171 0 0 1 24.915125 18.660403c-37.030275 49.433882-41.896673 92.193847-41.942328 92.619267-0.840465 7.995833-7.599466 13.9704-15.470785 13.9704z" fill="#EAF6FF" /><path d="M688.032847 334.162747m-15.97299 0a15.97299 15.97299 0 1 0 31.94598 0 15.97299 15.97299 0 1 0-31.94598 0Z" fill="#FEA95C" /><path d="M512.172243 584.31425m-15.972989 0a15.97299 15.97299 0 1 0 31.945979 0 15.97299 15.97299 0 1 0-31.945979 0Z" fill="#FE9738" /><path d="M574.202727 572.348516m-15.972989 0a15.97299 15.97299 0 1 0 31.945979 0 15.97299 15.97299 0 1 0-31.945979 0Z" fill="#FE9738" /><path d="M449.330347 572.348516m-15.972989 0a15.97299 15.97299 0 1 0 31.945979 0 15.97299 15.97299 0 1 0-31.945979 0Z" fill="#FE9738" /><path d="M544.116148 204.847315m-15.97299 0a15.97299 15.97299 0 1 0 31.945979 0 15.97299 15.97299 0 1 0-31.945979 0Z" fill="#FEA95C" /><path d="M225.480217 232.808867m-15.972989 0a15.97299 15.97299 0 1 0 31.945979 0 15.97299 15.97299 0 1 0-31.945979 0Z" fill="#FEA95C" /></svg>