<?xml version="1.0" standalone="no"?><!DOCTYPE svg PUBLIC "-//W3C//DTD SVG 1.1//EN" "http://www.w3.org/Graphics/SVG/1.1/DTD/svg11.dtd"><svg class="icon" width="200px" height="200.00px" viewBox="0 0 1024 1024" version="1.1" xmlns="http://www.w3.org/2000/svg"><path d="M721.530912 313.048738c22.773137-9.333422 45.51949 13.41087 36.186068 36.184008a55.069249 55.069249 0 0 0 12.016008 59.822495l19.097458 19.097459c48.871692 48.871692 128.106881 48.871692 176.976513 0a198.674144 198.674144 0 0 0 54.885878-176.572683l-23.749747-128.582824A61.334798 61.334798 0 0 0 947.766465 73.820568l-128.582824-23.749747a198.674144 198.674144 0 0 0-176.572683 54.885877c-48.871692 48.871692-48.871692 128.106881 0 176.976513l19.097458 19.097459a55.065129 55.065129 0 0 0 59.822496 12.018068z" fill="#6FD7A3" /><path d="M1020.694897 251.582077l-23.749747-128.582823A61.338919 61.338919 0 0 0 947.766465 73.820568l-128.582824-23.749747a198.525798 198.525798 0 0 0-58.573919-2.01297c4.541029 0.51715 9.079998 1.176464 13.610726 2.01297l128.582823 23.749747a61.340979 61.340979 0 0 1 49.178686 49.178686l23.749747 128.582823a198.674144 198.674144 0 0 1-54.885877 176.572683 124.525979 124.525979 0 0 1-66.007691 34.601653c39.035543 7.093813 80.790759-4.423589 110.968823-34.601653a198.670023 198.670023 0 0 0 54.887938-176.572683z" fill="#3EC3A4" /><path d="M941.088844 252.622558l-81.093631-19.997835 58.660453-58.660453a15.452685 15.452685 0 0 0-21.852157-21.854218l-58.660454 58.662514-19.997835-81.093632a15.452685 15.452685 0 0 0-30.007054 7.400806l24.470872 99.228903-56.797889 56.79789-51.284372-101.149157a15.452685 15.452685 0 0 0-27.56553 13.975409l55.889272 110.231215c-19.229321 20.383122-74.020422 96.016805-94.988686 172.361311a15.452685 15.452685 0 0 0 29.803078 8.185802c19.633152-71.488242 71.189491-138.247963 88.653086-159.383116l124.163355 46.250917a15.446504 15.446504 0 0 0 5.391957 0.97661 15.456806 15.456806 0 0 0 5.396078-29.937002l-111.667284-41.594508 54.857032-54.857032 99.228903 24.470872c1.242396 0.304933 2.486852 0.453279 3.712765 0.453279a15.460927 15.460927 0 0 0 3.688041-30.468575zM743.762175 997.93235a15.456806 15.456806 0 0 1-14.045461-8.991402c-30.299625-65.781051-57.448963-151.796878-73.225124-219.37044a15.452685 15.452685 0 0 1 30.09771-7.025821c15.302279 65.54823 41.769638 149.577872 71.197732 213.467514a15.452685 15.452685 0 0 1-14.024857 21.920149zM622.751167 997.934411a15.458866 15.458866 0 0 1-14.653267-10.557275l-81.732342-216.420007a15.452685 15.452685 0 0 1 29.312714-9.799063l81.732342 216.420007a15.452685 15.452685 0 0 1-14.659447 20.356338z" fill="#BBF49B" /><path d="M427.616718 429.312681a82.17738 82.17738 0 0 0 57.232626-65.816076l5.81639-36.894832a483.932773 483.932773 0 0 1 32.866832-114.434345l21.532801-50.507616a86.300156 86.300156 0 0 0 3.170891-58.98393c-15.619574-51.288492-73.736093-76.068418-121.559063-51.832427l-72.503999 36.744425a169.773501 169.773501 0 0 1-56.058221 17.072127z" fill="#FC8B96" /><path d="M377.646855 612.503234a75.957159 75.957159 0 0 1-17.8427 25.239386l-96.012684 89.54316c-11.270158 10.507826-23.694117 19.676419-36.983427 27.340951a203.089491 203.089491 0 0 1-30.658128 14.44311l-35.499968 13.206895c-43.782608 16.297432-92.468868-5.975038-108.786904-49.737043l-46.522884-124.981318c-16.297432-43.762005 5.975038-92.468868 49.757646-108.7663l35.499969-13.227499a203.081249 203.081249 0 0 1 78.499641-12.609391l85.793308 3.214159h0.267846l45.121841 1.710097c30.61692 1.1538 57.5458 20.60358 68.218454 49.324971l10.672655 28.618373c1.298026 3.482005 2.328205 7.025821 3.090537 10.59024 3.33778 15.617514 1.627683 31.729514-4.615202 46.090209zM450.109647 555.812483l10.656172-28.618373a75.839719 75.839719 0 0 1 68.228756-49.324971l131.187116-4.926316a203.130698 203.130698 0 0 1 78.49552 12.623814l35.502029 13.219257c43.776427 16.299492 66.050958 65.000175 49.751466 108.776602l-46.529066 124.964835c-16.299492 43.776427-65.000175 66.050958-108.776602 49.751465l-35.502029-13.219257a203.122456 203.122456 0 0 1-67.637433-41.788181l-96.020926-89.524617a75.835598 75.835598 0 0 1-19.355003-81.934258z" fill="#FE646F" /><path d="M774.17924 498.783833l-35.502029-13.219257a203.130698 203.130698 0 0 0-78.49552-12.623813l-18.872879 0.708763a203.064766 203.064766 0 0 1 52.407266 11.91505l35.502029 13.219257c43.776427 16.299492 66.050958 65.000175 49.751466 108.776602l-46.529066 124.964836c-9.844391 26.440575-31.517297 45.016763-56.779346 52.007557 41.83969 11.585393 86.310458-10.563456 101.740479-52.007557l46.529066-124.964836c16.299492-43.776427-5.975038-92.47711-49.751466-108.776602zM377.646855 612.503234a75.957159 75.957159 0 0 1-17.8427 25.239386l-96.012684 89.54316c-11.270158 10.507826-23.694117 19.676419-36.983427 27.340951 2.019151-6.860992 4.409166-13.618967 7.170046-20.253319l50.396357-121.231467a75.130955 75.130955 0 0 1 8.00037-14.521403c3.663317-5.198283 3.10496-12.31682-1.574113-16.622969-23.141941-21.299981-37.640681-51.828306-37.640681-85.758282 0-4.759427 0.28845-9.43644 1.998547-20.067887l45.121841 1.710097c30.61692 1.1538 57.5458 20.60358 68.218454 49.324971l10.672655 28.618373c1.298026 3.482005 2.328205 7.025821 3.090537 10.590241a75.856201 75.856201 0 0 1-4.615202 46.088148z" fill="#FD4755" /><path d="M548.236258 102.677942c-13.857968-45.505067-61.167909-70.111923-105.063837-58.159786 27.491357 7.444074 51.004163 28.294897 60.098584 58.159786 13.806459 34.826232-12.084 78.095811-24.701633 109.491547a484.14705 484.14705 0 0 0-32.870952 114.432284c-2.581629 28.964513-8.873962 59.457812-27.013354 80.323058l8.931652 22.389911a82.17738 82.17738 0 0 0 57.232626-65.816077l5.81639-36.894831a483.932773 483.932773 0 0 1 32.866832-114.434345l21.532801-50.507617a86.287794 86.287794 0 0 0 3.170891-58.98393zM429.905776 566.410965h-30.538627a75.841779 75.841779 0 0 0-70.031569 46.72892l-50.392237 121.223225a203.095672 203.095672 0 0 0-15.559823 77.968068v37.881743c0 46.712437 37.86732 84.579757 84.579757 84.579757h133.346372c46.712437 0 84.579757-37.86732 84.579757-84.579757v-37.881743a203.151302 203.151302 0 0 0-15.559824-77.968068l-50.392237-121.223225a75.841779 75.841779 0 0 0-70.031569-46.72892z" fill="#FE646F" /><path d="M550.329582 734.36311l-50.392237-121.223225a75.841779 75.841779 0 0 0-70.031569-46.72892h-30.538627c-2.429162 0-4.827419 0.156587-7.211253 0.383227 27.699453 2.641379 51.991074 20.294527 62.820317 46.345693l50.392236 121.223225a203.093611 203.093611 0 0 1 15.559824 77.966008v37.881743c0 46.712437-37.86732 84.579757-84.579757 84.579757h44.963193c46.712437 0 84.579757-37.86732 84.579757-84.579757v-37.881743a203.134819 203.134819 0 0 0-15.561884-77.966008z" fill="#FD4755" /><path d="M188.372065 129.645969L112.351035 158.420929c-50.142933 18.977958-71.022602 78.606779-43.67753 124.721713a86.287794 86.287794 0 0 0 45.698741 37.426403l51.820065 18.149694a483.850358 483.850358 0 0 1 106.672976 52.881149l31.169097 20.578856a82.17944 82.17944 0 0 0 127.169418-75.413224l-3.10702-37.220368a483.957497 483.957497 0 0 1 4.767668-118.965073l8.931652-54.175054a86.287794 86.287794 0 0 0-10.919897-58.050587c-27.347132-46.114933-89.683264-56.39406-130.387698-21.499836L238.776664 99.758415a169.855916 169.855916 0 0 1-50.404599 29.887554z" fill="#FE646F" /><path d="M430.874144 68.354438c-20.041103-33.793992-58.866489-48.311275-94.203689-39.942101 15.753497 5.729856 32.081835 18.205324 49.238436 39.944161 21.796528 30.489178 6.632292 78.823117 1.992366 112.223581a483.957497 483.957497 0 0 0-4.767668 118.965073l3.104959 37.218307c4.784151 41.003185-24.39876 74.922859-60.203661 85.618178 21.57813 6.372687 45.228979 3.74161 65.191788-8.097207a82.17532 82.17532 0 0 0 39.975066-77.51891l-3.10702-37.220368a483.957497 483.957497 0 0 1 4.767669-118.965073l8.931652-54.175054a86.287794 86.287794 0 0 0-10.919898-58.050587z" fill="#FD4755" /><path d="M414.636463 496.237231m-116.521488 0a116.521488 116.521488 0 1 0 233.042976 0 116.521488 116.521488 0 1 0-233.042976 0Z" fill="#8379C1" /><path d="M414.636463 379.715743c-7.693377 0-15.205442 0.766453-22.480567 2.1881 53.591973 10.478981 94.040921 57.673542 94.040922 114.333388s-40.448949 103.854407-94.040922 114.333388a116.952103 116.952103 0 0 0 22.480567 2.1881c64.353223 0 116.521488-52.168265 116.521488-116.521488s-52.168265-116.521488-116.521488-116.521488z" fill="#6E61B6" /><path d="M419.785297 458.174177l3.712766-1.720399c7.009338-3.247124 15.238408 0.717005 17.070066 8.220828l0.970429 3.974431a12.265311 12.265311 0 0 0 6.428317 8.060121l3.659195 1.829597c6.90838 3.45522 8.939893 12.360088 4.215493 18.47111l-2.501275 3.236823a12.25913 12.25913 0 0 0-2.293178 10.050426l0.850928 4.001215c1.605019 7.555333-4.089811 14.696534-11.812033 14.811914l-4.089811 0.061811a12.25913 12.25913 0 0 0-9.288094 4.473037l-2.598111 3.160589c-4.905712 5.966797-14.03928 5.966797-18.944992 0l-2.598112-3.160589a12.263251 12.263251 0 0 0-9.288094-4.473037l-4.08981-0.061811c-7.724282-0.11538-13.417051-7.256581-11.812033-14.811914l0.850928-4.001215a12.271492 12.271492 0 0 0-2.293178-10.050426l-2.501275-3.236823c-4.724401-6.111022-2.692888-15.015889 4.215492-18.47111l3.659196-1.829597a12.265311 12.265311 0 0 0 6.428317-8.060121l0.970429-3.974431c1.831658-7.503824 10.060728-11.465892 17.070066-8.220828l3.712765 1.720399a12.217923 12.217923 0 0 0 10.295609 0z" fill="#C2BCE0" /></svg>