<?xml version="1.0" standalone="no"?><!DOCTYPE svg PUBLIC "-//W3C//DTD SVG 1.1//EN" "http://www.w3.org/Graphics/SVG/1.1/DTD/svg11.dtd"><svg class="icon" width="200px" height="200.00px" viewBox="0 0 1024 1024" version="1.1" xmlns="http://www.w3.org/2000/svg"><path d="M607.076634 518.456158l-95.077664-25.093202-95.077664 25.093202a281.408953 281.408953 0 0 0-56.503486 169.139592v4.042438c0 44.850054 10.720086 89.051093 31.266059 128.917121l84.128877 163.236642c15.158115 29.411729 57.212252 29.411729 72.370367 0l84.128878-163.236642a281.411013 281.411013 0 0 0 31.266059-128.917121v-4.042438a281.388349 281.388349 0 0 0-56.501426-169.139592z" fill="#FFD15B" /><path d="M607.076634 518.456158l-24.477152-6.459249-16.171815 6.459249a281.408953 281.408953 0 0 1 56.503486 169.139592v4.042438c0 44.850054-10.720086 89.051093-31.268119 128.917121l-84.128878 163.236642c-3.846704 7.462647-9.428236 13.023576-15.8607 16.699269 18.912102 10.808682 45.198256 5.247753 56.509667-16.699269l84.128878-163.236642a281.413073 281.413073 0 0 0 31.268119-128.917121v-4.042438a281.404832 281.404832 0 0 0-56.503486-169.139592zM511.996909 681.18389a15.452747 15.452747 0 0 1-15.452747-15.452748v-147.274984c0-8.534037 6.91665-15.452747 15.452747-15.452748s15.452747 6.91871 15.452748 15.452748v147.274984a15.452747 15.452747 0 0 1-15.452748 15.452748z" fill="#FFC344" /><path d="M511.996909 793.995127a15.452747 15.452747 0 0 1-15.452747-15.452748v-41.207326c0-8.534037 6.91665-15.452747 15.452747-15.452747s15.452747 6.91871 15.452748 15.452747v41.207326a15.452747 15.452747 0 0 1-15.452748 15.452748z" fill="#FFC344" /><path d="M416.913064 396.822432v121.644028l-142.968819 49.016114a226.475466 226.475466 0 0 1-151.745979-1.751311l-107.077238-39.456015c-19.078992-7.025849-20.438834-33.52216-2.163384-42.46415l149.541387-73.204815c18.522693-9.065612 38.879112-13.783851 59.503379-13.783851z" fill="#FFD15B" /><path d="M416.921306 396.814191h-40.648967v0.006181h-62.583627l2.266403 17.801565a111.822261 111.822261 0 0 0 22.066523 53.71375l17.669701 23.150276c10.1267 13.266699 4.279381 32.553788-11.507145 37.96637l-110.888916 38.017879a226.393051 226.393051 0 0 1-53.237805 11.286687 226.423957 226.423957 0 0 0 93.886772-11.286687l142.950276-49.005813h0.020604v-0.006181l0.008241-0.00206-0.00206-121.641967z" fill="#FFC344" /><path d="M169.048936 507.674261a15.452747 15.452747 0 0 1-2.425051-30.71182l189.088058-31.60602a15.452747 15.452747 0 0 1 4.889249 30.516086l-189.088058 31.606019a15.673207 15.673207 0 0 1-2.464198 0.195735z" fill="#FFC344" /><path d="M416.913064 310.637309v207.829151l-82.929744-55.774117-11.332015-7.623355a386.881165 386.881165 0 0 1-120.428411-129.885493l-80.292476-141.341129c-5.789629-10.198813 2.451836-22.684633 14.11351-21.345395l63.644715 7.252489a203.996869 203.996869 0 0 1 89.110844 32.327148c7.458526 4.883068 14.607997 10.301832 21.407206 16.173875z" fill="#FFD15B" /><path d="M416.913064 310.637309v207.829151l-82.929744-55.774117a111.824322 111.824322 0 0 1-18.028205-48.068346l-27.155628-212.547389c7.458526 4.883068 14.607997 10.301832 21.407206 16.173875z" fill="#FFC344" /><path d="M607.076634 518.456158l142.979121 49.016115a226.4425 226.4425 0 0 0 151.743919-1.732768l107.071056-39.462197c19.091354-7.036151 20.445015-33.52216 2.171626-42.46827l-149.543448-73.206876a135.349584 135.349584 0 0 0-59.50956-13.78385h-194.910654v121.637846z" fill="#FFD15B" /><path d="M1011.040296 483.806977l-149.543448-73.206875a135.349584 135.349584 0 0 0-59.50956-13.783851h-40.648967a135.343403 135.343403 0 0 1 59.50956 13.783851l149.543448 73.206875c18.275449 8.946111 16.921789 35.43212-2.171626 42.468271l-107.071057 39.462196a226.337421 226.337421 0 0 1-57.859207 13.021515 226.393051 226.393051 0 0 0 98.506114-13.021515l107.071056-39.462196c19.095475-7.036151 20.449136-33.52216 2.173687-42.468271z" fill="#FFC344" /><path d="M854.949004 507.674261c-0.811784 0-1.63387-0.063871-2.462138-0.195735l-198.114523-31.606019a15.452747 15.452747 0 0 1-12.813418-17.702668 15.440385 15.440385 0 0 1 17.702667-12.813418l198.114523 31.60602a15.452747 15.452747 0 0 1-2.427111 30.71182z" fill="#FFC344" /><path d="M607.076634 518.456158l94.263819-63.393351a386.681309 386.681309 0 0 0 120.430472-129.877251l80.292476-141.34525c5.797871-10.204994-2.441534-22.676392-14.103208-21.345396l-63.659138 7.256611a204.192604 204.192604 0 0 0-110.518049 48.498962l-106.708432 92.382705v207.82297z" fill="#FFD15B" /><path d="M367.179942 387.107805a15.384755 15.384755 0 0 1-10.443997-4.069223l-97.216324-87.720096a15.452747 15.452747 0 0 1-0.935407-21.833702 15.450687 15.450687 0 0 1 21.833702-0.935407l97.216325 87.720096a15.452747 15.452747 0 0 1-10.454299 26.838332zM652.252226 391.463419a15.452747 15.452747 0 0 1-10.452238-26.838331l101.782096-92.077771a15.452747 15.452747 0 1 1 20.898295 22.769108l-101.782096 92.077771a15.403299 15.403299 0 0 1-10.446057 4.069223z" fill="#FFC344" /><path d="M887.960193 162.49491l-29.658973 3.381062c4.8398 4.209328 6.766243 11.533931 3.113213 17.964334l-80.292475 141.34525a386.699853 386.699853 0 0 1-120.430472 129.877251l-53.614852 36.056411v27.33694l94.263819-63.393351a386.662766 386.662766 0 0 0 120.430472-129.877251l80.292476-141.34525c5.797871-10.204994-2.441534-22.674331-14.103208-21.345396z" fill="#FFC344" /><path d="M706.66238 107.176135l-39.270582 307.447862a111.822261 111.822261 0 0 1-22.066524 53.71375l-38.240399 50.128713-95.087966-25.101443-95.083845 25.101443-38.261002-50.128713a111.791356 111.791356 0 0 1-22.04592-53.71375l-39.270582-307.447862a60.962119 60.962119 0 0 1 29.525049-60.265715l34.490533-20.315212c0.700525-0.412073 1.401049-0.803543 2.101573-1.174408 9.333459-5.027294 19.697102-7.458526 30.060745-7.25249 8.447502 0.164829 16.895004 2.08097 24.765603 5.78963l47.738688 22.457992a60.995084 60.995084 0 0 0 51.962438 0l47.718084-22.457992c7.870599-3.708659 16.318101-5.6248 24.786207-5.78963 10.343039-0.206037 20.706682 2.225196 30.060744 7.25249 0.700525 0.370866 1.401049 0.762336 2.101574 1.174408l34.490532 20.315212a60.962119 60.962119 0 0 1 29.52505 60.265715z" fill="#FEA95C" /><path d="M397.640398 23.949698l47.736627 22.472416a60.974481 60.974481 0 0 0 46.298491 2.305549 61.168155 61.168155 0 0 1-5.649524-2.305549l-47.736627-22.472416a60.980662 60.980662 0 0 0-46.319095-2.301429c1.91408 0.677861 3.811678 1.425773 5.670128 2.301429z" fill="#FEA95C" /><path d="M677.139391 46.912481l-34.498774-20.327574a60.966239 60.966239 0 0 0-51.261914-4.936638c3.653029 1.29391 7.211282 2.929841 10.612947 4.936638l34.498774 20.327574a60.980662 60.980662 0 0 1 29.53123 60.267775L626.74283 414.623997a111.894374 111.894374 0 0 1-22.054161 53.719931l-31.44531 41.186723 33.835335 8.925507 38.258942-50.11223a111.886133 111.886133 0 0 0 22.054162-53.719931L706.670621 107.180256a60.980662 60.980662 0 0 0-29.53123-60.267775z" fill="#FE9738" /><path d="M607.076634 518.456158h-190.155328v-114.197864c0-17.813927 20.253401-28.062189 34.605912-17.513113l38.221856 28.093094a37.57078 37.57078 0 0 0 44.499792 0l38.221855-28.093094c14.352512-10.549076 34.605913-0.300813 34.605913 17.513113z" fill="#FFEAD9" /><path d="M572.470721 386.745181l-8.952291 6.58081a21.54113 21.54113 0 0 1 2.911297 10.932303v114.197864h40.648967v-114.197864c-0.00206-17.813927-20.255461-28.062189-34.607973-17.513113z" fill="#FEDBA6" /><path d="M440.380637 231.890108c-1.009579 0.206037-2.039763 0.309055-3.028739 0.309055-7.231886 0-13.680832-5.089105-15.143692-12.444612l-38.755491-194.333751c9.333459-5.027294 19.697102-7.458526 30.060745-7.25249l39.002734 195.549368c1.668897 8.365087-3.77047 16.503534-12.135557 18.17243zM640.545224 25.4208l-38.75549 194.333751a15.454808 15.454808 0 0 1-15.143692 12.444612c-0.988976 0-2.019159-0.103018-3.028739-0.309055-8.365087-1.668897-13.804454-9.807344-12.135558-18.17243l39.002735-195.549368c10.343039-0.206037 20.706682 2.225196 30.060744 7.25249z" fill="#FE9738" /></svg>