<?xml version="1.0" standalone="no"?><!DOCTYPE svg PUBLIC "-//W3C//DTD SVG 1.1//EN" "http://www.w3.org/Graphics/SVG/1.1/DTD/svg11.dtd"><svg class="icon" width="200px" height="200.00px" viewBox="0 0 1024 1024" version="1.1" xmlns="http://www.w3.org/2000/svg"><path d="M681.536901 472.140233l-50.763203-87.489159 162.321513-116.251814a128.591324 128.591324 0 0 1 28.560741-15.417691l60.687968-23.434559c27.128789-10.474881 57.846728 0.331718 72.442334 25.48462 14.630632 25.216773 8.698849 57.333698-13.975437 75.658559l-52.702004 42.595928a128.675799 128.675799 0 0 1-27.382213 16.948539z" fill="#EAF6FF" /><path d="M954.786254 255.03163c-14.500829-24.994254-44.920016-35.811155-71.921063-25.672113 11.181586 3.766342 21.232032 11.669891 29.312773 25.676234 31.875863 54.587235-32.050994 89.155992-66.679501 118.252426-9.296354 10.870471-116.000451 57.776676-172.971525 83.325167l9.009963 15.526889 179.187638-81.903517a128.593384 128.593384 0 0 0 27.382214-16.948539l52.702004-42.595928c22.676346-18.326922 28.608129-50.443847 13.977497-75.660619z" fill="#C8EFFE" /><path d="M393.261328 639.515815l-56.144869 40.321288-103.883461 74.58511a128.535694 128.535694 0 0 1-28.309376 15.370302l-63.129497 24.600724a59.019074 59.019074 0 0 1-21.468974 4.058914c-20.562414 0-40.321288-10.775694-51.158793-29.463179-14.587364-25.157022-8.715332-57.195654 13.82503-75.532877l50.478874-41.063019c8.426881-6.861006 17.677907-12.609416 27.547042-17.142213l107.283058-49.201449 74.214246-34.037183z" fill="#EAF6FF" /><path d="M393.261328 639.515815l-56.144869 40.321288c-30.884829-24.044427-54.949859-56.43332-68.816097-93.787687l74.214246-34.037183zM660.131799 603.70466l25.970865-97.758004 196.980926 32.576386a128.671678 128.671678 0 0 1 31.097046 9.292234l59.482656 26.34173c26.591034 11.77497 40.669489 41.139252 33.202736 69.244652-7.485296 28.175453-34.389505 46.691928-63.380861 43.617867l-67.386205-7.145336a128.690221 128.690221 0 0 1-31.34635-7.378157z" fill="#C8EFFE" /><path d="M973.663292 574.157006l-59.482656-26.34173a128.581022 128.581022 0 0 0-31.097046-9.292234l-196.980926-32.576386-1.823421 6.861006c63.238696 9.947429 175.184354 26.887726 187.293103 35.005553 40.776628 18.675123 108.778881 35.588636 92.683332 95.590503-6.846584 26.063581-23.432499 37.236926-43.700282 41.18458l22.927711 2.431227c28.991356 3.07406 55.895565-15.440354 63.380861-43.617867 7.470873-28.107461-6.609642-57.469682-33.200676-69.244652z" fill="#99E6FC" /><path d="M363.921771 420.458109l-25.981167 97.764185-82.764749-13.577787-111.651026-18.337223c-10.631469-1.751308-21.015694-4.821247-30.884829-9.148008l-62.037505-27.237988C28.700845 440.299396 15.226076 418.768612 15.226076 395.795573c0-5.047887 0.659316-10.136982 1.998552-15.205472 7.458511-28.10334 34.263823-46.605392 63.191308-43.638471l64.715975 6.65497c10.796298 1.112596 21.427767 3.58503 31.605956 7.376096l114.411912 42.464065z" fill="#C8EFFE" /><path d="M363.921771 420.458109l-25.981167 97.764185-82.764749-13.577787c1.401046-41.104225 14.443139-79.220926 35.973924-111.197746z" fill="#99E6FC" /><path d="M472.173199 342.514608l-87.482978 50.767324-39.476539-55.114689-76.769094-107.200643a128.935404 128.935404 0 0 1-15.432113-28.577224l-23.426318-60.677666c-10.487243-27.13497 0.329658-57.85497 25.48668-72.442334 9.292233-5.398149 19.51163-7.994205 29.628008-7.994205 17.368853 0 34.449256 7.643944 46.028491 21.963461l42.587686 52.704064c6.778592 8.385674 12.465191 17.574889 16.956781 27.382213l62.387766 136.519598z" fill="#EAF6FF" /><path d="M472.173199 342.514608l-87.482978 50.767324-39.476539-55.114689a211.063501 211.063501 0 0 1 107.447887-38.322736z" fill="#C8EFFE" /><path d="M798.49336 903.73666c0 20.541811-10.775694 40.300684-29.463179 51.138189-25.157022 14.607968-57.195654 8.735936-75.553481-13.82503l-41.042414-50.45827a127.466366 127.466366 0 0 1-17.142214-27.567646l-83.238631-181.4767 8.777143-5.089094 78.726438-45.67823 114.906399 160.048934a128.85505 128.85505 0 0 1 15.370301 28.288773l24.600725 63.1501c1.153803 2.987525 2.060362 5.995654 2.719678 9.04499 0.906559 4.120724 1.339235 8.30326 1.339235 12.423984z" fill="#EAF6FF" /><path d="M797.154125 891.312676c-33.666318 2.637264-67.64169-30.163702-94.900282-49.448692-15.267284-7.458511-108.993159-126.23839-141.423259-165.405875l78.726438-45.67823 114.906399 160.048934a128.85505 128.85505 0 0 1 15.370301 28.288773l24.600725 63.1501c1.153803 2.987525 2.060362 5.995654 2.719678 9.04499z" fill="#C8EFFE" /><path d="M687.378028 74.255453c0 2.080966-0.103018 4.182535-0.329658 6.304708l-7.149457 67.394447c-1.133199 10.713883-3.605634 21.242334-7.376096 31.338108l-68.774889 184.629055-95.806841-25.466077-1.957345-0.51509 32.574326-196.970624a129.019879 129.019879 0 0 1 9.292234-31.090865l26.352032-59.482656c11.764668-26.599276 41.124829-40.671549 69.228169-33.213038a59.111791 59.111791 0 0 1 41.907767 41.70173c1.339235 4.944869 2.039759 10.095775 2.039758 15.370302z" fill="#C8EFFE" /><path d="M687.378028 74.255453c0 2.080966-0.103018 4.182535-0.329658 6.304708l-7.149457 67.394447c-1.133199 10.713883-3.605634 21.242334-7.376096 31.338108l-68.774889 184.629055-95.806841-25.466077c15.287887-32.203461 82.970785-194.168531 96.734004-206.324668 21.654406-26.393239 46.316942-68.32161 80.663179-73.245875 1.339235 4.944869 2.039759 10.095775 2.039758 15.370302z" fill="#99E6FC" /><path d="M518.242897 686.100604l-31.894406 194.436378a129.110535 129.110535 0 0 1-9.148008 30.864225l-27.237988 62.058109a58.874849 58.874849 0 0 1-27.36161 28.927485 58.946962 58.946962 0 0 1-26.784708 6.42833c-5.027284 0-10.116378-0.638712-15.184869-1.977948-28.10334-7.479115-46.605392-34.263823-43.638471-63.191308l6.65497-64.715976a128.030905 128.030905 0 0 1 7.376096-31.605955l69.475413-187.183904 69.887485 18.563863z" fill="#C8EFFE" /><path d="M518.242897 686.100604l-31.894406 194.436378a129.110535 129.110535 0 0 1-9.148008 30.864225l-27.237988 62.058109a58.874849 58.874849 0 0 1-27.36161 28.927485c-17.286439-24.209256-18.54326-63.809416-23.467525-92.510262-6.242897-18.172394 17.245231-207.911147 18.08998-231.172636h73.163461z" fill="#99E6FC" /><path d="M429.976982 358.338189l-71.535775 71.515171-58.637907-48.3567-95.394769-78.685231a128.5666 128.5666 0 0 1-22.231308-23.632355l-38.219718-52.642253c-17.101006-23.529336-14.546157-56.000644 6.016258-76.563058 11.455614-11.455614 26.599276-17.307042 41.825352-17.307043 12.17674 0 24.415292 3.749859 34.881931 11.393803l54.702616 40.012234c8.715332 6.345915 16.565312 13.783823 23.426318 22.107686l87.833239 106.788571z" fill="#C8EFFE" /><path d="M429.976982 358.338189l-71.535775 71.515171-58.637907-48.3567c23.83839-30.658189 55.877022-54.599598 92.839919-68.527646z" fill="#99E6FC" /><path d="M665.71126 594.072467l-71.523413 71.523412 127.03163 154.030616a128.587203 128.587203 0 0 0 23.644716 22.233368l52.638133 38.23002c23.529336 17.088644 55.992402 14.531734 76.556877-6.03068 20.613924-20.613924 23.127565-53.177948 5.919421-76.711404l-39.999871-54.700556a128.62841 128.62841 0 0 0-22.111807-23.409835z" fill="#C8EFFE" /><path d="M879.976563 797.347799l-39.999871-54.700556a128.62841 128.62841 0 0 0-22.111807-23.409835l-152.153625-125.164941-19.371526 19.371525c46.827911 38.063131 144.602398 115.82738 151.028668 129.203251 25.99765 37.012346 78.907751 86.836024 34.084572 131.407839-6.453054 6.48396-13.013247 10.907557-19.62495 13.678745 21.180523 7.798471 45.597875 2.95868 62.231179-13.674624 20.611863-20.613924 23.125505-53.177948 5.91736-76.711404z" fill="#99E6FC" /><path d="M516.5534 337.816982l-27.176177 7.479115-70.340764 19.367404-20.521207-53.81666-50.623099-132.749135a128.747911 128.747911 0 0 1-7.643944-31.544145l-7.211267-64.654165c-3.234769-28.886278 15.02004-55.856419 43.061569-63.562173 5.23332-1.442254 10.507847-2.142777 15.720563-2.142776 10.343018 0 20.397586 2.740282 29.195332 7.746961 10.610865 6.016258 19.388008 15.329095 24.703743 27.155574l27.794286 61.810865c4.409175 9.827928 7.582133 20.170946 9.415855 30.781811l27.711871 159.945915z" fill="#C8EFFE" /><path d="M510.640161 303.635573l-0.008241-0.00206L482.92829 143.689658a128.815903 128.815903 0 0 0-9.415855-30.781811l-27.794286-61.810865a58.852185 58.852185 0 0 0-24.703743-27.155574c-15.782374 24.353481-17.101006 62.367163-21.881046 90.182053-4.409175 12.833996 6.012137 111.249256 12.811332 176.150664 0.956008 9.115042-4.613151 17.541924-13.281094 20.523267l-0.148346 0.051509 20.521207 53.81666 70.340764-19.367404 27.176177-7.479115z" fill="#99E6FC" /><path d="M605.089223 659.184032l-97.525183 26.836217 34.321513 196.684234a128.636652 128.636652 0 0 0 9.568322 31.012571l26.869183 59.247775c12.011911 26.483895 41.497755 40.302744 69.537224 32.588748 28.109521-7.7346 46.384934-34.803638 43.053328-63.766148l-7.742841-67.320274a128.636652 128.636652 0 0 0-7.656306-31.280419z" fill="#C8EFFE" /><path d="M690.91361 941.787429l-7.742841-67.320274a128.636652 128.636652 0 0 0-7.656306-31.280419l-70.42524-184.002704-38.773955 10.670616c16.590036 44.015517 75.394833 187.995686 74.245151 204.612507 4.170173 43.543694 24.295791 109.938865-29.555896 129.275364a58.953143 58.953143 0 0 0 36.855759 1.813119c28.109521-7.73666 46.384934-34.805698 43.053328-63.768209z" fill="#99E6FC" /><path d="M665.632966 429.927533l-71.523413-71.523412 127.03163-154.030616a128.587203 128.587203 0 0 1 23.644716-22.233368l52.638133-38.23002c23.529336-17.090704 55.992402-14.531734 76.556877 6.03068 20.613924 20.613924 23.127565 53.177948 5.919421 76.711404l-39.999871 54.700556a128.62841 128.62841 0 0 1-22.111807 23.409835z" fill="#C8EFFE" /><path d="M873.978849 149.940797c-16.633304-16.633304-41.050656-21.473095-62.231179-13.676684 6.611702 2.771187 13.171895 7.194785 19.62495 13.678744 44.823179 44.571815-8.086922 94.395493-34.084572 131.407839-6.42627 13.375871-104.200757 91.140121-151.028668 129.203252l19.371525 19.371525 152.153626-125.164942a128.62841 128.62841 0 0 0 22.111807-23.409835l39.999871-54.700555c17.210205-23.531396 14.696563-56.095421-5.91736-76.709344z" fill="#99E6FC" /><path d="M429.894567 665.661811l-9.230422 11.20837-28.082737 34.140201-87.853843 106.809175a127.950551 127.950551 0 0 1-23.405714 22.107686l-54.702616 40.012234a59.017014 59.017014 0 0 1-34.881931 11.393803c-1.298028 0-2.575453-0.041207-3.873481-0.144226a58.874849 58.874849 0 0 1-37.972475-17.162817c-20.562414-20.562414-23.117264-53.033722-6.016257-76.563058l38.219718-52.642253a129.267123 129.267123 0 0 1 22.231308-23.632355l95.456579-78.726438 58.576097-48.315493z" fill="#C8EFFE" /><path d="M358.358793 594.14664l-58.576097 48.315493 0.179252 0.2287c10.588201 13.590149 11.210431 32.436282 1.184708 46.448805-37.513014 52.423855-87.252217 122.4226-89.586608 134.778591-7.231871 20.02672-19.078954 44.174165-23.694165 67.270825 1.298028 0.103018 2.575453 0.144225 3.873481 0.144226 12.17674 0 24.415292-3.749859 34.881932-11.393803l54.702615-40.012234c8.694728-6.345915 16.565312-13.783823 23.405715-22.107686l115.936579-140.949376 9.230423-11.20837z" fill="#99E6FC" /><path d="M686.141811 516.518374l-26.836217-97.525183 186.553432-71.136064a128.706704 128.706704 0 0 1 31.542085-7.646004l64.654165-7.22569c28.9007-3.230648 55.860539 15.036523 63.576595 43.073931 7.7346 28.109521-6.172845 57.659235-32.761819 69.615517l-61.804684 27.788105a128.548056 128.548056 0 0 1-30.792112 9.424096z" fill="#C8EFFE" /><path d="M1005.629811 376.063485c-7.716056-28.039469-34.673835-46.304579-63.576596-43.073932l-22.134471 2.474495c19.835107 3.943533 36.12227 14.997376 43.102777 40.603558 16.942358 60.900185-53.676555 78.069183-94.568563 97.399501-11.494761 7.967421-121.804491 25.560853-184.284974 35.887388l1.971767 7.163879 194.129384-33.627171a128.706704 128.706704 0 0 0 30.792112-9.424096l61.804685-27.788105c26.591034-11.956282 40.498479-41.508056 32.763879-69.615517z" fill="#99E6FC" /><path d="M364.766519 605.045956l-72.153883 27.629456-111.836459 42.793723a129.067268 129.067268 0 0 1-31.276298 7.664547l-67.332636 7.746962c-2.266398 0.267847-4.532797 0.391469-6.778591 0.391469-26.290221 0-49.860765-17.554286-56.989618-43.453039-7.705755-28.041529 6.119276-57.525312 32.59493-69.537223l59.256016-26.867123c9.889738-4.49159 20.315171-7.705755 31.008451-9.56008l114.020442-19.903099 82.661731-14.422535z" fill="#C8EFFE" /><path d="M364.766519 605.045956l-72.153883 27.629456c-21.942857-31.729577-35.438229-69.722656-37.333763-110.723863l82.661731-14.422535z" fill="#99E6FC" /><path d="M562.62928 345.304338H461.47992l-19.091316-198.740475a128.68404 128.68404 0 0 1 0.997215-32.440402l10.18643-64.252395C458.12565 21.147557 482.889143 0 511.971155 0c29.154125 0 53.956765 21.248515 58.42775 50.058559l10.394528 66.961771a128.618109 128.618109 0 0 1 0.916861 32.189038z" fill="#EAF6FF" /><path d="M580.793433 117.02033l-10.394528-66.961771C565.92792 21.248515 541.12528 0 511.971155 0c-7.491477 0-14.694503 1.413408-21.341231 3.988861 39.853586 15.70202 39.218994 74.727276 45.915171 113.033529 6.127517 17.459509-17.385336 206.145416-18.164153 228.281948h44.248338l19.083074-196.092909a128.634592 128.634592 0 0 0-0.918921-32.191099z" fill="#C8EFFE" /><path d="M562.62928 678.695662H461.47992l-19.091316 198.740475a128.68404 128.68404 0 0 0 0.997215 32.440402l10.18643 64.252395c4.5534 28.721449 29.316893 49.869006 58.398906 49.869006 29.154125 0 53.956765-21.248515 58.42775-50.05856l10.394528-66.96177a128.618109 128.618109 0 0 0 0.916861-32.189039z" fill="#EAF6FF" /><path d="M581.712354 874.790632l-19.083074-196.09291h-44.248338c0.776757 22.134471 24.29167 210.822439 18.164153 228.281948-6.696177 38.306254-6.061586 97.333569-45.915171 113.033529a58.973746 58.973746 0 0 0 21.341231 3.988861c29.154125 0 53.956765-21.248515 58.42775-50.058559l10.394528-66.961771c1.654471-10.652072 1.961465-21.466913 0.918921-32.191098z" fill="#C8EFFE" /><path d="M638.357891 392.031292l-87.936257-49.984387 81.613006-182.214309a128.636652 128.636652 0 0 1 16.89909-27.709811l40.607678-50.825014c18.151791-22.719614 50.130672-28.867734 75.413377-14.496709 25.344515 14.406052 36.4066 45.136354 26.05946 72.390825l-24.052668 63.352016a128.68404 128.68404 0 0 1-15.108635 28.439179z" fill="#EAF6FF" /><path d="M764.954785 66.801062c-16.105851-9.154189-34.925199-9.970093-51.160853-3.492314a74.63662 74.63662 0 0 1 6.914575 3.494375c55.042575 31.082624 17.247292 93.159276 2.002672 135.74078-2.775308 15.308491-83.597135 125.511082-116.152917 171.409771l31.80169 18.075557 113.49299-161.048209a128.599565 128.599565 0 0 0 15.108635-28.439179l24.052668-63.352016c10.347139-27.25241-0.714946-57.982712-26.05946-72.388765z" fill="#C8EFFE" /><path d="M473.720531 681.87274l-87.936257-49.984386-114.807501 163.345513a128.62429 128.62429 0 0 0-15.164266 28.696725l-22.894744 60.894004c-10.233819 27.221505 0.844748 57.842608 26.127452 72.213633 25.344515 14.406052 57.407871 8.18994 75.532878-14.645054l42.128225-53.07905a128.599565 128.599565 0 0 0 16.705416-27.53056z" fill="#EAF6FF" /><path d="M385.784274 631.888354l-12.63002 17.970479 56.32 32.013907c-10.262664 19.62701-83.063501 195.287308-97.016274 207.437264-18.699847 22.659863-39.602221 57.694262-66.990616 70.868217 24.137143 10.108137 52.487726 3.158535 69.110729-17.787106l42.128225-53.079051a128.599565 128.599565 0 0 0 16.705416-27.530559l80.310858-179.908765z" fill="#C8EFFE" /><path d="M678.695662 562.62928V461.47992l198.740475-19.091316a128.68404 128.68404 0 0 1 32.440402 0.997215l64.252395 10.18643c28.721449 4.5534 49.869006 29.316893 49.869006 58.398906 0 29.154125-21.248515 53.956765-50.05856 58.42775l-66.96177 10.394528a128.618109 128.618109 0 0 1-32.189039 0.916861z" fill="#EAF6FF" /><path d="M974.130994 453.572249l-64.252394-10.18643a128.587203 128.587203 0 0 0-32.440403-0.997215l-11.272241 1.08375c44.231855 7.483235 113.734052 6.626125 113.585706 68.502922 0.175131 62.762753-71.424515 61.062954-116.05402 68.659509l11.09299 1.079629a128.616048 128.616048 0 0 0 32.189038-0.916861l66.961771-10.394527c28.810044-4.475107 50.058559-29.277746 50.058559-58.431871 0-29.082012-21.147557-53.845505-49.869006-58.398906z" fill="#C8EFFE" /><path d="M345.296097 461.47992v101.143179l-82.064226 7.973601-114.020442 11.105352c-10.734487 1.050785-21.551388 0.74173-32.182858-0.906559l-66.96177-10.404829A59.076765 59.076765 0 0 1 0 511.979396c0-29.092314 21.139316-53.857867 49.860765-58.411267l64.262696-10.178189c10.734487-1.710101 21.633803-2.039759 32.4301-1.009578l116.637103 11.20837z" fill="#EAF6FF" /><path d="M345.296097 461.47992v101.143179l-82.064226 7.973601c-5.336338-18.625674-8.179638-38.281529-8.179638-58.5967 0-20.25336 2.822696-39.847404 8.138431-58.411268z" fill="#C8EFFE" /><path d="M631.968708 638.357891l49.984387-87.936257 182.214309 81.613006a128.636652 128.636652 0 0 1 27.709811 16.89909l50.825014 40.607678c22.719614 18.151791 28.867734 50.130672 14.496709 75.413377-14.406052 25.344515-45.136354 36.4066-72.390825 26.05946l-63.352016-24.052668a128.68404 128.68404 0 0 1-28.439179-15.108635z" fill="#EAF6FF" /><path d="M942.702229 689.541408l-50.825014-40.607678a128.636652 128.636652 0 0 0-27.709811-16.89909l-182.214309-81.613006-9.047051 15.916298c58.118696 25.507284 164.940233 71.504869 174.722833 82.593738 34.684137 28.435058 96.146801 62.089014 65.317602 116.023115-7.872644 13.94041-17.733537 21.918133-28.760596 25.822519l0.620169 0.234881c27.254471 10.349199 57.984773-0.712885 72.390825-26.059461 14.373087-25.280644 8.224966-57.259525-14.494648-75.411316z" fill="#C8EFFE" /><path d="M392.107525 385.782213l-49.984386 87.936258-74.708733-33.33666-105.202092-46.976258a128.212217 128.212217 0 0 1-27.526439-16.709537l-53.074929-42.113803a59.138575 59.138575 0 0 1-22.375534-46.358149c0-9.951549 2.513642-20.006117 7.726359-29.174728 14.381328-25.280644 44.99831-36.365392 72.215694-26.125392l60.883702 22.890623c10.178189 3.81167 19.820684 8.921368 28.700845 15.164266l106.355895 74.74994z" fill="#EAF6FF" /><path d="M392.107525 385.782213l-49.984386 87.936258-74.708733-33.33666c13.433561-37.560402 37.127726-70.237746 67.703501-94.653038z" fill="#C8EFFE" /><path d="M512 512m-212.691187 0a212.691187 212.691187 0 1 0 425.382374 0 212.691187 212.691187 0 1 0-425.382374 0Z" fill="#FFD15B" /><path d="M512 299.308813c-7.470873 0-14.851091 0.389408-22.124169 1.141441 107.068781 11.066205 190.567018 101.555252 190.567018 211.549746s-83.498237 200.483541-190.567018 211.549746c7.273078 0.752032 14.653296 1.141441 22.124169 1.141441 117.467429 0 212.691187-95.225819 212.691187-212.691187 0-117.467429-95.223759-212.691187-212.691187-212.691187z" fill="#FFC344" /><path d="M513.118777 676.289159a15.452716 15.452716 0 0 1-0.11332-30.905433 134.844523 134.844523 0 0 0 22.24367-2.012973 15.452716 15.452716 0 0 1 5.344579 30.43979 166.120821 166.120821 0 0 1-27.357489 2.478616h-0.11744z m-75.471067-19.857771a15.399147 15.399147 0 0 1-7.716056-2.074784 165.09064 165.09064 0 0 1-22.571268-15.689658 15.452716 15.452716 0 0 1-2.062422-21.755365 15.446535 15.446535 0 0 1 21.755364-2.062422 134.393304 134.393304 0 0 0 18.337223 12.747461 15.452716 15.452716 0 0 1-7.742841 28.834768z m170.861715-15.656692a15.411509 15.411509 0 0 1-11.766729-5.429054 15.452716 15.452716 0 0 1 1.734825-21.784209 134.99493 134.99493 0 0 0 15.734986-15.852427 15.452716 15.452716 0 0 1 23.66738 19.872193 165.869457 165.869457 0 0 1-19.355042 19.499268 15.378543 15.378543 0 0 1-10.01542 3.694229z m-236.358568-62.255903a15.452716 15.452716 0 0 1-14.515251-10.155525 163.603058 163.603058 0 0 1-7.22363-26.539526 15.452716 15.452716 0 0 1 30.396523-5.5774 132.646117 132.646117 0 0 0 5.855549 21.516362 15.452716 15.452716 0 0 1-14.513191 20.756089z m286.649948-26.249014a15.452716 15.452716 0 0 1-15.256982-18.011686c1.225915-7.301924 1.846085-14.78928 1.846084-22.258093v-0.346141a15.452716 15.452716 0 0 1 30.905433 0v0.210157c0 9.312837-0.764394 18.520596-2.272579 27.507895a15.460958 15.460958 0 0 1-15.221956 12.897868zM372.035477 476.705996a15.452716 15.452716 0 0 1-14.525553-20.727243 164.167598 164.167598 0 0 1 11.523605-24.979831 15.452716 15.452716 0 0 1 21.067203-5.810222 15.450656 15.450656 0 0 1 5.810222 21.067203 133.146785 133.146785 0 0 0-9.347863 20.263662 15.460958 15.460958 0 0 1-14.527614 10.186431z m268.220008-24.847968a15.446535 15.446535 0 0 1-13.318181-7.594495 134.022439 134.022439 0 0 0-12.920531-18.20536 15.452716 15.452716 0 0 1 23.624112-19.923702 165.300797 165.300797 0 0 1 15.903936 22.408499 15.452716 15.452716 0 0 1-13.289336 23.315058z m-202.852958-53.221215a15.452716 15.452716 0 0 1-7.771686-28.820346 164.342728 164.342728 0 0 1 24.843847-11.754366 15.452716 15.452716 0 1 1 10.825143 28.948088 133.216837 133.216837 0 0 0-20.156523 9.537417 15.382664 15.382664 0 0 1-7.740781 2.089207z m124.278986-11.527726a15.427992 15.427992 0 0 1-5.157086-0.890077 132.563702 132.563702 0 0 0-21.571992-5.643332 15.452716 15.452716 0 0 1 5.274527-30.452153 163.815276 163.815276 0 0 1 26.611638 6.959904 15.452716 15.452716 0 0 1 9.409674 19.723847 15.460958 15.460958 0 0 1-14.566761 10.301811z" fill="#FFC344" /><path d="M512 512m-15.858608 0a15.858608 15.858608 0 1 0 31.717216 0 15.858608 15.858608 0 1 0-31.717216 0Z" fill="#FFC344" /></svg>