<?xml version="1.0" standalone="no"?><!DOCTYPE svg PUBLIC "-//W3C//DTD SVG 1.1//EN" "http://www.w3.org/Graphics/SVG/1.1/DTD/svg11.dtd"><svg class="icon" width="200px" height="200.00px" viewBox="0 0 1024 1024" version="1.1" xmlns="http://www.w3.org/2000/svg"><path d="M517.713384 550.85431h88.305063V1024h-88.305063z" fill="#9BE69D" /><path d="M562.338769 550.85431h43.679678V1024h-43.679678z" fill="#6FD7A3" /><path d="M517.713384 1024L239.381119 514.315847c-8.398036-15.376483-31.79963-8.919308-31.125892 8.58759l4.586367 118.89938a500.544386 500.544386 0 0 0 141.394414 329.732121l32.108684 33.004941a64.28536 64.28536 0 0 0 46.08 19.458061h85.288692z" fill="#BBF49B" /><path d="M239.381119 514.315847c-8.395976-15.376483-31.79963-8.919308-31.125892 8.58759l1.695678 43.924861c6.617883-1.47934 14.094938 0.861231 18.122946 8.237328L474.033706 1024h43.679678z" fill="#9BE69D" /><path d="M606.018447 1024l160.924587-234.555751c8.869859-12.928773 29.119099-6.650849 29.119099 9.028508v86.658833c0 76.694922-62.173489 138.86841-138.868411 138.86841z" fill="#BBF49B" /><path d="M766.943034 789.444249l-20.760209 30.258479c3.663324 2.760885 6.19963 7.120612 6.19963 12.662986v52.765876c0 76.694922-62.173489 138.86841-138.868411 138.86841h43.679678c76.694922 0 138.86841-62.173489 138.868411-138.86841v-86.658833c0-15.681416-20.249239-21.95934-29.119099-9.028508z" fill="#9BE69D" /><path d="M425.365891 144.736322l7.84792-48.52565c4.530736-28.008563 32.244668-45.991404 59.668088-38.716266l34.253522 9.086198a56.577545 56.577545 0 0 0 47.295613-8.579348L642.377658 9.683702A52.327018 52.327018 0 0 1 672.702068 0c28.89864 0 52.327018 23.428378 52.327019 52.327018v229.588217H425.365891z" fill="#FE646F" /><path d="M672.702068 0c-7.56565 0-14.987074 1.675074-21.796571 4.796523 17.966358 8.286777 30.443911 26.444748 30.443911 47.530495v229.588217h43.679679V52.327018C725.029087 23.428378 701.602769 0 672.702068 0z" fill="#FD4755" /><path d="M596.691187 624.946994c128.863292 0 229.884909-110.692958 218.136724-239.018495l-17.776804-194.16441c-4.555461-49.751565-46.279855-87.831179-96.239517-87.83118a96.643348 96.643348 0 0 0-79.165296 41.211365l-123.644395 176.581279a271.106575 271.106575 0 0 0-49.030438 155.503775c0 81.582101 66.137626 147.717666 147.719726 147.717666z" fill="#FC8B96" /><path d="M814.827911 385.928499l-17.776804-194.16441c-4.555461-49.751565-46.279855-87.831179-96.239517-87.83118-7.411123 0-14.702744 0.879775-21.771848 2.515703 39.771171 9.232483 70.464386 43.057449 74.331687 85.315477l17.774744 194.16441c11.002334 120.176805-76.898897 224.88441-193.946012 237.699863a148.675734 148.675734 0 0 0 19.488966 1.320692c128.865352-0.00206 229.88697-110.695018 218.138784-239.020555z" fill="#FE646F" /><path d="M527.040644 624.946994c-128.863292 0-229.884909-110.692958-218.136724-239.018495l17.774744-194.16441c4.555461-49.751565 46.279855-87.831179 96.239517-87.83118a96.643348 96.643348 0 0 1 79.165296 41.211365l123.644394 176.581279a271.106575 271.106575 0 0 1 49.030439 155.503775c0 81.582101-66.135565 147.717666-147.717666 147.717666z" fill="#FC8B96" /><path d="M625.727871 321.723493l-123.644394-176.58128a96.643348 96.643348 0 0 0-101.073127-38.695662 96.608322 96.608322 0 0 1 57.391388 38.695662l123.644395 176.58128a271.106575 271.106575 0 0 1 49.030438 155.503775c0 74.970398-55.86466 136.853376-128.2287 146.399034 7.936515 0.869473 16.006954 1.320692 24.188652 1.320692 81.582101 0 147.719726-66.135565 147.719726-147.717666a271.096274 271.096274 0 0 0-49.028378-155.505835z" fill="#FD4755" /></svg>