<?xml version="1.0" standalone="no"?><!DOCTYPE svg PUBLIC "-//W3C//DTD SVG 1.1//EN" "http://www.w3.org/Graphics/SVG/1.1/DTD/svg11.dtd"><svg class="icon" width="200px" height="200.00px" viewBox="0 0 1024 1024" version="1.1" xmlns="http://www.w3.org/2000/svg"><path d="M93.809131 415.411446l35.883196 24.046438c19.861851 13.309913 155.532307 74.885773 235.595759 110.8349 34.609894 15.53922 54.422297 52.413448 48.28243 89.852214-14.690353 89.549341-39.554753 209.054227-39.554753 233.178959v43.193346c0 59.360975 48.121722 107.482697 107.482697 107.482697h61.007201c59.360975 0 107.482697-48.121722 107.482697-107.482697V873.323957c0-24.211267-22.746353-141.045929-36.072748-228.269126-5.542363-36.278784 13.198654-71.922978 46.230313-87.919598 78.406925-37.970338 214.120648-104.243814 234.163811-117.677349l35.883195-24.046438c49.312609-33.046082 62.4989-99.809924 29.452818-149.120473l-33.962942-50.680687c-33.046082-49.312609-99.809924-62.4989-149.122532-29.454878l-35.883196 24.046439c-18.380454 12.31682-106.868711 98.448027-167.17539 157.846089-32.135404 31.65122-83.568122 32.114801-116.290728 1.071386-62.643125-59.428967-155.398384-146.526482-173.890096-158.917475l-35.883196-24.046439c-49.312609-33.046082-116.076451-19.857731-149.122533 29.454878l-33.962942 50.680687c-33.041962 49.310549-19.85567 116.07439 29.456939 149.120473z" fill="#C2BCE0" /><path d="M250.711576 210.193605c153.844874 133.101189 192.476587 195.975074 246.519778 180.025843a83.298215 83.298215 0 0 1-40.018334-21.100126c-62.643125-59.428967-155.398384-146.526482-173.890097-158.917475l-35.883196-24.046439c-24.279259-16.270647-52.786373-21.310283-79.42062-16.371605 28.704908 4.361778 57.619973 19.216959 82.692469 40.409802zM959.645747 266.288913l-33.962942-50.680687c-23.545772-35.137346-64.213118-51.912781-103.485602-46.710377 39.99567 7.122658 73.241607 41.825268 104.843378 97.395185 88.197746 157.168231-161.960624 211.038352-299.503944 290.840139-33.03166 15.99662-51.772677 51.638753-46.230314 87.919598 13.324335 87.223197 36.072748 204.057859 36.066568 228.269126 8.34239 75.670769-22.381669 148.339597-107.476517 150.671922l-0.072112 0.006181h32.679339c59.360975 0 107.482697-48.121722 107.482697-107.482697V873.323957c0-24.211267-22.746353-141.045929-36.072749-228.269126-5.542363-36.278784 13.198654-71.922978 46.230314-87.919598 78.406925-37.970338 214.120648-104.243814 234.16381-117.677349l35.883196-24.046438c49.312609-33.046082 62.4989-99.809924 29.454878-149.122533z" fill="#ACA6D6" /><path d="M920.630808 336.044394c-2.657862 13.433534-10.384204 25.03335-21.736778 32.656675l-35.891436 24.044378c-3.62623 2.348808-32.017964 19.16133-227.381112 113.77297-55.547252 26.908276-86.617451 85.999344-77.304634 147.027149 33.048143 216.3788 35.314537 215.101378 35.438159 219.902013v43.061482c0 28.268112-22.993596 51.241104-51.241105 51.241104h-61.027804c-28.247509 0-51.241104-22.972992-51.241105-51.241104v-42.979068c0.164829-5.047877 2.82269-4.883049 38.817146-224.290575 10.260583-62.511263-22.931785-124.3014-80.745431-150.261911-193.158565-86.720469-223.301603-103.739027-227.504734-106.355681l-35.685401-23.920757c-23.488082-15.741135-29.772173-47.635478-14.051642-71.102956l9.003765-13.454137 17.20399-25.672061 7.746946-11.558609c9.539458-14.237074 25.486629-22.725749 42.670014-22.725749 10.116358 0 19.944266 3.008123 28.432941 8.694711l35.706005 23.920757c3.791059 2.699069 28.906823 22.416695 166.662361 153.125808 26.12534 24.765503 60.327283 38.405074 96.301134 38.405074 36.962823 0 71.824081-14.278281 98.155456-40.218189 130.276438-128.319098 155.371599-148.490003 159.286279-151.374504l35.623591-23.858946c8.488675-5.686588 18.316583-8.694711 28.432941-8.694711 17.183386 0 33.130557 8.488675 42.670014 22.725749l7.746946 11.558609 17.20399 25.672061 9.003765 13.454137c7.623325 11.373176 10.363601 25.03335 7.705739 38.446281z" fill="#8379C1" /><path d="M173.21945 232.876087c73.837051 51.125724 21.969598 9.516794 202.378668 177.042444 30.940396 30.505661 75.378198 42.678256 117.137534 36.651709-27.730359-4.396804-53.526041-17.008256-74.230579-36.651709-137.759658-130.69263-162.885725-150.408196-166.66236-153.111386l-35.712186-23.931058c-8.480434-5.682467-18.310402-8.686469-28.42882-8.68647-7.575936 0-14.910811 1.656528-21.561647 4.724401a51.56252 51.56252 0 0 1 7.07939 3.962069zM912.925069 297.598113l-33.960882-50.680686c-9.537397-14.230893-25.486629-22.725749-42.665894-22.725749-7.606842 0-15.048855 1.699795-21.876881 4.955161 7.374021 3.673618 14.531705 9.522975 21.631699 17.766467 11.373176 22.929724 51.27407 60.236627 41.662499 89.14139-2.422981 26.683697-38.942827 42.92756-57.626153 56.68457-3.622109 2.354989-32.005602 19.171631-227.36875 113.781212-55.565796 26.906215-86.635995 85.993163-77.312875 147.027149 33.054324 216.374679 35.318657 215.11168 35.427856 219.904072v43.067664c-1.293905 38.644075-27.748902 48.921141-57.891939 51.243165h49.559852c28.25575 0 51.243165-22.987415 51.243164-51.243165V873.447579c-0.109199-4.790332-2.373532-3.529393-35.427856-219.904073-9.32518-61.033986 21.745019-120.120933 77.310814-147.027149 195.363148-94.60958 223.74664-111.426222 227.36875-113.781212l35.883195-24.046438c11.369056-7.619204 19.091277-19.208718 21.745019-32.638132 2.653741-13.425293-0.080354-27.083406-7.701618-38.452462z" fill="#6E61B6" /><path d="M930.190869 608.586494l-35.883196-24.046439c-19.861851-13.309913-155.532307-74.885773-235.595759-110.834899-34.609894-15.53922-54.422297-52.413448-48.28243-89.852214 14.690353-89.549341 39.554753-209.054227 39.554753-233.178959V107.482697C649.986298 48.121722 601.864576 0 542.503601 0h-61.007202c-59.360975 0-107.482697 48.121722-107.482697 107.482697v43.193346c0 24.211267 22.746353 141.045929 36.072749 228.269126 5.542363 36.278784-13.198654 71.922978-46.230314 87.919598-78.406925 37.970338-214.120648 104.243814-234.16381 117.677349l-35.883196 24.044378c-49.312609 33.046082-62.4989 99.809924-29.452818 149.120472l33.962942 50.680687c33.046082 49.312609 99.809924 62.4989 149.122533 29.454879l35.883195-24.046439c18.380454-12.31682 106.868711-98.448027 167.17539-157.846089 32.135404-31.65122 83.568122-32.114801 116.290728-1.071386 62.643125 59.428967 155.398384 146.526482 173.890097 158.917475l35.883195 24.046439c49.312609 33.046082 116.076451 19.857731 149.122533-29.454879l33.962942-50.680687c33.039901-49.310549 19.85361-116.07439-29.458999-149.120472z" fill="#C2BCE0" /><path d="M250.713636 813.794033c-29.640311 23.088372-56.035557 36.344716-80.020185 40.881624 25.859554 4.126897 53.276738-1.106412 76.746276-16.833125l35.883196-24.046439c18.380454-12.31682 106.868711-98.448027 167.17539-157.846089a83.259068 83.259068 0 0 1 42.363021-22.44554c-51.245225-14.424567-92.738775 43.084147-242.147698 180.289569zM930.190869 608.586494l-35.883196-24.046439c-19.861851-13.309913-155.530246-74.885773-235.595759-110.834899-34.609894-15.53922-54.422297-52.413448-48.28243-89.852214 14.690353-89.549341 39.554753-209.054227 39.554753-233.178959V107.482697C649.986298 48.121722 601.864576 0 542.503601 0h-34.978699c58.547134 6.032728 106.501967 33.530267 109.850049 107.482697 4.093931 70.573444-19.536315 150.235126-39.554753 276.372305-6.141927 37.438766 13.672536 74.312993 48.28449 89.852214 112.90762 52.188869 217.073141 93.764833 271.476894 134.881338 78.814876 57.593188 46.38278 136.348313-4.508063 199.797039-20.418148 28.958332-45.915079 43.195406-72.893407 46.428108 39.892652 6.059513 81.551031-10.685017 105.502693-46.423987l33.962942-50.680687c33.044022-49.312609 19.857731-116.076451-29.454878-149.122533z" fill="#ACA6D6" /><path d="M912.925069 726.399826l-9.003765 13.454138-17.20399 25.672061-7.746946 11.558609c-9.539458 14.237074-25.486629 22.725749-42.670014 22.725749-10.116358 0-19.944266-3.008123-28.432941-8.694711l-17.471836-11.702834c-12.135509-8.138414-23.65291-17.183386-34.407979-27.073104l-150.488551-138.270627c-26.12534-24.765503-60.327283-38.405074-96.301134-38.405074-36.962823 0-71.824081 14.278281-98.155456 40.218189l-141.587804 134.561982a288.124587 288.124587 0 0 1-37.972398 30.390281l-15.349668 10.281187c-8.488675 5.686588-18.316583 8.694711-28.432941 8.694711-17.183386 0-33.130557-8.488675-42.670014-22.725749l-7.746946-11.558609-17.20399-25.672061-9.003765-13.454138c-7.952982-11.867662-10.59024-26.248961-7.314271-40.238792 3.008123-12.939048 11.208348-24.064982 22.231264-31.441064l19.903058-13.35112c10.054547-6.737371 20.54177-12.815427 31.358649-18.234168l211.124887-105.65516c55.547252-26.908276 86.617451-85.999344 77.304634-147.027149L433.912431 173.234903c-2.431222-15.102424-3.667437-30.369677-3.667438-45.678138v-20.067887c0-28.309319 22.952388-51.241104 51.261708-51.241104h61.007201c28.288716 0 51.241104 22.931785 51.241105 51.241104v18.316583c0 16.421053-1.421647 32.8009-4.223734 48.97471l-34.593412 199.978351c-10.260583 62.511263 22.931785 124.3014 80.745431 150.261911l207.560468 97.042863c13.268706 6.201678 26.063529 13.412931 38.240245 21.571948l17.389422 11.661627c23.529289 15.761739 29.813381 47.59427 14.051642 71.102955z" fill="#978ECB" /><path d="M474.377862 575.664033c5.851417 0 11.641023 0.350261 17.368819 1.071386-30.390281 3.770455-58.555375 17.327611-80.704224 39.146803l-141.587804 134.561982a288.124587 288.124587 0 0 1-37.972398 30.390281l-15.349668 10.281187c-8.488675 5.686588-18.316583 8.694711-28.432941 8.694711-6.057453 0-11.97068-1.050783-17.492439-3.04933 3.894077-1.401043 7.623325-3.296573 11.125933-5.645381l15.349667-10.281187a286.595802 286.595802 0 0 0 37.951795-30.390281l141.587804-134.561982c26.331376-25.939908 61.192633-40.218189 98.155456-40.218189zM912.925069 726.399826l-33.954701 50.684808c-9.539458 14.237074-25.486629 22.725749-42.670014 22.725749-5.933831 0-11.785248-1.030179-17.327611-3.04933 10.136961-3.646834 18.996501-10.466619 25.177575-19.676419l33.975303-50.684808c15.741135-23.508685 9.457043-55.341217-14.051641-71.102955l-17.410026-11.661627c-12.176716-8.159018-24.950936-15.370271-38.240245-21.571948l-207.560467-97.042863c-57.793043-25.960511-90.98541-87.750648-80.745431-150.261911l34.614014-199.978351c2.802087-16.173811 4.20313-32.553657 4.203131-48.97471v-18.316583c0-28.309319-22.931785-51.241104-51.241104-51.241104h34.82005c28.288716 0 51.241104 22.931785 51.241105 51.241104v18.316583c0 16.421053-1.421647 32.8009-4.223734 48.97471l-34.593412 199.978351c-10.260583 62.511263 22.931785 124.3014 80.745431 150.261911l207.560468 97.042863c13.268706 6.201678 26.063529 13.412931 38.240245 21.571948l17.389422 11.661627c23.529289 15.761739 29.813381 47.59427 14.051642 71.102955z" fill="#8379C1" /><path d="M562.478772 447.715799v74.729186c0 29.393068-23.82598 53.219048-53.219048 53.219048h-0.061811c-29.393068 0-53.219048-23.82598-53.219048-53.219048v-75.3885l18.423722 12.811306a61.553196 61.553196 0 0 0 69.850258 0.294631z" fill="#EAF6FF" /><path d="M544.252845 460.162422a61.423394 61.423394 0 0 1-24.68721 9.869115v52.415508c0 21.767683-13.075032 40.471613-31.793385 48.715106a53.00065 53.00065 0 0 0 21.425663 4.503942h0.061811c29.393068 0 53.219048-23.82598 53.219048-53.219048V447.715799z" fill="#C8EFFE" /><path d="M527.390874 778.073605v189.67656h-30.90537v-189.67656c0-8.529882 6.922803-15.452685 15.452685-15.452685 8.550486 0 15.452685 6.922803 15.452685 15.452685zM295.456371 385.987473a15.409418 15.409418 0 0 1-21.489534 3.976491l-153.888141-105.819988 17.20399-25.672061c0.061811 0.020604 0.103018 0.061811 0.164828 0.103017l154.032366 105.94361c7.046424 4.821238 8.818332 14.44311 3.976491 21.468931zM903.921304 284.143976l-153.908745 105.819988c-2.657862 1.854322-5.707192 2.740276-8.735918 2.740276a15.473289 15.473289 0 0 1-12.753616-6.716767c-4.821238-7.025821-3.04933-16.647693 3.976491-21.468931l154.05297-105.94361c0.061811-0.041207 0.103018-0.082414 0.164828-0.103017z" fill="#6E61B6" /><path d="M527.514496 56.247774v189.67656c0 8.529882-6.922803 15.452685-15.452685 15.452685-8.550486 0-15.452685-6.922803-15.452685-15.452685V56.247774zM903.921304 739.853964l-17.20399 25.672061c-0.061811-0.020604-0.103018-0.061811-0.164828-0.103018l-154.032366-105.94361c-7.046424-4.821238-8.818332-14.44311-3.976491-21.46893 4.821238-7.046424 14.44311-8.818332 21.489534-3.976491zM291.500484 659.479397L137.447514 765.423007c-0.061811 0.041207-0.103018 0.082414-0.164828 0.103018l-17.20399-25.672061 153.908745-105.819988a15.438263 15.438263 0 0 1 21.489534 3.976491c4.821238 7.025821 3.04933 16.647693-3.976491 21.46893z" fill="#8379C1" /></svg>