<?xml version="1.0" standalone="no"?><!DOCTYPE svg PUBLIC "-//W3C//DTD SVG 1.1//EN" "http://www.w3.org/Graphics/SVG/1.1/DTD/svg11.dtd"><svg class="icon" width="200px" height="200.00px" viewBox="0 0 1024 1024" version="1.1" xmlns="http://www.w3.org/2000/svg"><path d="M533.32574 66.232c-9.206 17.976-34.896 17.976-44.104 0a74.388 74.388 0 0 0-66.212-40.48c-41.086 0-74.392 33.306-74.392 74.392v99.046c0 55.572 14.54 110.176 42.174 158.388l54.97 95.908c29.01 50.614 102.014 50.614 131.024 0l54.97-95.908a318.514 318.514 0 0 0 42.174-158.388V100.142c0-41.086-33.306-74.392-74.392-74.392a74.39 74.39 0 0 0-66.212 40.482z" fill="#FFCEEC" /><path d="M599.53774 25.75c-7.464 0-14.75 1.15-21.678 3.264 30.43 9.33 52.558 37.642 52.558 71.128v99.046c0 55.57-14.54 110.176-42.174 158.388l-54.97 95.908c-10.328 18.022-26.244 29.59-43.756 34.778 31.672 9.382 68.588-2.186 87.268-34.778l54.97-95.908a318.514 318.514 0 0 0 42.174-158.388V100.142c0-41.086-33.306-74.392-74.392-74.392z" fill="#FFBEE6" /><path d="M956.57174 389.052c-20.108-1.896-29.62-25.76-16.33-40.968a74.392 74.392 0 0 0 13.086-76.496c-15.214-38.164-58.486-56.77-96.65-41.558l-92.006 36.676a318.498 318.498 0 0 0-131.512 97.824l-68.736 86.576c-36.274 45.69-9.242 113.506 48.518 121.712l109.444 15.55a318.516 318.516 0 0 0 162.746-19.474l92.006-36.676c38.164-15.214 56.77-58.486 41.558-96.65a74.4 74.4 0 0 0-62.124-46.516z" fill="#FFCEEC" /><path d="M1018.69174 435.568a74.39 74.39 0 0 0-62.122-46.516c-20.108-1.896-29.62-25.76-16.33-40.968a74.396 74.396 0 0 0 13.086-76.496c-14.448-36.244-54.198-54.824-90.85-43.574 20.81 6.382 38.652 21.782 47.338 43.574a74.396 74.396 0 0 1-13.086 76.496c-13.29 15.208-3.776 39.072 16.33 40.968a74.396 74.396 0 0 1 62.122 46.516c15.214 38.164-3.392 81.436-41.558 96.65l-92.006 36.676a318.486 318.486 0 0 1-96.276 21.862 318.5 318.5 0 0 0 139.788-21.862l92.006-36.676c38.168-15.214 56.772-58.486 41.558-96.65z" fill="#FFBEE6" /><path d="M411.06374 572.82l-63.686 9.044-45.76 6.51a318.572 318.572 0 0 1-162.748-19.49l-91.996-36.674c-38.178-15.206-56.784-58.474-41.558-96.652a74.114 74.114 0 0 1 24.518-31.998 74.166 74.166 0 0 1 37.602-14.504c20.11-1.896 29.608-25.754 16.318-40.98a74.358 74.358 0 0 1-18.378-48.954c0-9.272 1.73-18.626 5.296-27.526 11.62-29.134 39.58-46.874 69.126-46.874 9.168 0 18.482 1.71 27.526 5.316l92.016 36.674a318.312 318.312 0 0 1 131.512 97.826l29.278 36.88 39.456 49.696c36.262 45.678 9.23 113.506-48.522 121.706z" fill="#FFCEEC" /><path d="M601.91574 525.822c0 73.7-59.73 133.45-133.43 133.45-53.694 0-99.948-31.708-121.108-77.408l63.686-9.044c57.752-8.2 84.784-76.028 48.522-121.706l-39.456-49.696a133.15 133.15 0 0 1 48.356-9.024c73.7 0 133.43 59.75 133.43 133.428z" fill="#FFBEE6" /><path d="M411.06374 572.82l-63.686 9.044c-7.912-17.04-12.32-36.016-12.32-56.042 0-56.618 35.274-105.038 85.072-124.404l39.456 49.696c36.262 45.678 9.23 113.506-48.522 121.706z" fill="#FFBEE6" /><path d="M459.57774 451.108l-68.736-86.576a318.492 318.492 0 0 0-131.512-97.824l-92.006-36.676a74.064 74.064 0 0 0-49.31-2.02c1.942 0.596 3.878 1.252 5.798 2.02l92.006 36.676a318.498 318.498 0 0 1 131.512 97.824l68.736 86.576c36.274 45.69 9.242 113.506-48.518 121.712l-109.444 15.55c-7.636 1.086-15.294 1.86-22.958 2.388a318.5 318.5 0 0 0 66.47-2.388l109.444-15.55c57.76-8.206 84.792-76.022 48.518-121.712z" fill="#FFBEE6" /><path d="M786.11974 908.682c-4.118-19.772 15.88-35.9 34.33-27.688a74.394 74.394 0 0 0 76.952-10.056c31.98-25.792 36.998-72.626 11.204-104.606l-62.178-77.096a318.494 318.494 0 0 0-132.258-96.814l-102.998-40.146c-54.356-21.186-111.184 24.644-101.99 82.254l17.42 109.162a318.502 318.502 0 0 0 66.606 149.764l62.178 77.096c25.792 31.98 72.626 36.998 104.606 11.204a74.384 74.384 0 0 0 26.128-73.074z" fill="#FFCEEC" /><path d="M792.96374 886.02a74.32 74.32 0 0 1-16.024-5.024c-18.45-8.212-38.448 7.916-34.33 27.688a74.39 74.39 0 0 1-51.082 86.31c22.794 6.952 48.518 2.852 68.464-13.234a74.396 74.396 0 0 0 26.128-73.076c-1.862-8.942 1.216-17.128 6.844-22.664z" fill="#FFCEEC" /><path d="M908.60774 766.334l-62.178-77.096a318.494 318.494 0 0 0-132.258-96.814l-102.998-40.146c-16.888-6.582-34.012-6.688-49.326-1.988 1.938 0.588 3.878 1.234 5.812 1.988l102.998 40.146a318.528 318.528 0 0 1 132.258 96.814l62.178 77.096c25.792 31.98 20.774 78.816-11.204 104.606a74.272 74.272 0 0 1-24.96 13.194c23.414 7.174 49.108 2.42 68.472-13.194 31.982-25.794 36.996-72.628 11.206-104.606z" fill="#FFBEE6" /><path d="M517.06974 634.528l-2.658 16.628-14.772 92.53a318.452 318.452 0 0 1-66.59 149.768l-62.182 77.098c-25.796 31.976-72.628 37.004-104.604 11.208a74.334 74.334 0 0 1-26.126-73.082c4.12-19.78-15.886-35.892-34.346-27.692a74.196 74.196 0 0 1-30.246 6.428 74.288 74.288 0 0 1-46.688-16.482c-18.234-14.69-27.712-36.222-27.712-57.938 0-16.4 5.398-32.904 16.504-46.668l62.162-77.098a318.834 318.834 0 0 1 132.276-96.816l34.058-13.268 68.94-26.868c54.348-21.178 111.174 24.644 101.984 82.252z" fill="#FFCEEC" /><path d="M517.06974 634.528l-2.658 16.628a133.08 133.08 0 0 1-45.926 8.118c-54.744 0-101.782-32.966-122.344-80.128l68.94-26.868c54.352-21.18 111.178 24.642 101.988 82.25z" fill="#FFBEE6" /><path d="M420.88774 550.288c33.968 10.426 59 44.53 52.664 84.242l-17.42 109.162a318.502 318.502 0 0 1-66.606 149.764l-62.178 77.096a74.028 74.028 0 0 1-36.14 24.44c28.19 8.606 60.016-0.092 79.654-24.44l62.178-77.096a318.54 318.54 0 0 0 66.606-149.764l17.42-109.162c8.864-55.558-43.672-100.138-96.178-84.242zM477.38774 425.61a15.906 15.906 0 0 1-2.204 0.144 15.442 15.442 0 0 1-15.268-13.29l-2.226-19.676-7.808-69.126c-1.196-8.448 4.698-16.276 13.146-17.472s16.256 4.678 17.472 13.124l8.406 74.646 1.608 14.176c1.194 8.448-4.678 16.258-13.126 17.474zM454.90174 264.518a15.458 15.458 0 0 1-15.282-13.288l-5.178-36.534a15.452 15.452 0 0 1 13.132-17.468c8.448-1.202 16.268 4.682 17.468 13.132l5.178 36.534a15.452 15.452 0 0 1-15.318 17.624zM589.55374 214.69l-26.908 198.166a15.388 15.388 0 0 1-7.746 11.312 15.246 15.246 0 0 1-7.54 1.978c-0.722 0-1.462-0.042-2.184-0.144-8.448-1.216-14.34-9.024-13.146-17.472v-0.042l26.928-198.124c1.194-8.448 9.024-14.32 17.472-13.146 8.448 1.216 14.32 9.024 13.124 17.472zM611.99774 471.806a15.454 15.454 0 0 1-6.67-29.4l179.038-85.876a15.452 15.452 0 1 1 13.324 27.886l-179.038 85.876a15.426 15.426 0 0 1-6.654 1.514zM634.67374 540.42a15.456 15.456 0 0 1-15.226-12.916 15.45 15.45 0 0 1 12.704-17.78l193.718-35.72c8.42-1.398 16.38 4.286 17.784 12.704s-4.286 16.38-12.704 17.78l-193.718 35.72c-0.86 0.144-1.716 0.212-2.558 0.212zM755.97574 748.36a15.404 15.404 0 0 1-10.736-4.34l-143.994-140.638a15.454 15.454 0 0 1 21.474-22.226l143.994 140.638a15.454 15.454 0 0 1-10.738 26.566zM665.43774 822.826a15.476 15.476 0 0 1-7.686 2.06 15.454 15.454 0 0 1-13.412-7.768l-101.556-171.36a15.586 15.586 0 0 1-2.06-7.746c0.02-5.336 2.802-10.528 7.748-13.352a15.33 15.33 0 0 1 11.374-1.608 15.326 15.326 0 0 1 9.724 7.294l101.576 171.38c4.242 7.398 1.688 16.836-5.708 21.1zM424.37374 463.232c-2.638 5.562-8.18 8.798-13.948 8.798a15.412 15.412 0 0 1-6.654-1.504l-44.236-21.284-134.686-64.818c-7.686-3.688-10.962-12.918-7.274-20.604 3.668-7.706 12.898-10.962 20.604-7.294l142.7 68.672 36.222 17.43c7.706 3.688 10.96 12.918 7.272 20.604zM402.96774 527.742a15.434 15.434 0 0 1-15.206 12.918c-0.844 0-1.71-0.082-2.576-0.226l-49.944-9.272-143.646-26.682a15.448 15.448 0 0 1-12.712-17.78c1.402-8.406 9.374-14.092 17.78-12.692l141.134 26.208 52.478 9.746a15.416 15.416 0 0 1 12.692 17.78z" fill="#FFBEE6" /><path d="M421.90174 600.864l-32.512 32.182-112.084 110.972a15.41 15.41 0 0 1-10.734 4.348 15.43 15.43 0 0 1-11.126-4.718c-5.934-6.14-5.748-15.926 0.37-21.86l110.93-109.818 33.686-33.336a15.46 15.46 0 0 1 21.86 0.37 15.476 15.476 0 0 1-0.39 21.86zM480.37574 643.224l-9.498 16.174L378.20174 817.12a15.5 15.5 0 0 1-13.412 7.768 15.488 15.488 0 0 1-7.686-2.06c-7.396-4.266-9.952-13.702-5.708-21.098l85.814-146.018 16.38-27.876c4.244-7.418 13.702-9.952 21.098-5.708a15.46 15.46 0 0 1 5.688 21.096z" fill="#FFBEE6" /><path d="M385.18574 540.432l-49.944-9.272a132.7 132.7 0 0 1 2.554-30.946l52.478 9.746a15.42 15.42 0 0 1 12.692 17.78 15.434 15.434 0 0 1-15.206 12.918 15.34 15.34 0 0 1-2.574-0.226zM422.29374 579.002a15.478 15.478 0 0 1-0.392 21.86l-32.512 32.182a137.258 137.258 0 0 1-22.644-21.078l33.686-33.336a15.464 15.464 0 0 1 21.862 0.372zM403.77174 470.524l-44.236-21.284a134.314 134.314 0 0 1 21.346-24.044l36.222 17.43c7.706 3.688 10.962 12.918 7.274 20.604-2.638 5.562-8.18 8.798-13.948 8.798a15.388 15.388 0 0 1-6.658-1.504zM480.37574 643.224l-9.498 16.174a124.204 124.204 0 0 1-33.666-3.688l16.38-27.876c4.244-7.418 13.702-9.952 21.098-5.708a15.464 15.464 0 0 1 5.686 21.098zM490.51174 408.138c1.196 8.448-4.678 16.256-13.124 17.472a15.906 15.906 0 0 1-2.204 0.144 15.442 15.442 0 0 1-15.268-13.29l-2.226-19.676a143.32 143.32 0 0 1 10.796-0.392c6.944 0 13.764 0.536 20.418 1.566z" fill="#FEAEE1" /><path d="M511.27374 525.834m-133.434 0a133.434 133.434 0 1 0 266.868 0 133.434 133.434 0 1 0-266.868 0Z" fill="#FFD15B" /><path d="M511.27374 392.4a134.44 134.44 0 0 0-21.392 1.728c63.518 10.24 112.04 65.294 112.04 131.704s-48.522 121.464-112.04 131.704a134.44 134.44 0 0 0 21.392 1.728c73.692 0 133.434-59.74 133.434-133.434s-59.74-133.43-133.434-133.43z" fill="#FFC344" /><path d="M511.27374 525.834m-65.514 0a65.514 65.514 0 1 0 131.028 0 65.514 65.514 0 1 0-131.028 0Z" fill="#FFEAD9" /><path d="M511.27374 460.32c-7.494 0-14.686 1.276-21.392 3.592 25.672 8.87 44.12 33.234 44.12 61.92 0 28.688-18.446 53.052-44.12 61.92a65.408 65.408 0 0 0 21.392 3.592c36.182 0 65.512-29.332 65.512-65.514s-29.332-65.51-65.512-65.51z" fill="#FEDBA6" /></svg>