<?xml version="1.0" standalone="no"?><!DOCTYPE svg PUBLIC "-//W3C//DTD SVG 1.1//EN" "http://www.w3.org/Graphics/SVG/1.1/DTD/svg11.dtd"><svg class="icon" width="200px" height="200.00px" viewBox="0 0 1024 1024" version="1.1" xmlns="http://www.w3.org/2000/svg"><path d="M536.796658 991.610846l-4.532833 11.575208c-7.219567 18.432148-33.303962 18.432148-40.523529 0l-4.532834-11.575208a902.064725 902.064725 0 0 1-62.1266-328.974495h173.846518a902.136838 902.136838 0 0 1-62.130722 328.974495z" fill="#BBF49B" /><path d="M554.130625 662.636351c0 112.574974-10.674822 192.948289-51.72993 297.767998l-4.532833 11.575208c-2.591956 6.617937-7.627522 10.819049-13.336832 12.683692 0.885963 2.317926 1.769865 4.635852 2.674372 6.947597l4.532833 11.575208c7.219567 18.432148 33.303962 18.432148 40.52353 0l4.532833-11.575208a902.066785 902.066785 0 0 0 62.128661-328.974495z" fill="#9BE69D" /><path d="M536.796658 32.387094l-4.532833-11.575208c-7.219567-18.432148-33.303962-18.432148-40.523529 0l-4.532834 11.575208a902.064725 902.064725 0 0 0-62.1266 328.974494h173.846518a902.136838 902.136838 0 0 0-62.130722-328.974494z" fill="#BBF49B" /><path d="M536.796658 32.387094l-4.532833-11.575208c-7.219567-18.432148-33.303962-18.432148-40.523529 0l-4.532834 11.575208c-0.440921 1.124967-0.865359 2.254054-1.300099 3.379021 4.979935 2.111888 9.273765 6.109023 11.599933 12.047034l4.532833 11.575208c41.055107 104.821769 52.094616 189.398257 52.094617 301.973231h44.792634a902.136838 902.136838 0 0 0-62.130722-328.974494z" fill="#9BE69D" /><path d="M361.36777 425.07262v173.85476c-21.572166 0-43.123727-0.782944-64.592874-2.328228a901.724762 901.724762 0 0 1-264.387802-59.812796l-11.579329-4.532833c-18.419786-7.211326-18.419786-33.295721 0-40.507046l11.579329-4.532833a901.724762 901.724762 0 0 1 264.387802-59.812796 899.790067 899.790067 0 0 1 64.592874-2.328228z" fill="#BBF49B" /><path d="M361.36777 425.07262v173.85476c-21.572166 0-43.123727-0.782944-64.592874-2.328228l-51.612488-51.612488c-18.213748-18.213748-18.213748-47.75958 0-65.973328l51.612488-51.612488a899.790067 899.790067 0 0 1 64.592874-2.328228z" fill="#9BE69D" /><path d="M991.612906 536.794598l11.575208-4.532833c18.432148-7.219567 18.432148-33.303962 0-40.52353l-11.575208-4.532833a902.064725 902.064725 0 0 0-328.974494-62.126601v173.846518a902.136838 902.136838 0 0 0 328.974494-62.130721z" fill="#BBF49B" /><path d="M1003.188114 491.736175l-11.573147-4.532833a902.064725 902.064725 0 0 0-328.974495-62.126601v1.124967a902.009095 902.009095 0 0 1 284.181861 61.003694l11.573147 4.532833c18.434209 7.219567 18.434209 33.303962 0 40.52353l-11.573147 4.532833a902.064725 902.064725 0 0 1-284.181861 61.003694v1.124967a902.015276 902.015276 0 0 0 328.974495-62.128661l11.573147-4.532833c18.434209-7.219567 18.434209-33.306023 0-40.52559z" fill="#9BE69D" /><path d="M734.049079 544.986664l-15.267407 15.267406-173.792948 173.792948a46.226658 46.226658 0 0 1-21.201297 12.135631c-11.393895 2.966945-23.673752 1.565888-34.202287-4.223776-3.791097-2.060379-7.355552-4.697664-10.569743-7.911855l-189.060355-189.060354c-18.213748-18.213748-18.213748-47.75958 0-65.973328l189.060355-189.060354c3.214191-3.214191 6.79925-5.872079 10.590346-7.932459 10.528535-5.769061 22.787789-7.170118 34.181684-4.203172 7.767628 1.998567 15.12318 6.057514 21.201297 12.135631l189.060355 189.060354c18.211688 18.211688 18.211688 47.75958 0 65.973328z" fill="#8379C1" /><path d="M734.049079 544.986664l-15.267407 15.267406-173.792948 173.792948a46.226658 46.226658 0 0 1-21.201297 12.135631c-11.393895 2.966945-23.673752 1.565888-34.202287-4.223776l0.020603-0.020604c3.791097-2.060379 7.376156-4.67706 10.590347-7.891251l1.03431-1.03431c10.965336-10.965336 17.579152-25.40653 19.346957-40.811982 3.922961-34.16108 19.101771-66.927283 44.623683-92.449195 28.101506-28.101506 64.986406-43.665607 102.831443-45.466378 7.986028-0.38117 15.55998-3.64687 21.219841-9.294368l0.004121-0.004121c18.213748-18.213748 18.213748-47.75958 0-65.973328-5.688706-5.676343-13.310047-8.931742-21.337283-9.30261a155.434973 155.434973 0 0 1-102.718122-45.462257c-25.521912-25.521912-40.700722-58.288115-44.623683-92.449195-1.767805-15.405452-8.383681-29.846647-19.346957-40.811982l-1.03431-1.03431c-3.214191-3.214191-6.79925-5.830872-10.590347-7.891251v-0.041208c10.528535-5.769061 22.787789-7.170118 34.181684-4.203172 7.767628 1.998567 15.12318 6.057514 21.201297 12.135631l189.060355 189.060354c18.211688 18.211688 18.211688 47.75958 0 65.973328z" fill="#6E61B6" /><path d="M423.467585 836.177933c-33.604778 53.817093-84.228284 95.477952-144.556173 116.370192-2.493058 0.865359-215.680448 69.063896-215.680448 69.063896-12.959782 4.161965-25.692923 2.637285-36.28327-2.699096h-0.020604c-19.985674-10.054648-32.389154-33.666589-24.539111-58.143889 0 0 68.198537-213.18739 69.063896-215.680448 20.892241-60.32789 62.553099-110.951396 116.370192-144.556173l206.800216 206.800215z" fill="#FFCEEC" /><path d="M143.876249 895.576592a15.452841 15.452841 0 0 1-10.928249-26.379029l207.562555-207.562556a15.452841 15.452841 0 0 1 21.854438 21.852377L154.802437 891.052a15.409573 15.409573 0 0 1-10.926188 4.524592zM423.467585 836.177933c-33.604778 53.817093-84.228284 95.477952-144.556173 116.370192-2.493058 0.865359-215.680448 69.063896-215.680448 69.063896-12.959782 4.161965-25.692923 2.637285-36.28327-2.699096 39.662291-12.691933 204.987082-65.60246 207.171084-66.3648 60.32789-20.892241 110.951396-62.553099 144.556173-116.370192 4.512229-7.231929 8.75661-14.669897 12.630122-22.334506l3.31721-6.510797z" fill="#FFBEE6" /><path d="M453.011356 780.570371l-16.915709 33.275117a285.527288 285.527288 0 0 1-12.630122 22.334505c-43.556407-3.379021-86.185643-21.695788-119.522572-55.012112l-61.110834-61.110834c-33.316324-33.336928-51.633092-75.966165-55.012112-119.522572 7.231929-4.512229 14.669897-8.75661 22.334505-12.630122l33.275117-16.915709c60.142456-30.555417 133.121071-18.955485 180.81884 28.762887 47.720432 47.697768 59.318304 120.676384 28.762887 180.81884z" fill="#FE646F" /><path d="M362.377355 683.485324l-78.067751 78.047147-21.840015-21.840015 78.047148-78.047147a15.456961 15.456961 0 0 1 21.860618 0c6.016306 6.016306 6.016306 15.803105 0 21.840015z" fill="#FD4755" /><path d="M424.25465 599.74535c-35.481783-35.481783-84.932933-50.975831-132.694573-44.030294 32.510716 4.707965 63.509115 19.63747 87.901939 44.030294 47.70807 47.70807 59.318304 120.678444 28.762887 180.831202l-16.923951 33.264815a276.770678 276.770678 0 0 1-8.093168 14.812063 190.453171 190.453171 0 0 0 40.25568 7.530684 282.317218 282.317218 0 0 0 12.630122-22.342747l16.923951-33.264815c30.555417-60.152758 18.945183-133.123132-28.762887-180.831202z" fill="#FD4755" /><path d="M1021.616142 63.228903s-68.198537 213.18739-69.063896 215.680448c-20.892241 60.32789-62.553099 110.951396-116.370192 144.556174l-18.522805-18.522805-217.122713-217.122713c33.604778-53.817093 84.228284-95.477952 144.556173-116.370193 2.184001-0.76234 167.591208-53.672867 207.212291-66.344195 5.398192-1.730718 8.468157-2.7197 8.468157-2.7197 37.455625-12.014069 72.852932 23.385299 60.842985 60.842984z" fill="#FFCEEC" /><path d="M672.565316 366.887524a15.452841 15.452841 0 0 1-10.928248-26.379029l207.560495-207.562556a15.452841 15.452841 0 0 1 21.854437 21.852377l-207.560495 207.562556a15.399271 15.399271 0 0 1-10.926189 4.526652zM1021.616142 63.228903s-68.198537 213.18739-69.063896 215.680448c-20.892241 60.32789-62.553099 110.951396-116.370192 144.556174l-18.522805-18.522805c41.063349-32.512777 72.751974-75.924957 90.100363-126.033369 0.865359-2.493058 69.063896-215.680448 69.063896-215.680448 7.850043-24.4773-4.553437-48.048033-24.518508-58.123284 5.398192-1.730718 8.468157-2.7197 8.468157-2.7197 37.455625-12.014069 72.852932 23.385299 60.842985 60.842984z" fill="#FFBEE6" /><path d="M836.182054 423.465525a285.527288 285.527288 0 0 1-22.334506 12.630122l-33.275117 16.915709a155.673977 155.673977 0 0 1-92.222553 15.39103 155.434973 155.434973 0 0 1-88.596286-44.153917c-47.718372-47.697768-59.318304-120.676384-28.762888-180.81884l16.91571-33.275117c3.873512-7.664609 8.117892-15.102576 12.630122-22.334505 43.556407 3.379021 86.185643 21.695788 119.522571 55.012112l41.475424 41.475425 19.63541 19.635409c25.5693 25.589904 42.299576 56.660416 50.21143 89.399834a187.94775 187.94775 0 0 1 4.800683 30.122738z" fill="#FE646F" /><path d="M761.532471 284.307544l-78.047147 78.047147c-3.008153 3.028757-6.96408 4.532833-10.920008 4.532833s-7.911854-1.504076-10.920007-4.532833c-6.03691-6.016306-6.03691-15.803105 0-21.840015l78.047147-78.047147zM836.182054 423.465525a285.527288 285.527288 0 0 1-22.334506 12.630122l-33.275117 16.915709a155.673977 155.673977 0 0 1-92.222553 15.39103c-0.247245-0.041208-0.473887-0.082415-0.700529-0.123623a155.47 155.47 0 0 0 48.130448-15.267407l33.275117-16.915709c7.664609-3.873512 15.102576-8.117892 22.334506-12.630122 14.237217-8.880232 27.629679-18.976088 39.991951-30.122738a187.94775 187.94775 0 0 1 4.800683 30.122738z" fill="#FD4755" /><path d="M423.467585 187.820007l-28.185981 28.185981-207.459537 207.459537c-53.817093-33.604778-95.477952-84.228284-116.370192-144.556174-0.865359-2.493058-69.063896-215.680448-69.063896-215.680448-7.355552-22.911412 3.049361-45.060483 20.789222-56.021698 11.270272-7.005288 25.507489-9.477742 40.053763-4.821286 0 0 213.18739 68.198537 215.680448 69.063895 60.32789 20.892241 110.949336 62.553099 144.556173 116.370193z" fill="#FFCEEC" /><path d="M351.438804 366.887524a15.407512 15.407512 0 0 1-10.928249-4.526652L132.948 154.800377a15.452841 15.452841 0 0 1 21.854437-21.852377l207.562556 207.562555a15.452841 15.452841 0 0 1-10.926189 26.376969zM423.467585 187.820007l-28.185981 28.185981-0.039147-0.057691c-2.363254-3.562395-4.493686-7.281379-6.19762-11.200219C332.337033 74.282835 159.376478 50.448374 42.439682 9.370603a48.637301 48.637301 0 0 0-19.264542-2.163398c11.270272-7.005288 25.507489-9.477742 40.053763-4.821286 0 0 213.18739 68.198537 215.680448 69.063895 60.32995 20.892241 110.951396 62.553099 144.558234 116.370193z" fill="#FFBEE6" /><path d="M424.248469 424.248469c-47.697768 47.718372-120.676384 59.318304-180.81884 28.762887l-33.275117-16.915709a285.527288 285.527288 0 0 1-22.334505-12.630122c3.379021-43.556407 21.695788-86.185643 55.012112-119.522572l19.63541-19.635409 41.475424-41.475425c33.336928-33.316324 75.966165-51.633092 119.522572-55.012112 4.512229 7.231929 8.75661 14.669897 12.630122 22.334505l16.915709 33.275117c30.555417 60.142456 18.957545 133.121071-28.762887 180.81884z" fill="#FE646F" /><path d="M362.377355 362.354691c-3.028757 3.028757-6.984684 4.532833-10.940611 4.532833s-7.911854-1.504076-10.920007-4.532833l-78.047148-78.047147 21.840015-21.840015 78.067751 78.047147c6.016306 6.03691 6.016306 15.823709 0 21.840015z" fill="#FD4755" /><path d="M453.017537 243.421388l-16.923951-33.264815a282.60155 282.60155 0 0 0-12.630122-22.342748 190.418144 190.418144 0 0 0-39.00915 7.184541 211.06726 211.06726 0 0 1 4.392727 9.341757 72.716947 72.716947 0 0 0 5.781423 10.722212c71.571377 108.586081 5.490909 238.144758-101.710597 253.401862 47.339262 6.459287 96.190843-9.065667 131.336783-44.211607 47.70807-47.70807 59.318304-120.678444 28.762887-180.831202z" fill="#FD4755" /><path d="M960.773157 1021.612021s-3.069964-0.988982-8.468157-2.7197c-39.621083-12.671329-205.02829-65.581856-207.212291-66.344196-60.32789-20.892241-110.951396-62.553099-144.556173-116.370192l218.420751-218.420752 17.224767-17.224766c53.817093 33.604778 95.477952 84.228284 116.370192 144.556173 0.865359 2.493058 69.063896 215.680448 69.063896 215.680448 12.009948 37.459746-23.387359 72.857053-60.842985 60.842985z" fill="#FFCEEC" /><path d="M880.125812 895.576592a15.403392 15.403392 0 0 1-10.928249-4.526652L661.637068 683.489445a15.452841 15.452841 0 0 1 0-21.852377 15.452841 15.452841 0 0 1 21.854437 0l207.560495 207.562555a15.452841 15.452841 0 0 1-10.926188 26.376969zM960.773157 1021.612021s-3.069964-0.988982-8.468157-2.7197c19.96507-10.075252 32.36855-33.645985 24.518508-58.123285-35.953609-102.318409-63.892345-265.438595-157.866221-343.011855l17.224767-17.224766c53.817093 33.604778 95.477952 84.228284 116.370192 144.556173 0.865359 2.493058 69.063896 215.680448 69.063896 215.680448 12.009948 37.459746-23.387359 72.857053-60.842985 60.842985z" fill="#FFBEE6" /><path d="M836.182054 600.532415c-3.379021 43.556407-21.695788 86.185643-55.012113 119.522571l-61.110834 61.110834c-33.336928 33.316324-75.966165 51.633092-119.522571 55.012113a285.527288 285.527288 0 0 1-12.630122-22.334506l-16.91571-33.275117c-30.555417-60.142456-18.955485-133.121071 28.762888-180.818839 47.697768-47.718372 120.676384-59.318304 180.818839-28.762888l33.275117 16.91571c7.662549 3.873512 15.102576 8.117892 22.334506 12.630122z" fill="#FE646F" /><path d="M761.532471 739.692456l-21.840015 21.840015-78.047147-78.047147c-6.03691-6.03691-6.03691-15.823709 0-21.840015a15.432237 15.432237 0 0 1 21.840015 0zM773.497091 589.766936c22.072838 9.537493 41.292051 23.041216 58.20982 39.43977a190.743684 190.743684 0 0 0 4.479264-28.67017 282.317218 282.317218 0 0 0-22.342748-12.630122l-33.264815-16.923951c-29.630307-15.051067-62.367665-19.849689-93.668939-15.164388 26.063791 3.034938 52.696247 12.391118 78.152227 29.368639a53.14953 53.14953 0 0 0 8.435191 4.580222z" fill="#FD4755" /><path d="M512.00206 512m-49.605679 0a49.605679 49.605679 0 1 0 99.211358 0 49.605679 49.605679 0 1 0-99.211358 0Z" fill="#FE646F" /><path d="M512.00206 462.392261c-8.062262 0-15.66712 1.934696-22.396317 5.346683 16.141007 8.183824 27.209362 24.922341 27.209362 44.258996 0 19.334594-11.068355 36.073111-27.209362 44.258996a49.374916 49.374916 0 0 0 22.396317 5.346683c27.396856 0 49.605679-22.208823 49.605679-49.605679-0.00206-27.394796-22.210883-49.605679-49.605679-49.605679z" fill="#FE646F" /></svg>