<?xml version="1.0" standalone="no"?><!DOCTYPE svg PUBLIC "-//W3C//DTD SVG 1.1//EN" "http://www.w3.org/Graphics/SVG/1.1/DTD/svg11.dtd"><svg class="icon" width="200px" height="200.00px" viewBox="0 0 1024 1024" version="1.1" xmlns="http://www.w3.org/2000/svg"><path d="M512 129.367997a14.998 14.998 0 0 1-15-14.999999V15c0-8.286 6.714-15 15-15s15 6.714 15 15v99.367998a15 15 0 0 1-15 14.999999zM582.647999 204.223996a15 15 0 0 1-14.828-17.38l22.123999-137.851997a15 15 0 0 1 29.622 4.754L597.441998 191.599996a15.004 15.004 0 0 1-14.793999 12.624zM438.002001 204.223996a15 15 0 0 1-14.791999-12.624l-22.124-137.851997a15 15 0 0 1 29.622-4.754l22.123999 137.851997a15 15 0 0 1-14.83 17.378z" fill="#FFD15B" /><path d="M717.381996 517.51199a14.998 14.998 0 0 1-9.616-26.518l60.307999-49.979999a14.998 14.998 0 0 1 21.126 1.912 14.998 14.998 0 0 1-1.912 21.126l-60.307999 49.979999a14.928 14.928 0 0 1-9.598 3.48zM700.123996 918.931982a14.982 14.982 0 0 1-12.639999-6.906 14.996 14.996 0 0 1 4.531999-20.721999l72.357999-47.201999a14.994 14.994 0 0 1 20.722 4.531999 14.996 14.996 0 0 1-4.532 20.722l-72.357999 47.201999a14.936 14.936 0 0 1-8.082 2.374z" fill="#9BE69D" /><path d="M288.908004 601.213988a14.944 14.944 0 0 1-9.447999-3.356l-65.319999-55.447999a15.004 15.004 0 0 1 18.913999-23.289999l65.319999 55.447999a15.004 15.004 0 0 1-9.466 26.645999z" fill="#6FD7A3" /><path d="M512 232.619995v104.099998l-83.659998 28.24-75.139999-97.859998a136.915997 136.915997 0 0 1-43.879999-100.439998V139.419997c0-13.7 15.02-22.1 26.699999-14.939999l71.139999 43.719999z" fill="#FE646F" /><path d="M407.160002 168.199997l-0.002 0.002-71.147999-43.715999c-11.672-7.172-26.687999 1.226-26.687999 14.925999v6.642c5.324-3.378 12.396-3.96 18.556-0.174l63.819998 38.991999c4.312 2.634 6.638 7.628 5.762 12.604a103.587998 103.587998 0 0 0-1.582 17.984v47.279999c0 40.829999 33.103999 73.961999 73.947999 73.979998l-50.159999 16.936 8.678 11.3L512 336.709993V232.619995z" fill="#FD4755" /><path d="M512 232.621995v104.089998l83.653998 28.246 75.149999-97.857998a136.915997 136.915997 0 0 0 43.873999-100.445998V139.411997c0-13.7-15.016-22.098-26.687999-14.925999z" fill="#FE646F" /><path d="M687.987997 124.487998l-22.776 13.993999c4.334 3.092 7.318 8.128 7.318 14.226v13.942a136.915997 136.915997 0 0 1-43.873999 100.445998l-66.471999 86.557998 33.467999 11.3 75.149999-97.857998a136.915997 136.915997 0 0 0 43.873999-100.445998V139.411997c0.002-13.698-15.016-22.096-26.687999-14.923999z" fill="#FD4755" /><path d="M706.523996 1008.99998H317.476004l-37.393999-320.519993a584.919989 584.919989 0 0 1 5.099999-170.229997l12.876-72.383999c11.234-63.151999 66.141999-109.155998 130.285998-109.155998h167.307996c64.143999 0 119.051998 46.001999 130.285998 109.155998l12.876 72.383999a584.919989 584.919989 0 0 1 5.099999 170.229997z" fill="#9BE69D" /><path d="M738.815996 518.24999l-12.876-72.383999c-11.234-63.151999-66.141999-109.155998-130.285998-109.155998h-42.145999c64.143999 0 119.051998 46.001999 130.285998 109.155998l12.875999 72.383999a584.919989 584.919989 0 0 1 5.1 170.229997L664.377997 1008.99998h42.145999l37.393999-320.519993a584.987989 584.987989 0 0 0-5.101999-170.229997z" fill="#6FD7A3" /><path d="M445.240001 901.359982a14.956 14.956 0 0 1-10.329999-4.124l-69.807999-64.091998a15.002 15.002 0 0 1 20.665999-21.75l69.807999 64.091999a15.002 15.002 0 0 1-10.336 25.873999z" fill="#3EC3A4" /><path d="M582.641999 722.733986a15 15 0 0 1-9.816-26.348l72.747998-64.367998a15 15 0 1 1 19.62 22.695999l-72.747999 64.367999a14.942 14.942 0 0 1-9.803999 3.652z" fill="#6FD7A3" /><path d="M588.499999 1008.99998h-152.999998l-14.705999-320.519993c-2.6-56.687999-1.926-114.039998 2.006-170.229997l5.064-72.383999c4.418-63.151999 26.011999-109.155998 51.237999-109.155998h65.797998c25.226 0 46.819999 46.001999 51.237999 109.155998l5.064 72.383999c3.93 56.189999 4.606 113.541998 2.006 170.229997z" fill="#6FD7A3" /><path d="M601.199998 518.24999l-5.064-72.383999c-4.418-63.151999-26.011999-109.155998-51.237999-109.155998h-42.145999c25.226 0 46.819999 46.001999 51.237999 109.155998l5.064 72.383999c3.93 56.189999 4.606 113.541998 2.006 170.229997l-14.706 320.519993h42.146l14.705999-320.519993c2.6-56.687999 1.924-114.039998-2.006-170.229997z" fill="#3EC3A4" /><path d="M585.979999 215.459996v47.279999c0 35.699999-25.32 65.519999-58.979999 72.459998-4.84 1-9.86 1.52-15 1.52s-10.16-0.52-15-1.52c-33.659999-6.94-58.979999-36.759999-58.979999-72.459998v-47.279999c0-20.82 6.22-41.179999 17.84-58.459999l42.599999-63.319999c6.48-9.6 20.6-9.6 27.08 0l42.599999 63.319999a104.791998 104.791998 0 0 1 17.84 58.459999z" fill="#FE646F" /><path d="M568.141999 156.997997L525.534 93.679998c-6.466-9.608-20.604-9.608-27.07 0l-13.117999 19.494c5.604-0.478 11.412 1.882 14.939999 7.124l25.708 36.699999a104.713998 104.713998 0 0 1 17.837999 58.459999v47.273999c0 33.533999-22.318 61.839999-52.905999 70.915998a73.963999 73.963999 0 0 0 21.072 3.062c40.857999 0 73.979999-33.121999 73.979999-73.979998v-47.273999a104.683998 104.683998 0 0 0-17.836-58.457999z" fill="#FD4755" /><path d="M527 232.619995v102.579998c-4.84 1-9.86 1.52-15 1.52s-10.16-0.52-15-1.52v-102.579998c0-8.28 6.72-15 15-14.999999s15 6.72 15 14.999999z" fill="#FD4755" /><path d="M421.298002 557.881989a14.998 14.998 0 0 1-10.416-25.793999l52.555999-50.701999a15 15 0 0 1 20.828 21.587999l-52.555999 50.701999a14.94 14.94 0 0 1-10.412 4.206z" fill="#3EC3A4" /><path d="M317.470004 1023.99998a14.93 14.93 0 0 1-9.85-3.694l-64.397999-56.131999a15 15 0 0 1-1.452-21.161999 14.994 14.994 0 0 1 21.162-1.452l64.397999 56.131999a15 15 0 0 1 1.452 21.161999 14.958 14.958 0 0 1-11.312 5.146z" fill="#6FD7A3" /><path d="M824.897994 1023.99998H199.102006c-8.286 0-15-6.714-15-15s6.714-15 15-14.999999h625.795988c8.286 0 15 6.714 15 14.999999s-6.714 15-15 15z" fill="#3EC3A4" /></svg>