<?xml version="1.0" standalone="no"?><!DOCTYPE svg PUBLIC "-//W3C//DTD SVG 1.1//EN" "http://www.w3.org/Graphics/SVG/1.1/DTD/svg11.dtd"><svg class="icon" width="200px" height="200.00px" viewBox="0 0 1024 1024" version="1.1" xmlns="http://www.w3.org/2000/svg"><path d="M325.784467 564.730849l-97.475735-51.65534 40.298624-105.92528a69.409481 69.409481 0 0 1 12.68771-21.081625c21.203187-24.170109 56.233465-30.60668 84.643799-15.551614l0.535694 0.28433c28.410334 15.055066 42.752515 47.658237 34.655292 78.773827a69.368274 69.368274 0 0 1-10.320354 22.336386z" fill="#C8EFFE" /><path d="M366.474559 370.79926l-0.535694-0.28433c-17.307042-9.172732-37.067976-10.35332-54.667589-4.421538a69.341489 69.341489 0 0 1 10.285328 4.421538l0.535694 0.28433c28.410334 15.055066 42.752515 47.658237 34.655292 78.773827a69.388877 69.388877 0 0 1-10.320355 22.336386l-53.011058 75.670921 32.366229 17.152515 65.025031-92.821376a69.368274 69.368274 0 0 0 10.320354-22.336386c8.099284-31.11765-6.244958-63.720821-34.653232-78.775887z" fill="#99E6FC" /><path d="M270.523493 669.005779l-97.475734-51.65534-65.025031 92.821376a69.368274 69.368274 0 0 0-10.320354 22.336386c-8.097223 31.11559 6.247018 63.718761 34.655292 78.773827l0.535694 0.28433c28.410334 15.055066 63.440612 8.618495 84.643799-15.551614a69.343549 69.343549 0 0 0 12.68771-21.081625z" fill="#C8EFFE" /><path d="M270.523493 669.005779l-97.475734-51.65534-65.025031 92.821376a69.368274 69.368274 0 0 0-10.320354 22.336386c-8.097223 31.11559 6.247018 63.718761 34.655292 78.773827l0.535694 0.28433c28.410334 15.055066 63.440612 8.618495 84.643799-15.551614a69.343549 69.343549 0 0 0 12.68771-21.081625z" fill="#C8EFFE" /><path d="M270.525553 668.999598l-5.995654 15.782374-3.337786 8.777143-30.967244 81.363702a69.533103 69.533103 0 0 1-12.691831 21.098109c-16.091429 18.337223-40.135855 26.45505-63.211911 22.725794-7.334889-1.174406-14.566761-3.543823-21.427767-7.190664l-0.535694-0.267847c-23.09666-12.238551-36.901087-36.076942-36.901087-61.295774 0-5.810221 0.74173-11.682254 2.245795-17.492475 2.080966-7.994205 5.583581-15.555734 10.322415-22.334326l21.159919-30.225513 20.624226-29.421972 0.329658-0.473883 22.911227-32.697948 61.707847 32.697948 27.237988 14.443138z" fill="#C8EFFE" /><path d="M261.995654 664.487404l-27.237988-14.443138-61.707847-32.697948-22.911227 32.697948h-0.267848l-0.06181 0.473883-20.624226 29.421972 0.146286 0.123621c9.370527 7.988024 14.317457 19.993755 12.79897 32.211703L135.880885 762.519437a69.846278 69.846278 0 0 0 1.339236 24.559517 69.230229 69.230229 0 0 0 17.101006 31.667766c23.076056 3.729256 47.120483-4.388571 63.211911-22.725794 5.45996-6.222294 9.745513-13.371751 12.691831-21.098109l30.963123-81.361642 0.004121-0.00206 3.337786-8.777143 5.995654-15.782374z" fill="#99E6FC" /><path d="M275.725907 667.408998l51.65534-97.475734 105.92528 40.298623a69.409481 69.409481 0 0 1 21.081626 12.687711c24.170109 21.203187 30.60668 56.233465 15.551614 84.643798l-0.28433 0.535695c-15.055066 28.410334-47.658237 42.752515-78.773827 34.655291a69.368274 69.368274 0 0 1-22.336387-10.320354z" fill="#C8EFFE" /><path d="M454.390213 622.919598a69.343549 69.343549 0 0 0-21.081625-12.687711l-105.92528-40.298623-7.446149 14.05167 68.991227 26.246953a69.409481 69.409481 0 0 1 21.081626 12.687711c24.170109 21.203187 30.60668 56.233465 15.551614 84.643798l-0.28433 0.535695a69.302342 69.302342 0 0 1-39.097433 33.235702c1.551453 0.523332 3.115268 1.007517 4.703807 1.42165 31.11559 8.097223 63.718761-6.247018 78.773827-34.657352l0.28433-0.535695c15.055066-28.410334 8.618495-63.440612-15.551614-84.643798z" fill="#99E6FC" /><path d="M223.11662 514.678471l-51.673884 97.475734-82.826559-31.523541-23.09666-8.777143a69.434205 69.434205 0 0 1-21.077505-12.691831C20.273964 537.960563 13.845634 502.934406 28.886278 474.522012l0.28845-0.535694c12.238551-23.09666 36.076942-36.901087 61.295775-36.901087 5.789618 0 11.66165 0.74173 17.471871 2.245795 8.014809 2.080966 15.576338 5.562978 22.334326 10.322415l41.742938 29.236539z" fill="#C8EFFE" /><path d="M186.079549 584.543292L223.11662 514.678471l-11.581296-8.111646-80.675541-56.515734c-3.749859-2.626962-7.693392-4.992258-11.875928-6.854825-16.829038-7.493537-34.797457-7.831437-50.711694-2.447711a69.430085 69.430085 0 0 1 17.632579 8.898705l40.805473 28.587525c8.381553 5.872032 9.10268 18.067316 1.398986 24.8047-22.043815 19.276748-36.775404 46.70429-39.493022 77.593239l82.826559 31.523542 0.004121-0.008242 0.004121 0.002061z" fill="#99E6FC" /><path d="M715.881078 243.792354l-97.475734-51.65534 40.298624-105.92528a69.409481 69.409481 0 0 1 12.68771-21.081625c21.203187-24.170109 56.233465-30.60668 84.643799-15.551614l0.535694 0.28433c28.410334 15.055066 42.752515 47.658237 34.655292 78.773827a69.368274 69.368274 0 0 1-10.320354 22.336386z" fill="#C8EFFE" /><path d="M756.571171 49.860765l-0.535694-0.28433c-17.307042-9.172732-37.067976-10.35332-54.66759-4.421538a69.341489 69.341489 0 0 1 10.285328 4.421538l0.535694 0.28433c28.410334 15.055066 42.752515 47.656177 34.655292 78.773827a69.368274 69.368274 0 0 1-10.320354 22.336386L683.514849 226.639839l32.366229 17.152515 65.027091-92.821376a69.368274 69.368274 0 0 0 10.320354-22.336386c8.095163-31.11765-6.249078-63.718761-34.657352-78.773827z" fill="#99E6FC" /><path d="M660.613924 348.056982l-5.995654 15.782374-3.358391 8.797747-30.94664 81.363702a69.374455 69.374455 0 0 1-12.671227 21.077505c-16.070825 18.31662-40.115252 26.45505-63.170704 22.746398a69.06334 69.06334 0 0 1-21.489578-7.190664l-0.535694-0.28845c-23.09666-12.238551-36.901087-36.097545-36.901086-61.295775 0-5.789618 0.74173-11.66165 2.245794-17.471871a69.496016 69.496016 0 0 1 10.322415-22.35493l21.180523-30.225513 20.624225-29.463179 0.309055-0.432676 22.911227-32.697948 61.707847 32.697948 27.237988 14.443139z" fill="#C8EFFE" /><path d="M660.613924 348.056982l-31.331928-16.602398-4.43596-2.352934h-0.00206l-61.705787-32.697948-22.902986 32.697948h-0.255485l-0.061811 0.432676-0.00206 0.022664-20.622165 29.440515 0.146286 0.123622c9.368467 7.988024 14.315396 19.989634 12.796909 32.207581l-6.247018 50.248113c-1.030181 8.200241-0.576901 16.524105 1.339236 24.559517a68.989167 68.989167 0 0 0 17.142213 31.68837c23.055453 3.708652 47.099879-4.429779 63.170704-22.746398 5.439356-6.222294 9.745513-13.351147 12.671227-21.077505l30.94664-81.363702 3.358391-8.797747-0.002061-0.020603z" fill="#99E6FC" /><path d="M665.822519 346.468443l51.65534-97.475735 105.92528 40.298624a69.409481 69.409481 0 0 1 21.081626 12.68771c24.170109 21.203187 30.60668 56.233465 15.551613 84.643799l-0.28433 0.535694c-15.055066 28.410334-47.658237 42.752515-78.773827 34.655292a69.368274 69.368274 0 0 1-22.336386-10.320354z" fill="#C8EFFE" /><path d="M844.486825 301.981103a69.343549 69.343549 0 0 0-21.081626-12.687711L717.47992 248.994769l-7.446149 14.05167 68.991227 26.246953a69.409481 69.409481 0 0 1 21.081626 12.687711c24.170109 21.203187 30.60668 56.233465 15.551613 84.643798l-0.28433 0.535695a69.302342 69.302342 0 0 1-39.097432 33.235702c1.551453 0.523332 3.115268 1.007517 4.703807 1.42165 31.11559 8.097223 63.718761-6.247018 78.773827-34.655292l0.28433-0.535694c15.055066-28.412394 8.618495-63.444732-15.551614-84.645859z" fill="#99E6FC" /><path d="M613.20499 193.735855l-51.65328 97.475735-82.826559-31.523542-23.09666-8.777143a69.533103 69.533103 0 0 1-21.098109-12.691831c-24.168048-21.201127-30.596378-56.227284-15.53513-84.639678l0.267847-0.535694c12.238551-23.09666 36.076942-36.901087 61.295774-36.901086 5.810221 0 11.682254 0.74173 17.492475 2.245794 7.994205 2.080966 15.555734 5.583581 22.334326 10.322415l41.722334 29.236539z" fill="#C8EFFE" /><path d="M613.20499 193.735855l-51.65328 97.475735-82.826559-31.523542c4.26495-48.459718 38.1167-88.430744 83.382857-101.740684z" fill="#99E6FC" /><path d="M843.514334 710.091461l-108.216402-21.425706 8.115766-113.041771a69.370334 69.370334 0 0 1 6.08631-23.840451c13.351147-29.248901 45.049819-45.492797 76.589843-39.247839l0.595445 0.117441c31.540024 6.244958 54.657288 33.340781 55.856418 65.470068 0.309054 8.262052-0.863292 16.511742-3.457287 24.361723z" fill="#C8EFFE" /><path d="M882.541714 578.125264c-1.199131-32.129288-24.316394-59.227171-55.856418-65.472129l-0.595445-0.117441a69.195203 69.195203 0 0 0-35.533006 2.291123c27.246229 8.968757 46.510616 34.043364 47.602608 63.298447 0.309054 8.262052-0.863292 16.511742-3.457288 24.361722l-32.842173 99.358905 41.656402 8.24763 35.568033-107.606535a69.434205 69.434205 0 0 0 3.457287-24.361722z" fill="#99E6FC" /><path d="M820.594865 825.85703l-108.216402-21.425706-35.570093 107.606535a69.378575 69.378575 0 0 0-3.457288 24.361722c1.199131 32.129288 24.316394 59.227171 55.856419 65.470069l0.595445 0.117441c31.540024 6.244958 63.238696-9.998938 76.589843-39.247839a69.370334 69.370334 0 0 0 6.08631-23.840451z" fill="#C8EFFE" /><path d="M712.378463 804.431324l-2.725859 8.24763 66.56 13.178076-8.115767 113.041771a69.370334 69.370334 0 0 1-6.08631 23.840451c-8.196121 17.956056-23.310938 30.998149-41.054776 36.956716 2.678471 0.881835 5.431115 1.613264 8.25381 2.173682l0.595445 0.117441c31.540024 6.244958 63.238696-9.998938 76.589843-39.247839a69.370334 69.370334 0 0 0 6.08631-23.840451l8.115767-113.041771z" fill="#99E6FC" /><path d="M825.11736 822.830358l21.425706-108.216402 113.041771 8.115766a69.370334 69.370334 0 0 1 23.840451 6.08631c29.248901 13.351147 45.492797 45.049819 39.247839 76.589843l-0.117441 0.595445c-6.244958 31.540024-33.340781 54.657288-65.470068 55.856418-8.262052 0.309054-16.511742-0.863292-24.361723-3.457287z" fill="#C8EFFE" /><path d="M983.425288 728.816032a69.370334 69.370334 0 0 0-23.840451-6.08631l-113.041771-8.115766-0.622229 3.142052 69.281738 4.973714a69.370334 69.370334 0 0 1 23.840451 6.08631c29.248901 13.351147 45.492797 45.049819 39.247839 76.589843l-0.11744 0.595445c-4.920145 24.854149-22.795847 44.468797-45.873964 52.259026l0.422374 0.140105a69.378575 69.378575 0 0 0 24.361722 3.457287c32.129288-1.199131 59.227171-24.316394 65.470069-55.856418l0.11744-0.595445c6.247018-31.540024-9.996877-63.238696-39.245778-76.589843z" fill="#99E6FC" /><path d="M730.769256 691.684185l-21.427767 108.230825-86.844266-6.242897-26.187203-1.87493c-8.241449-0.597505-16.318068-2.657867-23.83839-6.098672-29.257143-13.351147-45.492797-45.039517-39.2499-76.583662l0.123622-0.597505a69.244652 69.244652 0 0 1 23.034849-39.31171c11.558632-9.869135 26.372636-15.947203 42.422857-16.544708 8.262052-0.309054 16.524105 0.865352 24.374085 3.461408l35.211589 11.641046z" fill="#C8EFFE" /><path d="M730.769256 691.684185l-21.427767 108.230825-86.844266-6.242897c-6.098672-18.460845-7.62334-38.693602-3.58503-59.111791 5.377545-27.176177 19.779477-50.293441 39.476539-66.796942z" fill="#99E6FC" /><path d="M304.575099 532.034962H194.259187l-13.991919-112.464869a69.415662 69.415662 0 0 1 1.339235-24.567759c7.415243-31.284539 35.355815-53.375742 67.507767-53.375742h0.605746c32.151952 0 60.092523 22.091203 67.507767 53.375742a69.322946 69.322946 0 0 1 1.339235 24.567759z" fill="#EAF6FF" /><path d="M317.227783 395.000274c-7.415243-31.284539-35.355815-53.375742-67.507767-53.375743h-0.605746a69.186962 69.186962 0 0 0-21.887228 3.552065c22.328145 7.427606 39.958664 25.93996 45.620539 49.823678a69.331187 69.331187 0 0 1 1.339236 24.569819l-13.99192 112.464869h44.382262l13.991919-112.464869a69.428024 69.428024 0 0 0-1.341295-24.569819z" fill="#C8EFFE" /><path d="M304.575099 650.046326H194.259187l-13.991919 112.464869a69.415662 69.415662 0 0 0 1.339235 24.567759c7.415243 31.284539 35.355815 53.375742 67.507767 53.375742h0.605746c32.151952 0 60.092523-22.091203 67.507767-53.375742a69.322946 69.322946 0 0 0 1.339235-24.567759z" fill="#EAF6FF" /><path d="M318.567018 762.513256l-13.991919-112.46487h-44.382262l13.99192 112.46487c1.019879 8.204362 0.5666 16.524105-1.339236 24.567758-5.661875 23.885779-23.292394 42.396072-45.620539 49.823678a69.252893 69.252893 0 0 0 21.887227 3.552065h0.605747c32.151952 0 60.092523-22.091203 67.507766-53.375743a69.325006 69.325006 0 0 0 1.341296-24.567758z" fill="#C8EFFE" /><path d="M308.423855 646.19963v-110.315912l112.464869-13.991919a69.415662 69.415662 0 0 1 24.567759 1.339235c31.284539 7.415243 53.375742 35.355815 53.375742 67.507767v0.605746c0 32.151952-22.091203 60.092523-53.375742 67.507767a69.322946 69.322946 0 0 1-24.567759 1.339235z" fill="#EAF6FF" /><path d="M445.456483 523.228974a69.322946 69.322946 0 0 0-24.567759-1.339236l-16.886728 2.10157c29.726905 8.41864 50.450028 35.607179 50.450028 66.747493v0.605746c0 31.140314-20.723123 58.328853-50.450028 66.747493l16.886728 2.10157c8.204362 1.019879 16.524105 0.5666 24.567759-1.339236 31.284539-7.415243 53.375742-35.355815 53.375742-67.507766v-0.605747c0-32.156072-22.089143-60.094584-53.375742-67.511887z" fill="#C8EFFE" /><path d="M190.418672 535.879598v110.31179l-82.270262 10.24-30.204909 3.770463c-2.822696 0.350262-5.665996 0.515091-8.509296 0.515091-5.398149 0-10.796298-0.618109-16.050221-1.87493C22.087082 651.445312 0 623.486197 0 591.344547v-0.597505c0-16.070825 5.521771-31.111469 14.958229-43.040966s22.787606-20.768451 38.425755-24.477102c8.035412-1.916137 16.359276-2.369416 24.559517-1.339236l30.184306 3.74986z" fill="#EAF6FF" /><path d="M190.418672 535.879598v110.31179l-82.270262 10.24c-12.63002-18.666881-20.006117-41.18664-20.006116-65.395895s7.376097-46.729014 19.985513-65.395895z" fill="#C8EFFE" /><path d="M694.67171 211.094406h-110.315911l-13.99192-112.464869a69.415662 69.415662 0 0 1 1.339236-24.567758c7.415243-31.284539 35.355815-53.375742 67.507766-53.375743h0.605747c32.151952 0 60.092523 22.091203 67.507766 53.375743a69.322946 69.322946 0 0 1 1.339236 24.567758z" fill="#EAF6FF" /><path d="M707.324394 74.061779c-7.415243-31.284539-35.355815-53.375742-67.507766-53.375743h-0.605747c-7.604797 0-14.968531 1.25064-21.887227 3.552065 22.328145 7.427606 39.958664 25.93996 45.620539 49.825738a69.322946 69.322946 0 0 1 1.339236 24.567759l-13.99192 112.464869h44.382262l13.99398-112.464869a69.475412 69.475412 0 0 0-1.343357-24.569819z" fill="#C8EFFE" /><path d="M694.67171 329.107831h-110.315911l-13.99192 112.464869a69.415662 69.415662 0 0 0 1.339236 24.567759c7.415243 31.284539 35.355815 53.375742 67.507766 53.375742h0.605747c32.151952 0 60.092523-22.091203 67.507766-53.375742a69.322946 69.322946 0 0 0 1.339236-24.567759z" fill="#EAF6FF" /><path d="M708.66363 441.5727l-13.99398-112.464869h-44.382262l13.99192 112.464869c1.019879 8.204362 0.5666 16.524105-1.339236 24.567759-5.661875 23.885779-23.292394 42.396072-45.620539 49.825738a69.252893 69.252893 0 0 0 21.887228 3.552065h0.605746c32.151952 0 60.092523-22.091203 67.507767-53.375743a69.28998 69.28998 0 0 0 1.343356-24.569819z" fill="#C8EFFE" /><path d="M698.518406 325.259074v-110.315911l112.46487-13.99192a69.415662 69.415662 0 0 1 24.567758 1.339236c31.284539 7.415243 53.375742 35.355815 53.375743 67.507766v0.605747c0 32.151952-22.091203 60.092523-53.375743 67.507767a69.322946 69.322946 0 0 1-24.567758 1.339235z" fill="#EAF6FF" /><path d="M835.553095 202.290479a69.322946 69.322946 0 0 0-24.567759-1.339236l-16.886728 2.10157c29.726905 8.41864 50.450028 35.607179 50.450028 66.747493v0.605746c0 31.140314-20.723123 58.328853-50.450028 66.747493l16.886728 2.10157c8.204362 1.019879 16.524105 0.5666 24.567759-1.339236 31.284539-7.415243 53.375742-35.355815 53.375742-67.507766v-0.605747c0-32.156072-22.091203-60.096644-53.375742-67.511887z" fill="#C8EFFE" /><path d="M580.507042 214.936982v110.332394l-82.249658 10.24-30.225513 3.749859c-2.8433 0.350262-5.6866 0.515091-8.529899 0.515091-5.398149 0-10.775694-0.618109-16.029618-1.854326-31.276298-7.417304-53.383984-35.355815-53.383984-67.518068v-0.597505c0-16.091429 5.521771-31.111469 14.95823-43.040966s22.787606-20.768451 38.425754-24.477103a69.846278 69.846278 0 0 1 24.559517-1.339235l30.20491 3.749859z" fill="#EAF6FF" /><path d="M580.507042 214.936982v110.332394l-82.249658 10.24c-12.63002-18.666881-20.006117-41.166036-20.006116-65.416499a116.431066 116.431066 0 0 1 19.985513-65.395895z" fill="#C8EFFE" /><path d="M249.417143 591.041674m-116.882286 0a116.882286 116.882286 0 1 0 233.764572 0 116.882286 116.882286 0 1 0-233.764572 0Z" fill="#FFD15B" /><path d="M249.417143 474.157328a117.337626 117.337626 0 0 0-22.190101 2.130414c53.936161 10.369803 94.692185 57.789038 94.692185 114.751872 0 56.960773-40.756024 104.382068-94.692185 114.751871a117.337626 117.337626 0 0 0 22.190101 2.130414c64.553207 0 116.882286-52.331139 116.882286-116.882285s-52.331139-116.882286-116.882286-116.882286z" fill="#FFC344" /><path d="M857.969835 746.285843l-85.587445-69.603155 60.102825-96.082929a69.382696 69.382696 0 0 1 16.540588-18.215662c25.492861-19.591984 61.108282-19.103678 86.051026 1.182647l0.469763 0.383228c24.944805 20.286326 32.683525 55.052877 18.697786 84.005086a69.364153 69.364153 0 0 1-14.461682 19.90722z" fill="#EAF6FF" /><path d="M935.550712 563.949972l-0.469762-0.383228c-18.883219-15.35794-43.879533-19.359163-65.972797-11.902712a69.226109 69.226109 0 0 1 21.590535 11.902712l0.469763 0.383228c24.944805 20.286326 32.683525 55.052877 18.697786 84.005086a69.364153 69.364153 0 0 1-14.461682 19.90722l-61.44412 58.897513 24.01146 19.526052 81.814922-78.425626a69.364153 69.364153 0 0 0 14.461682-19.907219c13.983678-28.950149 6.247018-63.7167-18.697787-84.003026z" fill="#C8EFFE" /><path d="M783.514527 837.846278l-20.335774 32.512515-39.76499 63.562173c-4.388571 7.005231-9.992757 13.186318-16.544709 18.213601-25.48668 19.594044-61.110342 19.099557-86.061328-1.174406l-0.473883-0.391469c-16.627123-13.515976-25.610302-33.480885-25.610302-53.857867 0-10.198793 2.266398-20.500604 6.922817-30.143099a69.599034 69.599034 0 0 1 14.463743-19.903098l22.375533-21.44837 59.441448-56.969015z" fill="#EAF6FF" /><path d="M783.514527 837.846278l-2.369416-1.926439-83.220089-67.680837-20.370801 19.526052 0.004121 0.004121-39.072708 37.447083c14.527614 20.201851 37.445022 37.510954 64.367774 44.874688 6.863066 1.87699 9.90004 9.918584 6.127518 15.949263l-29.906157 47.808644c-1.623565 2.596056-3.376934 5.11794-5.338399 7.468813-8.723573 10.448097-19.622889 17.591372-31.329867 21.543147 25.140539 8.47839 54.138076 2.169561 73.637344-19.153127 2.849481-3.117328 5.340459-6.545771 7.580073-10.12668l39.546591-63.220153 0.010302-0.00206z" fill="#C8EFFE" /><path d="M788.922978 837.285859l69.603155-85.587445 96.082929 60.102825a69.382696 69.382696 0 0 1 18.215662 16.540588c19.591984 25.492861 19.103678 61.108282-1.182648 86.051026l-0.383227 0.469763c-20.286326 24.944805-55.052877 32.683525-84.005086 18.697786a69.364153 69.364153 0 0 1-19.90722-14.461682z" fill="#EAF6FF" /><path d="M972.824724 828.343887a69.34767 69.34767 0 0 0-18.215662-16.540587l-96.082929-60.102825-14.964411 18.401094 66.665079 41.701731a69.382696 69.382696 0 0 1 18.215662 16.540587c19.591984 25.492861 19.101618 61.106221-1.182648 86.051026l-0.383227 0.469763a69.184901 69.184901 0 0 1-31.651284 21.951099c27.141151 9.187155 57.578881 0.73967 76.033545-21.951099l0.383227-0.469763c20.286326-24.944805 20.776692-60.558165 1.182648-86.051026z" fill="#C8EFFE" /><path d="M766.969819 677.241046l-69.599034 85.587445-73.493119-45.96668-22.602173-14.134085c-7.005231-4.388571-13.165714-9.992757-18.213602-16.544708-19.594044-25.48668-19.099557-61.110342 1.19501-86.061328l0.370866-0.45328a69.390938 69.390938 0 0 1 103.924668-4.244346l43.082173 44.957103z" fill="#EAF6FF" /><path d="M766.969819 677.238986l-77.894052-81.260684c-3.24507-3.385175-6.739445-6.54165-10.57996-9.230423-19.054229-13.336724-42.082897-15.823581-62.210576-9.040869 2.694954 0.91274 5.356942 1.99237 7.971542 3.255372 3.861119 0 7.555348 1.576177 10.225577 4.363847l43.413891 45.290882c7.392579 7.711936 5.808161 20.412008-3.407839 25.814277-22.845296 13.388233-41.077441 34.438954-50.610736 60.432483l73.493119 45.96668z" fill="#C8EFFE" /><path d="M639.513755 270.101119m-116.882286 0a116.882286 116.882286 0 1 0 233.764571 0 116.882286 116.882286 0 1 0-233.764571 0Z" fill="#FFD15B" /><path d="M639.513755 153.218833c-7.590374 0-15.003557 0.749972-22.190101 2.130414 53.936161 10.369803 94.692185 57.791099 94.692185 114.751872s-40.756024 104.382068-94.692185 114.751871a117.337626 117.337626 0 0 0 22.190101 2.130414c64.553207 0 116.882286-52.331139 116.882285-116.882285s-52.331139-116.882286-116.882285-116.882286z" fill="#FFC344" /><path d="M777.947429 757.261392m-116.882286 0a116.882286 116.882286 0 1 0 233.764571 0 116.882286 116.882286 0 1 0-233.764571 0Z" fill="#FFD15B" /><path d="M800.648499 642.604298a116.492877 116.492877 0 0 0-44.934439-0.094777c0.185433 0.035026 0.368805 0.05769 0.554238 0.094777 63.323171 12.537304 104.493328 74.034994 91.956024 137.358165-9.506511 48.01468-47.167871 83.265416-92.423726 92.050801 63.127437 12.189103 124.30371-28.913062 136.803927-92.050801 12.537304-63.323171-28.632853-124.820861-91.956024-137.358165z" fill="#FFC344" /><path d="M778.029843 720.60961m-15.858608 0a15.858608 15.858608 0 1 0 31.717216 0 15.858608 15.858608 0 1 0-31.717216 0Z" fill="#FFC344" /><path d="M720.963992 757.453006m-15.858608 0a15.858608 15.858608 0 1 0 31.717216 0 15.858608 15.858608 0 1 0-31.717216 0Z" fill="#FFC344" /><path d="M834.928805 757.453006m-15.858608 0a15.858608 15.858608 0 1 0 31.717215 0 15.858608 15.858608 0 1 0-31.717215 0Z" fill="#FFC344" /><path d="M778.029843 793.913175m-15.858608 0a15.858608 15.858608 0 1 0 31.717216 0 15.858608 15.858608 0 1 0-31.717216 0Z" fill="#FFC344" /><path d="M639.598229 233.449336m-15.858607 0a15.858608 15.858608 0 1 0 31.717215 0 15.858608 15.858608 0 1 0-31.717215 0Z" fill="#FFC344" /><path d="M582.532378 270.290672m-15.858607 0a15.858608 15.858608 0 1 0 31.717215 0 15.858608 15.858608 0 1 0-31.717215 0Z" fill="#FFC344" /><path d="M696.497191 270.290672m-15.858607 0a15.858608 15.858608 0 1 0 31.717215 0 15.858608 15.858608 0 1 0-31.717215 0Z" fill="#FFC344" /><path d="M639.598229 306.752901m-15.858607 0a15.858608 15.858608 0 1 0 31.717215 0 15.858608 15.858608 0 1 0-31.717215 0Z" fill="#FFC344" /><path d="M249.499557 554.38371m-15.858607 0a15.858608 15.858608 0 1 0 31.717215 0 15.858608 15.858608 0 1 0-31.717215 0Z" fill="#FFC344" /><path d="M192.435767 591.225046m-15.858608 0a15.858608 15.858608 0 1 0 31.717215 0 15.858608 15.858608 0 1 0-31.717215 0Z" fill="#FFC344" /><path d="M306.398519 591.225046m-15.858608 0a15.858608 15.858608 0 1 0 31.717216 0 15.858608 15.858608 0 1 0-31.717216 0Z" fill="#FFC344" /><path d="M249.499557 627.687276m-15.858607 0a15.858608 15.858608 0 1 0 31.717215 0 15.858608 15.858608 0 1 0-31.717215 0Z" fill="#FFC344" /></svg>