<?xml version="1.0" standalone="no"?><!DOCTYPE svg PUBLIC "-//W3C//DTD SVG 1.1//EN" "http://www.w3.org/Graphics/SVG/1.1/DTD/svg11.dtd"><svg class="icon" width="200px" height="200.00px" viewBox="0 0 1024 1024" version="1.1" xmlns="http://www.w3.org/2000/svg"><path d="M522.417191 537.964684m-15.770012 0a15.770012 15.770012 0 1 0 31.540024 0 15.770012 15.770012 0 1 0-31.540024 0Z" fill="#6FD7A3" /><path d="M395.158922 673.318117a15.452716 15.452716 0 0 1-10.928161-26.378817l72.114736-72.116797a15.452716 15.452716 0 0 1 21.854262 21.854262L406.085022 668.793561a15.421811 15.421811 0 0 1-10.9261 4.524556z" fill="#9BE69D" /><path d="M144.917634 537.964684m-15.770012 0a15.770012 15.770012 0 1 0 31.540024 0 15.770012 15.770012 0 1 0-31.540024 0Z" fill="#6FD7A3" /><path d="M272.177964 673.318117a15.413569 15.413569 0 0 1-10.928161-4.524556l-72.116797-72.116796a15.452716 15.452716 0 0 1 21.854262-21.854262l72.116796 72.116797a15.452716 15.452716 0 0 1-10.9261 26.378817z" fill="#9BE69D" /><path d="M522.417191 900.742954m-15.770012 0a15.770012 15.770012 0 1 0 31.540024 0 15.770012 15.770012 0 1 0-31.540024 0Z" fill="#6FD7A3" /><path d="M467.273658 868.411751a15.413569 15.413569 0 0 1-10.928161-4.524556l-72.114736-72.114736a15.452716 15.452716 0 0 1 21.854261-21.854262l72.114737 72.114737a15.452716 15.452716 0 0 1-10.926101 26.378817z" fill="#9BE69D" /><path d="M144.917634 900.742954m-15.770012 0a15.770012 15.770012 0 1 0 31.540024 0 15.770012 15.770012 0 1 0-31.540024 0Z" fill="#6FD7A3" /><path d="M200.061167 868.411751a15.452716 15.452716 0 0 1-10.928161-26.378817l72.116797-72.114737a15.452716 15.452716 0 0 1 21.854261 21.854262l-72.116796 72.114736a15.405328 15.405328 0 0 1-10.926101 4.524556z" fill="#9BE69D" /><path d="M341.980974 414.707638h-16.627123c-39.643429 0-70.808467 33.901199-67.480982 73.404523l14.303034 169.751179 61.489449 18.77402 61.489449-18.77402 14.303034-169.751179c3.331606-39.503324-27.833433-73.404523-67.476861-73.404523z" fill="#EAF6FF" /><path d="M341.980974 414.707638h-16.627123c-4.825368 0-9.522994 0.51097-14.04961 1.464917 32.667042 6.88161 56.352966 37.247227 53.429312 71.941666l-14.303034 169.751179 14.871694 9.115043 29.854648-9.115043 14.303034-169.751179c3.329545-39.505384-27.835493-73.406584-67.478921-73.406583z" fill="#C8EFFE" /><path d="M341.980974 1024h-16.627123c-39.643429 0-70.808467-33.901199-67.480982-73.404523l14.303034-169.751179 61.489449-15.450656 61.489449 15.450656 14.303034 169.751179c3.331606 39.503324-27.833433 73.404523-67.476861 73.404523z" fill="#EAF6FF" /><path d="M409.459895 950.595477l-14.303034-169.751179-29.267445-7.353433-15.458897 7.353433 14.303034 169.751179c2.923654 34.694439-20.76433 65.060056-53.429312 71.941666a68.074366 68.074366 0 0 0 14.04961 1.464917h16.627123c39.643429-0.00206 70.808467-33.90326 67.478921-73.406583z" fill="#C8EFFE" /><path d="M638.312563 727.66635v-16.627123c0-39.643429-33.901199-70.808467-73.404523-67.480982l-169.751179 14.303035-17.719115 61.489448 17.719115 61.489449 169.751179 14.303034c39.503324 3.333666 73.404523-27.833433 73.404523-67.476861z" fill="#EAF6FF" /><path d="M564.90804 643.560306l-22.235428 1.872869c29.057288 7.437907 50.91361 33.781698 50.913609 65.606052v16.627123c0 31.826414-21.856322 58.170205-50.913609 65.606052l22.235428 1.87287c39.503324 3.329545 73.404523-27.837553 73.404523-67.480982v-16.627123c0.00206-39.639308-33.901199-70.804346-73.404523-67.476861z" fill="#C8EFFE" /><path d="M29.022262 727.66635v-16.627123c0-39.643429 33.901199-70.808467 73.404523-67.480982l169.751179 14.303035 17.082463 61.489448-17.082463 61.489449-169.751179 14.303034c-39.503324 3.333666-73.404523-27.833433-73.404523-67.476861z" fill="#EAF6FF" /><path d="M201.488998 651.917135c14.67802 1.236217 25.962624 13.511855 25.962624 28.241384v78.3906c0 14.729529-11.284604 27.005167-25.962624 28.241384l70.688966-5.954447 17.082463-61.489448-17.082463-61.489449z" fill="#C8EFFE" /><path d="M272.177964 657.86334h122.978897v122.978897h-122.978897z" fill="#6FD7A3" /><path d="M350.430519 657.86334h44.726342v122.978897h-44.726342z" fill="#3EC3A4" /><path d="M333.667412 719.354849m-15.770012 0a15.770012 15.770012 0 1 0 31.540025 0 15.770012 15.770012 0 1 0-31.540025 0Z" fill="#9BE69D" /><path d="M879.082366 123.257046m-15.770012 0a15.770012 15.770012 0 1 0 31.540024 0 15.770012 15.770012 0 1 0-31.540024 0Z" fill="#6FD7A3" /><path d="M751.822036 258.610479a15.452716 15.452716 0 0 1-10.928161-26.378817l72.114737-72.116797a15.452716 15.452716 0 0 1 21.854261 21.854262l-72.114736 72.116797a15.413569 15.413569 0 0 1-10.926101 4.524555z" fill="#9BE69D" /><path d="M501.582809 123.257046m-15.770012 0a15.770012 15.770012 0 1 0 31.540024 0 15.770012 15.770012 0 1 0-31.540024 0Z" fill="#6FD7A3" /><path d="M628.843139 258.610479a15.413569 15.413569 0 0 1-10.928161-4.524555l-72.116797-72.116797a15.452716 15.452716 0 0 1 21.854262-21.854262l72.116796 72.116797a15.452716 15.452716 0 0 1-10.9261 26.378817z" fill="#9BE69D" /><path d="M879.082366 486.035316m-15.770012 0a15.770012 15.770012 0 1 0 31.540024 0 15.770012 15.770012 0 1 0-31.540024 0Z" fill="#6FD7A3" /><path d="M823.936773 453.704113a15.413569 15.413569 0 0 1-10.928161-4.524556l-72.114737-72.114736a15.452716 15.452716 0 0 1 21.854262-21.854262l72.114736 72.114737a15.452716 15.452716 0 0 1-10.9261 26.378817z" fill="#9BE69D" /><path d="M501.582809 486.035316m-15.770012 0a15.770012 15.770012 0 1 0 31.540024 0 15.770012 15.770012 0 1 0-31.540024 0Z" fill="#6FD7A3" /><path d="M556.726342 453.704113a15.452716 15.452716 0 0 1-10.928161-26.378817l72.116797-72.114737a15.452716 15.452716 0 0 1 21.854261 21.854262l-72.116796 72.114736a15.405328 15.405328 0 0 1-10.926101 4.524556z" fill="#9BE69D" /><path d="M698.646149 0h-16.627123c-39.643429 0-70.808467 33.901199-67.480982 73.404523l14.303034 169.751179 61.489449 18.77402 61.489449-18.77402 14.303034-169.751179C769.454616 33.901199 738.289577 0 698.646149 0z" fill="#EAF6FF" /><path d="M698.646149 0h-16.627123c-4.825368 0-9.522994 0.51097-14.04961 1.464918 32.667042 6.88161 56.352966 37.247227 53.429312 71.941666l-14.303034 169.751179 14.871694 9.115042 29.854648-9.115042 14.303034-169.751179C769.454616 33.901199 738.289577 0 698.646149 0z" fill="#C8EFFE" /><path d="M698.646149 609.292362h-16.627123c-39.643429 0-70.808467-33.901199-67.480982-73.404523l14.303034-169.751179 61.489449-15.450656 61.489449 15.450656 14.303034 169.751179c3.331606 39.503324-27.833433 73.404523-67.476861 73.404523z" fill="#EAF6FF" /><path d="M766.12507 535.887839l-14.303034-169.751179-29.267444-7.353433-15.458898 7.353433 14.303034 169.751179c2.923654 34.694439-20.76433 65.060056-53.429312 71.941666a68.074366 68.074366 0 0 0 14.04961 1.464918h16.627123c39.643429-0.00206 70.808467-33.90326 67.478921-73.406584z" fill="#C8EFFE" /><path d="M994.977738 312.958712v-16.627122c0-39.643429-33.901199-70.808467-73.404523-67.480982l-169.751179 14.303034-17.719114 61.489449 17.719114 61.489448 169.751179 14.303034c39.503324 3.331606 73.404523-27.833433 73.404523-67.476861z" fill="#EAF6FF" /><path d="M921.573215 228.852668l-22.235428 1.872869c29.057288 7.437907 50.91361 33.781698 50.913609 65.606053v16.627122c0 31.826414-21.856322 58.170205-50.913609 65.606053l22.235428 1.872869c39.503324 3.329545 73.404523-27.837553 73.404523-67.480982v-16.627123c0.00206-39.639308-33.901199-70.806406-73.404523-67.476861z" fill="#C8EFFE" /><path d="M385.685376 312.958712v-16.627122c0-39.643429 33.901199-70.808467 73.404523-67.480982l169.751179 14.303034 17.082463 61.489449-17.082463 61.489448-169.751179 14.303034c-39.501264 3.331606-73.404523-27.833433-73.404523-67.476861z" fill="#EAF6FF" /><path d="M558.154173 237.217738c14.67802 1.236217 25.962624 13.511855 25.962624 28.241385v78.390599c0 14.729529-11.284604 27.005167-25.962624 28.241385l70.688966-5.954447 17.082463-61.489449-17.082463-61.489448z" fill="#C8EFFE" /><path d="M628.843139 243.155702h122.978897v122.978898H628.843139z" fill="#6FD7A3" /><path d="M707.095694 243.155702h44.726342v122.978898H707.095694z" fill="#3EC3A4" /><path d="M690.332588 304.645151m-15.770013 0a15.770012 15.770012 0 1 0 31.540025 0 15.770012 15.770012 0 1 0-31.540025 0Z" fill="#9BE69D" /><path d="M810.962672 905.683702l-8.459847 9.708427c-7.303984 8.381553-20.329594 8.381553-27.633578 0l-8.459847-9.708427a160.700008 160.700008 0 0 1-39.544531-105.570897c0-32.207581 26.108909-58.316491 58.316491-58.316491h7.009352c32.207581 0 58.316491 26.108909 58.316491 58.316491a160.704129 160.704129 0 0 1-39.544531 105.570897z" fill="#9BE69D" /><path d="M792.190712 741.794254h-7.011412c-6.6014 0-12.941135 1.112596-18.858495 3.135871 22.948314 7.841738 39.457996 29.576499 39.457996 55.180619a160.693827 160.693827 0 0 1-39.457996 105.46788l0.086535 0.103018 8.459847 9.708426c7.303984 8.381553 20.329594 8.381553 27.633578 0l8.459847-9.708426a160.700008 160.700008 0 0 0 39.544531-105.570898c0.00206-32.207581-26.106849-58.316491-58.314431-58.31649z" fill="#6FD7A3" /><path d="M939.883654 829.911823l0.881835 12.846358c0.762334 11.09299-8.447485 20.302809-19.540475 19.540475l-12.846358-0.881835a160.687646 160.687646 0 0 1-102.612217-46.687807c-22.773183-22.773183-22.773183-59.696934 0-82.472177l4.957231-4.957231c22.773183-22.773183 59.696934-22.773183 82.472177 0a160.714431 160.714431 0 0 1 46.687807 102.612217z" fill="#9BE69D" /><path d="M940.765489 842.760241l-0.881835-12.846358a160.687646 160.687646 0 0 0-46.687807-102.612217c-17.193722-17.193722-42.451702-21.398922-63.599259-12.62796a58.128998 58.128998 0 0 1 18.872917 12.62796 160.687646 160.687646 0 0 1 46.687807 102.612217l0.881835 12.846358c0.451219 6.566374-2.608419 12.452829-7.466753 16.021377a160.679404 160.679404 0 0 0 19.806262 2.635203l12.846358 0.881835c11.09299 0.762334 20.302809-8.447485 19.540475-19.538415z" fill="#6FD7A3" /><path d="M217.158052 118.316298l8.459847-9.708427c7.303984-8.381553 20.329594-8.381553 27.633578 0l8.459847 9.708427a160.700008 160.700008 0 0 1 39.544531 105.570897c0 32.207581-26.108909 58.316491-58.316491 58.316491h-7.009352c-32.207581 0-58.316491-26.108909-58.316491-58.316491a160.704129 160.704129 0 0 1 39.544531-105.570897z" fill="#9BE69D" /><path d="M261.711324 118.316298l-8.459847-9.708427c-7.303984-8.381553-20.329594-8.381553-27.633578 0l-8.459847 9.708427-0.086535 0.103018a160.693827 160.693827 0 0 1 39.457996 105.467879c0 25.604121-16.509682 47.338881-39.457996 55.18062a58.221714 58.221714 0 0 0 18.858495 3.135871h7.009352c32.207581 0 58.316491-26.108909 58.316491-58.316491a160.693827 160.693827 0 0 0-39.544531-105.570897z" fill="#6FD7A3" /><path d="M88.23707 194.088177l-0.881835-12.846358c-0.762334-11.09299 8.447485-20.302809 19.540475-19.540475l12.846358 0.881835a160.687646 160.687646 0 0 1 102.612218 46.687807c22.773183 22.773183 22.773183 59.696934 0 82.472177l-4.957232 4.957231c-22.773183 22.773183-59.696934 22.773183-82.472177 0a160.714431 160.714431 0 0 1-46.687807-102.612217z" fill="#9BE69D" /><path d="M222.354286 209.270986a160.687646 160.687646 0 0 0-102.612218-46.687807l-12.846358-0.881835a18.176515 18.176515 0 0 0-12.073722 3.519099 160.687646 160.687646 0 0 1 82.805956 44.052603c22.773183 22.773183 22.773183 59.696934 0 82.472177l-4.957232 4.957232a58.108394 58.108394 0 0 1-18.872917 12.627959c21.147557 8.768901 46.403477 4.565763 63.599259-12.627959l4.957232-4.957232c22.775243-22.775243 22.775243-59.698994 0-82.474237z" fill="#6FD7A3" /></svg>