<?xml version="1.0" standalone="no"?><!DOCTYPE svg PUBLIC "-//W3C//DTD SVG 1.1//EN" "http://www.w3.org/Graphics/SVG/1.1/DTD/svg11.dtd"><svg class="icon" width="200px" height="200.00px" viewBox="0 0 1024 1024" version="1.1" xmlns="http://www.w3.org/2000/svg"><path d="M1023.503177 782.068833l-115.729952-151.58007-57.277775 8.158992-182.176293 25.960431-36.282792 244.357705 150.034807 114.534948c5.501139 2.142766 11.022881-3.028717 9.230375-8.632874l-11.888229-37.251157c-4.388549-13.783752 7.84994-27.134831 21.963348-23.920683l53.033452 12.053057c5.583553 1.277418 10.239948-4.347342 7.973561-9.601239l-12.3003-28.391645c-6.469504-14.958153 7.932354-30.451997 23.323181-25.095083l31.255534 10.919863c5.521742 1.916127 10.83745-3.39958 8.921323-8.921322l-10.919864-31.255535c-5.356914-15.390827 10.13693-29.792685 25.095083-23.32318l28.391646 12.300299c5.253897 2.245783 10.878657-2.410611 9.601239-7.973561l-12.053058-53.033451c-1.586471-6.984592 0.865348-13.495303 5.439329-17.780835 4.656395-4.388549 11.517366-6.407694 18.481354-4.182514l37.251158 11.888229c5.604156 1.792506 10.775639-3.729236 8.632873-9.230375z" fill="#FFEAD9" /><path d="M785.332708 927.756298c-6.469504-14.958153 7.932354-30.451997 23.323181-25.095083 47.112001 17.140065 46.566007 18.157879 29.256993-29.256994-5.356914-15.390827 10.13693-29.792685 25.095083-23.32318l28.391646 12.300299c5.253897 2.245783 10.878657-2.410611 9.601238-7.973561l-12.053057-53.033451c-3.214149-14.113409 10.13693-26.372501 23.920683-21.963349l37.251158 11.888229a6.895997 6.895997 0 0 0 4.019746 0.086535 18.543165 18.543165 0 0 0-0.438855 9.988585l12.053057 53.033451c1.277418 5.562949-4.347342 10.219344-9.601239 7.973561l-28.391645-12.300299c-14.958153-6.469504-30.451997 7.932354-25.095083 23.32318l10.919863 31.255535c1.916127 5.521742-3.39958 10.83745-8.921322 8.921322l-31.255535-10.919863c-15.390827-5.356914-29.792685 10.13693-23.32318 25.095083l12.300299 28.391645c2.266387 5.253897-2.390008 10.878657-7.973561 9.601239l-53.033451-12.053057a19.04177 19.04177 0 0 0-5.004594-0.457398zM736.623935 953.696125l43.850464 9.965921a18.427785 18.427785 0 0 0-1.061081 13.954762l11.888229 37.251157c1.792506 5.604156-3.729236 10.775639-9.230375 8.632874l-68.267692-52.114535c0.300811-11.241279 10.868355-20.411904 22.820455-17.690179zM1023.503177 782.068833l-115.729952-151.58007-57.277775 8.158992c27.732333 33.851577 57.422 78.787847 108.250875 143.421078 0.206035 0.515088 0.329656 1.009572 0.391467 1.52466 4.656395-4.388549 11.517366-6.407694 18.481354-4.182514l37.251158 11.888229c5.604156 1.792506 10.775639-3.729236 8.632873-9.230375z" fill="#FEDBA6" /><path d="M907.773225 630.488763l-2.142765-2.843286a217.367098 217.367098 0 0 0-108.250876-75.635508l-129.060427-40.012029-112.035741 53.604168-44.283138 102.714711 40.012029 129.060427a217.367098 217.367098 0 0 0 75.635509 108.250875l4.388549 3.33777c2.410611-8.055975 9.910291-14.463669 19.635151-14.113409l77.345601 2.760871c16.853676 0.597502 28.597681-16.585831 21.901538-32.079675l-13.618925-31.440966c-6.819764-15.76169 8.365028-32.100279 24.579995-26.454915l25.362929 8.838908c18.151698 6.345883 35.582273-11.084692 29.23639-29.236389l-8.838909-25.362929c-5.645364-16.214967 10.693225-31.399759 26.454916-24.579995l31.028895 13.433493c15.596862 6.73735 32.862609-5.192086 32.059072-22.169384l-3.68803-78.169741c-0.494484-9.889688 6.057434-17.512989 14.278237-19.902997z" fill="#FE646F" /><path d="M893.494988 650.39176l2.272568 48.154538c-72.202963-98.587826-93.838716-129.645567-241.429945-172.566812v-7.291585l13.981546-6.689961 129.060427 40.012029a217.367098 217.367098 0 0 1 108.250876 75.635508l2.142765 2.843286c-8.220803 2.390008-14.772721 10.013309-14.278237 19.902997z" fill="#FD4755" /><path d="M391.966252 908.970011l-3.378977-70.649457-9.43641-197.690741-262.921474-10.13693-115.729951 151.580071c-2.142766 5.501139 3.028717 11.022881 8.632873 9.230375l37.251158-11.888229c13.783752-4.409153 27.134831 7.84994 23.920682 21.963349l-12.053057 53.033451c-1.277418 5.562949 4.347342 10.219344 9.601239 7.973561l28.391645-12.3003c14.958153-6.469504 30.451997 7.932354 25.095083 23.323181l-10.919863 31.255535c-1.916127 5.521742 3.39958 10.83745 8.921322 8.921322l31.255535-10.919864c15.390827-5.356914 29.792685 10.13693 23.32318 25.095083l-12.300299 28.391646c-2.266387 5.253897 2.390008 10.878657 7.973561 9.601239l53.033451-12.053057c11.95004-2.719664 22.56085 6.428297 22.8493 17.677817 0.041207 1.091986-0.020604 2.22518-0.206035 3.337769-0.144225 0.968365-0.370863 1.936731-0.679916 2.905096l-11.888229 37.251158c-1.792506 5.604156 3.729236 10.775639 9.230375 8.632873z" fill="#FFEAD9" /><path d="M391.966252 908.970011l-3.378977-70.649457c-14.504876 27.77354-32.738988 51.756033-56.989326 67.311688l-4.388549 3.337769-81.73415 62.408052-0.020604 0.020603c0.020604 1.091986-0.041207 2.204576-0.185431 3.317166-0.144225 0.968365-0.370863 1.936731-0.679916 2.905096l-11.888229 37.251158c-1.792506 5.604156 3.729236 10.775639 9.230375 8.632873z" fill="#FEDBA6" /><path d="M512.002338 668.32094l-42.927426-107.16301-113.391453-49.15587-129.060427 40.012029a217.367098 217.367098 0 0 0-108.250875 75.635509l-2.142766 2.843285c8.220803 2.390008 14.772721 10.013309 14.278237 19.902997l-3.688029 78.169742c-0.803537 16.977298 16.46221 28.906734 32.059071 22.169383l31.028896-13.433492c15.76169-6.819764 32.100279 8.365028 26.454915 24.579995l-8.838908 25.362928c-6.345883 18.151698 11.084692 35.582273 29.236389 29.23639l25.362929-8.838908c16.214967-5.645364 31.399759 10.693225 24.579995 26.454915l-13.618924 31.440966c-6.696143 15.493844 5.047862 32.677177 21.901538 32.079675l77.345601-2.760871c9.72486-0.35026 17.22454 6.057434 19.635151 14.113408l4.388549-3.337769a217.367098 217.367098 0 0 0 75.635509-108.250876z" fill="#FE646F" /><path d="M471.99031 797.381366a217.367098 217.367098 0 0 1-75.635509 108.250876l-4.388549 3.337769c-2.410611-8.055975-9.910291-14.463669-19.635151-14.113408l-27.513936 0.982787c53.569143-45.204115 74.23653-134.973636 94.57014-202.720058a43.891671 43.891671 0 0 0-11.002278-43.665032l-122.129404-122.129404 49.427836-15.324896 113.391453 49.15587 42.927426 107.163009z" fill="#FD4755" /><path d="M1023.503177 241.927046l-115.729952 151.580071-57.277775-8.158993-182.176293-25.960431-36.282792-244.357704L782.071172 0.495041c5.501139-2.142766 11.022881 3.028717 9.230375 8.632873l-11.888229 37.251158c-4.388549 13.783752 7.84994 27.134831 21.963348 23.920682l53.033452-12.053057c5.583553-1.277418 10.239948 4.347342 7.973561 9.601239l-12.3003 28.391646c-6.469504 14.958153 7.932354 30.451997 23.323181 25.095083l31.255534-10.919864c5.521742-1.916127 10.83745 3.39958 8.921323 8.921322l-10.919864 31.255535c-5.356914 15.390827 10.13693 29.792685 25.095083 23.323181l28.391646-12.3003c5.253897-2.245783 10.878657 2.410611 9.601239 7.973561l-12.053058 53.033451c-1.586471 6.984592 0.865348 13.495303 5.439329 17.780835 4.656395 4.388549 11.517366 6.407694 18.481354 4.182514l37.251158-11.888229c5.604156-1.792506 10.775639 3.729236 8.632873 9.230375z" fill="#FFEAD9" /><path d="M785.332708 96.239582c-6.469504 14.958153 7.932354 30.451997 23.323181 25.095083 47.112001-17.140065 46.566007-18.157879 29.256993 29.256993-5.356914 15.390827 10.13693 29.792685 25.095083 23.323181l28.391646-12.3003c5.253897-2.245783 10.878657 2.410611 9.601238 7.973561l-12.053057 53.033451c-3.214149 14.113409 10.13693 26.372501 23.920683 21.963349l37.251158-11.888229a6.895997 6.895997 0 0 1 4.019746-0.086535 18.543165 18.543165 0 0 1-0.438855-9.988585l12.053057-53.033451c1.277418-5.562949-4.347342-10.219344-9.601239-7.973561l-28.391645 12.3003c-14.958153 6.469504-30.451997-7.932354-25.095083-23.323181l10.919863-31.255535c1.916127-5.521742-3.39958-10.83745-8.921322-8.921322l-31.255535 10.919864c-15.390827 5.356914-29.792685-10.13693-23.32318-25.095083l12.300299-28.391646c2.266387-5.253897-2.390008-10.878657-7.973561-9.601239l-53.033451 12.053057a19.04177 19.04177 0 0 1-5.004594 0.457398zM736.623935 70.299754l43.850464-9.965921a18.427785 18.427785 0 0 1-1.061081-13.954761l11.888229-37.251158c1.792506-5.604156-3.729236-10.775639-9.230375-8.632873l-68.267692 52.114534c0.300811 11.243339 10.868355 20.411904 22.820455 17.690179zM1023.503177 241.927046l-115.729952 151.580071-57.277775-8.158993c27.732333-33.851577 57.422-78.787847 108.250875-143.421078 0.206035-0.515088 0.329656-1.009572 0.391467-1.52466 4.656395 4.388549 11.517366 6.407694 18.481354 4.182514l37.251158-11.888229c5.604156-1.792506 10.775639 3.729236 8.632873 9.230375z" fill="#FEDBA6" /><path d="M907.773225 393.507117l-2.142765 2.843285a217.367098 217.367098 0 0 1-108.250876 75.635509l-129.060427 40.012029-112.035741-53.604169-44.283138-102.714711 40.012029-129.060426a217.367098 217.367098 0 0 1 75.635509-108.250876l4.388549-3.337769c2.410611 8.055975 9.910291 14.463669 19.635151 14.113408l77.345601-2.760871c16.853676-0.597502 28.597681 16.585831 21.901538 32.079675l-13.618925 31.440966c-6.819764 15.76169 8.365028 32.100279 24.579995 26.454915l25.362929-8.838908c18.151698-6.345883 35.582273 11.084692 29.23639 29.23639l-8.838909 25.362928c-5.645364 16.214967 10.693225 31.399759 26.454916 24.579995l31.028895-13.433492c15.596862-6.73735 32.862609 5.192086 32.059072 22.169383l-3.68803 78.169742c-0.494484 9.889688 6.057434 17.512989 14.278237 19.902997z" fill="#FE646F" /><path d="M893.494988 373.60412l2.272568-48.154539c-72.202963 98.587826-93.838716 129.645567-241.429945 172.566812v7.291585l13.981546 6.689962 129.060427-40.012029a217.367098 217.367098 0 0 0 108.250876-75.635509l2.142765-2.843285c-8.220803-2.390008-14.772721-10.013309-14.278237-19.902997z" fill="#FD4755" /><path d="M391.964191 115.029989l-3.378976 70.649457-9.436411 197.690741-262.921473 10.13693-115.729952-151.580071c-2.142766-5.501139 3.028717-11.022881 8.632874-9.230375l37.251157 11.888229c13.783752 4.409153 27.134831-7.84994 23.920683-21.963349l-12.053057-53.033451c-1.277418-5.562949 4.347342-10.219344 9.601238-7.973561l28.391646 12.3003c14.958153 6.469504 30.451997-7.932354 25.095083-23.323181l-10.919864-31.255535c-1.916127-5.521742 3.39958-10.83745 8.921323-8.921322l31.255534 10.919864c15.390827 5.356914 29.792685-10.13693 23.323181-25.095083l-12.300299-28.391646c-2.266387-5.253897 2.390008-10.878657 7.973561-9.601239l53.033451 12.053057c11.95004 2.719664 22.56085-6.428297 22.8493-17.677817 0.041207-1.091986-0.020604-2.22518-0.206036-3.337769-0.144225-0.968365-0.370863-1.936731-0.679916-2.905096l-11.888229-37.251158c-1.792506-5.604156 3.729236-10.775639 9.230376-8.632873z" fill="#FFEAD9" /><path d="M391.964191 115.029989l-3.378976 70.649457c-14.504876-27.77354-32.738988-51.756033-56.989327-67.311688l-4.388549-3.337769-81.734149-62.408052-0.020604-0.020603c0.020604-1.091986-0.041207-2.204576-0.185432-3.317166-0.144225-0.968365-0.370863-1.936731-0.679916-2.905096l-11.888229-37.251158c-1.792506-5.604156 3.729236-10.775639 9.230376-8.632873z" fill="#FEDBA6" /><path d="M512.000278 355.67906l-42.927426 107.16301-113.391453 49.15587-129.060427-40.012029a217.367098 217.367098 0 0 1-108.250875-75.635509l-2.142766-2.843285c8.220803-2.390008 14.772721-10.013309 14.278237-19.902997l-3.68803-78.169742c-0.803537-16.977298 16.46221-28.906734 32.059072-22.169383l31.028896 13.433492c15.76169 6.819764 32.100279-8.365028 26.454915-24.579995l-8.838909-25.362928c-6.345883-18.151698 11.084692-35.582273 29.23639-29.23639l25.362929 8.838908c16.214967 5.645364 31.399759-10.693225 24.579995-26.454915l-13.618924-31.440966c-6.696143-15.493844 5.047862-32.677177 21.901538-32.079675l77.3456 2.760871c9.72486 0.35026 17.22454-6.057434 19.635151-14.113408l4.388549 3.337769a217.367098 217.367098 0 0 1 75.635509 108.250876z" fill="#FE646F" /><path d="M471.988249 226.618634a217.367098 217.367098 0 0 0-75.635509-108.250876l-4.388549-3.337769c-2.410611 8.055975-9.910291 14.463669-19.635151 14.113408l-27.513936-0.982787c53.569143 45.204115 74.23653 134.973636 94.570141 202.720058a43.891671 43.891671 0 0 1-11.002278 43.665032l-122.129404 122.129404 49.427836 15.324896 113.391453-49.15587 42.927426-107.163009z" fill="#FD4755" /><path d="M617.758128 476.889548a15.452637 15.452637 0 0 1-10.928105-26.378682l63.39702-63.397021a15.452637 15.452637 0 0 1 21.85415 21.85415l-63.39702 63.39702a15.405249 15.405249 0 0 1-10.926045 4.524533zM564.500098 423.631518a15.454698 15.454698 0 0 1-10.930165-26.376622l63.376416-63.39908a15.452637 15.452637 0 0 1 21.858271 21.850029l-63.376417 63.39908a15.41143 15.41143 0 0 1-10.928105 4.526593zM472.359113 628.675653l-74.440505 74.440505c-3.008113 3.028717-6.963989 4.532774-10.919864 4.532774s-7.91175-1.504057-10.919864-4.532774a15.432034 15.432034 0 0 1 0-21.839727l42.072381-42.051777 32.368124-32.388728c6.03683-6.03683 15.802897-6.03683 21.839728 0s6.03683 15.802897 0 21.839727zM419.099023 575.415563l-32.388728 32.368125-42.051777 42.051777c-3.008113 3.028717-6.963989 4.532774-10.919864 4.532773s-7.91175-1.504057-10.919864-4.532773c-6.03683-6.03683-6.03683-15.823501 0-21.839728l42.051777-42.051777 32.388728-32.368124c6.03683-6.03683 15.823501-6.03683 21.839728 0 6.03683 6.03683 6.03683 15.823501 0 21.839727z" fill="#FE99A0" /><path d="M419.099023 575.415563l-32.388728 32.368125-21.839728-21.839728 32.388728-32.368124c6.03683-6.03683 15.823501-6.03683 21.839728 0 6.03683 6.03683 6.03683 15.823501 0 21.839727zM472.359113 628.675653l-34.634512 34.634511a43.446635 43.446635 0 0 0-9.333393-13.845563l-10.239947-10.239947 32.368124-32.388728c6.03683-6.03683 15.802897-6.03683 21.839728 0s6.03683 15.802897 0 21.839727z" fill="#FE646F" /><path d="M416.729618 472.789448c-3.008113 3.028717-6.963989 4.532774-10.919864 4.532773s-7.91175-1.504057-10.919863-4.532773l-67.950397-67.950397c-6.03683-6.03683-6.03683-15.802897 0-21.839728s15.802897-6.03683 21.839727 0l67.950397 67.950397a15.432034 15.432034 0 0 1 0 21.839728z" fill="#FE99A0" /><path d="M416.729618 472.789448c-3.008113 3.028717-6.963989 4.532774-10.919864 4.532773s-7.91175-1.504057-10.919863-4.532773l-32.368125-32.368124 21.839728-21.839728 32.368124 32.368124a15.432034 15.432034 0 0 1 0 21.839728z" fill="#FE646F" /><path d="M631.995158 703.528228c-3.955875 0-7.91175-1.508177-10.928105-4.526592l-69.866524-69.887128a15.452637 15.452637 0 0 1 0.00206-21.852089 15.452637 15.452637 0 0 1 21.852089 0.00206l69.866525 69.887128a15.452637 15.452637 0 0 1-10.926045 26.376621zM408.267754 373.260041a15.413491 15.413491 0 0 1-10.928105-4.524532l-17.148307-17.148307a15.452637 15.452637 0 0 1 21.85415-21.85415l17.148307 17.148307a15.452637 15.452637 0 0 1-10.926045 26.378682zM685.275851 650.247535a15.399068 15.399068 0 0 1-10.926044-4.524532l-69.887128-69.864464a15.452637 15.452637 0 0 1-0.002061-21.85209 15.444396 15.444396 0 0 1 21.85209-0.00206l69.887128 69.864464a15.452637 15.452637 0 0 1-10.923985 26.378682z" fill="#FE99A0" /><path d="M355.596925 511.99794l156.294155-156.296216 156.298275 156.298276-156.298275 156.294155z" fill="#FE99A0" /><path d="M512.000278 355.67906l-32.376366 32.376366 123.942514 123.942514-123.942514 123.944573 32.376366 32.376366 156.318879-156.320939z" fill="#FE646F" /><path d="M512.000278 589.502187a15.450577 15.450577 0 0 1-15.452637-15.452637v-129.503402c0-8.536037 6.9166-15.452637 15.452637-15.452638s15.452637 6.9166 15.452637 15.452638v129.503402a15.452637 15.452637 0 0 1-15.452637 15.452637z" fill="#FE646F" /><path d="M576.75301 524.749456h-129.503403c-8.536037 0-15.452637-6.9166-15.452637-15.452637s6.9166-15.452637 15.452637-15.452638h129.503403c8.536037 0 15.452637 6.9166 15.452637 15.452638s-6.918661 15.452637-15.452637 15.452637z" fill="#FE646F" /></svg>