<?xml version="1.0" standalone="no"?><!DOCTYPE svg PUBLIC "-//W3C//DTD SVG 1.1//EN" "http://www.w3.org/Graphics/SVG/1.1/DTD/svg11.dtd"><svg class="icon" width="200px" height="200.00px" viewBox="0 0 1024 1024" version="1.1" xmlns="http://www.w3.org/2000/svg"><path d="M323.011109 843.041419c-51.564995 0-112.160613-9.045045-158.294461-42.915543a15.45487 15.45487 0 0 1 18.289946-24.911989c85.210913 62.559154 237.237714 26.354252 238.762391 25.983384a15.45487 15.45487 0 0 1 18.681416 11.33 15.446628 15.446628 0 0 1-11.317638 18.683477c-3.558267 0.875659-49.372757 11.830671-106.121654 11.830671zM700.988891 843.043479c51.564995 0 112.160613-9.045045 158.294461-42.915543a15.45487 15.45487 0 0 0-18.289946-24.911989c-85.210913 62.559154-237.237714 26.354252-238.762391 25.983384a15.45487 15.45487 0 0 0-18.681416 11.33 15.446628 15.446628 0 0 0 11.317638 18.683477c3.558267 0.875659 49.372757 11.830671 106.121654 11.830671z" fill="#FEAEE1" /><path d="M447.672014 721.00337l-62.697199 65.252064-96.858211-75.162466-252.395889-195.879814a92.238851 92.238851 0 0 1-35.479651-79.551063 92.086383 92.086383 0 0 1 25.507438-57.319622 92.189402 92.189402 0 0 1 66.591307-28.350755 92.222368 92.222368 0 0 1 70.56783 32.842372l204.553992 242.918166z" fill="#EAF6FF" /><path d="M447.678195 721.005431L170.351773 391.673093c-19.039922-22.608491-58.798971-41.108594-88.357105-41.108595a92.714797 92.714797 0 0 0-13.736518 2.622857 92.2883 92.2883 0 0 1 46.564467 29.648791l219.695684 260.894935c9.358221 11.113661 8.750411 27.456552-1.285674 37.964462a117.42487 117.42487 0 0 1-45.118083 29.397425l96.85821 75.162466 0.002061-0.00206 0.00412 0.004121z" fill="#C8EFFE" /><path d="M576.315624 721.00337l62.699259 65.254125 349.268523-271.036099a92.306843 92.306843 0 0 0 35.477591-79.563426c-3.197701-44.355745-37.56681-80.127969-81.761846-85.093472a92.306843 92.306843 0 0 0-80.917092 32.273708z" fill="#EAF6FF" /><path d="M1023.760997 435.65797c-3.197701-44.357805-37.568871-80.127969-81.761846-85.093472a92.207945 92.207945 0 0 0-34.352626 2.624918c37.408161 10.069051 65.167589 42.831067 68.025328 82.470614a92.313024 92.313024 0 0 1-35.47759 79.563426L618.472949 764.881108l20.539874 21.378447 349.268523-271.036099a92.310964 92.310964 0 0 0 35.479651-79.565486z" fill="#C8EFFE" /><path d="M529.231943 745.563036l-115.815717-28.573275-160.478458-551.970238a120.018881 120.018881 0 0 1 23.442943-110.817248C313.626102 9.972213 377.114486-1.413417 427.40823 27.11659a120.023002 120.023002 0 0 1 60.492598 95.766212z" fill="#EAF6FF" /><path d="M379.319086 27.11453a120.020942 120.020942 0 0 1 60.492599 95.764151l40.531689 610.620861 48.890629 12.061433L487.898768 122.880742a120.025063 120.025063 0 0 0-60.490538-95.764152c-26.020471-14.760524-55.568303-18.81122-83.189685-13.182277a119.819025 119.819025 0 0 1 35.100541 13.180217z" fill="#C8EFFE" /><path d="M511.996909 729.677547l98.580684-12.689847 160.480518-551.970237a120.018881 120.018881 0 0 0-23.442942-110.817249C710.367717 9.970153 646.879333-1.415477 596.585589 27.11453a120.023002 120.023002 0 0 0-60.492598 95.766212l-24.096082 362.994738z" fill="#EAF6FF" /><path d="M747.613108 54.200214c-28.958565-34.387652-73.777894-48.911233-115.926977-40.267961 25.767045 5.251895 49.861066 18.92042 67.837834 40.267961a120.023002 120.023002 0 0 1 23.442942 110.819309L562.486389 716.989761l-50.49154 6.498421v6.189365l98.580684-12.689847 160.480518-551.970237a120.020942 120.020942 0 0 0-23.442943-110.817249z" fill="#C8EFFE" /><path d="M512.005151 745.109753a15.45281 15.45281 0 0 1-15.45281-16.042077c0.292573-7.604843 8.2518-187.673342 103.935598-308.835731a15.45281 15.45281 0 0 1 24.254729 19.155303c-89.346085 113.13723-97.237319 289.107645-97.307372 290.873385a15.45281 15.45281 0 0 1-15.430145 14.84912z" fill="#FEAEE1" /><path d="M582.447298 823.160864l-77.408274-77.408274 18.570157-42.962931a243.808248 243.808248 0 0 1 51.398105-75.663137c13.021568-13.021568 35.203561-7.703741 40.904617 9.807383a117.501104 117.501104 0 0 0 75.35202 75.35202c17.511124 5.701057 22.828951 27.88305 9.807383 40.904617a243.808248 243.808248 0 0 1-75.663137 51.398105z" fill="#FFCEEC" /><path d="M691.265983 712.287986a117.496983 117.496983 0 0 1-75.35202-75.352021c-5.701057-17.511124-27.88305-22.828951-40.904617-9.807383a242.77394 242.77394 0 0 0-7.825303 8.202352c0.214279 0.535697 0.459464 1.04667 0.642837 1.605031a117.505224 117.505224 0 0 0 75.35202 75.352021c17.511124 5.701057 22.828951 27.88305 9.807384 40.904617a243.808248 243.808248 0 0 1-75.663137 51.398105l-9.387067 4.056877 14.513279 14.513279 42.962931-18.570156a243.808248 243.808248 0 0 0 75.663137-51.398105c13.019507-13.021568 7.70168-35.203561-9.809444-40.904617z" fill="#FFBEE6" /><path d="M518.952734 886.655429l-77.408274-77.408275-42.962931 18.570157a243.808248 243.808248 0 0 0-75.663137 51.398105c-13.021568 13.021568-7.703741 35.203561 9.807383 40.904617a117.501104 117.501104 0 0 1 75.35202 75.35202c5.701057 17.511124 27.88305 22.828951 40.904617 9.807383a243.808248 243.808248 0 0 0 51.398105-75.663137z" fill="#FFCEEC" /><path d="M441.54652 809.247154l-33.575864 14.513279 42.923784 42.923784a41.57836 41.57836 0 0 1 8.764834 45.896905l-7.363779 17.037238a243.814429 243.814429 0 0 1-43.572803 67.460785c6.512844 16.190424 27.656408 20.807723 40.263841 8.202352a243.808248 243.808248 0 0 0 51.398105-75.663137l18.570156-42.962931z" fill="#FFBEE6" /><path d="M505.039024 886.655429l77.408274-77.408275 42.962932 18.570157a243.808248 243.808248 0 0 1 75.663137 51.398105c13.021568 13.021568 7.703741 35.203561-9.807384 40.904617a117.501104 117.501104 0 0 0-75.35202 75.35202c-5.701057 17.511124-27.88305 22.828951-40.904617 9.807383a243.808248 243.808248 0 0 1-51.398105-75.663137z" fill="#FFCEEC" /><path d="M701.073367 879.215416a243.808248 243.808248 0 0 0-75.663137-51.398105l-42.962932-18.570157-14.513278 14.513279 9.387066 4.056878a243.843275 243.843275 0 0 1 75.663137 51.398105c13.021568 13.021568 7.703741 35.203561-9.807383 40.904617a117.501104 117.501104 0 0 0-75.35202 75.35202c-0.181313 0.560422-0.426498 1.071395-0.642837 1.605032 2.542502 2.791808 5.150937 5.525925 7.825303 8.202351 13.021568 13.021568 35.203561 7.703741 40.904617-9.807383a117.501104 117.501104 0 0 1 75.35202-75.35202c17.513184-5.698996 22.831011-27.880989 9.809444-40.904617z" fill="#FFBEE6" /><path d="M441.54652 823.160864l77.408274-77.408274-18.570156-42.962931a243.808248 243.808248 0 0 0-51.398105-75.663137c-13.021568-13.021568-35.203561-7.703741-40.904617 9.807383a117.501104 117.501104 0 0 1-75.35202 75.35202c-17.511124 5.701057-22.828951 27.88305-9.807383 40.904617a243.808248 243.808248 0 0 0 75.663136 51.398105z" fill="#FFCEEC" /><path d="M500.382578 702.791719a243.808248 243.808248 0 0 0-51.398105-75.663137c-12.605372-12.605372-33.748936-7.988072-40.263841 8.202352a243.845335 243.845335 0 0 1 43.572802 67.460785l18.570157 42.962931-62.894996 62.894996 33.575865 14.513279 77.408274-77.408275z" fill="#FFBEE6" /><path d="M465.96196 862.237929l-31.977014-31.977014c-13.503695-13.503695-13.503695-35.399296 0-48.905052l43.162787-43.162787c13.503695-13.503695 35.399296-13.503695 48.905052 0l31.977014 31.977014z" fill="#BBF49B" /><path d="M526.054845 738.193076c-13.503695-13.503695-35.399296-13.503695-48.905051 0l-11.667902 11.667901c11.468045-2.966939 24.155832 0.004121 33.139065 8.987354l11.321759 11.321759-68.023268 68.023267 24.044572 24.044572 92.067839-92.067839z" fill="#9BE69D" /><path d="M497.938973 894.214943l-31.977013-31.977014 92.067839-92.067839 31.977014 31.977014c13.503695 13.503695 13.503695 35.399296 0 48.905051l-43.162788 43.162788c-13.505756 13.503695-35.399296 13.503695-48.905052 0z" fill="#BBF49B" /><path d="M590.006813 802.147104l-31.977014-31.977014-24.044572 24.044571 7.932443 7.932443c13.503695 13.503695 13.503695 35.399296 0 48.905051l-43.162788 43.162788c-0.131864 0.131864-0.27403 0.239003-0.407954 0.368807 13.53254 13.114284 35.123206 13.005085 48.497097-0.368807l43.162788-43.162788c13.503695-13.505756 13.503695-35.401357 0-48.905051z" fill="#9BE69D" /></svg>