<?xml version="1.0" standalone="no"?><!DOCTYPE svg PUBLIC "-//W3C//DTD SVG 1.1//EN" "http://www.w3.org/Graphics/SVG/1.1/DTD/svg11.dtd"><svg class="icon" width="200px" height="200.00px" viewBox="0 0 1024 1024" version="1.1" xmlns="http://www.w3.org/2000/svg"><path d="M913.390382 383.322685l-59.563679 25.032815c-28.370524 11.929218-32.40874 50.457091-7.14929 68.010967l-39.537426 6.03672-295.139987 45.120878-334.677413-51.157598c25.25945-17.553876 21.221235-56.081748-7.14929-68.010967l-59.563679-25.032815c-17.718701-7.437734-14.999086-33.377088 3.87339-36.982637l63.498879-12.114647c30.224807-5.768879 42.174628-42.607294 21.118219-65.023511L154.865164 222.103111c-13.165407-14.030739-0.123619-36.611781 18.604635-32.223312l62.901388 14.772452c29.956966 7.005068 55.875717-21.756916 45.759575-50.827948l-21.262441-61.005899c-6.304561-18.17197 14.772452-33.500706 30.101188-21.859932l51.466645 39.042952c24.497134 18.604636 59.872726 2.863837 62.468722-27.793637l4.388469-52.373183 1.009554-12.032234c1.607045-19.140317 27.113733-24.579547 36.364543-7.705574l31.151948 56.61743c0.412063 0.762316 0.844729 1.483426 1.318601 2.204536l0.432666 0.679903c0.288444 0.453269 0.597491 0.885935 0.927141 1.318601 1.009554 1.401014 2.080917 2.699011 3.234693 3.914597 0.32965 0.39146 0.700507 0.762316 1.071364 1.112569 0.247238 0.226635 0.473872 0.453269 0.700506 0.659301 0.762316 0.741713 1.545236 1.401014 2.348758 2.019108l0.020604 0.020603c17.945335 14.154357 46.171638 10.157348 58.306887-11.929218l20.294093-36.879622 10.857855-19.737808c9.25081-16.873972 34.757498-11.434743 36.364543 7.705574l5.398023 64.405417c0.123619 1.339204 0.288444 2.657805 0.535682 3.955803 0.082413 0.515079 0.185428 1.030157 0.309047 1.524632 0.309047 1.421617 0.72111 2.802027 1.174379 4.141232 0.164825 0.473872 0.32965 0.947744 0.515078 1.421616 0.061809 0.164825 0.123619 0.309047 0.185429 0.45327 0.164825 0.432666 0.350253 0.865332 0.535681 1.277394 0.206031 0.432666 0.39146 0.865332 0.618094 1.277395 0.206031 0.453269 0.453269 0.906538 0.700507 1.359807 0.082413 0.185428 0.185428 0.350253 0.267841 0.494476 0.267841 0.494475 0.576888 1.009554 0.885935 1.483426 0.288444 0.473872 0.597491 0.947744 0.906538 1.401013a37.930382 37.930382 0 0 0 6.634211 7.396528c0.473872 0.412063 0.968348 0.824126 1.483427 1.215585 13.144804 10.260364 32.532359 11.929218 47.716873 0.39146l34.324832-26.04237 17.141813-13.000582c15.328736-11.640774 36.405749 3.687962 30.101188 21.859932l-21.262441 61.005899c-1.710061 4.903547-2.389964 9.786492-2.183933 14.484008 0 0.267841 0.020603 0.515079 0.020603 0.762316 0.041206 0.432666 0.061809 0.865332 0.123619 1.277395 0 0.226635 0.020603 0.432666 0.061809 0.6593 0.041206 0.535682 0.123619 1.071363 0.206032 1.607045v0.041207c0.061809 0.39146 0.123619 0.782919 0.206031 1.174379 0.103016 0.618094 0.247238 1.236188 0.39146 1.833679 0.082413 0.350253 0.164825 0.72111 0.267841 1.071363 0.247238 0.865332 0.515079 1.710061 0.803522 2.55479 0.247238 0.803522 0.556285 1.586442 0.885935 2.348758 0.164825 0.370857 0.32965 0.762316 0.515079 1.133173 0.144222 0.39146 0.32965 0.762316 0.535681 1.133172 0.350253 0.741713 0.741713 1.462823 1.174379 2.183933 0.185428 0.350253 0.412063 0.72111 0.638698 1.071364 0.432666 0.700507 0.885935 1.401014 1.38041 2.060314 0.453269 0.679904 0.968348 1.339204 1.504029 1.977901 0.267841 0.309047 0.515079 0.618094 0.803523 0.947745 0.226635 0.309047 0.515079 0.618094 0.824125 0.927141 0.535682 0.618094 1.11257 1.215585 1.730664 1.77187 2.080917 2.019108 4.367866 3.790978 6.840243 5.274404 8.20005 4.98596 18.357398 7.025671 29.029825 4.532691l34.242419-8.035225 28.658969-6.737227c18.728255-4.388469 31.770043 18.192573 18.604635 32.223312l-44.234942 47.098779c-21.05641 22.416217-9.106588 59.254632 21.118219 65.023511l63.498879 12.114647c18.872477 3.60555 21.592091 29.544903 3.87339 36.982637z" fill="#FFCEEC" /><path d="M429.581257 66.708045c12.151732 22.100989 40.361552 26.067093 58.298646 11.927158a39.024408 39.024408 0 0 1-10.060513-11.927158L446.673623 10.092675c-9.267293-16.86367-34.757498-11.434743-36.368664 7.719997l-1.009554 12.021932zM714.891486 92.818404l-21.258321 61.01208c-10.114082 29.06073 15.81085 57.833015 45.759575 50.815586l19.255695-4.516209c-14.838382-8.98915-23.29185-27.577303-16.777137-46.299377l21.25832-61.01208c6.316923-18.163729-14.778633-33.498646-30.092946-21.857871l-17.147994 13.008823c0.337892 2.791726 0.070051 5.777121-0.997192 8.849048zM570.863172 82.207787c2.579513 30.651292 37.957166 46.400333 62.45636 27.801878l0.527441-0.399701c-8.049647-6.275717-13.767018-15.759342-14.747728-27.402177l-5.408325-64.397176c-1.609105-19.15474-27.101371-24.583667-36.368663-7.719996l-10.859916 19.741929zM913.390382 383.322685l-59.563679 25.032815c-28.370524 11.929218-32.40874 50.457091-7.14929 68.010967l-39.537426 6.03672-8.694525-6.03672c-25.25945-17.553876-21.221235-56.081748 7.128686-68.010967l59.584282-25.032815c17.718701-7.437734 14.999086-33.377088-3.893993-36.982637l-63.478276-12.114647c-30.224807-5.768879-42.174628-42.607294-21.118219-65.023511l44.234943-47.098779c7.417131-7.891003 6.510592-18.50162 0.968347-25.486085l28.658969-6.737227c18.728255-4.388469 31.770043 18.192573 18.604635 32.223312l-44.234942 47.098779c-21.05641 22.416217-9.106588 59.254632 21.118219 65.023511l63.498879 12.114647c18.872477 3.60555 21.592091 29.544903 3.87339 36.982637z" fill="#FFBEE6" /><path d="M535.28979 1023.977337h-46.57752a14.576722 14.576722 0 0 1-14.576721-14.576722V686.409303h75.728902v322.991312a14.574662 14.574662 0 0 1-14.574661 14.576722z" fill="#6FD7A3" /><path d="M509.935565 686.409303v319.047871a19.146498 19.146498 0 0 1-14.288278 18.520163h39.642503a14.576722 14.576722 0 0 0 14.576722-14.576722V686.409303z" fill="#3EC3A4" /><path d="M888.25043 548.613439l-64.603207-1.341264c-30.754308-0.640758-50.135682 32.901155-34.201213 59.194882l33.478043 55.294709c9.96986 16.449547-7.470699 35.810318-24.892715 27.616449l-87.45209-41.13623c-19.401977-9.143674-42.539304-0.867392-51.785993 18.452173-0.020603 0.061809-0.061809 0.103016-0.082413 0.164825l-293.46083 0.082412c-9.164277-19.48439-32.404619-27.843084-51.88901-18.678807l-87.39028 41.115627c-17.419955 8.193869-34.860514-11.166902-24.892714-27.616449l33.478043-55.294709c15.934469-26.295788-3.446905-59.83564-34.201214-59.194882l-64.603207 1.341264c-19.216549 0.412063-27.286799-24.396179-11.475949-35.357049l53.044845-36.883742 50.300507 0.949805a66.883975 66.883975 0 0 0 39.836173-12.219723l58.411963-41.19804c15.852056-11.187505 19.711024-33.06598 8.649198-48.979845l-35.460065-51.021617c-7.099842-10.2377 0.908598-24.128338 13.334353-23.075518l61.900075 5.200233c19.319565 1.629708 36.34806-12.652389 38.101388-31.971953l5.634958-61.858869c1.11463-12.405151 16.181706-17.893827 25.036937-9.123071l44.065996 43.777553c13.767018 13.684606 35.975144 13.684606 49.742162 0l44.065997-43.777553c8.85523-8.772817 23.922306-3.28208 25.036936 9.123071l5.634959 61.858869c1.755388 19.319565 18.781823 33.601662 38.101388 31.971953l61.900075-5.200233c12.425754-1.05282 20.434195 12.837817 13.334353 23.075518l-35.460065 51.021617c-11.063886 15.913866-7.202858 37.792341 8.647138 48.979845l58.411963 41.19804a66.892216 66.892216 0 0 0 39.836172 12.219723l50.300507-0.949805 53.044846 36.883742c15.806729 10.960871 7.736479 35.771172-11.47801 35.357049z" fill="#D691C6" /><path d="M437.904926 594.08457a15.454416 15.454416 0 0 1-15.209238-12.829575l-30.002293-174.030607a15.452355 15.452355 0 0 1 12.602941-17.852621 15.458536 15.458536 0 0 1 17.854681 12.60088l30.002293 174.030607a15.452355 15.452355 0 0 1-15.248384 18.081316zM586.095074 594.08457a15.452355 15.452355 0 0 1-15.215419-18.252322l32.054366-174.030607c1.547296-8.391659 9.613425-13.952447 17.994782-12.39897a15.452355 15.452355 0 0 1 12.39897 17.994783l-32.054365 174.030607a15.456476 15.456476 0 0 1-15.178334 12.656509zM563.37187 274.05805c1.755388 19.319565 18.781823 33.601662 38.101388 31.971953l31.582554-2.653684c-11.620171-4.907668-20.226103-15.889142-21.445809-29.318269l-5.634959-61.858869c-1.11463-12.405151-16.181706-17.895888-25.036936-9.12307l-22.039179 21.892897z" fill="#CD7CBB" /><path d="M676.705625 323.905288l-35.460065 51.021617c-11.063886 15.913866-7.202858 37.792341 8.649199 48.979846l58.411963 41.198039a66.892216 66.892216 0 0 0 39.836172 12.219723l37.293745-0.704628a66.836588 66.836588 0 0 1-28.889724-11.515095l-58.411963-41.198039c-15.852056-11.187505-19.711024-33.06598-8.647138-48.979846l35.460065-51.021617c7.099842-10.2377-0.908598-24.128338-13.334353-23.075517l-37.800582 3.177004c5.601994 4.540932 7.656127 13.031486 2.892681 19.898513zM438.889756 246.855724c13.525962 13.443549 35.179862 13.64752 48.990147 0.675783-0.247238-0.232815-0.510958-0.436787-0.752014-0.675783L443.061892 203.078171c-8.85523-8.772817-23.922306-3.28208-25.036936 9.12307l-1.164078 12.769827zM899.726379 513.25845l-53.044845-36.883742-46.962798 0.885935 51.769511 35.997807c13.927723 9.654632 9.3188 30.04556-5.109579 34.487597l41.871762 0.869452c19.214489 0.412063 27.284739-24.398239 11.475949-35.357049zM789.44601 606.469118c-14.331544-23.650345-0.086533-53.147861 25.298596-58.378999l-39.335516-0.815884c-30.754308-0.640758-50.135682 32.901155-34.201213 59.196943l33.478043 55.294708c3.554042 5.863654 3.611731 12.089923 1.44222 17.312819l21.903198 10.303631c17.419955 8.193869 34.860514-11.166902 24.892715-27.61645z" fill="#CD7CBB" /><path d="M677.298996 547.673936l-18.50162 119.024342c-0.020603 0.061809-0.061809 0.103016-0.082413 0.164825l-53.650578 113.379082a67.753427 67.753427 0 0 1-37.703747 34.57207c-7.458337 2.802027-15.452355 4.285453-23.693611 4.285453h-63.643101c-7.952812 0-15.658387-1.38041-22.890089-3.976406h-0.020603a67.961519 67.961519 0 0 1-38.548476-35.004736l-53.320927-113.17305-18.542827-119.27158c-1.916092-12.382487 12.712138-20.397109 22.10717-12.114647l39.104761 34.448451c18.975492 16.709147 48.788237 9.539254 58.080252-13.989532l33.541913-84.946748c4.470881-11.290521 20.458918-11.290521 24.9298 0l33.541913 84.946748c9.292016 23.528786 39.104761 30.698679 58.080252 13.989532L655.191826 535.559289c9.395032-8.282462 24.023262-0.267841 22.10717 12.114647z" fill="#978ECB" /><path d="M509.77074 556.020268c9.285835 23.514364 39.080037 30.694559 58.05965 14.006015a36.267708 36.267708 0 0 1-9.821517-14.006015l-33.541913-84.940567c-4.464701-11.307003-20.46716-11.307003-24.93186 0l-11.653136 29.509878zM655.189766 535.559289l-28.098563 24.756734-14.43456 92.864535a94.494243 94.494243 0 0 1-7.952813 25.889906c-13.923602 29.431586-47.873457 101.1676-47.873457 101.167601a67.907951 67.907951 0 0 1-61.403539 38.865764h48.238133a67.90383 67.90383 0 0 0 61.403539-38.865764l53.644397-113.377022c0.020603-0.061809 0.061809-0.103016 0.082412-0.164825l18.49956-119.022282c1.924333-12.388668-12.697715-20.40329-22.105109-12.114647zM348.672725 560.318083l10.991775 9.685537c14.420138 12.705957 35.091269 11.601628 48.266977 0.024723l-0.028844-0.024723-39.092399-34.44227c-9.407394-8.288643-24.031503-0.274022-22.105109 12.114646z" fill="#8379C1" /><path d="M374.735697 1005.904262l-68.435391-145.295407a131.926029 131.926029 0 0 0-60.630921-61.924799L164.344669 758.258634c-6.051142-3.008059-12.112586 4.054698-8.220653 9.5784l56.68542 80.455264a131.940451 131.940451 0 0 1 20.934851 47.354258l26.326693 118.410368a12.675052 12.675052 0 0 0 12.372186 9.922473h90.826884c9.292016-0.00206 15.425571-9.669054 11.465647-18.075135z" fill="#6FD7A3" /><path d="M306.300306 860.608855a131.940451 131.940451 0 0 0-60.630921-61.926859l-81.324716-40.425422c-6.051142-3.008059-12.112586 4.054698-8.220653 9.5784l11.183384 15.872659 30.123852 14.974363a131.930149 131.930149 0 0 1 60.630921 61.926859l69.982688 148.583668a10.789865 10.789865 0 0 1-6.209787 14.786874h41.434976c9.292016 0 15.423511-9.666993 11.465647-18.073075z" fill="#3EC3A4" /><path d="M649.264303 1005.904262l68.435391-145.295407a131.926029 131.926029 0 0 1 60.630921-61.924799l81.324716-40.425422c6.051142-3.008059 12.112586 4.054698 8.220653 9.5784l-56.68542 80.455264a131.905426 131.905426 0 0 0-20.934851 47.354258l-26.326693 118.410368a12.675052 12.675052 0 0 1-12.372186 9.922473h-90.826884c-9.292016-0.00206-15.425571-9.669054-11.465647-18.075135z" fill="#6FD7A3" /><path d="M859.655331 758.256574l-57.045975 28.356102c1.949057 2.072676 2.62278 5.344455 0.601612 8.210352l-40.258537 53.467209a131.905426 131.905426 0 0 0-20.934851 47.354258l-24.136579 108.555887a25.852821 25.852821 0 0 1-20.357963 19.776955h54.033796a12.675052 12.675052 0 0 0 12.372186-9.922473l26.326693-118.410369a131.940451 131.940451 0 0 1 20.934851-47.354258l56.68542-80.455263c3.891933-5.523702-2.169511-12.586458-8.220653-9.5784z" fill="#3EC3A4" /><path d="M488.656642 819.099708h-8.632716c-7.952812 0-15.658387-1.38041-22.890089-3.976406h-0.020603l-14.95788-132.766637c-0.947744-8.488494 5.150785-16.132259 13.618676-17.080003a15.452355 15.452355 0 0 1 17.100606 13.618675zM586.253718 682.809934l-18.89308 132.004321c-7.458337 2.802027-15.452355 4.285453-23.693611 4.285453h-8.117637l20.108665-140.65764c1.194982-8.447288 9.024176-14.298579 17.471463-13.1242 8.447288 1.215585 14.319183 9.044779 13.1242 17.492066z" fill="#8379C1" /></svg>