<?xml version="1.0" standalone="no"?><!DOCTYPE svg PUBLIC "-//W3C//DTD SVG 1.1//EN" "http://www.w3.org/Graphics/SVG/1.1/DTD/svg11.dtd"><svg class="icon" width="200px" height="200.00px" viewBox="0 0 1024 1024" version="1.1" xmlns="http://www.w3.org/2000/svg"><path d="M355.126366 357.986487l-12.836005 29.545475-60.739233 139.856821-101.101565-25.836838a281.118804 281.118804 0 0 0-103.594593-1.483454l-30.843497 5.336316c-7.870552 1.359834-12.114881-8.859522-5.64537-13.495318l50.808327-36.200417c6.098647-4.347347 4.326743-13.866182-2.925703-15.720501l-82.640794-21.304059c-7.726327-1.998543-7.376067-13.145058 0.494485-14.607909l78.705518-14.875755c7.994173-1.504058 9.848492-12.114881 2.863892-16.256192l-60.471386-35.850157c-6.9846-4.141311-3.358377-14.855151 4.697607-13.886786l61.316131 7.479085c7.994173 0.968366 13.000833-8.365037 7.788138-14.484288l-40.135694-46.955465c-5.274506-6.181062 1.648283-15.164205 8.96254-11.620396l63.314674 30.555048c7.314256 3.564412 15.122997-3.852862 11.970656-11.352549l-31.131947-73.801876c-3.131738-7.376067 5.954423-13.824975 11.908846-8.468055l63.438296 57.071803c5.562955 5.00666 14.463684 1.215609 14.710926-6.263476l0.329657-10.033924 1.751301-52.291781c0.28845-7.97357 11.146515-10.07513 14.360666-2.781478l12.62997 28.659523c14.010406 31.873675 33.851614 60.862854 58.493446 85.525289zM461.667265 751.69951l-49.386683 108.333407a280.682009 280.682009 0 0 0-21.633716 101.307601l-0.76233 31.296775c-0.185432 7.97357-11.0641 10.157545-14.31946 2.905099l-25.527785-56.639128-0.103017-0.226639c-3.069927-6.840375-12.753591-6.963996-15.988346-0.185432l-36.983353 76.871804c-3.461395 7.231842-14.340063 4.677003-14.257648-3.31717l0.762331-80.085956c0.082414-8.138398-9.972113-12.032467-15.390844-5.975026l-46.955465 52.332989c-5.398127 6.036837-15.226015 0.391467-12.69178-7.33486l19.264309-58.678879c2.513632-7.623309-5.665973-14.38127-12.69178-10.445994l-53.878254 30.204788c-7.067014 3.976483-14.525495-4.553382-9.642456-11.043497l42.319669-56.144643c4.903642-6.510718-0.865349-15.596879-8.818315-13.948596l-78.437672 16.153175c-7.849948 1.607076-12.423934-8.550469-5.99563-13.33049l68.321335-51.096776c6.016233-4.512175 4.038294-13.969199-3.275963-15.65869l-60.739233-14.195838c-7.746931-1.813111-7.68512-12.897815 0.082415-14.628513l30.575651-6.778564a281.205339 281.205339 0 0 0 95.25016-40.712593l83.567954-65.395632 115.791888 83.629764zM696.5064 107.715301l-19.305516 24.662436a281.79048 281.79048 0 0 0-47.676588 91.994801l-24.889075 91.356091h-185.267021l-24.889075-91.356091a281.79048 281.79048 0 0 0-47.676589-91.994801l-19.305516-24.662436c-4.903642-6.263476 2.080957-14.855151 9.230385-11.331946l55.897401 27.629345c6.737357 3.31717 14.257649-2.719667 12.506348-9.992716l-20.315089-82.888037c-1.895526-7.767534 8.097191-12.712383 13.124454-6.490115l50.293238 62.325705c5.109678 6.325286 15.329033 2.96691 15.679293-5.150884l2.987514-70.258068c0.35026-8.117794 11.537982-9.951509 14.484287-2.39001l22.396047 57.545684c2.925703 7.479085 13.515921 7.479085 16.441624 0l22.396047-57.545684c2.946306-7.561499 14.134028-5.727784 14.484288 2.39001l2.987513 70.258068c0.35026 8.117794 10.569615 11.476171 15.679293 5.150884l50.293238-62.325705c5.027263-6.222269 15.01998-1.277419 13.124454 6.490115l-20.315089 82.888037c-1.751301 7.273049 5.768991 13.309886 12.506348 9.992716l15.885328-7.849948 40.012073-19.779397c7.149428-3.523205 14.134028 5.068471 9.230385 11.331946zM917.458751 867.079328l-33.377733-6.881582-45.05994-9.271593c-7.952966-1.648283-13.721957 7.437878-8.818314 13.948596l42.319668 56.144643c4.883039 6.490115-2.575442 15.01998-9.642456 11.043497l-53.878254-30.204788c-7.025807-3.935276-15.205412 2.822685-12.69178 10.445994l19.264309 58.678879c2.534235 7.726327-7.293653 13.371697-12.69178 7.33486l-46.955465-52.332989c-5.418731-6.05744-15.473258-2.163372-15.390843 5.975026l0.762331 80.085956c0.082414 7.994173-10.796254 10.549012-14.257649 3.31717l-36.983352-76.871804c-3.234756-6.778564-12.918419-6.654943-15.988347 0.185432l-25.630802 56.865767c-3.255359 7.252446-14.134028 5.068471-14.319459-2.905099l-0.762331-31.296775a280.682009 280.682009 0 0 0-21.633716-101.307601l-49.386683-108.333407 124.816239-89.872636 22.210614-16.00895 83.877007 64.85994a281.205339 281.205339 0 0 0 95.25016 40.712593l30.575652 6.778564c7.767534 1.730697 7.829345 12.815401 0.082414 14.628513l-60.739233 14.195838c-7.314256 1.68949-9.292196 11.146515-3.275962 15.65869l68.321334 51.096776c6.428304 4.780021 1.854318 14.937566-5.995629 13.33049zM1018.395487 418.684512l-82.640794 21.304059c-7.252446 1.854318-9.02435 11.373153-2.925703 15.720501l50.808327 36.200417c6.469511 4.635796 2.225182 14.855151-5.645369 13.495318l-30.843498-5.336316a281.691583 281.691583 0 0 0-70.85557-3.152342h-0.020604c-10.961083 0.885952-21.880958 2.431218-32.718419 4.635796l-101.122169 26.331323-4.285536-9.930906-69.269097-159.965875 63.52071-63.541314a280.986942 280.986942 0 0 0 58.493447-85.525289l12.629969-28.659523c3.214152-7.293653 14.072217-5.192092 14.360666 2.781478l2.080958 62.325705c0.247242 7.479085 9.147971 11.270136 14.710927 6.263476l63.438296-57.071803c5.954423-5.35692 15.040583 1.091988 11.908845 8.468055l-31.131947 73.801876c-3.152341 7.499688 4.6564 14.916962 11.970656 11.352549l63.314675-30.555048c7.314256-3.543809 14.237045 5.439334 8.962539 11.620396l-40.135694 46.955465c-5.212695 6.119251-0.206035 15.452654 7.788138 14.484288l61.316132-7.479085c8.055984-0.968366 11.682207 9.745474 4.697606 13.886786l-60.471386 35.850157c-6.9846 4.141311-5.130281 14.752134 2.863892 16.256192l78.705518 14.875755c7.870552 1.462851 8.220812 12.609366 0.494485 14.607909z" fill="#C365AF" /><path d="M355.126366 357.986487l-12.836005 29.545475c-33.521958-33.542561-70.999795-71.020398-93.066185-93.107392-17.945682-17.245162-32.532988-37.477837-44.853904-59.09095l1.751301-52.291781c0.28845-7.97357 11.146515-10.07513 14.360666-2.781478l12.62997 28.659523c14.010406 31.873675 33.851614 60.862854 58.493446 85.525289zM696.5064 107.715301l-19.305516 24.662436a281.79048 281.79048 0 0 0-47.676588 91.994801l-24.889075 91.356091h-42.340273c9.498231-34.922998 18.708013-68.733405 24.847868-91.356091 11.270136-40.073883 34.181271-75.86223 60.121126-108.209786l40.012073-19.779397c7.149428-3.523205 14.134028 5.068471 9.230385 11.331946zM922.354151 326.745341c-1.98206-3.047263-2.151009-7.258627 0.655193-10.549012l40.119211-46.953404c5.278627-6.181062-1.640042-15.160084-8.956359-11.628638l-40.271677 19.447681c-47.97534 54.733301-49.050845 57.11301 8.453632 49.683373zM576.505209 114.026165c-1.765723 7.27511 5.760749 13.309886 12.489865 9.988596l31.216422-15.42587 18.97792-77.448702c1.893465-7.779896-8.09513-12.720625-13.120334-6.498357l-39.723623 49.221855-9.84025 40.162478zM836.521869 276.835329c-3.154402 7.485266 4.646098 14.908721 11.964475 11.35461l32.172426-15.537129 29.355922-69.621418c3.133798-7.380188-5.950302-13.835276-11.900604-8.474235l-43.337484 38.986016-18.254735 43.292156zM777.583386 245.357242c0.251363 7.485266 9.145911 11.270136 14.719168 6.265536l27.052446-24.33484-1.477273-44.254341c-0.274027-7.969449-11.144454-10.07101-14.360667-2.775296l-12.615547 28.659522a280.469793 280.469793 0 0 1-13.633361 26.918524l0.315234 9.520895zM647.682194 938.480891c-3.19973-6.692029-12.673237-6.634339-15.858544-0.035026 0.811779 7.596525 1.333049 15.232196 1.524662 22.890532l0.778814 31.309138c0.189553 7.969449 11.05998 10.155484 14.31946 2.900978l12.910177-28.649221c-6.374735-13.241894-13.674569-28.416401-13.674569-28.416401zM798.796789 919.894439l-32.168305-18.042519c-7.023746-3.931155-15.201291 2.818564-12.700021 10.450115l5.94 18.075485 43.016068 47.946495c5.404308 6.034777 15.223955 0.379105 12.700022-7.338981zM830.198643 864.866508c-1.771904-2.348803-2.134527-5.031384-1.518481-7.427576-49.687494-11.17742-58.544956-12.755651-8.941936 50.433342l43.135569 24.194736c7.064953 3.974423 14.529616-4.563684 9.650698-11.039376zM713.557889 925.991026c-5.424912-6.05538-15.475318-2.165432-15.390844 5.970906l0.224579 23.846536 28.649221 59.546287c3.469636 7.231842 14.340063 4.689365 14.255588-3.300687l-0.52745-55.730512-27.211094-30.33253zM742.431688 527.883268l-4.285536-9.930906c24.250365-6.304683 46.357962-12.05307 63.026225-16.400417 24.662436-5.480541 49.922375-6.428304 75.099899-4.635796-10.961083 0.885952-21.880958 2.431218-32.718419 4.635796zM917.458751 867.079328l-33.377733-6.881582c0.185432-2.307596-0.679917-4.71821-3.008117-6.448908l-68.300731-51.096776c-6.016233-4.512175-4.038294-13.969199 3.275962-15.65869l60.718629-14.195838c7.767534-1.813111 7.705724-12.897815-0.082414-14.628513-82.496569-12.135484-130.502815-49.324872-189.531953-96.342147l22.210614-16.00895 83.877007 64.85994a281.205339 281.205339 0 0 0 95.25016 40.712593l30.575652 6.778564c7.767534 1.730697 7.829345 12.815401 0.082414 14.628513l-60.739233 14.195838c-7.314256 1.68949-9.292196 11.146515-3.275962 15.65869l68.321334 51.096776c6.428304 4.780021 1.854318 14.937566-5.995629 13.33049zM461.667265 751.69951l-49.386683 108.333407a280.682009 280.682009 0 0 0-21.633716 101.307601l-0.76233 31.296775c-0.185432 7.97357-11.0641 10.157545-14.31946 2.905099l-25.527785-56.639128c8.653486-69.701772 47.202707-142.452867 80.085956-209.991268zM1017.903063 404.066302l-78.703458-14.865454c-7.990052-1.51436-9.860854-12.11076-2.859772-16.254131l60.473447-35.850158c6.980479-4.141311 3.343954-14.865453-4.709969-13.899147l-34.719023 4.238148c1.491696 3.207971 0.857107 7.404912-2.944246 9.658939l-60.473446 35.850157c-7.001082 4.141311-5.130281 14.739772 2.859771 16.254132l78.703458 14.865453c7.864371 1.473153 8.220812 12.615547 0.484183 14.61409l-82.634613 21.299939c-7.254506 1.870801-9.020229 11.375214-2.923642 15.728741l50.800085 36.208659c2.779417 1.986181 3.572654 4.998419 2.964849 7.687181 0.976608 0.158647 1.953215 0.302872 2.927763 0.471821l30.845558 5.319833c7.864371 1.366015 12.11076-8.85128 5.635068-13.478835l-50.800086-36.208659c-6.098647-4.353528-4.330864-13.85588 2.923643-15.728741l82.634613-21.299939c7.736629-1.994423 7.380188-13.138877-0.484183-14.612029z" fill="#B2529F" /><path d="M617.945107 575.127183l91.417901 70.690741c-32.017899 52.971698-84.762959 92.036008-147.026853 105.881586l-42.216651-92.5717c-1.586472-3.481998-4.862435-5.212695-8.117794-5.212695s-6.531322 1.730697-8.117794 5.212695l-42.216651 92.5717a228.338719 228.338719 0 0 1-37.065767-11.640999c-46.193134-18.914049-84.865976-52.436006-110.270139-94.776279l91.191262-71.370658c5.830801-4.553382 3.894069-13.824975-3.296566-15.679293l-120.674927-30.843498v-0.618106c0-55.876797 19.903018-107.097195 52.992302-146.985646 0.206035-0.267846 0.432674-0.535692 0.659313-0.803538 6.201665-7.417274 12.856608-14.422477 19.923623-20.995006l80.29199 80.312594c1.730697 1.730697 3.791051 2.554839 5.789595 2.637253 1.215609 0.061811 2.431218-0.123621 3.564412-0.556295 0.061811-0.020604 0.082414-0.020604 0.082414-0.020604 3.955879-1.524662 6.860978-5.70718 5.501145-10.71384l-30.987722-113.916966c22.190011-9.786681 46.234341-16.153174 71.453072-18.419564 0.020604 0 0.061811 0 0.082414-0.020603 6.943393-0.63871 13.989803-0.968366 21.098024-0.968367 32.945059 0 64.303645 6.922789 92.633511 19.408534l-30.987723 113.916966c-1.401041 5.171488 1.751301 9.477628 5.913216 10.858065 2.905099 0.968366 6.34589 0.473881 9.02435-2.204579l80.291991-80.312594c45.245371 42.072426 73.575237 102.111138 73.575237 168.78419 0 0.370864 0 0.741727-0.020604 1.112591l-121.251826 31.544018c-7.190635 1.854318-9.086161 11.146515-3.234755 15.699897z" fill="#FFCEEC" /><path d="M579.560714 440.50366c-2.554839-0.103018-50.622895-2.266389-48.274092-10.858065l25.278482-92.932262c3.368679-12.386848-3.599438-25.220792-15.811155-29.178732a229.838657 229.838657 0 0 0-49.932677-10.225536c0.020604 0 0.061811 0 0.082414-0.020603 6.943393-0.63871 13.989803-0.968366 21.098024-0.968367 32.945059 0 64.303645 6.922789 92.633511 19.408534l-30.987723 113.916966c-1.401041 5.171488 1.751301 9.477628 5.913216 10.858065zM441.207951 440.936334c-6.183122 0.93334-20.986765 0.747908-31.747993 0.453278a31.317379 31.317379 0 0 1-21.050636-8.91103l-53.865892-52.693551v-0.010302a231.200551 231.200551 0 0 1 20.582936-21.788242l80.29199 80.312594c1.730697 1.730697 3.791051 2.554839 5.789595 2.637253zM512.00171 653.894511v0.020604c-3.255359 0-6.531322 1.730697-8.117794 5.212695l-42.216651 92.5717a228.338719 228.338719 0 0 1-37.065767-11.640999l36.900938-80.930701c3.193549-6.963996 50.499274-5.233299 50.499274-5.233299zM621.171621 559.433467l121.260067-31.560501 0.018543-0.024724c0.304932-67.101605-28.078503-127.572992-73.569056-169.872057l-21.792363 21.798544c29.364164 35.407181 48.346204 79.739816 52.244394 128.335323 0.904495 11.270136-6.341769 21.586328-17.282249 24.435797l-103.252574 26.887618c-7.190635 1.850198-9.0841 11.144454-3.216212 15.685474l77.08608 59.6184c8.305286 6.422123 10.058648 18.291822 3.912612 26.803144-25.018877 34.659273-59.453572 62.070221-99.552179 78.511845l5.311592 11.64718c62.259774-13.85588 115.015135-52.903707 147.018612-105.889827l-91.40348-70.690742c-5.867888-4.54102-3.974423-13.835276 3.216213-15.685474z" fill="#FFBEE6" /><path d="M476.209242 592.827683a15.454714 15.454714 0 0 1-12.821582-24.058752l23.978399-35.759502-68.504706-19.701104a15.452654 15.452654 0 1 1 8.542227-29.702062l88.867183 25.55869a15.450594 15.450594 0 0 1 8.564891 23.457129l-35.778045 53.359045a15.440292 15.440292 0 0 1-12.848367 6.846556z" fill="#FFBEE6" /><path d="M547.792117 592.827683a15.436171 15.436171 0 0 1-12.848366-6.848617l-35.778046-53.359044a15.452654 15.452654 0 0 1 8.564891-23.457129l88.867184-25.55869c8.20639-2.365286 16.763039 2.377648 19.122145 10.579917s-2.377648 16.763039-10.579918 19.122144l-68.504706 19.701104 23.978399 35.759502a15.452654 15.452654 0 0 1-4.229907 21.440043 15.378481 15.378481 0 0 1-8.591676 2.62077z" fill="#FFBEE6" /><path d="M512.00171 539.466578a15.452654 15.452654 0 0 1-15.452654-15.452655v-72.911803c0-8.536046 6.918668-15.452654 15.452654-15.452654s15.452654 6.916608 15.452654 15.452654v72.911803a15.452654 15.452654 0 0 1-15.452654 15.452655z" fill="#FFBEE6" /><path d="M696.932893 854.929421a15.444413 15.444413 0 0 1-13.406722-7.746931l-30.664247-53.286932a15.452654 15.452654 0 1 1 26.786661-15.415568l30.664247 53.286932a15.452654 15.452654 0 0 1-13.379939 23.162499zM764.434207 803.305194a15.386723 15.386723 0 0 1-9.613611-3.362498l-48.103082-38.287556a15.452654 15.452654 0 1 1 19.247826-24.180313l48.103082 38.287556a15.452654 15.452654 0 0 1-9.634215 27.542811zM327.196208 854.929421a15.37024 15.37024 0 0 1-7.693361-2.062414 15.452654 15.452654 0 0 1-5.686577-21.100085l30.666307-53.286932a15.448533 15.448533 0 0 1 21.100084-5.684516 15.452654 15.452654 0 0 1 5.686577 21.100084l-30.666307 53.286932a15.448533 15.448533 0 0 1-13.406723 7.746931zM259.692834 803.305194a15.452654 15.452654 0 0 1-9.634215-27.542811l48.103082-38.287556a15.452654 15.452654 0 1 1 19.247826 24.180313l-48.103082 38.287556a15.382602 15.382602 0 0 1-9.613611 3.362498zM228.356912 443.081163a15.619543 15.619543 0 0 1-3.451093-0.389407l-58.310075-13.305766a15.452654 15.452654 0 0 1 6.87334-30.132675l58.310076 13.305765a15.452654 15.452654 0 0 1-3.422248 30.522083zM252.230232 384.663949a15.386723 15.386723 0 0 1-8.812133-2.771176l-45.008431-31.313258a15.452654 15.452654 0 1 1 17.648992-25.367077l45.00843 31.313258a15.452654 15.452654 0 0 1-8.836858 28.138253zM792.45502 445.141517a15.460896 15.460896 0 0 1-14.933445-11.519439 15.452654 15.452654 0 0 1 11.00435-18.879023l58.310075-15.366119c8.249657-2.181915 16.705349 2.750572 18.881083 11.00435a15.452654 15.452654 0 0 1-11.00435 18.879023l-58.310075 15.366119c-1.318626 0.3482-2.643434 0.515088-3.947638 0.515089zM766.517225 388.782596a15.452654 15.452654 0 0 1-9.306618-27.798294l47.068784-35.433966a15.452654 15.452654 0 0 1 18.586452 24.691281l-47.068784 35.433966a15.376421 15.376421 0 0 1-9.279834 3.107013zM480.32583 247.211561a15.452654 15.452654 0 0 1-15.265162-13.182145l-8.657607-58.262687a15.452654 15.452654 0 1 1 30.56947-4.54308l8.657607 58.262687a15.452654 15.452654 0 0 1-15.304308 17.725225zM547.619048 247.211561a15.452654 15.452654 0 0 1-15.302249-17.725225l8.655547-58.262687a15.452654 15.452654 0 0 1 30.569471 4.54308l-8.655547 58.262687a15.458835 15.458835 0 0 1-15.267222 13.182145z" fill="#B2529F" /></svg>