<?xml version="1.0" standalone="no"?><!DOCTYPE svg PUBLIC "-//W3C//DTD SVG 1.1//EN" "http://www.w3.org/Graphics/SVG/1.1/DTD/svg11.dtd"><svg class="icon" width="200px" height="200.00px" viewBox="0 0 1024 1024" version="1.1" xmlns="http://www.w3.org/2000/svg"><path d="M732.700827 309.77315v-89.369011l181.301076 24.791989c23.145783 3.164672 23.145783 36.622422 0 39.787094z" fill="#FFCEEC" /><path d="M914.001903 245.194068l-181.301076-24.789929v5.039575l144.452018 19.752414c23.145783 3.164672 23.145783 36.622422 0 39.787094l-144.452018 19.752414v5.039574l181.301076-24.791988c23.143722-3.166732 23.143722-36.624482 0-39.789154z" fill="#FFBEE6" /><path d="M622.211341 198.659383h89.369011L686.788363 17.358307c-3.164672-23.145783-36.622422-23.145783-39.787093 0z" fill="#FFCEEC" /><path d="M686.788363 17.358307c-3.164672-23.145783-36.622422-23.145783-39.787093 0l-2.169531 15.860444c4.623388 2.804113 8.177462 7.590267 9.108733 14.391428l20.790822 151.047144h36.849058z" fill="#FFBEE6" /><path d="M711.00964 331.451976h-89.369011l24.791989 181.301076c3.164672 23.145783 36.622422 23.145783 39.787093 0z" fill="#FFCEEC" /><path d="M674.160581 331.451976l-19.948145 149.011535c-0.999262 7.303881-5.016911 12.298129-10.145081 14.990984l2.365263 17.296496c3.164672 23.145783 36.622422 23.145783 39.787093 0l24.791989-181.301076h-36.851119z" fill="#FFBEE6" /><path d="M599.891752 220.970731v89.356649l-46.851976-6.407636-134.436738-18.378172c-23.158145-3.172913-23.158145-36.632723 0-39.785033l135.054838-18.460585z" fill="#FFCEEC" /><path d="M599.891752 220.970731v89.356649l-46.851976-6.407636c-8.715209-5.459883-13.577595-15.019829-13.577595-24.765205 0-6.984529 2.493003-14.072075 7.870472-19.820405 5.089023-5.480486 7.829266-12.609239 7.829266-19.923421 0-2.183953-0.24724-4.38851-0.74172-6.572463-0.43267-1.874903-0.67991-3.729203-0.762323-5.542296z" fill="#FFBEE6" /><path d="M562.27831 783.960886c-11.764502-13.909309-32.575928-15.64617-46.483176-3.883728l-94.476577 79.912082v-108.486843a247.136962 247.136962 0 0 1 29.330903-116.571589l91.686885-170.659456-58.109636-31.218168-91.686886 170.659456c-13.396286 24.936212-23.294127 51.64019-29.50191 79.184784l-127.322408-199.774023-55.645478 35.425368 166.909649 261.886887c5.468124 8.579227 8.373194 18.542998 8.373194 28.716923v200.361219a14.463539 14.463539 0 0 0 14.461479 14.463538h37.038609a14.463539 14.463539 0 0 0 14.463539-14.463538v-46.182368a36.542069 36.542069 0 0 1 12.943012-27.898971l124.135073-104.994578c13.909309-11.758321 15.64823-32.569747 3.883728-46.476995z" fill="#FFCEEC" /><path d="M505.487287 464.273413l-91.686886 170.659455a247.112238 247.112238 0 0 0-29.330903 116.57159l-0.12568 127.310046c-0.004121 3.411912 3.871366 5.38159 6.626032 3.366584l30.348707-22.191848v-108.486843a247.136962 247.136962 0 0 1 29.330903-116.571589l91.686885-170.659456-58.109636-31.218168-8.253695 15.361844zM562.760428 784.54396c-10.905343-13.495182-30.126191-16.074719-44.103492-6.621911 4.796456 3.232663 8.948027 7.738611 11.647064 13.874284 6.014112 13.672371 1.796611 29.720306-9.607334 39.366785l-123.284155 104.275522a36.542069 36.542069 0 0 0-12.943013 27.898971v41.534256a19.78744 19.78744 0 0 1-14.653089 19.10959h37.038609a14.463539 14.463539 0 0 0 14.463539-14.463539v-46.182367a36.542069 36.542069 0 0 1 12.943013-27.898972l123.420137-104.3909c13.804232-11.673848 16.443519-32.439946 5.078721-46.501719z" fill="#FFBEE6" /><path d="M363.037913 682.899484c0.214275-0.545988 0.364679-1.227959 0.482118-1.97998-0.154525 0.663427-0.333774 1.318613-0.482118 1.97998z" fill="#FFCEEC" /><path d="M355.019096 718.077613c2.04385-11.956113 3.413972-23.506341 8.016757-35.176068l-127.322408-199.774024-26.322817 16.75875L347.379381 719.585776c2.033549 3.232663 6.996891 2.256065 7.639715-1.508163z" fill="#FFBEE6" /><path d="M732.669922 268.024619l-69.365236-69.365236 98.76619-121.048693a170.822222 170.822222 0 0 1 99.693341-59.679611l26.40935-5.144651c18.029975-3.512868 33.884239 12.341396 30.371371 30.371371l-5.144652 26.40935a170.822222 170.822222 0 0 1-59.67961 99.69334z" fill="#8AC9FE" /><path d="M888.171507 12.784367l-18.087665 3.52317c8.552443 5.426918 13.779508 15.714161 11.609977 26.848201l-5.144652 26.409351a170.822222 170.822222 0 0 1-59.67961 99.69334l-100.756472 82.209353 16.556837 16.556837 121.048694-98.76619a170.822222 170.822222 0 0 0 59.67961-99.69334l5.144652-26.409351c3.512868-18.029975-12.341396-33.884239-30.371371-30.371371z" fill="#60B7FF" /><path d="M669.256988 331.437553l-69.365236-69.365236-121.048693 98.76619a170.822222 170.822222 0 0 0-59.679611 99.693341l-5.144651 26.40935c-3.512868 18.029975 12.341396 33.884239 30.371371 30.371371l26.40935-5.144652a170.822222 170.822222 0 0 0 99.69334-59.67961z" fill="#8AC9FE" /><path d="M599.891752 262.070257l-20.292221 16.556837 52.810459 52.808399-98.76619 121.048693a170.822222 170.822222 0 0 1-99.693341 59.67961l-8.321685 1.621483a25.593458 25.593458 0 0 0 18.761394 3.523169l26.40935-5.144652a170.822222 170.822222 0 0 0 99.69334-59.67961l98.766191-121.048693z" fill="#60B7FF" /><path d="M663.304686 331.437553l69.365236-69.365236 121.048694 98.76619a170.822222 170.822222 0 0 1 59.67961 99.693341l5.144652 26.40935c3.512868 18.029975-12.341396 33.884239-30.371371 30.371371l-26.409351-5.144652a170.822222 170.822222 0 0 1-99.69334-59.67961z" fill="#8AC9FE" /><path d="M918.544938 486.939138l-5.144652-26.409351a170.822222 170.822222 0 0 0-59.67961-99.69334l-121.048694-98.76619-16.556837 16.556837 100.756473 82.209353a170.822222 170.822222 0 0 1 59.67961 99.69334l5.144652 26.409351c2.169531 11.13404-3.057534 21.421284-11.609978 26.848201l18.087665 3.52317c18.027915 3.512868 33.882179-12.341396 30.371371-30.371371z" fill="#60B7FF" /><path d="M599.891752 268.024619l69.365236-69.365236-98.76413-121.050754a170.822222 170.822222 0 0 0-99.69334-59.67961l-26.40935-5.144652c-18.029975-3.512868-33.884239 12.341396-30.371371 30.371371l5.144651 26.409351a170.822222 170.822222 0 0 0 59.679611 99.69334z" fill="#8AC9FE" /><path d="M570.492858 77.608629a170.822222 170.822222 0 0 0-99.69334-59.67961l-26.40935-5.144652a25.60376 25.60376 0 0 0-18.761394 3.52317l8.321685 1.621482a170.822222 170.822222 0 0 1 99.693341 59.67961l98.76619 121.048694-52.810459 52.808399 20.292221 16.556837 69.365236-69.365236z" fill="#60B7FF" /><path d="M669.415634 1023.985578h-37.038609a14.463539 14.463539 0 0 1-14.461479-14.463539v-41.604307a128.033223 128.033223 0 0 1 33.346493-86.274391l62.129346-67.230731 48.815473 44.367214-62.129346 67.228671a62.187036 62.187036 0 0 0-16.198339 41.909237v41.604307a14.463539 14.463539 0 0 1-14.463539 14.463539z" fill="#FFCEEC" /><path d="M713.389324 814.41261l-16.820559 18.203043 15.497826 14.086498a17.80952 17.80952 0 0 1 1.102278 25.267926L663.228454 926.008495a62.187036 62.187036 0 0 0-16.19834 41.909237v40.522632a16.033513 16.033513 0 0 1-12.090035 15.541093l34.473495 0.004121a14.463539 14.463539 0 0 0 14.463538-14.463539v-41.604307a62.201458 62.201458 0 0 1 16.19834-41.909237l62.129346-67.228671z" fill="#FFBEE6" /><path d="M727.776631 222.940409c20.638357 6.302559 27.536353 32.048482 12.815272 47.826514a29.180498 29.180498 0 0 0-7.095787 26.485582c4.860326 21.02364-13.987602 39.871567-35.011242 35.011242a29.194921 29.194921 0 0 0-26.485582 7.095787c-15.778031 14.72108-41.521894 7.823085-47.826514-12.815272a29.182559 29.182559 0 0 0-19.387735-19.387735c-20.638357-6.302559-27.536353-32.048482-12.815272-47.826514a29.180498 29.180498 0 0 0 7.095787-26.485582c-4.860326-21.02364 13.987602-39.871567 35.011242-35.011242a29.194921 29.194921 0 0 0 26.485582-7.095787c15.778031-14.72108 41.521894-7.823085 47.826514 12.815272a29.182559 29.182559 0 0 0 19.387735 19.387735z" fill="#C365AF" /><path d="M727.776631 222.940409a29.182559 29.182559 0 0 1-19.387735-19.387735c-6.302559-20.638357-32.048482-27.536353-47.826514-12.815272-0.848857 0.791168-1.743042 1.520526-2.668131 2.196315a29.098085 29.098085 0 0 1 5.851346 10.618957 29.186679 29.186679 0 0 0 19.387735 19.387735c20.638357 6.304619 27.536353 32.048482 12.815272 47.826514a29.180498 29.180498 0 0 0-7.095787 26.485582c4.860326 21.02364-13.987602 39.871567-35.011241 35.011242a29.180498 29.180498 0 0 0-23.817452 4.899472c10.314028 11.898424 29.337084 13.987602 41.973107 2.196315a29.180498 29.180498 0 0 1 26.485583-7.095787c21.02364 4.860326 39.871567-13.987602 35.011241-35.011242a29.194921 29.194921 0 0 1 7.095788-26.485582c14.723141-15.778031 7.823085-41.521894-12.813212-47.826514z" fill="#B2529F" /><path d="M245.226003 527.053824l-30.884394 19.490752c-14.113282 8.921243-31.275857 9.127276-45.1419 2.03973a45.228433 45.228433 0 0 1-17.821881-16.276632l-17.100766-27.093381-22.375218-35.43773a124.835586 124.835586 0 0 1-15.864565-95.537649l4.058856-17.100765c2.4724-10.404682 12.794669-16.935939 23.261162-14.690175l17.203782 3.667393a124.897396 124.897396 0 0 1 70.401583 42.916739c3.234723 3.95584 6.263413 8.138316 9.02426 12.526826l9.353912 14.813795 30.122071 47.717316c13.453975 21.303845 7.087546 49.509806-14.236902 62.963781z" fill="#C365AF" /><path d="M259.467026 464.081802l-39.473923-62.529051a124.821163 124.821163 0 0 0-79.432024-55.427083l-17.203782-3.683875a19.630854 19.630854 0 0 0-16.931818 4.334941 124.794379 124.794379 0 0 1 76.718565 54.776017l39.473923 62.529051c13.458096 21.318267 7.085486 49.509806-14.230721 62.967902l-30.882334 19.496932a45.57869 45.57869 0 0 1-6.005871 3.135827c13.439553 5.93788 29.495729 5.297117 42.85493-3.135827l30.882334-19.496932c21.316207-13.460156 27.688817-41.651695 14.230721-62.967902z" fill="#B2529F" /><path d="M852.653423 797.019277l-26.701917 32.264818-20.438505 24.703394a45.308786 45.308786 0 0 1-18.027915 13.227339c-15.040432 6.077983-32.862314 3.914633-46.25448-7.149356l-28.123547-23.302368c-19.428942-16.070599-22.148581-44.832849-6.077983-64.261791l37.498063-45.306726 9.662963-11.661486c3.296533-3.976443 6.819703-7.746853 10.548906-11.270022a124.814982 124.814982 0 0 1 75.305176-33.542224l17.533436-1.462837c10.672526-0.86534 20.088248 6.922719 21.200828 17.554039l1.8543 17.492228a124.856189 124.856189 0 0 1-27.979325 92.714992z" fill="#C365AF" /><path d="M880.624506 704.296044l-1.841938-17.479866a19.678242 19.678242 0 0 0-21.194647-17.547858l-17.533435 1.452535a124.936542 124.936542 0 0 0-8.115652 0.972477 19.653518 19.653518 0 0 1 9.992616 15.122846l1.841937 17.479866a124.819103 124.819103 0 0 1-27.969022 92.731475l-47.146604 56.966151a45.409743 45.409743 0 0 1-16.748448 12.621601c18.221586 8.057963 40.269212 3.484023 53.597507-12.621601l47.146603-56.966151a124.814982 124.814982 0 0 0 27.971083-92.731475z" fill="#B2529F" /><path d="M219.986922 401.558932a124.769655 124.769655 0 0 0-9.02426-12.526826l-0.185429 0.12362c-3.296533 2.431193-70.298567 52.971165-76.500171 116.058567l17.100766 27.093381c4.532733 7.190563 10.754939 12.691652 17.821881 16.276632l-3.378946-22.519442c-8.076506-41.206663 29.813021-82.289706 50.581179-101.265374l12.938892-8.426763z" fill="#B2529F" /><path d="M764.903834 704.407302c-0.06181-0.041207-0.103017-0.103017-0.164826-0.144223a127.077228 127.077228 0 0 0-10.548906 11.270022l-9.662963 11.661486 10.239856 11.867519c18.172138 21.468671 50.498766 67.063844 37.209617 106.890084-0.6181 6.902116-2.28697 14.175092-4.491526 21.262638 6.799099-2.740243 13.021306-7.169959 18.027915-13.227339l20.438505-24.703394c1.874903-63.355244-58.101395-122.033533-61.047672-124.876793z" fill="#B2529F" /><path d="M667.196655 262.072317m-15.76979 0a15.76979 15.76979 0 1 0 31.53958 0 15.76979 15.76979 0 1 0-31.53958 0Z" fill="#B2529F" /></svg>