<?xml version="1.0" standalone="no"?><!DOCTYPE svg PUBLIC "-//W3C//DTD SVG 1.1//EN" "http://www.w3.org/Graphics/SVG/1.1/DTD/svg11.dtd"><svg class="icon" width="200px" height="200.00px" viewBox="0 0 1024 1024" version="1.1" xmlns="http://www.w3.org/2000/svg"><path d="M599.225257 575.500234L512 512.00206l-87.225257 63.498174c-51.352363 37.385196-74.457218 102.480148-58.163907 163.872636L424.228748 956.483098c23.889851 90.023223 151.652653 90.023223 175.544564 0l57.617913-217.108167c16.291251-61.394549-6.813604-126.4895-58.165968-163.874697z" fill="#FE646F" /><path d="M599.225257 575.500234L512 512.00206l-21.619337 15.739075 65.605921 47.759099c51.352363 37.385196 74.457218 102.480148 58.163907 163.874697L556.532578 956.481037c-9.654838 36.381802-36.278784 58.052648-66.151915 65.02902 44.044274 10.283247 95.155575-11.387599 109.392649-65.02902l57.617913-217.108167c16.291251-61.392488-6.813604-126.48744-58.165968-163.872636z" fill="#FD4755" /><path d="M512 962.188229c-8.330028 0-23.051286-2.800027-28.029111-21.561647l-57.617912-217.108167c-9.673381-36.447734 4.312329-75.85002 34.801508-98.046257l50.845515-113.470098 50.845515 113.470098c30.489178 22.194177 44.472828 61.596464 34.801508 98.046257l-57.615852 217.108167C535.051286 959.388202 520.330028 962.188229 512 962.188229z" fill="#FFEAD9" /><path d="M562.845515 625.472158L512 512.00206l-21.619337 48.247404 29.226179 65.222694c30.489178 22.194177 44.472828 61.596464 34.801507 98.046257l-57.615852 217.108167c-1.444311 5.441406-3.721007 9.506492-6.409773 12.582607 6.582844 7.532669 15.704049 8.97904 21.619336 8.97904 8.330028 0 23.051286-2.800027 28.031171-21.561647l57.615852-217.108167c9.671321-36.447734-4.31439-75.85002-34.803568-98.046257z" fill="#FEDBA6" /><path d="M817.17611 179.241877l-209.697059 80.533214c-49.510403 19.000622-84.99595 61.796318-95.481111 112.371927V512l99.022867 32.289931c60.384973 19.717626 126.66463 0.28639 166.860155-48.896417l142.166764-173.904519c58.93036-72.114591-15.928628-175.643461-102.871616-142.247118z" fill="#FE646F" /><path d="M829.045833 175.502327c58.602763 15.057096 93.525832 89.986137 47.76322 145.986668L734.642288 495.393514c-24.971539 30.55717-60.014109 49.619602-97.454934 54.95387 52.635967 7.470858 106.244422-12.801004 140.693608-54.95387l142.166764-173.904519c56.229231-68.809777-9.347844-166.211142-91.001893-145.986668z" fill="#FD4755" /><path d="M658.749001 490.086032c-9.687803 0-19.289072-1.530846-28.53802-4.551331L512 512.00206l61.810741-132.703539c7.648049-28.338164 28.181577-51.208138 55.817159-61.816922l209.709421-80.537335c4.054785-1.557631 7.94062-2.346748 11.550367-2.346748 12.60115 0 21.594612 9.535337 25.468086 17.702596 4.973704 10.485162 3.56854 20.605641-4.170165 30.081227l-142.158523 173.892157c-17.562492 21.491595-43.541546 33.812536-71.273965 33.812536h-0.00412z" fill="#FFEAD9" /><path d="M876.355774 252.300112c-3.873473-8.167259-12.866936-17.702596-25.468086-17.702596-3.611808 0-7.497643 0.789117-11.550367 2.346748l-13.629268 5.233309a34.46979 34.46979 0 0 1 7.409047 10.122539c4.973704 10.485162 3.56854 20.605641-4.170164 30.081227l-142.158523 173.892157c-12.8896 15.774101-30.320229 26.580679-49.644327 31.228847a91.582914 91.582914 0 0 0 21.604915 2.583689h0.00412c27.732419 0 53.711473-12.320941 71.273965-33.812536l142.158523-173.892157c7.740765-9.475587 9.143869-19.596065 4.170165-30.081227z" fill="#FEDBA6" /><path d="M512 372.142897v139.857103l-99.020807 32.28581c-60.389094 19.717626-126.670812 0.28845-166.868396-48.892296l-142.164704-173.894217c-58.92624-72.133135 15.926568-175.645522 102.873676-142.247118l131.141788 50.35515 78.561452 30.163641c49.510403 18.996501 84.989769 61.810741 95.476991 112.371927z" fill="#FE646F" /><path d="M512 372.142897v108.374832l-43.246915 31.482271-87.214955-63.500234c-51.364726-37.374895-74.461339-102.482208-58.163907-163.880878l14.587334-55.011559 78.561452 30.163641c49.510403 18.996501 84.989769 61.810741 95.476991 112.371927z" fill="#FD4755" /><path d="M512 512l-33.068746-7.417289-29.401309-6.572542-55.712081-12.48577a91.78895 91.78895 0 0 1-28.556563 4.553392c-27.753023 0-53.734137-12.320941-71.288387-33.789872l-142.164704-173.914821c-7.726343-9.457043-9.127386-19.594005-4.161924-30.081227 3.873473-8.159018 12.856634-17.698475 25.466026-17.698476 3.605627 0 7.499703 0.80354 11.538005 2.348808l137.467087 52.786373 72.236153 27.753023c27.650005 10.610844 48.191774 33.480818 55.835702 61.81074l50.87024 109.198976z" fill="#FFEAD9" /><path d="M501.059499 488.491315l-22.128245 16.091396-10.178169 7.417289-19.22314-13.989831-67.991815-49.510403c-49.943079-36.344716-73.163314-98.897185-59.420726-158.77119l72.236153 27.753023c27.650005 10.610844 48.191774 33.480818 55.835702 61.81074z" fill="#FEDBA6" /><path d="M599.225257 448.499766L512 511.99794l-87.225257-63.498174c-51.352363-37.383136-74.457218-102.480148-58.163907-163.872636L424.228748 67.516902c23.889851-90.023223 151.652653-90.023223 175.544564 0l57.617913 217.108167c16.291251 61.394549-6.813604 126.4895-58.165968 163.874697z" fill="#FE646F" /><path d="M657.389164 284.625069L599.771252 67.518963c-14.235014-53.639361-65.348376-75.310207-109.392649-65.02902 29.873131 6.974312 56.497077 28.645158 66.151915 65.02902l57.617912 217.108167c16.293311 61.394549-6.811544 126.4895-58.163907 163.874696l-65.60592 47.759099 21.619337 15.739075 87.225257-63.498174c51.354424-37.387257 74.459279-102.482208 58.165967-163.876757z" fill="#FD4755" /><path d="M461.154485 398.527842c-30.489178-22.194177-44.472828-61.596464-34.801508-98.046257l57.615852-217.108167C488.948714 64.611798 503.669972 61.811771 512 61.811771s23.051286 2.800027 28.029111 21.561647l57.617912 217.108167c9.673381 36.447734-4.312329 75.85002-34.801508 98.046257L512 435.544234z" fill="#FFEAD9" /><path d="M512 356.055622a15.452685 15.452685 0 0 1-15.452685-15.452686V256.000515c0-8.536063 6.918682-15.452685 15.452685-15.452685s15.452685 6.916622 15.452685 15.452685v84.602421a15.452685 15.452685 0 0 1-15.452685 15.452686z" fill="#FEDBA6" /><path d="M597.647023 300.481585L540.029111 83.373418C535.051286 64.611798 520.330028 61.811771 512 61.811771c-5.915288 0-15.036493 1.444311-21.621397 8.97904 2.688767 3.076115 4.965463 7.141201 6.409774 12.582607l57.617912 217.108167c9.673381 36.447734-4.312329 75.85002-34.801508 98.046257l-29.226178 21.277317 21.619337 15.739075 50.845515-37.016392c30.491238-22.196237 44.476949-61.598524 34.803568-98.046257z" fill="#FEDBA6" /><path d="M540.02705 511.99794h-56.0541v-170.39779c0-15.47947 12.54758-28.02705 28.02705-28.027051s28.02705 12.54758 28.02705 28.027051z" fill="#FEA95C" /><path d="M596.07909 511.99794h-56.0541v-135.641611c0-15.47947 12.54758-28.02705 28.02705-28.02705s28.02705 12.54758 28.02705 28.02705zM483.97295 511.99794h-56.054101v-135.641611c0-15.47947 12.54758-28.02705 28.027051-28.02705s28.02705 12.54758 28.02705 28.02705z" fill="#FFD15B" /><path d="M817.180231 844.747821l-209.70324-80.518791c-49.510403-18.996501-84.989769-61.810741-95.476991-112.371927V512l18.151754-5.913228 80.869053-26.372582c60.389094-19.717626 126.670812-0.28845 166.868396 48.892296l142.164704 173.894217c58.92624 72.133135-15.926568 175.645522-102.873676 142.247118z" fill="#FE646F" /><path d="M714.862851 658.718095c-4.986066 6.922803-14.649146 8.468071-21.571948 3.482005l-128.525134-92.819129-52.765769-38.281452v-19.099519l18.151754-5.913228 52.745166 38.260849 128.483926 92.798526a15.436202 15.436202 0 0 1 3.482005 21.571948zM920.047726 702.508945l-142.166764-173.90452c-34.449186-42.152865-88.057642-62.424728-140.693608-54.953869 37.440826 5.336327 72.481335 24.396699 97.454934 54.953869l142.166765 173.90452c45.762612 56.002592 10.839544 130.929572-47.76322 145.986668 81.654049 20.226535 147.231124-77.174831 91.001893-145.986668z" fill="#FD4755" /><path d="M876.353714 771.708129c-3.873473 8.159018-12.856634 17.698475-25.466026 17.698476-3.605627 0-7.499703-0.80354-11.538005-2.348808L629.646443 706.518401c-27.650005-10.610844-48.191774-33.480818-55.835702-61.81074v-68.795355a26.393186 26.393186 0 0 1 18.192961-24.992143h0.020604l38.15783-12.444562a91.78895 91.78895 0 0 1 28.556563-4.553392c27.753023 0 53.734137 12.320941 71.288387 33.789872l142.164704 173.914821c7.726343 9.457043 9.127386 19.594005 4.161924 30.081227z" fill="#FFEAD9" /><path d="M714.862851 658.718095c-4.986066 6.922803-14.649146 8.468071-21.571948 3.482005l-119.480162-86.287794a26.393186 26.393186 0 0 1 18.192961-24.992143l119.377144 86.225984a15.436202 15.436202 0 0 1 3.482005 21.571948zM872.193851 741.628963l-142.170885-173.908641c-17.558371-21.485414-43.539486-33.806355-71.278086-33.806354-7.281305 0-14.517283 0.867411-21.600794 2.583689 19.324098 4.648168 36.752666 15.454746 49.640206 31.222665l142.170885 173.908641c7.732524 9.465285 9.135627 19.585763 4.163984 30.070925a34.46979 34.46979 0 0 1-7.409048 10.122539l13.633389 5.23537c4.050664 1.55557 7.936499 2.344687 11.546247 2.344687 12.60115 0 21.594612-9.535337 25.468085-17.702596 4.971644-10.485162 3.56854-20.605641-4.163983-30.070925z" fill="#FEDBA6" /><path d="M512 512v139.857103c-10.487222 50.561186-45.966588 93.375426-95.476991 112.371927L206.819769 844.747821c-86.947109 33.398404-161.799916-70.113984-102.873676-142.247118l142.164704-173.894217c40.197585-49.180746 106.479303-68.609922 166.868396-48.892296l80.869053 26.372582z" fill="#FE646F" /><path d="M512 512v19.099519l-52.724562 38.260848-130.832735 92.901544a15.329064 15.329064 0 0 1-8.941954 2.863898c-4.821238 0-9.580665-2.266394-12.609391-6.510732-4.944859-6.96401-3.296573-16.606486 3.667438-21.551345l130.688509-92.798525 52.600941-38.178435z" fill="#FD4755" /><path d="M412.977133 479.708009a153.513156 153.513156 0 0 0-69.405221-6.055393 153.974676 153.974676 0 0 1 26.166547 6.055393l77.300513 25.20848a31.482271 31.482271 0 0 1 21.722354 29.930821v117.003612c-10.483102 50.575608-45.968648 93.371305-95.481111 112.371927L163.583156 844.758123a100.137521 100.137521 0 0 1-11.869723 3.73955c16.86403 4.332933 35.68128 3.723067 55.108396-3.73955l209.697059-80.533214c49.510403-19.000622 84.99595-61.796318 95.481112-112.371927V512z" fill="#FD4755" /><path d="M450.189259 575.809288v68.898373c-7.643928 28.329923-28.185698 51.199897-55.815099 61.81074L184.67092 787.057797c-4.058905 1.545269-7.952982 2.348808-11.558608 2.348808-12.609391 0-21.592552-9.539458-25.466026-17.719079-4.965463-10.466619-3.564419-20.60358 4.161924-30.060624l142.164704-173.894217c17.55425-21.489534 43.535365-33.810475 71.288387-33.810476 9.683683 0 19.284951 1.524665 28.535959 4.532788l38.116623 12.444563 0.061811 0.020603c10.796276 3.523212 18.131151 13.536552 18.213565 24.889125z" fill="#FFEAD9" /><path d="M450.189259 575.809288l-121.746556 86.452623a15.329064 15.329064 0 0 1-8.941954 2.863898c-4.821238 0-9.580665-2.266394-12.609391-6.510732-4.944859-6.96401-3.296573-16.606486 3.667438-21.551345l121.355087-86.164172 0.061811 0.020603c10.796276 3.523212 18.131151 13.536552 18.213565 24.889125z" fill="#FEDBA6" /><path d="M393.789019 538.465299a91.793071 91.793071 0 0 0-50.173839-1.967642 92.571886 92.571886 0 0 1 6.933105 1.967642l40.294422 13.140963a23.339736 23.339736 0 0 1 16.103758 22.192117v70.905161c-7.648049 28.338164-28.181577 51.208138-55.817159 61.816922l-196.080153 75.301965c4.596659 4.326752 10.709741 7.580057 18.063159 7.580057 3.607687 0 7.493522-0.789117 11.546246-2.346748l209.709421-80.537335c27.635582-10.606723 48.16705-33.478758 55.817159-61.816922v-68.690276a26.393186 26.393186 0 0 0-18.211504-25.0931z" fill="#FEDBA6" /></svg>