<?xml version="1.0" standalone="no"?><!DOCTYPE svg PUBLIC "-//W3C//DTD SVG 1.1//EN" "http://www.w3.org/Graphics/SVG/1.1/DTD/svg11.dtd"><svg class="icon" width="200px" height="200.00px" viewBox="0 0 1024 1024" version="1.1" xmlns="http://www.w3.org/2000/svg"><path d="M511.673213 114.667703a15.220963 15.220963 0 0 1-15.222993-15.222993V15.222993c0-8.409181 6.813812-15.222993 15.222993-15.222993s15.222993 6.813812 15.222993 15.222993v84.221717a15.222993 15.222993 0 0 1-15.222993 15.222993z" fill="#978ECB" /><path d="M443.060139 175.693637a15.174279 15.174279 0 0 1-10.765701-4.459322l-49.166208-49.168238a15.218934 15.218934 0 0 1 0.00203-21.527342 15.222993 15.222993 0 0 1 21.527342 0.00203l49.166208 49.168238a15.218934 15.218934 0 0 1-10.763671 25.984634zM585.139378 171.248523a15.218934 15.218934 0 0 1-10.765701-25.984634l44.721094-44.723124a15.222993 15.222993 0 0 1 21.527342-0.00203 15.218934 15.218934 0 0 1 0.00203 21.527342l-44.721094 44.723124a15.17022 15.17022 0 0 1-10.763671 4.459322z" fill="#8379C1" /><path d="M297.173122 693.912737H170.172765c-8.409181 0-15.222993-6.813812-15.222993-15.222993s6.813812-15.222993 15.222993-15.222993h127.000357c8.409181 0 15.222993 6.813812 15.222993 15.222993s-6.813812 15.222993-15.222993 15.222993zM853.827235 693.900559h-132.998216c-8.409181 0-15.222993-6.813812-15.222993-15.222993s6.813812-15.222993 15.222993-15.222993h132.998216c8.409181 0 15.222993 6.813812 15.222993 15.222993s-6.813812 15.222993-15.222993 15.222993z" fill="#978ECB" /><path d="M542.452075 1024h-61.147718a14.427338 14.427338 0 0 1-14.427338-14.427338v-289.399247h90.004424v289.399247a14.429368 14.429368 0 0 1-14.429368 14.427338z" fill="#6FD7A3" /><path d="M515.572329 720.171386v278.278342c0 11.329966-6.982279 21.488777-17.559215 25.548242h44.436932a14.427338 14.427338 0 0 0 14.427338-14.427338v-289.399246z" fill="#3EC3A4" /><path d="M539.68961 162.825134l-28.016397 15.300123-27.60842-15.300123-9.957867-18.093035a36.372805 36.372805 0 0 1 8.34017-45.27927l16.130284-13.678367a20.425197 20.425197 0 0 1 26.522513 0.087278l16.067362 13.80827a36.372805 36.372805 0 0 1 8.368586 44.733272z" fill="#C2BCE0" /><path d="M541.169284 99.67204l-16.067361-13.80827a20.425197 20.425197 0 0 0-26.522514-0.087278l-0.700257 0.594711 15.478739 13.302866a36.368745 36.368745 0 0 1 8.368587 44.733273l-9.848262 18.419822 15.01799 6.986338 12.793404-6.986338 9.848261-18.419822a36.372805 36.372805 0 0 0-8.368587-44.735302z" fill="#ACA6D6" /><path d="M556.879413 215.728079l-20.861589-25.130117 3.671786-27.772828 14.130997-15.062644a36.372805 36.372805 0 0 1 45.640562-6.058752l17.993578 11.114815a20.425197 20.425197 0 0 1 8.112841 25.251901l-8.167644 19.548353a36.370775 36.370775 0 0 1-39.957312 21.783088z" fill="#C2BCE0" /><path d="M617.452718 152.818553l-17.993578-11.114815a36.356567 36.356567 0 0 0-33.031865-2.65083c1.784135 0.738823 3.531734 1.609578 5.218442 2.65083l17.993577 11.114815a20.425197 20.425197 0 0 1 8.112841 25.251901l-8.167643 19.548353a36.328151 36.328151 0 0 1-21.194466 20.165391l9.048547 1.617697a36.372805 36.372805 0 0 0 39.959342-21.783088l8.167643-19.548353a20.423167 20.423167 0 0 0-8.11284-25.251901z" fill="#ACA6D6" /><path d="M466.877019 215.728079l20.851441-23.319595-3.661637-29.58335-14.130997-15.062644a36.372805 36.372805 0 0 0-45.640563-6.058752l-17.993578 11.114815a20.425197 20.425197 0 0 0-8.112841 25.251901l8.167644 19.548353a36.370775 36.370775 0 0 0 39.957312 21.783088z" fill="#C2BCE0" /><path d="M469.935826 147.76249c-10.479508-11.171647-26.638208-14.419219-40.420092-8.709582a36.261169 36.261169 0 0 1 12.608698 8.709582l9.070874 9.669645a12.5133 12.5133 0 0 1 2.774644 12.423992l-12.5884 38.741502a12.511271 12.511271 0 0 1-9.696032 8.447747l-4.132535 0.738822a36.265229 36.265229 0 0 0 18.764876 1.617697l20.56119-3.673816 20.851441-23.319595-3.661638-29.58335z" fill="#ACA6D6" /><path d="M511.878216 248.423009l15.54775-28.454819 29.453447-4.240111 18.691806 8.784682a36.368745 36.368745 0 0 1 19.864991 41.534414l-5.009379 20.546982a20.427227 20.427227 0 0 1-21.509075 15.519334l-21.115306-1.727303a36.370775 36.370775 0 0 1-33.064341-31.272087z" fill="#C2BCE0" /><path d="M575.571219 224.512761l-18.691806-8.784682-9.217015 1.327445-1.707005 6.610839 1.802403 0.846398a36.370775 36.370775 0 0 1 19.864991 41.534414l-5.00938 20.546982a20.4049 20.4049 0 0 1-12.036313 14.019361l18.340662 1.499973a20.427227 20.427227 0 0 0 21.509075-15.519334l5.011409-20.546982a36.372805 36.372805 0 0 0-19.867021-41.534414z" fill="#ACA6D6" /><path d="M511.878216 248.423009l-13.907726-28.450759-31.093471-4.244171-18.691806 8.784682a36.368745 36.368745 0 0 0-19.864991 41.534414l5.00938 20.546982a20.427227 20.427227 0 0 0 21.509074 15.519334l21.115306-1.727303a36.370775 36.370775 0 0 0 33.064341-31.272087z" fill="#C2BCE0" /><path d="M466.877019 215.728079l-16.887374 7.936254 27.320198 19.848753a13.942232 13.942232 0 0 1 5.61424 13.183112l-1.715124 12.417903a36.368745 36.368745 0 0 1-33.064341 31.270058l-2.776674 0.22733c2.918755 1.209721 6.14197 1.771956 9.472762 1.499972l21.115306-1.727302a36.372805 36.372805 0 0 0 33.064341-31.272088l2.859893-20.689062-13.907727-28.450759z" fill="#ACA6D6" /><path d="M511.878216 248.423009l-45.003227-32.69493 17.189804-52.902945h55.624817l17.189803 52.902945z" fill="#EAF6FF" /><path d="M539.68961 162.825134H511.878216l13.359699 41.116289a17.059901 17.059901 0 0 1-6.196773 19.073396l-21.068623 15.308241 13.905697 10.104008 45.003227-32.696959z" fill="#C8EFFE" /><path d="M553.300995 375.244749l-41.627782 16.2338-40.978268-16.2338-14.78863-26.869597c-12.387457-22.507703-7.20758-50.625586 12.387457-67.243005l23.954902-20.311533a30.334351 30.334351 0 0 1 39.388987 0.129903l23.861534 20.506387c19.197209 16.497665 24.362878 44.112174 12.428052 66.433142z" fill="#978ECB" /><path d="M555.497166 281.456904l-23.861535-20.506387a30.334351 30.334351 0 0 0-39.388987-0.129903l-1.041253 0.882934 22.98672 19.753356c19.197209 16.497665 24.362878 44.112174 12.428052 66.433142l-14.624222 27.354703 18.117391 9.042458 23.189693-9.042458 14.624222-27.354703c11.932797-22.320967 6.767128-49.935477-12.430081-66.433142z" fill="#8379C1" /><path d="M578.82691 453.809602l-27.474458-36.234783 1.948543-42.33007 20.985403-22.367651c17.577483-18.73646 45.920666-22.499584 67.778855-8.997804l26.721427 16.505784a30.334351 30.334351 0 0 1 12.048491 37.501336l-12.12968 29.031263c-9.756924 23.354101-34.424262 36.801078-59.341257 32.349875z" fill="#978ECB" /><path d="M668.78465 360.383049l-26.721427-16.505784c-15.153982-9.359096-33.417514-10.406438-49.056603-3.935652a54.00509 54.00509 0 0 1 7.749519 3.935652l26.721427 16.505784a30.334351 30.334351 0 0 1 12.048491 37.501336l-12.12968 29.031262c-5.9938 14.348178-17.626196 24.931203-31.475061 29.946672l13.440888 2.401174c24.916995 4.453233 49.582303-8.993744 59.341257-32.349876l12.129681-29.031262a30.332321 30.332321 0 0 0-12.048492-37.499306z" fill="#8379C1" /><path d="M445.167001 453.809602l25.527944-34.328865v-44.235988l-20.985403-22.367651c-17.577483-18.73646-45.920666-22.499584-67.778854-8.997804l-26.721427 16.505784a30.334351 30.334351 0 0 0-12.048492 37.501336l12.129681 29.031263c9.756924 23.354101 34.424262 36.801078 59.341257 32.349875z" fill="#978ECB" /><path d="M449.709542 352.877098c-15.563988-16.591033-39.561514-21.413677-60.029336-12.933455a53.869098 53.869098 0 0 1 18.722252 12.933455l9.265728 9.876678a28.97849 28.97849 0 0 1 6.426133 28.779576l-14.86779 45.760317a28.980519 28.980519 0 0 1-22.461019 19.57068 53.832563 53.832563 0 0 0 27.866197 2.401173l30.535294-5.45592 25.527944-34.328865v-44.235988z" fill="#8379C1" /><path d="M511.99797 502.36486l23.088206-38.309169 43.742764-10.246089 27.75862 13.04509c23.252614 10.928079 35.589328 36.719889 29.502161 61.681538l-7.440999 30.512967a30.336381 30.336381 0 0 1-31.941899 23.047612l-31.359366-2.563552c-25.227544-2.062208-45.638533-21.366993-49.103287-46.440278z" fill="#978ECB" /><path d="M606.58553 466.854692l-27.75862-13.04509-13.895548 3.25569-2.328103 8.532995 2.677217 1.258435c23.252614 10.928079 35.589328 36.719889 29.50216 61.681538l-7.440999 30.512967c-2.358549 9.669645-9.182509 17.214161-17.873823 20.818965l27.236979 2.226617a30.330291 30.330291 0 0 0 31.941899-23.045582l7.440999-30.512967c6.087167-24.961649-6.249546-50.755489-29.502161-61.683568z" fill="#8379C1" /><path d="M511.99797 502.36486l-23.128801-37.16643-43.702168-11.390858-27.75862 13.04509c-23.252614 10.928079-35.589328 36.719889-29.502161 61.681538l7.440999 30.512967a30.336381 30.336381 0 0 0 31.941899 23.047612l31.359366-2.563552c25.227544-2.062208 45.638533-21.366993 49.103286-46.440278z" fill="#978ECB" /><path d="M445.167001 453.809602l-25.081403 11.786656 39.754339 28.883092a22.383889 22.383889 0 0 1 9.016071 21.174168l-2.409292 17.439461c-3.464753 25.073284-23.875742 44.37604-49.103287 46.440278l-4.120357 0.336935a30.196329 30.196329 0 0 0 14.068076 2.226617l31.359365-2.563552c25.227544-2.062208 45.638533-21.366993 49.103287-46.440278l4.2462-30.726089-23.128801-37.16643z" fill="#8379C1" /><path d="M511.995941 502.36486l-66.83097-48.555258 25.527945-78.564853h82.608079l25.527945 78.564853z" fill="#EAF6FF" /><path d="M553.300995 375.244749h-41.307084l21.675512 66.707156a17.159358 17.159358 0 0 1-6.233308 19.185031l-36.092702 26.222113 20.652528 15.005811 66.830969-48.555258z" fill="#C8EFFE" /><path d="M568.274331 647.839841l-56.274331 22.333146-56.28245-22.333146-20.151183-36.612313c-16.879255-30.667227-9.821875-68.980456 16.877225-91.620091l32.640127-27.677431c15.501066-13.144547 38.256396-13.067417 53.670184 0.176587l32.514283 27.941296c26.155132 22.477257 33.196274 60.104436 16.934058 90.517946z" fill="#C2BCE0" /><path d="M571.268186 520.049919l-32.514283-27.941297c-13.50381-11.60398-32.640127-13.097863-47.599255-4.453233a41.512087 41.512087 0 0 1 6.292171 4.453233l32.514283 27.941297c26.157162 22.477257 33.196274 60.104436 16.934058 90.517946l-19.927913 37.271976 13.601237 10.995061 27.705847-10.995061 19.927913-37.271976c16.262216-30.411481 9.223104-68.03866-16.934058-90.517946z" fill="#ACA6D6" /><path d="M603.057855 754.889958l-37.227322-47.378014 2.443798-59.670073 28.59284-30.478462c23.950842-25.529974 62.570561-30.657078 92.352825-12.259583L725.629336 627.593261c17.289261 10.680452 24.251243 32.345816 16.416476 51.096483l-16.526082 39.557455c-13.294747 31.822145-46.905086 50.144539-80.85439 44.077669z" fill="#C2BCE0" /><path d="M725.629336 627.593261l-36.40934-22.489435c-18.255413-11.275164-39.82538-13.698664-59.308781-8.017443a73.589978 73.589978 0 0 1 18.001697 8.017443l36.40934 22.489435c17.29129 10.680452 24.251243 32.345816 16.416475 51.096483l-16.526081 39.557455c-8.926763 21.364963-27.015738 36.630581-48.212234 42.528983l8.662898 1.548686c33.951334 6.06687 67.559643-12.255524 80.854391-44.077669l16.528111-39.557455c7.832737-18.752698 0.872785-40.416032-16.416476-51.096483z" fill="#ACA6D6" /><path d="M420.936056 754.889958l37.834212-50.045082-3.052718-57.003005-28.59284-30.478462c-23.950842-25.529974-62.570561-30.657078-92.352825-12.259583l-36.40934 22.489435c-17.289261 10.680452-24.251243 32.345816-16.416476 51.096483l16.526082 39.557455c13.294747 31.822145 46.905086 50.144539 80.85439 44.077669z" fill="#C2BCE0" /><path d="M427.126739 617.363409c-19.34335-20.618022-48.252829-27.920999-74.351128-20.279056a73.358589 73.358589 0 0 1 33.044044 20.279056l19.33929 20.613963a22.879144 22.879144 0 0 1 5.074332 22.724884l-26.366224 81.144642a22.879144 22.879144 0 0 1-17.735802 15.452353l-19.442807 3.474902a73.395124 73.395124 0 0 0 32.642157 1.548685l41.605455-7.434909 37.834212-50.045083-3.052718-57.003005z" fill="#ACA6D6" /><path d="M511.99797 821.049086l32.879636-48.007231 58.182279-18.153926 37.822034 17.774366c31.682093 14.890117 48.492337 50.032904 40.19885 84.0431l-10.138513 41.577039c-4.814525 19.745237-23.268852 33.058252-43.523552 31.40199l-42.727897-3.495199c-34.373518-2.811179-62.184912-29.114482-66.90607-63.276908z" fill="#C2BCE0" /><path d="M640.879889 772.664325l-37.822034-17.774367-12.618846 3.937681-3.606835 7.851005 12.738601 5.987711c31.682093 14.890117 48.492337 50.034934 40.19885 84.0431l-10.138513 41.577039c-3.452575 14.159413-13.936143 24.975857-27.052274 29.370228l24.833776 2.031762c20.2547 1.656262 38.709027-11.658783 43.523553-31.40199l10.138513-41.577039c8.295516-34.010196-8.514727-69.155013-40.194791-84.04513z" fill="#ACA6D6" /><path d="M511.99797 821.049086L481.249554 774.184595l-60.311469-19.296666-37.822033 17.774366c-31.682093 14.890117-48.492337 50.032904-40.198851 84.0431l10.138514 41.577039c4.814525 19.745237 23.268852 33.058252 43.523552 31.40199l42.727897-3.495199c34.373518-2.811179 62.184912-29.114482 66.906069-63.276908z" fill="#C2BCE0" /><path d="M420.938085 754.889958l-25.081403 11.788686 65.341146 47.473412a19.576769 19.576769 0 0 1 7.88754 18.523337l-4.179219 30.240984c-4.721158 34.162426-32.532551 60.465728-66.90607 63.276907l-17.894121 1.463438a41.193419 41.193419 0 0 0 16.471279 2.031762l42.727897-3.4952c34.373518-2.811179 62.184912-29.114482 66.904039-63.276907l5.784738-41.865261-30.744357-46.866521z" fill="#ACA6D6" /><path d="M511.995941 821.049086l-91.061915-66.159128 34.783524-107.050117h112.556781l34.783524 107.050117z" fill="#EAF6FF" /><path d="M568.276361 647.839841h-41.307084l27.281633 83.965971a33.405336 33.405336 0 0 1-12.13577 37.349106l-50.771727 36.888357 20.652528 15.005811 91.061914-66.159128z" fill="#C8EFFE" /><path d="M365.581193 286.864111a27.872285 27.872285 0 0 1-36.654937 2.419441l-27.435893-21.00976a46.821867 46.821867 0 0 1-18.338633-35.942502l-0.369411-14.007183a13.897578 13.897578 0 0 1 14.25887-14.25887l14.007184 0.369411a46.821867 46.821867 0 0 1 35.942501 18.338632l21.00976 27.435893a27.872285 27.872285 0 0 1-2.419441 36.654938z" fill="#978ECB" /><path d="M368.000634 250.209173l-21.00976-27.435893a46.827956 46.827956 0 0 0-35.942501-18.338632l-14.007184-0.369411a13.824507 13.824507 0 0 0-8.157494 2.388995 46.79954 46.79954 0 0 1 23.555044 16.319048l21.009761 27.435893a27.872285 27.872285 0 0 1-2.419442 36.654938c-0.779417 0.779417-1.605518 1.483734-2.451916 2.153546l0.349114 0.267925a27.868226 27.868226 0 0 0 36.654937-2.421471 27.872285 27.872285 0 0 0 2.419441-36.654938z" fill="#8379C1" /><path d="M270.210157 799.625261a27.872285 27.872285 0 0 0-36.654938-2.419441l-27.435893 21.00976a46.821867 46.821867 0 0 0-18.338632 35.942501l-0.369412 14.007184a13.897578 13.897578 0 0 0 14.258871 14.25887l14.007183-0.369412a46.827956 46.827956 0 0 0 35.942501-18.338632l21.009761-27.435893a27.872285 27.872285 0 0 0-2.419441-36.654937z" fill="#978ECB" /><path d="M270.208127 799.625261a27.874315 27.874315 0 0 0-36.654938-2.421471l-0.349114 0.267925c0.846398 0.669812 1.6725 1.374129 2.451917 2.153546a27.872285 27.872285 0 0 1 2.419441 36.654937l-21.00976 27.435893a46.805629 46.805629 0 0 1-23.557074 16.319049 13.824507 13.824507 0 0 0 8.157494 2.388995l14.007184-0.369412a46.821867 46.821867 0 0 0 35.942501-18.338632l21.00976-27.435893a27.864167 27.864167 0 0 0-2.417411-36.654937z" fill="#8379C1" /><path d="M309.741225 543.434466c-13.641832 13.641832-35.27472 15.068733-50.59108 3.340939l-37.868718-28.998787a64.62465 64.62465 0 0 1-25.310763-49.60666l-0.509463-19.333201c-0.290252-10.986942 8.693344-19.970537 19.680286-19.680285l19.333201 0.509463a64.62668 64.62668 0 0 1 49.60666 25.310763l28.998787 37.868717c11.729824 15.314331 10.300892 36.949249-3.33891 50.589051z" fill="#C2BCE0" /><path d="M313.082165 492.843386l-28.998787-37.868718a64.62465 64.62465 0 0 0-49.60666-25.310763l-19.335231-0.509463a19.059187 19.059187 0 0 0-9.296175 2.131219 64.612472 64.612472 0 0 1 36.930981 23.689007l28.998787 37.868718c11.729824 15.316361 10.300892 36.951278-3.340939 50.59108a38.497935 38.497935 0 0 1-6.568214 5.22859c15.074823 9.624991 35.021003 7.625705 47.875298-5.22859 13.639802-13.639802 15.068733-35.27472 3.34094-50.59108z" fill="#ACA6D6" /><path d="M658.418807 286.851933a27.872285 27.872285 0 0 0 36.654937 2.419441l27.435893-21.009761a46.821867 46.821867 0 0 0 18.338633-35.942501l0.369411-14.007183a13.897578 13.897578 0 0 0-14.25887-14.258871l-14.007184 0.369412a46.821867 46.821867 0 0 0-35.942501 18.338632l-21.00976 27.435893a27.872285 27.872285 0 0 0 2.419441 36.654938z" fill="#978ECB" /><path d="M726.958811 204.053058l-14.009213 0.369412a46.805629 46.805629 0 0 0-12.385428 2.019584 13.875251 13.875251 0 0 1 6.101376 11.869875l-0.369411 14.007183a46.821867 46.821867 0 0 1-18.338633 35.942501l-27.086779 20.743866c9.886827 7.81447 23.979259 8.094573 34.200992 0.267924l27.435893-21.00976a46.819837 46.819837 0 0 0 18.338632-35.942501l0.369411-14.007184a13.897578 13.897578 0 0 0-14.25684-14.2609z" fill="#8379C1" /><path d="M753.789843 799.615112a27.872285 27.872285 0 0 1 36.654938-2.419441l27.435893 21.00976a46.821867 46.821867 0 0 1 18.338632 35.942502l0.369412 14.007183a13.897578 13.897578 0 0 1-14.258871 14.25887l-14.007183-0.369411a46.827956 46.827956 0 0 1-35.942501-18.338632l-21.009761-27.435893a27.872285 27.872285 0 0 1 2.419441-36.654938z" fill="#978ECB" /><path d="M836.219306 854.145903a46.821867 46.821867 0 0 0-18.338632-35.942502l-27.435893-21.00976c-10.221732-7.826648-24.316194-7.546545-34.200991 0.267925l27.086779 20.743865a46.821867 46.821867 0 0 1 18.338632 35.942502l0.369411 14.007183a13.875251 13.875251 0 0 1-6.101375 11.869875c3.980305 1.209721 8.139227 1.907948 12.385427 2.019584l14.007183 0.369411a13.897578 13.897578 0 0 0 14.258871-14.25887z" fill="#8379C1" /><path d="M714.258775 543.424317c13.641832 13.641832 35.27472 15.068733 50.59108 3.34094l37.868718-28.998787a64.62465 64.62465 0 0 0 25.310763-49.60666l0.509463-19.333201c0.290252-10.986942-8.693344-19.970537-19.680286-19.680286l-19.335231 0.509463a64.62668 64.62668 0 0 0-49.60666 25.310763l-28.998787 37.868718c-11.727794 15.312301-10.298862 36.947219 3.34094 50.58905z" fill="#C2BCE0" /><path d="M808.858513 429.142264l-19.333201 0.509462a64.62668 64.62668 0 0 0-12.675679 1.621757c6.308408 3.26178 10.585055 9.917273 10.384111 17.549066l-0.509463 19.333201a64.62262 64.62262 0 0 1-25.312792 49.60666l-37.868718 28.998787c-0.882934 0.675901-1.792254 1.299029-2.715782 1.887651 13.367818 8.512698 30.977776 8.100662 44.022866-1.887651l37.868718-28.998787a64.62465 64.62465 0 0 0 25.310763-49.60666l0.509463-19.333201c0.290252-10.986942-8.693344-19.968507-19.680286-19.680285z" fill="#ACA6D6" /></svg>