<?xml version="1.0" standalone="no"?><!DOCTYPE svg PUBLIC "-//W3C//DTD SVG 1.1//EN" "http://www.w3.org/Graphics/SVG/1.1/DTD/svg11.dtd"><svg class="icon" width="200px" height="200.00px" viewBox="0 0 1024 1024" version="1.1" xmlns="http://www.w3.org/2000/svg"><path d="M269.733489 1024H198.556795c-12.294951 0-20.180118-13.07327-14.446775-23.946851l112.342303-213.05976h108.101087l-120.375227 228.293179a16.332223 16.332223 0 0 1-14.444694 8.713432z" fill="#6FD7A3" /><path d="M349.257347 786.991308l-114.716802 217.565272a41.32169 41.32169 0 0 1-22.098863 19.441339h57.291807a16.336385 16.336385 0 0 0 14.446775-8.713433l120.375227-228.293178z" fill="#3EC3A4" /><path d="M1016.73291 61.703671l-46.116471 47.052952a130.31857 130.31857 0 0 0-37.230309 90.96349l-0.270539 169.648677c-0.228917 153.020943-71.380638 297.280589-192.644481 390.637307l-98.205607 75.584396a400.226869 400.226869 0 0 1-244.130108 83.097052h-68.134172c-76.437634 0.145675-119.05791-64.346628-99.787218-135.206999 0.978102-3.579437-2.559714-6.763472-6.035098-5.431588l-15.441526 5.847802-59.705846 22.621211c-7.679142 2.913495-16.48206 4.203758-25.722003 4.203757-26.24227 0-56.272083-10.322098-75.834124-23.037424-38.354086-24.931197-54.607229-72.899818-39.352999-116.019551l24.223634-68.3839a528.453966 528.453966 0 0 1 273.847761-302.150288l528.986719-248.042516c53.504263-25.389032 115.873876-31.840343 173.144872-19.562041 12.902623 2.767821 17.668269 18.750424 8.407515 28.177663z" fill="#FE646F" /><path d="M512.789765 612.058798a15.608011 15.608011 0 0 1-10.908959-26.772942l159.241256-157.468185a137.641849 137.641849 0 0 0 34.703892-56.055653l54.969335-170.68713a15.608011 15.608011 0 0 1 29.713492 9.568751l-54.969335 170.687131a168.982736 168.982736 0 0 1-42.601547 68.816762l-159.241255 157.468186a15.56639 15.56639 0 0 1-10.906879 4.44308z" fill="#FD4755" /><path d="M1016.73291 61.703671l-46.116471 47.052952a130.31857 130.31857 0 0 0-37.230309 90.96349l-0.270539 169.648677c-0.228917 153.020943-71.380638 297.280589-192.644481 390.637307l-98.205607 75.584396a400.226869 400.226869 0 0 1-244.130108 83.097052h-57.229374c88.299723 0 174.143785-29.218197 244.130107-83.097052l98.205607-75.584396c121.263842-93.356718 192.415563-237.616364 192.644481-390.637307l0.270539-169.648677a130.31857 130.31857 0 0 1 37.230309-90.96349l46.116471-47.052952c9.260753-9.427239 4.495107-25.409842-8.407515-28.177663-9.46886-2.039447-19.083395-3.558627-28.781173-4.557539 28.801984-2.975927 58.020181-1.435937 86.010548 4.557539 12.902623 2.767821 17.668269 18.750424 8.407515 28.177663z" fill="#FD4755" /><path d="M544.600973 150.606904l-12.423977 15.608011 12.423977 15.608011v81.348955l-12.423977 15.608011 12.423977 15.608012v81.369765l-12.423977 15.608012 12.423977 15.608011v81.369766l-12.423977 15.608011 12.423977 15.608011v45.429718c0 28.677119-23.245531 51.922651-51.92265 51.922651h-65.428784v-153.645263l14.94207-15.608011-14.94207-15.608012v-81.369765l14.94207-15.608011-14.94207-15.608012v-81.348955l14.94207-15.608011-14.94207-15.608011v-81.369766l14.94207-15.608011-14.94207-15.608011V58.686122c0-16.211521 6.555365-30.862241 17.189623-41.496499 4.703214-4.703214 10.197234-8.594812 16.253143-11.487496 7.63752-3.66268 16.19071-5.702127 25.222546-5.702127 32.402231 0 58.686122 26.283891 58.686122 58.686122z" fill="#FFD15B" /><path d="M544.600973 150.606904l-12.423977 15.608011 12.423977 15.608011v81.348955l-12.423977 15.608011 12.423977 15.608012v81.369765l-12.423977 15.608012 12.423977 15.608011v81.369766l-12.423977 15.608011 12.423977 15.608011v45.429718c0 28.677119-23.245531 51.922651-51.92265 51.922651h-50.486714c28.677119 0 51.922651-23.245531 51.922651-51.922651V58.686122c0-23.370396-13.672618-43.535946-33.421955-52.983995 7.63752-3.66268 16.19071-5.702127 25.222546-5.702127 32.402231 0 58.686122 26.283891 58.686122 58.686122z" fill="#FFC344" /><path d="M388.385591 739.65325c-1.144587 0-2.307905-0.129026-3.471222-0.391241l-105.379049-23.936446a15.608011 15.608011 0 0 1-12.151357-15.218851v-149.697477c0-53.960017 20.588007-105.106429 57.968154-144.018242l16.084576-16.742194a15.608011 15.608011 0 1 1 22.510914 21.622299l-16.084575 16.744274c-31.769587 33.070254-49.263046 76.535444-49.263046 122.391782v137.23604l93.227692 21.17695a15.60593 15.60593 0 0 1 11.762197 18.677587 15.612173 15.612173 0 0 1-15.204284 12.155519zM468.211204 751.933633c-2.345364 0-4.688647-0.035378-7.031929-0.101972a15.608011 15.608011 0 0 1-15.152258-16.051279c0.249728-8.617703 7.454386-15.389499 16.051279-15.152257 15.79947 0.455754 31.682182-0.849076 47.198626-3.879111l100.638376-19.645284a15.612173 15.612173 0 0 1 5.98099 30.639567l-100.638376 19.645284a245.994744 245.994744 0 0 1-47.046708 4.545052z" fill="#FD4755" /><path d="M750.668344 567.382427l-59.393686 33.484387a245.863637 245.863637 0 0 1-120.556279 31.653047h-141.075611c-117.746837 36.959771-199.428763 150.960685-199.428763 150.960685 0.978102-3.579437-2.559714-6.763472-6.035098-5.431588l-15.441526 5.847802-52.401297-209.188973c-2.081068-8.345083 2.975927-16.835842 11.341822-18.937721s16.835842 2.975927 18.93772 11.341822l41.413257 164.84141c32.298178-35.794373 101.327209-101.389641 194.475821-129.900275 0.041621-0.020811 0.104053-0.041621 0.166485-0.062433 0.020811 0 0.041621-0.020811 0.062432-0.02081 0.478646-0.145675 0.957291-0.270539 1.456748-0.353782 0.249728-0.062432 0.499456-0.083243 0.749185-0.124864s0.499456-0.083243 0.749184-0.104053c0.499456-0.062432 0.998913-0.083243 1.498369-0.083243h143.531272c36.793285 0 73.170357-9.552103 105.218807-27.615775l59.414496-33.505197c7.491845-4.224568 17.023138-1.581612 21.247706 5.931044 4.245379 7.512656 1.581612 17.023138-5.931044 21.268517z" fill="#FD4755" /><path d="M486.7889 109.922021c0 8.615622-6.992389 15.608011-15.608012 15.608011h-43.931349v-31.216022h43.931349c8.615622 0 15.608011 6.971578 15.608012 15.608011zM486.7889 222.507809c0 8.615622-6.992389 15.608011-15.608012 15.608011h-43.931349v-31.216022h43.931349c8.615622 0 15.608011 6.971578 15.608012 15.608011zM486.7889 335.072787c0 8.636433-6.992389 15.608011-15.608012 15.608011h-43.931349v-31.216023h43.931349c8.615622 0 15.608011 6.992389 15.608012 15.608012zM486.7889 447.658575c0 8.615622-6.992389 15.608011-15.608012 15.608011h-43.931349v-31.216023h43.931349c8.615622 0 15.608011 6.992389 15.608012 15.608012zM544.600973 150.606904v31.216022h-43.952159c-2.330796 0-4.557539-0.520267-6.534554-1.456747-5.369156-2.45566-9.073457-7.866438-9.073458-14.151264s3.704301-11.695603 9.073458-14.172074c1.977015-0.91567 4.203758-1.435937 6.534554-1.435937zM544.600973 263.171881v31.216023h-43.952159c-2.330796 0-4.557539-0.520267-6.534554-1.435937-5.369156-2.476471-9.073457-7.887248-9.073458-14.172075s3.704301-11.695603 9.073458-14.151263c1.977015-0.936481 4.203758-1.456748 6.534554-1.456748zM544.600973 375.757669v31.216023h-43.952159c-2.330796 0-4.557539-0.520267-6.534554-1.435937-5.369156-2.476471-9.073457-7.887248-9.073458-14.172074s3.704301-11.695603 9.073458-14.151264c1.977015-0.936481 4.203758-1.456748 6.534554-1.456748zM544.600973 488.343458v31.216022h-43.952159c-2.330796 0-4.557539-0.520267-6.534554-1.456748-5.369156-2.45566-9.073457-7.866438-9.073458-14.151263s3.704301-11.695603 9.073458-14.151264c1.977015-0.936481 4.203758-1.456748 6.534554-1.456747z" fill="#FFEAD9" /><path d="M544.600973 150.606904v31.216022h-43.952159c-2.330796 0-4.557539-0.520267-6.534554-1.456747V152.042841c1.977015-0.91567 4.203758-1.435937 6.534554-1.435937zM500.648814 263.171881h43.952159v31.216023h-43.952159c-2.330796 0-4.557539-0.520267-6.534554-1.435937v-28.323338c1.977015-0.936481 4.203758-1.456748 6.534554-1.456748zM500.648814 375.757669h43.952159v31.216023h-43.952159c-2.330796 0-4.557539-0.520267-6.534554-1.435937v-28.323338c1.977015-0.936481 4.203758-1.456748 6.534554-1.456748zM500.648814 488.343458h43.952159v31.216022h-43.952159c-2.330796 0-4.557539-0.520267-6.534554-1.456748v-28.302527c1.977015-0.936481 4.203758-1.456748 6.534554-1.456747z" fill="#FEDBA6" /></svg>