<?xml version="1.0" standalone="no"?><!DOCTYPE svg PUBLIC "-//W3C//DTD SVG 1.1//EN" "http://www.w3.org/Graphics/SVG/1.1/DTD/svg11.dtd"><svg class="icon" width="200px" height="200.00px" viewBox="0 0 1024 1024" version="1.1" xmlns="http://www.w3.org/2000/svg"><path d="M486.514165 265.288113a109.388748 109.388748 0 0 1-30.349135 55.609175c-4.120724 4.079517-8.632918 7.870584-13.474769 11.311388l-54.764426 38.961449c-43.411831 30.864225-102.709054 26.125392-140.681529-11.228974l-1.833723-1.813119-60.265593-59.317827c-48.665755-47.903421-42.258028-128.154527 13.392354-167.734084l79.52998-56.556942c15.885392-11.290785 33.583903-17.719115 51.467847-19.697062 44.709859-4.924266 90.449899 18.007565 111.362575 62.099316l37.354366 78.747042a109.405231 109.405231 0 0 1 8.262053 69.619638zM689.437175 366.369481l-56.686745-36.109908c-44.922076-28.61637-62.832805-85.344322-42.482607-134.566374l33.293392-80.531316c26.094487-63.119195 102.865642-87.355235 160.471308-50.660185l82.303227 52.425916c57.605666 36.69505 68.092909 116.515541 21.920193 166.844008l-58.909875 64.213247c-36.004829 39.249899-94.986817 47.000982-139.908893 18.384612z" fill="#FE646F" /><path d="M486.514165 265.288113a109.388748 109.388748 0 0 1-30.349135 55.609175c-4.120724 4.079517-8.632918 7.870584-13.474769 11.311388l-54.764426 38.961449c-43.411831 30.864225-102.709054 26.125392-140.681529-11.228974l-1.833723-1.813119c10.157586-15.349698 26.352032-26.640483 45.863662-30.060684 10.528451-1.854326 20.356378-6.078068 28.78326-12.217948 8.447485-6.119276 15.493924-14.154688 20.521207-23.61175l0.049449-0.094777c2.950439-5.550616 2.542487-12.203525-1.112596-17.317344a109.137384 109.137384 0 0 1-18.71633-44.604781l-15.184869-85.79348c-5.954447-33.583903 3.976499-65.787364 23.920805-89.605151 44.709859-4.924266 90.449899 18.007565 111.362575 62.099316l37.354366 78.747042a109.405231 109.405231 0 0 1 8.262053 69.619638z" fill="#FD4755" /><path d="M545.871139 320.90759h-67.211075c-53.262423 0-98.845875-38.223839-108.127807-90.670359l-15.186929-85.809963c-11.902712-67.254342 39.826801-128.943646 108.127806-128.943646h97.582874c68.298946 0 120.028459 61.687243 108.125746 128.943646l-15.186929 85.809963c-9.279871 52.446519-54.861264 90.670358-108.123686 90.670359z" fill="#FE99A0" /><path d="M651.549175 960.33893c-20.02672 29.483783-54.125714 48.995412-93.210785 48.150664l-97.558149-2.060363c-68.280402-1.442254-118.697465-64.221489-105.366921-131.203863l16.997988-85.463823c10.384225-52.250785 56.783581-89.502133 110.02334-88.368933l55.135291 1.174406 12.053119 0.247244c53.260362 1.133199 98.032032 40.321288 106.191066 92.942937l13.351147 86.123139c4.49159 28.865674-2.637264 56.453924-17.616096 78.458592z" fill="#FE646F" /><path d="M866.33575 116.927614l-82.303227-52.425916c-25.064306-15.965746-53.756909-20.387284-80.32528-15.096273a109.528853 109.528853 0 0 1 37.552161 15.096273l82.303227 52.425916c57.605666 36.69505 68.092909 116.515541 21.920194 166.844008l-58.909876 64.215308c-16.291284 17.758262-37.292555 29.044926-59.56301 33.4541 36.703292 7.289561 75.771879-4.497771 102.336129-33.4541l58.909875-64.215308c46.172716-50.328467 35.685473-130.148958-21.920193-166.844008zM651.549175 960.33893c-36.489014-3.111147-70.93827-24.353481-88.904628-60.24499l-39.02326-77.922898c-19.923702-39.785594-13.577787-86.720644 13.948652-119.604024l12.053119 0.247244c53.260362 1.133199 98.032032 40.321288 106.191066 92.942937l13.351147 86.123139c4.49159 28.865674-2.637264 56.453924-17.616096 78.458592z" fill="#FD4755" /><path d="M339.466116 663.102841a109.580362 109.580362 0 0 1-20.521207 44.874688 109.201256 109.201256 0 0 1-43.494245 33.892958l-79.98326 34.572877c-39.99163 17.286439-83.733119 8.838954-114.28829-16.771348-17.327646-14.546157-30.410946-34.634688-36.118149-58.699718l-22.499154-94.962093c-15.761771-66.44668 32.327082-131.018431 100.52507-134.933118l86.988491-5.027284c1.339235-0.082414 2.657867-0.123622 3.976499-0.164829 51.570865-1.091992 97.228491 33.934165 109.199195 84.474849l15.493924 65.395895a109.11472 109.11472 0 0 1 0.721126 47.347123z" fill="#FE646F" /><path d="M339.466116 663.102841a109.580362 109.580362 0 0 1-20.521207 44.874688 109.201256 109.201256 0 0 1-43.494245 33.892958l-79.98326 34.572877c-39.99163 17.286439-83.733119 8.838954-114.28829-16.771348 5.398149-17.224628 15.164266-33.419074 29.401369-46.852636l63.397344-59.79171a109.316636 109.316636 0 0 1 43.556056-25.218833c11.352596-3.440805 18.563863-14.710986 17.183421-26.496258-1.792515-15.514527-8.426881-29.195332-18.975936-40.774567-13.000885-13.433561-19.51163-30.843622-19.51163-48.233078 0-16.627123 5.954447-33.254245 17.822133-46.41996 51.570865-1.091992 97.228491 33.934165 109.199195 84.474849l15.493924 65.395895a109.11472 109.11472 0 0 1 0.721126 47.347123z" fill="#FD4755" /><path d="M702.446301 594.1487l20.710761-63.939219c16.412845-50.670487 66.823726-82.255839 119.5793-74.925071l86.312692 11.995429c67.649932 9.401433 110.394205 77.622085 89.347606 142.599726l-30.070986 92.833739c-21.0466 64.975581-95.672918 95.178431-155.98796 63.131557l-76.954527-40.889948c-47.031887-24.992193-69.34973-80.135726-52.936886-130.806213z" fill="#FE646F" /><path d="M929.049054 467.279839l-86.312692-11.995429a109.588604 109.588604 0 0 0-38.679179 1.499944l75.520515 10.495485c67.649932 9.401433 110.394205 77.622085 89.347606 142.599726l-30.070986 92.833739c-12.471372 38.501988-43.757972 64.788089-79.729835 73.155219 53.940282 12.549666 111.187445-17.550165 129.19913-73.155219l30.070986-92.833739c21.05072-64.977642-21.695614-133.198294-89.345545-142.599726zM561.056008 15.485682h-49.469296c68.298946 0 120.028459 61.687243 108.127807 128.941586l-15.18693 85.809963c-9.281932 52.448579-54.863324 90.670358-108.127807 90.670359h49.469296c53.262423 0 98.845875-38.223839 108.127807-90.670359l15.184869-85.809963c11.904773-67.254342-39.82474-128.941586-108.125746-128.941586z" fill="#FD4755" /><path d="M450.911106 822.162801l-39.023259 77.922897c-23.529336 46.996861-75.347445 68.877907-122.962415 57.875574a109.273368 109.273368 0 0 1-40.73336-18.914125l-78.314366-58.225835c-54.805634-40.753964-59.50326-121.128692-9.827928-168.001932l63.397344-59.79171a111.074125 111.074125 0 0 1 12.053119-9.869135c38.260926-27.031952 90.28507-27.011348 128.813843 1.627686l53.919678 40.115252a109.594785 109.594785 0 0 1 42.814326 70.237746c3.688048 22.210704 0.556298 45.657626-10.136982 67.023582z" fill="#FE99A0" /><path d="M450.911106 822.162801l-39.023259 77.922897c-23.529336 46.996861-75.347445 68.877907-122.962415 57.875574l-0.041207-0.041208c30.555171-7.046439 58.122817-27.031952 73.534326-57.813762l39.02326-77.922898a109.405231 109.405231 0 0 0 11.331991-41.516297c0.432676-6.242897-4.49159-11.43501-10.775694-11.43501h-0.103018c-24.889175 0-48.892394-13.454165-61.316378-36.85988a69.265256 69.265256 0 0 0-20.521207-23.61175 69.275557 69.275557 0 0 0-28.78326-12.217948c-28.453602-4.986076-49.901972-26.702294-55.774004-53.383984 38.260926-27.031952 90.28507-27.011348 128.813843 1.627686l53.919678 40.115252a109.594785 109.594785 0 0 1 42.814326 70.237746c3.688048 22.210704 0.556298 45.657626-10.136982 67.023582z" fill="#FE646F" /><path d="M322.097263 429.445408l-25.26004 62.284749c-14.607968 35.994527-46.502374 60.554044-82.88837 66.879356a109.075573 109.075573 0 0 1-41.784145-0.782938l-85.21658-18.172394c-66.796942-14.257706-104.522173-85.402012-78.829456-148.675734l36.674446-90.429296c25.692716-63.294326 102.296982-88.018672 160.151952-51.715091l73.802173 46.337546a109.256885 109.256885 0 0 1 29.731026 27.505835c22.334326 30.019477 28.391791 70.381972 13.618994 106.767967z" fill="#FE99A0" /><path d="M322.097263 429.445408l-25.26004 62.284749c-14.607968 35.994527-46.502374 60.554044-82.88837 66.879356-11.805875-13.145111-17.719115-29.731026-17.719115-46.296338 0-17.389457 6.510744-34.799517 19.51163-48.233078a69.434205 69.434205 0 0 0 18.83171-57.957988c-0.473883-3.296579-0.700523-6.572555-0.700523-9.807324 0-33.151227 23.817787-62.346559 57.40169-68.239195 6.016258-1.050785 11.785272-2.884507 17.204024-5.398149 22.334326 30.019477 28.391791 70.381972 13.618994 106.767967z" fill="#FE646F" /><path d="M605.759686 684.899412l53.9341-40.104949c42.742213-31.781087 102.128032-28.307316 140.871083 8.241448l63.389103 59.797892c49.681513 46.867058 44.979767 127.237666-9.827928 167.99163l-78.306125 58.227895c-54.807694 40.753964-133.128241 22.117988-163.708137-38.953207l-39.015018-77.920837c-23.850753-47.625272-10.079292-105.496724 32.662922-137.279872z" fill="#FE99A0" /><path d="M863.951911 712.835863l-63.389102-59.797891c-27.42136-25.867847-65.177497-35.143598-100.059429-27.104065a109.506189 109.506189 0 0 1 50.590133 27.104065l63.389102 59.797891c49.681513 46.867058 44.979767 127.235606-9.827927 167.99163l-78.306125 58.227895a109.322817 109.322817 0 0 1-40.706575 18.868797c30.050382 6.926938 63.001755 1.339235 90.177931-18.868797l78.306125-58.227895c54.805634-40.756024 59.509441-121.124571 9.825867-167.99163z" fill="#FD4755" /><path d="M727.164466 491.732217l-25.270342-62.278567c-20.02466-49.353915-1.743066-105.964427 43.366503-134.284105l73.804234-46.333424c57.844668-36.315944 134.455115-11.575115 160.135469 51.71509l36.688869 90.423115c25.678294 63.288145-12.034575 134.415968-78.829457 148.671614l-85.22276 18.190937c-52.090076 11.117714-104.645795-16.748684-124.672516-66.10466z" fill="#FE99A0" /><path d="M1015.889199 390.974326l-36.688869-90.423115c-20.941521-51.614133-75.759517-77.576757-126.646342-65.704949 33.410833 7.703694 63.028539 30.83538 77.174986 65.704949l36.688869 90.423115c25.678294 63.288145-12.034575 134.415968-78.829457 148.671614l-83.380797 17.797408a109.485586 109.485586 0 0 0 47.629393 0.393529l85.22276-18.190937c66.794881-14.255646 104.507751-85.383469 78.829457-148.671614z" fill="#FE646F" /><path d="M744.391155 456.057046a15.456837 15.456837 0 0 1-5.598004-29.860829l114.525231-44.470857a15.448596 15.448596 0 0 1 19.997875 8.810109 15.452716 15.452716 0 0 1-8.810108 19.997875l-114.525232 44.470857a15.388845 15.388845 0 0 1-5.589762 1.052845zM294.509014 446.29093a15.477441 15.477441 0 0 1-14.360725 9.766116c-1.895533 0-3.832274-0.350262-5.707203-1.091992-12.609416-5.00668-27.773682-10.98173-42.876137-16.915573-31.564748-12.40338-62.758632-24.51831-69.413601-26.743501a15.500105 15.500105 0 0 1-9.436459-5.91324c-4.141328-5.521771-4.120724-13.186318 0.082415-18.666881 7.005231-9.168612 16.833159-5.604185 22.684587-3.482012 3.255372 1.174406 7.84998 2.905111 13.371751 5.027284 9.601288 3.667445 22.931831 8.838954 39.641368 15.370302 2.019155 0.782938 4.03831 1.586479 6.057465 2.369416 26.537465 10.425433 51.282414 20.232757 51.282414 20.232757a15.432113 15.432113 0 0 1 8.674125 20.047324z" fill="#FE646F" /><path d="M294.509014 446.29093a15.477441 15.477441 0 0 1-14.360725 9.766116c-1.895533 0-3.832274-0.350262-5.707203-1.091992-12.609416-5.00668-27.773682-10.98173-42.876137-16.915573 2.431227-7.128853 3.688048-14.628571 3.688049-22.231308 0-3.234769-0.22664-6.469537-0.67992-9.704306 0-0.041207 0-0.061811-0.020603-0.103018 26.537465 10.425433 51.282414 20.232757 51.282414 20.232757a15.432113 15.432113 0 0 1 8.674125 20.047324z" fill="#FD4755" /><path d="M379.498953 715.88932l-24.744949 34.881932-48.088853 67.765311a15.41563 15.41563 0 0 1-12.609417 6.510745c-3.090543 0-6.222294-0.927163-8.941972-2.863904-6.943421-4.944869-8.59171-14.587364-3.646841-21.551388l54.125714-76.274608 18.708089-26.352032c4.944869-6.943421 14.587364-8.59171 21.551388-3.646841s8.59171 14.587364 3.646841 21.530785z" fill="#FE646F" /><path d="M379.498953 715.88932l-24.744949 34.881932c-5.583581-5.150905-10.404829-11.311388-14.175292-18.399035-1.483461-2.802093-3.152354-5.480563-4.986077-8.014809l18.708089-26.352032c4.944869-6.943421 14.587364-8.59171 21.551388-3.646841s8.59171 14.587364 3.646841 21.530785z" fill="#FD4755" /><path d="M510.397883 284.890398a15.452716 15.452716 0 0 1-15.452716-15.452716V142.682141c0-8.53608 6.918696-15.452716 15.452716-15.452716s15.452716 6.916636 15.452716 15.452716v126.755541a15.452716 15.452716 0 0 1-15.452716 15.452716zM729.954197 814.386994a15.419751 15.419751 0 0 1-12.05724-5.777256l-73.326229-91.288466a15.452716 15.452716 0 1 1 24.093875-19.352982l73.32623 91.288467a15.452716 15.452716 0 0 1-12.036636 25.130237z" fill="#FE646F" /><path d="M542.733207 262.442753c33.61893-16.433449 74.214245-3.24507 91.752048 29.81138a69.372394 69.372394 0 0 0 49.298286 35.817336c36.857819 6.465416 61.946849 40.997087 56.707348 78.05064a69.376515 69.376515 0 0 0 18.82965 57.953867c26.018254 26.895968 26.018254 69.578431 0 96.474398a69.376515 69.376515 0 0 0-18.82965 57.953867c5.241561 37.051493-19.847469 71.583163-56.707348 78.05064a69.372394 69.372394 0 0 0-49.298286 35.817336c-17.539863 33.056451-58.133119 46.246889-91.752048 29.811381a69.378575 69.378575 0 0 0-60.935211 0c-33.61893 16.433449-74.214245 3.24507-91.752049-29.811381a69.372394 69.372394 0 0 0-49.298285-35.817336c-36.857819-6.465416-61.946849-40.997087-56.707348-78.05064a69.376515 69.376515 0 0 0-18.82965-57.953867c-26.018254-26.895968-26.018254-69.578431 0-96.474398a69.376515 69.376515 0 0 0 18.82965-57.953867c-5.241561-37.051493 19.847469-71.585223 56.707348-78.05064a69.372394 69.372394 0 0 0 49.298285-35.817336c17.537803-33.056451 58.133119-46.246889 91.752049-29.81138a69.378575 69.378575 0 0 0 60.935211 0z" fill="#978ECB" /><path d="M759.322599 464.075976a69.376515 69.376515 0 0 1-18.82965-57.953867c5.241561-37.051493-19.847469-71.585223-56.707348-78.05064a69.372394 69.372394 0 0 1-49.298285-35.817336c-16.550889-31.195944-53.635348-44.685135-86.01394-32.294117a69.141634 69.141634 0 0 1 36.542583 32.294117 69.372394 69.372394 0 0 0 49.298286 35.817336c36.857819 6.465416 61.946849 40.997087 56.707348 78.05064a69.376515 69.376515 0 0 0 18.82965 57.953867c26.018254 26.895968 26.018254 69.580491 0 96.474398a69.376515 69.376515 0 0 0-18.82965 57.953867c5.241561 37.051493-19.847469 71.583163-56.707348 78.04858a69.372394 69.372394 0 0 0-49.298286 35.817336 69.141634 69.141634 0 0 1-36.542583 32.294117c32.378592 12.391018 69.46099-1.098173 86.01394-32.294117a69.372394 69.372394 0 0 1 49.298285-35.817336c36.857819-6.465416 61.946849-40.997087 56.707348-78.04858a69.376515 69.376515 0 0 1 18.82965-57.953867c26.018254-26.895968 26.018254-69.578431 0-96.474398z" fill="#8379C1" /><path d="M512.264571 512.313175m-173.999646 0a173.999646 173.999646 0 1 0 347.999292 0 173.999646 173.999646 0 1 0-347.999292 0Z" fill="#EAF6FF" /><path d="M512.264571 338.313529c-8.400097 0-16.651847 0.630471-24.734648 1.780153 84.375952 12.013972 149.264998 84.522237 149.264998 172.219493 0 87.695195-64.886986 160.205521-149.264998 172.219493 8.082801 1.151742 16.334551 1.780153 24.734648 1.780153 96.097352 0 173.999646-77.902294 173.999646-173.999646s-77.902294-173.999646-173.999646-173.999646z" fill="#C8EFFE" /><path d="M512.266631 615.401336c-56.843332 0-103.090221-46.244829-103.090221-103.088161s46.246889-103.090221 103.090221-103.090221 103.088161 46.246889 103.088161 103.090221-46.244829 103.088161-103.088161 103.088161z" fill="#C2BCE0" /><path d="M512.266631 409.225014c-8.525779 0-16.806374 1.059026-24.734647 3.020491 44.934439 11.111533 78.353513 51.752177 78.353513 100.06973s-33.421135 88.958197-78.353513 100.06767a102.962479 102.962479 0 0 0 24.734647 3.020491c56.843332 0 103.090221-46.244829 103.090222-103.088161s-46.246889-103.090221-103.090222-103.090221z" fill="#ACA6D6" /></svg>