<?xml version="1.0" standalone="no"?><!DOCTYPE svg PUBLIC "-//W3C//DTD SVG 1.1//EN" "http://www.w3.org/Graphics/SVG/1.1/DTD/svg11.dtd"><svg class="icon" width="200px" height="200.00px" viewBox="0 0 1024 1024" version="1.1" xmlns="http://www.w3.org/2000/svg"><path d="M208.601467 700.942595H106.988904c-8.536049 0-15.452659-6.91661-15.452659-15.452659s6.91661-15.452659 15.452659-15.452659h101.612563c8.536049 0 15.452659 6.91661 15.452659 15.452659s-6.91661 15.452659-15.452659 15.452659zM304.97661 801.741318H167.627197c-8.536049 0-15.452659-6.91661-15.452658-15.452659s6.91661-15.452659 15.452658-15.452658h137.349413c8.536049 0 15.452659 6.91661 15.452658 15.452658s-6.91867 15.452659-15.452658 15.452659zM390.720323 887.485031h-169.58984c-8.536049 0-15.452659-6.91661-15.452659-15.452658s6.91661-15.452659 15.452659-15.452659h169.58984c8.536049 0 15.452659 6.91661 15.452658 15.452659s-6.91867 15.452659-15.452658 15.452658zM231.827844 675.274698a15.450598 15.450598 0 0 1-15.452659-15.452658v-99.142199c0-8.536049 6.91661-15.452659 15.452659-15.452658s15.452659 6.91661 15.452658 15.452658v99.142199c0 8.536049-6.91661 15.452659-15.452658 15.452658zM332.626567 771.64778a15.450598 15.450598 0 0 1-15.452659-15.452658v-97.446527c0-8.536049 6.91661-15.452659 15.452659-15.452659s15.452659 6.91661 15.452659 15.452659v97.446527a15.452659 15.452659 0 0 1-15.452659 15.452658zM917.011096 745.324691h-105.218184c-8.536049 0-15.452659-6.91661-15.452659-15.452659s6.91661-15.452659 15.452659-15.452658h105.218184c8.536049 0 15.452659 6.91661 15.452659 15.452658s-6.91867 15.452659-15.452659 15.452659zM856.372803 846.123415H715.41777c-8.536049 0-15.452659-6.91661-15.452659-15.452659s6.91661-15.452659 15.452659-15.452659h140.955033c8.536049 0 15.452659 6.91661 15.452658 15.452659s-6.91661 15.452659-15.452658 15.452659zM802.869517 931.867128h-173.19546c-8.536049 0-15.452659-6.91661-15.452659-15.452659s6.91661-15.452659 15.452659-15.452659h173.19546c8.536049 0 15.452659 6.91661 15.452659 15.452659s-6.91661 15.452659-15.452659 15.452659zM792.172156 719.998814a15.450598 15.450598 0 0 1-15.452658-15.452659v-99.482157c0-8.536049 6.91661-15.452659 15.452658-15.452659s15.452659 6.91661 15.452659 15.452659v99.482157a15.452659 15.452659 0 0 1-15.452659 15.452659zM697.554496 810.248522a15.450598 15.450598 0 0 1-15.452658-15.452659V684.595742c0-8.536049 6.91661-15.452659 15.452658-15.452659s15.452659 6.91661 15.452659 15.452659v110.198061a15.452659 15.452659 0 0 1-15.452659 15.454719zM606.841208 900.96181a15.450598 15.450598 0 0 1-15.452658-15.452659v-147.552287c0-8.536049 6.91661-15.452659 15.452658-15.452659s15.452659 6.91661 15.452659 15.452659v147.552287a15.452659 15.452659 0 0 1-15.452659 15.452659z" fill="#3EC3A4" /><path d="M720.609863 299.661771L626.348645 489.441024H398.391022l-111.918456-189.4702c-0.082414-5.727786 0.082414-12.918423 0.885952-20.438717h-0.020603l9.003749-84.68057a179.395067 179.395067 0 0 1 87.565066-135.736155l80.518654-47.264532a84.989623 84.989623 0 0 1 22.334243-9.168577 86.009499 86.009499 0 0 1 65.663498 9.642459l74.770265 44.936331a179.403308 179.403308 0 0 1 86.411268 139.83626l6.902188 88.657055c0.247243 5.047869 0.226639 9.827891 0.103017 13.907393z" fill="#FFEAD9" /><path d="M720.609863 299.661771L626.348645 489.441024h-42.48451l50.828946-101.925737 34.737576-69.68119a77.448726 77.448726 0 0 0 7.932365-40.650794l-6.22227-80.08598a179.425972 179.425972 0 0 0-86.431872-139.83626L509.938615 12.324732a85.636575 85.636575 0 0 0-23.178988-9.621856v-0.020603a86.009499 86.009499 0 0 1 65.663498 9.642459l74.770265 44.936331a179.403308 179.403308 0 0 1 86.411268 139.83626l6.902188 88.657055c0.247243 5.047869 0.226639 9.827891 0.103017 13.907393z" fill="#FEDBA6" /><path d="M525.926966 934.106733l-24.827272 24.827272-20.685959 20.685959-59.647263-59.647263-196.763855-196.763855a406.209192 406.209192 0 0 1-54.22853-67.229367l-43.617705-67.744457c-3.523206-5.480543 2.9051-11.908849 8.385643-8.385642l67.744456 43.617704a406.209192 406.209192 0 0 1 67.229367 54.228531z" fill="#6FD7A3" /><path d="M501.099694 909.279461v49.654544l-20.685959 20.685959-59.647263-59.647263v-91.026462z" fill="#3EC3A4" /><path d="M897.841558 632.615058l-43.617705 67.744457a406.209192 406.209192 0 0 1-54.228531 67.229367l-240.031299 240.0313c-4.944851 4.944851-10.796258 8.42685-16.379819 10.837464-1.33923 0.597503-2.657857 1.112591-3.95588 1.586473l-41.557351-41.55735 3.028721-3.028721 42.48451-42.48451 210.897887-210.897887c20.418113-20.418113 42.958391-38.59044 67.229368-54.228531l15.720505-10.11634 52.023951-33.501364c5.480543-3.523206 11.908849 2.9051 8.385643 8.385642z" fill="#6FD7A3" /><path d="M897.841558 632.615058l-43.617705 67.744457a406.209192 406.209192 0 0 1-54.228531 67.229367l-240.031299 240.0313c-4.944851 4.944851-10.796258 8.42685-16.379819 10.837464-1.33923 0.597503-2.657857 1.112591-3.95588 1.586473l-17.286375-17.286374 21.242255-21.242255 213.947212-213.926608a407.146653 407.146653 0 0 0 54.207927-67.229367l25.239343-36.921553c1.256816-1.936733 1.236213-4.017691 0.453278-5.707182l52.023951-33.501364c5.480543-3.523206 11.908849 2.9051 8.385643 8.385642z" fill="#3EC3A4" /><path d="M720.609863 299.661771c-0.020604 0.267846-0.020604 0.535692-0.041207 0.803538-0.185432 5.768993-0.597503 10.013323-0.762331 11.496778l-0.061811 0.556296-17.719048 140.804627a259.691202 259.691202 0 0 1-68.238941 145.213785l-73.534053 78.375885a61.54897 61.54897 0 0 0-16.668268 42.13425v299.410716c-1.33923 0.597503-2.657857 1.112591-3.95588 1.586473-9.457027 3.420188-17.286374 3.955881-17.286375 3.955881h-39.023114c-11.084707 0-20.088456-8.983146-20.088456-20.088456v-284.864614c0-15.658694-5.954425-30.719886-16.647665-42.13425l-73.534052-78.375885a259.717987 259.717987 0 0 1-68.259545-145.213785l-12.03247-95.682864-5.686578-45.121763v-0.020604c-0.041207-0.35026-0.473882-5.027265-0.597503-11.950056v-0.576899l59.667866 70.546538v0.020604l8.818318 10.425393c10.260565 12.135488 30.019365 7.108223 33.233518-8.468057l6.922791-33.41895 5.068472-24.538822c2.843289-13.701357 21.757344-15.308434 26.867023-2.286993l9.642459 24.518218v0.020604l4.512176 11.476174c7.025809 17.904481 33.109897 15.329038 36.530085-3.585016l4.429763-24.600633v-0.020604l7.396672-41.021658c2.781479-15.411452 24.909686-15.411452 27.691165 0l11.847038 65.642895c3.399585 18.914054 29.483673 21.489497 36.530086 3.585016l3.60562-9.189181 10.528411-26.825815c5.109679-13.02144 24.044337-11.414364 26.867023 2.286993l11.579192 55.979832 0.412071 1.97794c1.771905 8.612282 8.591678 13.989807 16.070766 15.019985 6.078046 0.865349 12.588766-1.112591 17.183356-6.551928l19.717593-23.323213z" fill="#6FD7A3" /><path d="M486.613342 344.676396c3.411947 18.920235 29.504276 21.483316 36.532146 3.587077l4.518357-11.505019-10.408911-57.718772c-2.781479-15.425874-24.901445-15.425874-27.682923 0l-7.396673 41.021659zM576.146047 372.501483c3.222394 15.57834 22.977073 20.601485 33.250001 8.453635l8.820378-10.429515-11.581253-55.990133c-2.832987-13.697237-21.751162-15.310494-26.864962-2.291114l-10.536653 26.829936zM346.140432 370.517362v0.020604l-0.412071 1.957336c-1.195006 5.8102-4.697608 10.136944-9.12737 12.650577-7.479087 4.285537-17.677842 3.440792-24.126751-4.18252l-19.717593-23.323213-5.686578-45.121763v-0.020604c-0.041207-0.35026-0.473882-5.027265-0.597503-11.950056v-0.576899zM398.72686 348.263473c7.027869 17.896239 33.120199 15.333158 36.532146-3.587077l1.427826-7.917942-9.628037-24.514098c-5.11174-13.01938-24.029915-11.406123-26.864962 2.291114l-5.076714 24.538822zM720.609863 299.661771c-0.020604 0.267846-0.020604 0.535692-0.041207 0.803538-0.185432 5.768993-0.597503 10.013323-0.762331 11.496778l-0.061811 0.556296-17.719048 140.804627a259.691202 259.691202 0 0 1-68.238941 145.213785l-73.534053 78.375885a61.54897 61.54897 0 0 0-16.668268 42.13425v299.410716c-1.33923 0.597503-2.657857 1.112591-3.95588 1.586473-9.457027 3.420188-17.286374 3.955881-17.286375 3.955881h-21.242255v-304.95307c0-15.658694 5.975028-30.719886 16.668268-42.13425l73.534053-78.375885a259.555219 259.555219 0 0 0 68.238941-145.213785l5.130283-40.753813 6.922791-54.929051z" fill="#3EC3A4" /><path d="M360.255921 245.769078m-15.858549 0a15.858549 15.858549 0 1 0 31.717098 0 15.858549 15.858549 0 1 0-31.717098 0Z" fill="#FEDBA6" /><path d="M430.80452 208.453998m-15.858549 0a15.858549 15.858549 0 1 0 31.717097 0 15.858549 15.858549 0 1 0-31.717097 0Z" fill="#FEDBA6" /><path d="M505.473827 208.453998m-15.858549 0a15.858549 15.858549 0 1 0 31.717098 0 15.858549 15.858549 0 1 0-31.717098 0Z" fill="#FEDBA6" /><path d="M580.143135 208.453998m-15.858549 0a15.858549 15.858549 0 1 0 31.717097 0 15.858549 15.858549 0 1 0-31.717097 0Z" fill="#FEDBA6" /><path d="M650.691733 245.769078m-15.858548 0a15.858549 15.858549 0 1 0 31.717097 0 15.858549 15.858549 0 1 0-31.717097 0Z" fill="#FEDBA6" /><path d="M360.255921 171.138917m-15.858549 0a15.858549 15.858549 0 1 0 31.717098 0 15.858549 15.858549 0 1 0-31.717098 0Z" fill="#FEDBA6" /><path d="M430.80452 133.821776m-15.858549 0a15.858549 15.858549 0 1 0 31.717097 0 15.858549 15.858549 0 1 0-31.717097 0Z" fill="#FEDBA6" /><path d="M505.473827 133.821776m-15.858549 0a15.858549 15.858549 0 1 0 31.717098 0 15.858549 15.858549 0 1 0-31.717098 0Z" fill="#FEDBA6" /><path d="M580.143135 133.821776m-15.858549 0a15.858549 15.858549 0 1 0 31.717097 0 15.858549 15.858549 0 1 0-31.717097 0Z" fill="#FEDBA6" /><path d="M650.691733 171.138917m-15.858548 0a15.858549 15.858549 0 1 0 31.717097 0 15.858549 15.858549 0 1 0-31.717097 0Z" fill="#FEDBA6" /><path d="M505.473827 59.189555m-15.858549 0a15.858549 15.858549 0 1 0 31.717098 0 15.858549 15.858549 0 1 0-31.717098 0Z" fill="#FEDBA6" /><path d="M507.878261 536.503642a15.450598 15.450598 0 0 1-15.452659-15.452659V439.722609c0-8.536049 6.91661-15.452659 15.452659-15.452658s15.452659 6.91661 15.452659 15.452658v81.328374c0 8.536049-6.91661 15.452659-15.452659 15.452659zM436.530245 576.136621a15.452659 15.452659 0 0 1-14.562586-10.291471l-36.750543-103.62553a15.448538 15.448538 0 0 1 9.399337-19.727894 15.450598 15.450598 0 0 1 19.727894 9.399337l36.750544 103.62553a15.448538 15.448538 0 0 1-14.564646 20.620028zM579.228337 576.136621c-1.714215 0-3.457275-0.28845-5.165308-0.894194a15.452659 15.452659 0 0 1-9.399338-19.727894l36.750544-103.62553a15.452659 15.452659 0 1 1 29.127231 10.328557l-36.750543 103.62553a15.452659 15.452659 0 0 1-14.562586 10.293531z" fill="#3EC3A4" /></svg>