<?xml version="1.0" standalone="no"?><!DOCTYPE svg PUBLIC "-//W3C//DTD SVG 1.1//EN" "http://www.w3.org/Graphics/SVG/1.1/DTD/svg11.dtd"><svg class="icon" width="200px" height="200.00px" viewBox="0 0 1024 1024" version="1.1" xmlns="http://www.w3.org/2000/svg"><path d="M685.252076 155.60752a15.450319 15.450319 0 0 1-14.273877-21.359309c33.469853-80.953985 90.763155-107.391976 93.186088-108.477763a15.448259 15.448259 0 1 1 12.708037 28.168657c-0.335832 0.156584-12.489643 5.900749-27.92142 19.950052-14.319205 13.031507-34.512374 36.131783-49.410528 72.164672a15.462681 15.462681 0 0 1-14.2883 9.553691z" fill="#B2529F" /><path d="M783.755843 164.969601a15.452379 15.452379 0 0 1-11.49863-25.768388l63.152844-69.348217a15.452379 15.452379 0 0 1 23.009623 20.632016l-63.152844 69.348218a15.417354 15.417354 0 0 1-11.510993 5.136371zM519.003018 659.713579l-101.985703 32.903266-31.728885 10.239777-200.510074-317.700918a361.056173 361.056173 0 0 1-38.301297-81.89761l-34.057044-105.529449a68.958818 68.958818 0 0 1-3.337714-21.180061c0-29.153489 18.604665-56.246661 47.840566-65.682914a68.958818 68.958818 0 0 0 25.547934-14.916696 68.958818 68.958818 0 0 0 16.977014-24.249934c16.585554-39.825932 64.838183-55.381327 101.553037-32.759044a68.958818 68.958818 0 0 0 36.220377 10.280983c7.128698 0 14.257395-1.112571 21.180061-3.337714 9.848316-3.172889 19.882061-4.017619 29.503743-2.843238 25.877584 3.152285 48.829518 20.91222 57.359231 47.325487l34.036441 105.529449c9.292031 28.803235 14.9373 58.657232 16.770982 88.861482z" fill="#C365AF" /><path d="M519.003018 659.713579l-101.985703 32.903266h-21.138855l-93.291164-374.194816c-7.520158-29.318314-11.331745-59.440152-11.331745-89.706213V117.829543c0-19.057934 7.72619-36.30279 20.211712-48.788312 12.506126-12.485522 29.750981-20.211712 48.808915-20.211713 9.621681 0 19.016728-2.019111 27.628855-5.789491 25.877584 3.152285 48.829518 20.91222 57.359231 47.325487l34.036441 105.529449c9.292031 28.803235 14.9373 58.657232 16.770982 88.861482z" fill="#B2529F" /><path d="M539.874032 748.183601l-106.827449-55.566756-42.710376-22.21022-93.971069-48.891328-95.475101-141.955857a360.788332 360.788332 0 0 1-39.743519-81.217706l-35.890727-104.911353a68.857862 68.857862 0 0 1-3.729174-22.354442c0-28.700219 18.027776-55.484343 46.686789-65.291453a68.835199 68.835199 0 0 0 25.300695-15.349364c7.128698-6.81965 12.815173-15.143332 16.523745-24.538378 13.165427-33.274123 48.396852-50.230534 81.217705-42.524948 6.757841 1.586444 13.412665 4.22365 19.758442 7.973428 10.754856 6.386983 22.910728 9.642285 35.149012 9.642284 7.520158 0 15.081522-1.23619 22.354442-3.729174 36.055552-12.320697 75.304595 6.902063 87.625292 42.957615l35.890727 104.931956a360.102246 360.102246 0 0 1 18.336823 88.531832l25.13587 318.937108z" fill="#978ECB" /><path d="M401.628806 602.004093L442.546706 644.879295a15.437957 15.437957 0 0 1-5.191999 8.591523 15.431776 15.431776 0 0 1-16.2353 2.245745c-64.755771-29.02987-164.845982-208.462898-176.054108-228.818832-4.100031-7.478952-1.380413-16.873998 6.098539-20.994632s16.873998-1.380413 20.994633 6.098539c23.219775 42.2159 82.618721 141.234747 129.470335 190.002455z" fill="#8379C1" /><path d="M535.506159 692.616845h-139.627699l-5.542253-22.21022-87.748911-351.984596c-7.520158-29.318314-11.331745-59.440152-11.331745-89.706213V123.371796c6.757841 1.586444 13.412665 4.22365 19.758442 7.973428 10.754856 6.386983 22.910728 9.642285 35.149012 9.642284 7.520158 0 15.081522-1.23619 22.354442-3.729174 36.055552-12.320697 75.304595 6.902063 87.625292 42.957615l35.890727 104.931956a360.102246 360.102246 0 0 1 18.336823 88.531832z" fill="#8379C1" /><path d="M709.782213 131.347284c37.116615-21.981525 85.091102-5.569037 100.965846 34.541219a69.012386 69.012386 0 0 0 41.830621 39.900103c36.061733 12.33718 55.296854 51.571801 42.959675 87.635594l-35.890726 104.913414a361.225119 361.225119 0 0 1-39.74558 81.215645l-95.479221 141.964099-243.510955 126.672424 29.509924-374.512105a361.216878 361.216878 0 0 1 18.328582-88.542133l35.890726-104.913414c12.33718-36.061733 51.571801-55.296854 87.635594-42.959675a69.004145 69.004145 0 0 0 57.505514-5.915171z" fill="#978ECB" /><path d="M758.249116 433.634969c-44.214408 106.147544-150.21773 217.899151-154.688618 222.617277a15.493586 15.493586 0 0 1-18.645871 2.863841 15.452379 15.452379 0 0 1-7.540761-17.265459l45.471201-54.639613c34.572123-41.989265 81.938816-105.570655 106.889258-165.443474 3.275904-7.891015 12.320697-11.620189 20.191109-8.323681 7.891015 3.275904 11.620189 12.320697 8.323682 20.191109z" fill="#8379C1" /><path d="M852.57868 205.788606a69.006205 69.006205 0 0 1-41.830621-39.900103c-13.993675-35.359164-52.93161-52.28261-87.386295-40.742774 18.872506 6.269545 35.095444 20.475433 43.116259 40.742774a69.016507 69.016507 0 0 0 41.830621 39.900103c36.061733 12.33718 55.296854 51.571801 42.959675 87.635594l-35.890727 104.911353a361.225119 361.225119 0 0 1-39.745579 81.215646l-95.479222 141.966159-197.349547 102.659427-1.891371 24.012997 243.510955-126.672424 95.479221-141.966159a361.225119 361.225119 0 0 0 39.74558-81.215646l35.890726-104.911353c12.33718-36.061733-6.895882-75.298414-42.959675-87.635594z" fill="#8379C1" /><path d="M563.751048 24.610489c-28.003832-32.812612-78.708239-32.812612-106.71001 0a69.012386 69.012386 0 0 1-52.494823 24.212849c-38.113809 0-69.012386 30.898578-69.012386 69.012386v110.882153c0 30.257819 3.801285 60.3982 11.317322 89.708272l93.303527 374.184515h140.484791L673.940935 318.424089a361.159189 361.159189 0 0 0 11.317322-89.708273V117.833663c0-38.113809-30.898578-69.012386-69.012386-69.012386a69.010326 69.010326 0 0 1-52.494823-24.210788z" fill="#C2BCE0" /><path d="M511.99794 321.955473a15.452379 15.452379 0 0 1-15.45238-15.452379v-96.002542c0-8.535894 6.918545-15.452379 15.45238-15.45238s15.452379 6.916485 15.452379 15.45238v96.002542a15.452379 15.452379 0 0 1-15.452379 15.452379zM511.99794 608.74133a15.452379 15.452379 0 0 1-15.45238-15.452379V379.516616c0-8.535894 6.918545-15.452379 15.45238-15.452379s15.452379 6.916485 15.452379 15.452379V593.288951a15.452379 15.452379 0 0 1-15.452379 15.452379z" fill="#ACA6D6" /><path d="M616.245871 48.823338a69.012386 69.012386 0 0 1-52.494823-24.212849C544.425273 1.965543 514.286952-5.045717 488.261025 3.568469c11.686119 3.867215 22.543991 10.876415 31.219987 21.04202a69.012386 69.012386 0 0 0 52.494823 24.212849c38.113809 0 69.012386 30.898578 69.012386 69.012386v110.882153c0 30.259879-3.801285 60.3982-11.317323 89.708272l-93.303526 374.184515h44.270036L673.940935 318.424089a361.146827 361.146827 0 0 0 11.317322-89.708273V117.833663c0-38.113809-30.898578-69.010326-69.012386-69.010325z" fill="#ACA6D6" /><path d="M296.369258 621.519418h42.632085c43.77144 9.001526 93.513679 16.509322 130.174963 46.703271l19.018789-71.835021c2.517708-9.510424 19.645125-48.576099 22.201978-39.075976l46.402465 112.309952 2.317857-1.893431a204.77287 204.77287 0 0 1 129.573351-46.210855h35.734142l-33.360657 28.525092a201.5938 201.5938 0 0 0-69.877719 136.355915l-6.073815 72.364522c-1.357749 20.790661-21.402575 31.285917-40.528501 28.733185-53.862873 1.49579-8.288656 89.673247-111.236527 132.257944 0.00206 0.00206-8.923234 3.500479-8.923234 3.500479-9.524847 3.733295-17.640436-7.845688-10.882596-15.524491a127.327605 127.327605 0 0 0 30.284603-64.918535c6.166529-25.78075 4.716066-52.845077-27.826644-55.313337-16.358919 0-29.932289-12.654468-31.073705-28.974241l-4.913856-65.025673a201.58968 201.58968 0 0 0-77.972706-144.494168z" fill="#9BE69D" /><path d="M495.56691 603.293852l12.063157 47.179204a25.45728 25.45728 0 0 0 24.664058 19.150649h24.503353l-34.994489-130.104913c-2.554793-9.500123-16.04369-9.473339-18.561398 0.037086l-15.046496 56.833851c3.300628 0.634578 6.30045 2.91947 7.371815 6.904123zM424.90627 668.222689h44.270036a204.764628 204.764628 0 0 0-130.174963-46.703271h-42.632085l0.047388 0.037086a204.744025 204.744025 0 0 1 128.489624 46.666185zM688.688686 621.519418c-2.92565 0-5.84512 0.06387-8.758409 0.189549l-33.140203 28.335543a201.5938 201.5938 0 0 0-69.877719 136.355915l-6.073815 72.364523c-1.357749 20.790661-21.402575 31.285917-40.528501 28.733184-48.753287 1.353628-16.047811 73.720211-85.740101 119.016285-0.346133 0.403822-0.679905 0.815886-1.032219 1.215587-6.757841 7.678802 1.357749 19.257785 10.882595 15.524491 0 0 8.925294-3.498419 8.923234-3.500479 102.947871-42.584697 57.373654-130.762154 111.236528-132.257944 19.125925 2.552733 39.170751-7.942523 40.5285-28.733185l6.073815-72.364522a201.585559 201.585559 0 0 1 69.87772-136.355915l33.360656-28.523032z" fill="#6FD7A3" /><path d="M899.27165 140.15308m-15.646049 0a15.646049 15.646049 0 1 0 31.292098 0 15.646049 15.646049 0 1 0-31.292098 0Z" fill="#B2529F" /><path d="M891.02214 28.496248m-15.646049 0a15.646049 15.646049 0 1 0 31.292098 0 15.646049 15.646049 0 1 0-31.292098 0Z" fill="#B2529F" /></svg>