<?xml version="1.0" standalone="no"?><!DOCTYPE svg PUBLIC "-//W3C//DTD SVG 1.1//EN" "http://www.w3.org/Graphics/SVG/1.1/DTD/svg11.dtd"><svg class="icon" width="200px" height="200.00px" viewBox="0 0 1024 1024" version="1.1" xmlns="http://www.w3.org/2000/svg"><path d="M776.413124 780.529163a15.452841 15.452841 0 0 1-14.626629-20.449259l67.872997-196.858888a15.452841 15.452841 0 1 1 29.249137 9.984595l-67.872997 196.858889a15.459022 15.459022 0 0 1-14.622508 10.464663zM899.444521 770.598138a15.419875 15.419875 0 0 1-5.130344-0.881842 15.45078 15.45078 0 0 1-9.444776-19.705463l63.4267-192.231277c2.833021-8.047839 11.659683-12.283978 19.705462-9.444777a15.45078 15.45078 0 0 1 9.444777 19.705463l-63.4267 192.231277a15.456961 15.456961 0 0 1-14.575119 10.326619zM541.519644 843.597357a15.452841 15.452841 0 0 1-14.566878-20.612029l37.529799-104.957754a15.44666 15.44666 0 0 1 19.721946-9.41181 15.452841 15.452841 0 0 1 9.41181 19.721945l-37.529799 104.957754a15.456961 15.456961 0 0 1-14.566878 10.301894zM658.994199 793.517791a15.452841 15.452841 0 0 1-14.266062-21.382611l57.06631-131.81067a15.452841 15.452841 0 0 1 28.544487 11.851298l-57.06631 131.810671a15.463143 15.463143 0 0 1-14.278425 9.531312z" fill="#6FD7A3" /><path d="M411.75699 1012.954309h-59.818976a15.201474 15.201474 0 0 1-15.201475-15.201474V697.199205h90.221925v300.55569a15.199414 15.199414 0 0 1-15.201474 15.199414z" fill="#9BE69D" /><path d="M376.718189 697.199205v293.078576a24.4773 24.4773 0 0 1-15.261226 22.676528h50.300027a15.201474 15.201474 0 0 0 15.201474-15.201474V697.199205z" fill="#6FD7A3" /><path d="M844.082143 589.058165h-0.090656c-16.190456 0-29.315069-13.124613-29.315069-29.315068v-77.525872c0-16.190456 13.124613-29.315069 29.315069-29.315069h0.090656c16.190456 0 29.315069 13.124613 29.315069 29.315069v77.525872c0 16.190456-13.124613 29.315069-29.315069 29.315068zM963.35953 573.203551h-0.090657c-16.190456 0-29.315069-13.124613-29.315069-29.315069v-77.525871c0-16.190456 13.124613-29.315069 29.315069-29.315069h0.090657c16.190456 0 29.315069 13.124613 29.315069 29.315069v77.525871c0 16.190456-13.124613 29.315069-29.315069 29.315069z" fill="#978ECB" /><path d="M418.970376 373.546668a133.908136 133.908136 0 0 1-19.779636 37.746139l-36.654138 49.057618c-26.970358 36.11844-69.0845 55.115132-111.610717 53.96132-21.819411-0.576906-43.721237-6.469589-63.768723-18.069522l-24.374281-14.09299c-51.756714-29.937303-90.800892-77.676279-109.77698-134.25428L2.13515 196.189265c-5.707249-17.018729 0.494491-34.346514 13.042197-44.483577 7.211326-5.851476 16.544841-9.312912 26.908547-8.983252l160.359279 5.130343c15.782501 0.515095 31.379568 2.534266 46.564559 5.975099a246.231744 246.231744 0 0 1 113.918342 60.430909l20.521372 19.243937c39.105989 36.631474 51.674299 91.645647 35.52093 140.043944z" fill="#C2BCE0" /><path d="M418.970376 373.546668a133.908136 133.908136 0 0 1-19.779636 37.746139l-36.654138 49.057618c-26.970358 36.11844-69.0845 55.115132-111.610717 53.96132v-0.020604c23.756167-8.715402 45.266521-24.127035 61.378683-45.699201l36.654138-49.057618a133.584657 133.584657 0 0 0 20.830429-41.207575h-31.173531c-54.187961 0-99.742936-40.507046-105.924071-94.159309l-2.55487-22.107864a193.541678 193.541678 0 0 1 3.710742-65.779652c2.927798-12.661027-4.209354-25.423013-16.623136-29.26768a246.802469 246.802469 0 0 0-65.011131-10.917947l-137.035791-4.388607c7.211326-5.851476 16.544841-9.312912 26.908547-8.983252l160.359279 5.130343c15.782501 0.515095 31.379568 2.534266 46.564559 5.975099a246.231744 246.231744 0 0 1 113.918342 60.430909l20.521372 19.243937c39.105989 36.631474 51.674299 91.645647 35.52093 140.043944z" fill="#ACA6D6" /><path d="M353.689335 411.296928l36.650018 49.057618c40.826405 54.645365 116.267173 70.085844 175.387681 35.893858l24.361918-14.09093c51.769077-29.941424 90.805013-77.68246 109.783162-134.268702l50.878993-151.697447c8.997674-26.830252-11.58551-54.381637-39.948684-53.473009l-160.36752 5.144765c-59.821037 1.920273-116.883226 25.528093-160.489083 66.399827l-20.519312 19.233635c-49.793173 46.67376-56.561518 123.152959-15.737173 177.800385z" fill="#C2BCE0" /><path d="M710.804483 142.716255l-38.790751 1.244469c22.116106 5.608351 36.23176 29.174963 28.50122 52.228541l-50.878993 151.697446c-18.978149 56.586242-58.014085 104.327278-109.783161 134.268703l-24.361919 14.09093a134.497404 134.497404 0 0 1-42.318119 15.730992c30.782059 5.82057 63.622436 1.005465 92.558395-15.730992l24.361918-14.09093c51.769077-29.941424 90.805013-77.68246 109.783161-134.268703l50.878993-151.697446c8.995614-26.830252-11.58757-54.383697-39.950744-53.47301z" fill="#ACA6D6" /><path d="M520.794294 648.48361c-4.141361 7.520382-8.694798 14.834727-13.639707 21.922429l-91.666251 131.287335c-13.783934 19.779636-40.816103 22.705374-58.555964 8.797817a40.424631 40.424631 0 0 1-8.323931-8.797817l-91.645647-131.287335a244.515449 244.515449 0 0 1-42.443802-167.982679l3.214191-27.897529c7.808835-67.683442 65.293403-118.780835 133.636166-118.780835h61.358079c27.506056 0 53.260791 8.282723 74.709334 22.581751 31.874059 21.221901 54.270376 55.753849 58.926832 96.199084l3.214191 27.897529c5.851476 50.685317-4.326795 101.720899-28.783491 146.06025z" fill="#C2BCE0" /><path d="M520.794294 648.48361c-4.141361 7.520382-8.694798 14.834727-13.639707 21.922429l-91.666251 131.287335c-13.783934 19.779636-40.816103 22.705374-58.555964 8.797817 3.090568-2.431247 5.913287-5.356985 8.32393-8.797817l91.645647-131.287335c3.770493-5.418796 7.314345-10.940611 10.61095-16.606652 6.160532-10.528535 2.822719-24.065224-7.437967-30.699644a183.940313 183.940313 0 0 1-34.614363-28.968925l-14.402047-15.432237c-34.944024-37.47829-36.159647-95.127687-2.802116-134.027638l29.937304-34.902816c5.356985-6.263551 11.352687-11.702951 17.801672-16.3182-24.312469-23.44711-57.381548-37.704931-93.499988-37.704931h50.232034c27.506056 0 53.260791 8.282723 74.709334 22.581751 31.874059 21.221901 54.270376 55.753849 58.926832 96.199084l3.214191 27.897529c5.851476 50.685317-4.326795 101.720899-28.783491 146.06025z" fill="#ACA6D6" /><path d="M411.087367 359.018938h-46.078311c-51.328156 0-94.497211-38.370434-100.358988-89.206159l-2.414764-20.947871a183.614774 183.614774 0 0 1 31.874059-126.146689l68.826952-98.595305c12.172718-17.436985 38.053135-17.436985 50.225853 0l68.826953 98.595305a183.610653 183.610653 0 0 1 31.874059 126.146689l-2.414764 20.947871c-5.863838 50.835725-49.032894 89.206159-100.361049 89.206159z" fill="#C2BCE0" /><path d="M481.989121 122.718219l-68.826953-98.595305c-12.172718-17.436985-38.053135-17.436985-50.225853 0l-0.006181 0.010302 68.820771 98.585003a183.610653 183.610653 0 0 1 31.87406 126.146689l-2.414764 20.947871c-5.781423 50.143438-47.87084 88.134762-98.278006 89.15671 0.694348 0.014423 1.384575 0.047389 2.080982 0.047388h46.078311c51.328156 0 94.497211-38.372494 100.358988-89.206158l2.414764-20.947871a183.625075 183.625075 0 0 0-31.876119-126.144629z" fill="#ACA6D6" /><path d="M453.20769 444.677124l29.941424-34.917239c33.351351-38.89583 90.658726-46.67582 133.228211-18.086004l17.542065 11.781245a184.053634 184.053634 0 0 1 75.473734 106.119808l30.456519 116.219785c5.38583 20.554338-11.428921 40.165023-32.63434 38.059316l-119.89962-11.908989a184.830397 184.830397 0 0 1-116.895589-57.812168l-14.404108-15.442538c-34.952265-37.472108-36.159647-95.117385-2.808296-134.013216z" fill="#C2BCE0" /><path d="M739.849643 625.794719l-30.456519-116.219785c-11.360928-43.352429-38.197362-81.084146-75.473734-106.119808l-17.542065-11.781245c-24.732787-16.610774-54.437267-20.921086-81.531248-14.006455a100.91117 100.91117 0 0 1 31.290972 14.006455l17.542065 11.781245a184.059815 184.059815 0 0 1 75.473734 106.119808l30.456519 116.219785c3.797278 14.488583-3.444953 28.499159-15.475505 34.773012l33.079381 3.286304c21.207479 2.105707 38.02223-17.504978 32.6364-38.059316z" fill="#ACA6D6" /><path d="M322.890794 444.677124l-29.941424-34.917239c-33.351351-38.89583-90.658726-46.67582-133.228211-18.086004l-17.542065 11.781245a184.053634 184.053634 0 0 0-75.473734 106.119808l-30.456519 116.219785c-5.38583 20.554338 11.428921 40.165023 32.634339 38.059316l119.899621-11.908989a184.830397 184.830397 0 0 0 116.895589-57.812168l14.404108-15.442538c34.952265-37.472108 36.159647-95.117385 2.808296-134.013216z" fill="#C2BCE0" /><path d="M322.890794 444.677124l-29.941424-34.917239c-25.670259-29.937303-65.526226-41.415673-101.937239-32.092459 19.538572 4.986117 37.723475 15.796924 51.696963 32.092459l29.941424 34.917239c33.351351 38.89583 32.143969 96.539047-2.808296 134.013216l-14.404108 15.442538a184.820095 184.820095 0 0 1-116.895589 57.812168l-86.82024 8.622685a30.386466 30.386466 0 0 0 17.160895 3.286304l119.899621-11.908989a184.830397 184.830397 0 0 0 116.895589-57.812168l14.404108-15.442538c34.952265-37.472108 36.159647-95.117385 2.808296-134.013216z" fill="#ACA6D6" /><path d="M404.689891 310.138512l0.041207 0.142166c3.708682 12.549767 18.903975 17.472012 29.304767 9.492165l0.117442-0.090656c14.758493-11.323842 35.228356 3.502644 28.985408 20.993199l-0.049449 0.138045c-4.398909 12.327246 4.992298 25.212855 18.110729 24.850228l0.148348-0.00412c18.615522-0.513034 26.434659 23.475956 11.070415 33.969464l-0.121563 0.082415c-10.82729 7.394699-10.82729 23.323488 0 30.718187l0.121563 0.082415c15.362184 10.493509 7.545107 34.482499-11.070415 33.969465l-0.148348-0.004121c-13.118432-0.362627-22.509638 12.525042-18.110729 24.850228l0.049449 0.138046c6.242948 17.490555-14.226915 32.317041-28.985408 20.993199l-0.117442-0.090657c-10.400792-7.979847-25.596085-3.057602-29.304767 9.492165l-0.041207 0.142166c-5.262207 17.807854-30.565719 17.807854-35.827926 0l-0.041208-0.142166c-3.708682-12.549767-18.903975-17.472012-29.304767-9.492165l-0.117442 0.090657c-14.756433 11.323842-35.228356-3.502644-28.985408-20.993199l0.049449-0.138046c4.398909-12.327246-4.992298-25.212855-18.110729-24.850228l-0.148347 0.004121c-18.615522 0.513034-26.434659-23.475956-11.070415-33.969465l0.121562-0.082415c10.82729-7.394699 10.82729-23.323488 0-30.718187l-0.121562-0.082415c-15.362184-10.493509-7.545107-34.482499 11.070415-33.969464l0.148347 0.00412c13.118432 0.362627 22.509638-12.525042 18.110729-24.850228l-0.049449-0.138045c-6.242948-17.490555 14.226915-32.317041 28.985408-20.993199l0.117442 0.090656c10.400792 7.979847 25.596085 3.057602 29.304767-9.492165l0.041208-0.142166c5.262207-17.807854 30.563658-17.807854 35.827926 0z" fill="#EAF6FF" /><path d="M492.418758 430.514081l-0.121563-0.082416c-10.82729-7.394699-10.82729-23.323488 0-30.718186l0.121563-0.084476c15.362184-10.493509 7.543047-34.482499-11.072476-33.969464l-0.148347 0.00412c-13.118432 0.362627-22.509638-12.525042-18.110729-24.850228l0.049449-0.138045c6.242948-17.490555-14.226915-32.317041-28.985408-20.993199l-0.117442 0.090656c-10.400792 7.979847-25.596085 3.057602-29.304767-9.492165l-0.041208-0.142166c-5.262207-17.807854-30.565719-17.807854-35.827926 0l-0.041207 0.142166a18.38476 18.38476 0 0 1-7.062979 9.865094c6.36451 4.510169 15.347761 4.916064 22.241789-0.372929l0.117442-0.090656c14.758493-11.323842 35.228356 3.502644 28.985408 20.993199l-0.049449 0.138045c-4.398909 12.327246 4.992298 25.212855 18.110729 24.850228l0.148347-0.00412c18.615522-0.513034 26.434659 23.475956 11.070415 33.969464l-0.121562 0.084476c-10.82729 7.394699-10.82729 23.323488 0 30.718186l0.121562 0.082416c15.362184 10.493509 7.545107 34.482499-11.070415 33.969464l-0.148347-0.004121c-13.118432-0.362627-22.509638 12.525042-18.110729 24.852289l0.049449 0.138045c6.242948 17.490555-14.226915 32.317041-28.985408 20.993199l-0.117442-0.090656c-6.891967-5.288992-15.875218-4.883098-22.241789-0.372929a18.38476 18.38476 0 0 1 7.062979 9.865094l0.041207 0.142166c5.262207 17.807854 30.565719 17.807854 35.827926 0l0.041208-0.142166c3.708682-12.549767 18.903975-17.472012 29.304767-9.492165l0.117442 0.090656c14.758493 11.323842 35.228356-3.502644 28.985408-20.993199l-0.049449-0.138045c-4.398909-12.327246 4.992298-25.212855 18.110729-24.852289l0.148347 0.004121c18.617582 0.515095 26.43672-23.475956 11.072476-33.969464z" fill="#C8EFFE" /><path d="M426.958464 919.472865l-17.640963-29.904337 17.640963-34.490741 217.442072-93.092033c31.202376-13.192605 64.203462-19.882655 98.090512-19.882655h101.679692a189.270513 189.270513 0 0 0 63.54002-10.952973l88.517992-33.829359c11.249668-3.999195 23.55631 2.249934 26.92709 13.672674a20.690323 20.690323 0 0 1-8.286843 23.008249s-63.305137 44.079743-86.333991 55.372679c-25.865995 12.681631-55.535449 14.544214-84.362208 14.544214h-101.679691a188.635917 188.635917 0 0 0-73.879002 14.976893z" fill="#9BE69D" /><path d="M618.371772 818.889295l-191.413308 79.670726-7.45239 8.278601 7.45239 12.634243 241.653583-100.58357a188.673003 188.673003 0 0 1 73.879001-14.976893h-50.240275a188.650339 188.650339 0 0 0-73.879001 14.976893zM1023.155842 710.98932c-3.37078-11.420679-15.677422-17.671869-26.92709-13.672674l-25.02536 9.564279a20.688263 20.688263 0 0 1-6.574669 27.116644s-63.305137 44.079743-86.33399 55.372679c-25.865995 12.681631-55.535449 14.544214-84.362208 14.544214h50.240275c28.82882 0 58.496213-1.860522 84.362208-14.544214 23.030914-11.290876 86.333991-55.372679 86.333991-55.372679a20.696505 20.696505 0 0 0 8.286843-23.008249z" fill="#6FD7A3" /><path d="M327.061 237.670871a15.415754 15.415754 0 0 1-11.731796-5.387891 15.44872 15.44872 0 0 1 1.660665-21.788505l48.118086-41.306473a15.44666 15.44666 0 0 1 21.788505 1.660665 15.44872 15.44872 0 0 1-1.660665 21.788505l-48.118086 41.306473a15.391029 15.391029 0 0 1-10.056709 3.727226zM446.492915 285.26562a15.386909 15.386909 0 0 1-9.980474-3.661293l-41.508391-35.160364a15.452841 15.452841 0 0 1-1.802831-21.778203 15.44872 15.44872 0 0 1 21.778203-1.802832l41.508391 35.160364a15.452841 15.452841 0 0 1-9.994898 27.242328z" fill="#8379C1" /><path d="M385.503644 445.068596a15.411633 15.411633 0 0 1-10.602709-4.211414l-19.596263-18.483658c-27.773906-26.195655-43.704754-63.086737-43.704754-101.214046V186.392164c0-8.536149 6.916691-15.452841 15.452841-15.452841s15.452841 6.916691 15.452841 15.452841v134.767314c0 29.652971 12.395239 58.347866 34.004491 78.731193l19.598322 18.483658a15.456961 15.456961 0 0 1 0.638718 21.846196 15.421935 15.421935 0 0 1-11.243487 4.848071z" fill="#978ECB" /><path d="M388.048212 465.503433a15.45078 15.45078 0 0 1-15.452841-15.452841v-20.434837c0-4.254682 1.755443-8.32187 4.850131-11.241426l19.596263-18.483658c21.613373-20.383327 34.008612-49.078222 34.008612-78.731193V192.651595c0-8.536149 6.916691-15.452841 15.45284-15.452841s15.452841 6.916691 15.452841 15.452841v128.509944c0 38.125248-15.930849 75.01633-43.708875 101.214046l-14.74407 13.907556v13.769511a15.452841 15.452841 0 0 1-15.454901 15.450781z" fill="#978ECB" /></svg>