<?xml version="1.0" standalone="no"?><!DOCTYPE svg PUBLIC "-//W3C//DTD SVG 1.1//EN" "http://www.w3.org/Graphics/SVG/1.1/DTD/svg11.dtd"><svg class="icon" width="200px" height="200.00px" viewBox="0 0 1024 1024" version="1.1" xmlns="http://www.w3.org/2000/svg"><path d="M163.15854 733.015484a112.038207 112.038207 0 0 0-6.737375 38.302075c0 45.307297 27.258551 86.164218 69.104445 103.533045l160.48137 66.632014a97.014069 97.014069 0 0 1 55.052796 59.606189c0.597504 1.813116 0.865351 3.646836 0.86535 5.439348 0 9.312823-7.540914 17.471845-17.513052 17.471845h-22.622743c-4.429772 0-8.838941-0.391468-13.186298-1.174405h-0.020604c-4.347358-0.782936-8.612301-1.957341-12.753623-3.482007l-243.802293-90.429161c-57.463415-21.324717-95.600662-76.130269-95.600662-137.425952v-89.79045c0-23.838355 5.810213-47.305845 16.915548-68.383319l173.873705-327.102611 216.317103-18.13116 249.076812-20.871438 21.551356 251.116568-93.766943 93.58151h-362.520184l-38.013626 44.132892-37.271896 43.288145a112.371986 112.371986 0 0 0-19.429186 33.686872z" fill="#FFD15B" /><path d="M182.587726 699.328612l37.271896-43.288145 38.013626-44.132892h249.775274l1.195008-94.570483a119.748071 119.748071 0 0 0-34.799465-85.937578l-20.99506-21.139284c-37.786986-38.034229-96.259977-46.316873-143.15375-20.273934l-76.830791 42.670037a74.861088 74.861088 0 0 0-37.601554 77.098638l10.794221 68.502819a74.541732 74.541732 0 0 1-17.150429 60.246961L136.724132 699.328612c-8.447472 10.09576-14.999414 21.510149-19.429186 33.686872s-6.737374 25.136381-6.737374 38.302075c0 45.307297 27.258551 86.164218 69.104444 103.533045l160.481371 66.632014a97.014069 97.014069 0 0 1 55.052795 59.606189l1.112594 3.317178c2.472431 7.355482-1.050783 15.184847-7.705743 18.41961 4.347358 0.782936 8.756526 1.174405 13.186298 1.174405h22.622743c9.972138 0 17.513052-8.159022 17.513052-17.471845 0-1.792512-0.267847-3.626232-0.86535-5.439348a97.014069 97.014069 0 0 0-55.052796-59.606189l-160.48137-66.632014c-41.845893-17.368827-69.104444-58.225748-69.104445-103.533045 0-13.165695 2.307602-26.125353 6.737375-38.302075s10.981714-23.591112 19.429186-33.686872z" fill="#FFC344" /><path d="M714.158315 518.326065l-21.468942 21.427734-72.298001 72.153776h-203.810723V374.925071l26.949497-86.844136 196.970331-16.503477 52.106481-4.367961z" fill="#FE646F" /><path d="M714.158315 518.326065l-21.468942 21.427734-58.452388-50.190347a119.818123 119.818123 0 0 1-41.475029-82.929454l-1.998548-29.710379c-2.802088-42.11374 16.688909-81.652031 49.737069-105.346161l52.106481-4.367961z" fill="#FD4755" /><path d="M499.351455 410.270532l20.99506 21.131042a119.793399 119.793399 0 0 1 34.803586 85.937579l-1.60708 127.682514c-0.418253 33.320127-22.812296 62.352648-54.933295 71.220433l-104.808407 28.935683a65.935612 65.935612 0 0 1-64.324411-17.086558l-48.313361-48.626535a65.937672 65.937672 0 0 1-18.3578-36.206691l-21.042447-133.496847a74.863148 74.863148 0 0 1 37.599493-77.100698l76.843153-42.682399c46.87729-26.036758 105.350282-17.747933 143.145509 20.292477z" fill="#FEA95C" /><path d="M520.344454 431.399514l-20.995059-21.131043c-28.80382-28.991313-69.611293-40.67767-108.148249-33.085246a119.56676 119.56676 0 0 1 61.84992 33.085246l20.995059 21.131043a119.79752 119.79752 0 0 1 34.803586 85.937578l-1.60502 127.682515c-0.418253 33.320127-22.812296 62.352648-54.933294 71.220433l-98.730348 27.25649a65.869681 65.869681 0 0 0 40.22027 1.679193L498.607666 716.24004c32.120998-8.867786 54.512981-37.900306 54.933294-71.220433l1.60502-127.682515a119.787218 119.787218 0 0 0-34.801526-85.937578z" fill="#FE9738" /><path d="M636.641424 376.923619l1.982066 29.72068a119.795459 119.795459 0 0 0 41.491511 82.915032l96.882206 83.180818c25.282667 21.707944 61.870524 24.089719 89.753363 5.845239l90.985458-59.532016a65.939733 65.939733 0 0 0 29.689775-59.564982l-4.561635-68.395681a65.929431 65.929431 0 0 0-15.040621-37.706632L881.546009 249.366787a74.861088 74.861088 0 0 0-82.711056-22.740183l-82.818194 29.459014c-50.522066 17.972512-82.945937 67.332536-79.375335 120.838001z" fill="#FEA95C" /><path d="M987.425803 459.48839l-4.563695-68.395681a65.929431 65.929431 0 0 0-15.040622-37.706632l-86.277537-104.01929c-19.579593-23.605534-51.502797-32.770012-80.5518-23.413921 13.25635 4.269064 25.373322 12.191145 34.682025 23.413921l86.277538 104.01929a65.943854 65.943854 0 0 1 15.040621 37.706632l4.561635 68.395681a65.939733 65.939733 0 0 1-29.689775 59.564982l-90.985458 59.532016a74.770432 74.770432 0 0 1-18.059047 8.61024 74.848726 74.848726 0 0 0 63.928822-8.61024l90.985458-59.532016a65.931491 65.931491 0 0 0 29.691835-59.564982z" fill="#FE9738" /><path d="M463.909158 320.253442l200.326656-42.789538a110.991545 110.991545 0 0 0 83.502233-77.931022l10.654117-37.133853c10.355365-36.08925-6.395355-74.444895-39.905035-91.378986L594.587434 8.40985c-30.377935-15.351736-67.198612-9.29222-91.05757 14.980871l-39.620706 40.310926-16.606494 124.196387z" fill="#FEA95C" /><path d="M718.48919 71.020043L594.587434 8.40985c-18.47318-9.335487-39.324014-10.738592-58.198963-4.957224a78.211232 78.211232 0 0 1 12.329189 4.957224l123.899694 62.608132c33.50968 16.934091 50.2604 55.289737 39.905036 91.378987l-10.654117 37.133852a110.987424 110.987424 0 0 1-83.502234 77.931023l-154.458941 32.99253v9.797008l200.326655-42.789538a110.987424 110.987424 0 0 0 83.502234-77.931023l10.654117-37.133852c10.359486-36.08719-6.391234-74.442835-39.900914-91.376926z" fill="#FE9738" /><path d="M463.909158 320.253442l-47.320267 54.67987-111.222306-23.786845a147.212658 147.212658 0 0 1-106.66067-91.238883l-10.050432-26.203647a87.221182 87.221182 0 0 1 14.995294-87.746573l74.683897-87.818686a87.227363 87.227363 0 0 1 95.081452-25.884292l90.495092 31.449321v256.549735z" fill="#FEA95C" /><path d="M373.416126 32.254386a87.15113 87.15113 0 0 0-51.585211-1.759547 86.411461 86.411461 0 0 1 5.715436 1.759547l62.237268 21.62965a42.066352 42.066352 0 0 1 28.257825 39.736086v202.257212a65.424643 65.424643 0 0 1-15.9513 42.810141l-24.203039 27.969375 38.705906 8.278523 47.320268-54.67987V63.703707z" fill="#FE9738" /><path d="M634.241106 488.720765h29.786611a119.793399 119.793399 0 0 1 85.492541 35.881154l89.444309 91.131743c23.341808 23.782725 28.154807 60.12952 11.805858 89.166161l-53.342697 94.745614a65.937672 65.937672 0 0 1-57.457234 33.587974h-68.548148a65.931491 65.931491 0 0 1-38.623492-12.496078l-109.53075-79.163118a74.861088 74.861088 0 0 1-28.193954-81.01332l23.881622-84.594224c14.57086-51.607875 61.662427-87.245906 115.285334-87.245906z" fill="#FEA95C" /><path d="M838.966628 615.733662l-89.44431-91.131743a119.793399 119.793399 0 0 0-85.49254-35.881154H634.241106c-2.725855 0-5.431107 0.11538-8.119876 0.298752a119.772796 119.772796 0 0 1 77.531314 35.582402l89.444309 91.131743c23.341808 23.782725 28.154807 60.12952 11.805858 89.166161l-53.342697 94.745614a65.937672 65.937672 0 0 1-57.457235 33.587974h45.867715a65.937672 65.937672 0 0 0 57.457234-33.587974l53.342697-94.745614c16.35101-29.036641 11.538011-65.385496-11.803797-89.166161z" fill="#FE9738" /><path d="M542.184261 364.501714a15.452693 15.452693 0 0 1-15.215752-18.250661l29.366298-159.593356c1.545269-8.391843 9.611575-13.952752 17.993116-12.401301a15.452693 15.452693 0 0 1 12.401302 17.993116l-29.366299 159.593356a15.456814 15.456814 0 0 1-15.178665 12.658846zM571.550559 414.584923a15.450633 15.450633 0 0 1-13.781742-8.43923 15.450633 15.450633 0 0 1 6.741495-20.778722c4.025942-2.054178 99.762588-50.291305 197.343256-47.645804 8.531947 0.2287 15.25902 7.332818 15.030319 15.862704s-7.254524 15.25902-15.862704 15.03032c-89.514362-2.387956-181.556784 43.819717-182.473644 44.285359a15.384701 15.384701 0 0 1-6.99698 1.685373zM752.841557 453.882153a15.483599 15.483599 0 0 1-4.042425-0.539814c-36.985506-9.998923-86.905947-2.849477-101.322279-0.422374a15.440331 15.440331 0 0 1-17.805624-12.669148 15.452693 15.452693 0 0 1 12.669148-17.805624c15.986326-2.692889 71.475918-10.573763 114.520941 1.063146a15.452693 15.452693 0 0 1 10.884877 18.949122 15.452693 15.452693 0 0 1-14.904638 11.424692z" fill="#FFD15B" /><path d="M587.176323 119.310739m-15.646367 0a15.646367 15.646367 0 1 0 31.292734 0 15.646367 15.646367 0 1 0-31.292734 0Z" fill="#FFC344" /><path d="M835.859606 353.070842m-15.646367 0a15.646367 15.646367 0 1 0 31.292734 0 15.646367 15.646367 0 1 0-31.292734 0Z" fill="#FFC344" /><path d="M827.62023 448.397477m-15.646367 0a15.646367 15.646367 0 1 0 31.292734 0 15.646367 15.646367 0 1 0-31.292734 0Z" fill="#FFC344" /><path d="M660.556012 561.140327m-15.646367 0a15.646367 15.646367 0 1 0 31.292734 0 15.646367 15.646367 0 1 0-31.292734 0Z" fill="#FFC344" /></svg>