<?xml version="1.0" standalone="no"?><!DOCTYPE svg PUBLIC "-//W3C//DTD SVG 1.1//EN" "http://www.w3.org/Graphics/SVG/1.1/DTD/svg11.dtd"><svg class="icon" width="200px" height="200.00px" viewBox="0 0 1024 1024" version="1.1" xmlns="http://www.w3.org/2000/svg"><path d="M355.392817 1023.99794a15.450563 15.450563 0 0 1-15.452623-15.452623v-81.775281c0-29.80914-11.60595-57.821655-32.679208-78.87843l-20.999084-20.997024a15.452623 15.452623 0 0 1 21.854129-21.85413l20.992904 20.992904c26.912288 26.891685 41.736505 62.667598 41.736505 100.73874v81.775281a15.450563 15.450563 0 0 1-15.452623 15.450563zM668.607183 1023.99794c8.536029 0 15.452623-6.916594 15.452623-15.452623v-81.775281c0-29.80914 11.60595-57.821655 32.679208-78.87843l20.999084-20.997024a15.452623 15.452623 0 0 0-21.854129-21.85413l-20.992904 20.992904c-26.912288 26.891685-41.736505 62.667598-41.736505 100.73874v81.775281a15.450563 15.450563 0 0 0 15.452623 15.450563z" fill="#6FD7A3" /><path d="M455.134347 282.931346v348.260916l-49.716239-48.006148-135.055925-130.461346a125.695756 125.695756 0 0 0-58.884796-32.017835l-102.028518-23.714625v-114.060962l85.535419-14.974621 146.39403 14.96638z" fill="#D691C6" /><path d="M455.134347 282.931346v348.260916l-49.716239-48.006148a296.715086 296.715086 0 0 0-27.485065-84.845203l-63.767825-127.391424a175.832307 175.832307 0 0 1-18.584354-78.664153v-9.353988l11.171216-3.547922 34.628298 3.539681z" fill="#CD7CBB" /><path d="M159.671954 331.594747v111.81312c0 18.283544-21.85825 27.713764-35.157808 15.168295l-34.278039-32.333069a98.841158 98.841158 0 0 1-31.018565-71.897964v-63.396962c0-48.576866 47.278845-83.100086 93.548119-68.310895l188.612657 60.285833h-133.036783c-26.879323 0-48.669581 21.790259-48.669581 48.671642z" fill="#FFCEEC" /><path d="M113.870379 331.594747v111.81312c0 1.625616-0.17925 3.177059-0.504786 4.652269l11.146492 10.516026c13.301618 12.54547 35.157808 3.115249 35.157808-15.168295v-111.81312c0-26.879323 21.790259-48.671642 48.671642-48.671642h-45.801574c-26.879323 0-48.669581 21.792319-48.669582 48.671642zM152.765661 222.637272c-15.394933-4.920115-30.892884-4.35764-44.732253 0.342018l187.543335 59.943815h45.801575z" fill="#FFBEE6" /><path d="M914.551131 282.931346v114.060962l-5.95441 1.380434-90.078491 20.933154-5.995617 1.401037a125.695756 125.695756 0 0 0-58.884796 32.017835l-184.772164 178.467494V282.931346l113.756029-0.008241 151.266757-15.971831z" fill="#D691C6" /><path d="M451.67296 494.240815a15.49383 15.49383 0 0 1-12.011839 5.707169c-3.420181 0-6.860965-1.133192-9.724851-3.481991l-88.224176-70.484564-69.248354-55.320391c-6.613723-5.377513-7.623294-15.122967-2.225178-21.736689 5.377513-6.613723 15.122967-7.602691 21.73669-2.225178l17.471765 13.948568 139.980162 111.856387a15.448502 15.448502 0 0 1 2.245781 21.736689z" fill="#FFCEEC" /><path d="M451.67296 494.240815a15.49383 15.49383 0 0 1-12.011839 5.707169c-3.420181 0-6.860965-1.133192-9.724851-3.481991l-88.224176-70.484564-27.546876-55.031942a159.924347 159.924347 0 0 1-4.718201-10.301748l139.980162 111.856387a15.448502 15.448502 0 0 1 2.245781 21.736689z" fill="#FFBEE6" /><path d="M584.328577 499.941803a15.415537 15.415537 0 0 1-11.993295-5.698927 15.452623 15.452623 0 0 1 2.229298-21.73875l157.453987-125.807016a15.452623 15.452623 0 0 1 19.509452 23.968049l-157.453987 125.807015a15.370209 15.370209 0 0 1-9.745455 3.469629z" fill="#FFCEEC" /><path d="M914.551131 282.931346v100.627482c-1.565866 5.109667-3.564405 10.054507-5.95441 14.813914l-90.078491 20.933154v-87.709089c0-26.887564-21.777897-48.665461-48.66546-48.665461l64.035669-15.980072z" fill="#CD7CBB" /><path d="M864.328046 331.594747v111.81312c0 18.283544 21.85825 27.713764 35.157808 15.168295l34.278039-32.333069a98.841158 98.841158 0 0 0 31.018565-71.897964v-63.396962c0-48.576866-47.278845-83.100086-93.548119-68.310895l-188.612657 60.285833h133.036783c26.879323 0 48.669581 21.790259 48.669581 48.671642z" fill="#FFCEEC" /><path d="M871.234339 222.637272l-1.069322 0.342018c27.754971 9.42404 48.815866 35.555455 48.815866 67.968877v63.396962a98.830856 98.830856 0 0 1-31.018565 71.897964l-23.131546 21.819104c3.321284 15.131208 22.536105 21.946845 34.655082 10.516025l34.278039-32.333069a98.834977 98.834977 0 0 0 31.018565-71.897964v-63.396961c0-48.578926-47.278845-83.102146-93.548119-68.312956z" fill="#FFBEE6" /><path d="M532.551989 1023.99794h-41.101917a13.695145 13.695145 0 0 1-13.695145-13.695145V695.817192h68.492206v314.485603a13.697205 13.697205 0 0 1-13.695144 13.695145z" fill="#6FD7A3" /><path d="M356.315853 240.230598a15.452623 15.452623 0 0 1-14.412146-9.875256l-61.388121-155.309163a15.450563 15.450563 0 0 1 8.826539-19.989513 15.442321 15.442321 0 0 1 19.989513 8.826538l61.38812 155.309163a15.450563 15.450563 0 0 1-8.826538 19.989513 15.37845 15.37845 0 0 1-5.577367 1.048718zM359.163257 318.835001a15.423778 15.423778 0 0 1-11.871736-5.550582L230.267777 173.90794a15.452623 15.452623 0 0 1 1.961453-21.763474 15.448502 15.448502 0 0 1 21.763474 1.961453l117.025805 139.376478a15.452623 15.452623 0 0 1-11.855252 25.352604z" fill="#FFEAD9" /><path d="M507.879301 695.817192v313.354471c0 6.778551-4.388545 12.776229-10.849802 14.826277h35.520429a13.695145 13.695145 0 0 0 13.695145-13.695145V695.817192z" fill="#3EC3A4" /><path d="M682.617562 189.391468v102.893866c0 27.299634-6.366481 54.249009-18.584355 78.664153l-63.767824 127.391424a296.789259 296.789259 0 0 0-31.39973 132.851351v108.106551c0 27.052392-21.942725 48.995117-48.995117 48.995117h-15.741072c-5.233288 0-10.281145-0.82414-15.01995-2.348799-19.717547-6.345877-33.975167-24.827214-33.975167-46.646318v-108.106551c0-46.131231-10.755026-91.603149-31.39973-132.851351l-63.767824-127.391424a175.832307 175.832307 0 0 1-18.584355-78.664153V189.391468l170.493941-31.564557 124.568745 23.03471z" fill="#C365AF" /><path d="M667.267956 250.750744c-1.854315 0-3.741595-0.335837-5.577367-1.048718a15.450563 15.450563 0 0 1-8.826538-19.989513l61.388121-165.827249a15.448502 15.448502 0 0 1 19.989513-8.826538 15.450563 15.450563 0 0 1 8.826538 19.989513l-61.38812 165.827249a15.452623 15.452623 0 0 1-14.412147 9.875256zM658.804039 326.287286a15.452623 15.452623 0 0 1-11.855252-25.352604l122.638197-146.828763a15.452623 15.452623 0 1 1 23.724928 19.802021l-122.638198 146.828764a15.411416 15.411416 0 0 1-11.869675 5.550582z" fill="#FFEAD9" /><path d="M682.617562 189.391468v102.893866c0 27.299634-6.366481 54.249009-18.584355 78.664153l-63.767824 127.391424a296.789259 296.789259 0 0 0-31.39973 132.851351v108.106551c0 27.052392-21.942725 48.995117-48.995117 48.995117h-15.741072c-5.233288 0-10.281145-0.82414-15.01995-2.348799 19.696943-6.366481 33.954564-24.827214 33.954564-46.646318v-108.127154c0-46.110627 10.755026-91.582546 31.39973-132.830748l63.767824-127.391424a175.832307 175.832307 0 0 0 18.584355-78.664153V189.391468c0-2.863886-0.123621-5.727772-0.370863-8.529847z" fill="#B2529F" /><path d="M682.619622 189.393529l-101.435138 33.355002a34.99504 34.99504 0 0 1-37.471581-10.435672l-2.736144-3.1853c-14.354457-16.705316-40.389036-16.153142-54.024431 1.145554a34.99298 34.99298 0 0 1-37.632288 11.828468l-107.939662-32.708052c0-54.265491 43.982286-98.247777 98.247777-98.247777h144.74369c54.265491 0 98.247777 43.982286 98.247777 98.247777z" fill="#FFCEEC" /><path d="M584.371845 91.145752h-45.801575c47.66207 0 87.391794 33.929839 96.354316 78.954662 2.132462 10.715879-4.246381 21.312258-14.626423 24.724197l-70.379486 23.143908a34.980618 34.980618 0 0 0 31.263746 4.780012l101.435139-33.355002c0.00206-54.265491-43.980225-98.247777-98.245717-98.247777z" fill="#FFBEE6" /><path d="M306.87158 806.280783l-22.869882 22.869882c-11.270113 11.24951-29.524812 11.24951-40.794925 0l-10.466576-10.466577a47.9567 47.9567 0 0 0-16.153142-10.610801c-6.119239-2.431213-12.835979-4.800615-19.944186-7.252431-45.327694-15.658658-105.242665-33.789736-110.1669-81.074762-10.281145-41.145184-7.994157-62.078338 18.584355-88.821677 3.111128-3.131732 6.572516-6.345877 10.363559-9.683644 3.955871-4.347338 8.323813-7.746915 13.000807-10.363559 20.397462-11.434941 46.666922-7.891139 69.042319-2.12216 54.578665 5.542341 70.525771 85.174858 88.389004 130.1935 2.390006 6.036825 5.975014 11.496752 10.569594 16.091331l10.445973 10.445973c11.270113 11.270113 11.270113 29.524812 0 40.794925z" fill="#C365AF" /><path d="M306.87158 806.280783l-22.869882 22.869882c-10.734422 10.713819-27.814721 11.228906-39.146645 1.504055 0.556294-0.47388 1.091985-0.968364 1.627676-1.504055l22.869883-22.869882c11.270113-11.270113 11.270113-29.524812 0-40.794925l-10.445974-10.445973a47.697096 47.697096 0 0 1-10.569594-16.091331c-17.863232-45.018642-33.810339-124.651159-88.389003-130.1935-5.336306-1.380434-10.878647-2.616644-16.503402-3.564405 17.348145-3.976475 36.839053-0.865347 54.02237 3.564405 54.578665 5.542341 70.525771 85.174858 88.389004 130.1935 2.390006 6.036825 5.975014 11.496752 10.569594 16.091331l10.445973 10.445973c11.270113 11.270113 11.270113 29.524812 0 40.794925z" fill="#B2529F" /><path d="M937.524031 719.746094c-4.821218 46.110627-61.91351 64.50955-106.767323 79.900363-4.491562 1.545262-8.8389 3.049318-13.021411 4.553373a88.553832 88.553832 0 0 0-21.880914 11.537958c-3.914664 2.802076-7.602691 5.933807-11.022871 9.353988l-4.038285 4.058889c-11.270113 11.24951-29.524812 11.24951-40.794925 0l-22.869882-22.869882c-11.270113-11.270113-11.270113-29.524812 0-40.794925l4.038285-4.038285a89.233747 89.233747 0 0 0 20.891947-32.903786c16.503401-45.883989 33.892753-114.637859 84.474339-119.788733 22.189967-5.707169 48.212184-9.25097 68.527232 1.833711 4.883029 2.657851 9.415798 6.139842 13.515894 10.652008 3.667423 3.214146 7.005189 6.30467 10.0133 9.353988 26.908168 26.887564 29.256966 47.820717 18.934614 89.151333z" fill="#C365AF" /><path d="M937.524031 719.746094c-5.295099 50.725811-73.842935 67.909127-119.788734 84.453736a89.400635 89.400635 0 0 0-32.903785 20.891946l-4.038285 4.058889c-11.043475 11.022871-28.803689 11.24951-40.11501 0.638709 0.226638-0.206035 0.432673-0.41207 0.659312-0.638709l4.058889-4.058889c9.292177-9.292177 20.521083-16.441591 32.883182-20.891946 45.966403-16.544608 114.493635-33.727925 119.788734-84.453736 11.476148-45.966403 7.293638-66.714124-28.927311-98.505321-7.726312-8.509244-17.080299-13.412877-27.196616-15.864693 23.776436-4.18251 49.324773-3.214146 66.63171 15.864693 36.241552 31.791196 40.424062 52.538918 28.947914 98.505321z" fill="#B2529F" /><path d="M195.542643 108.976018m-15.650417 0a15.650417 15.650417 0 1 0 31.300833 0 15.650417 15.650417 0 1 0-31.300833 0Z" fill="#FEA95C" /><path d="M439.475689 20.282083m-15.650416 0a15.650417 15.650417 0 1 0 31.300833 0 15.650417 15.650417 0 1 0-31.300833 0Z" fill="#FEA95C" /><path d="M828.039106 108.976018m-15.650416 0a15.650417 15.650417 0 1 0 31.300833 0 15.650417 15.650417 0 1 0-31.300833 0Z" fill="#FEA95C" /><path d="M584.10606 20.282083m-15.650417 0a15.650417 15.650417 0 1 0 31.300833 0 15.650417 15.650417 0 1 0-31.300833 0Z" fill="#FEA95C" /><path d="M512 536.50477a15.450563 15.450563 0 0 1-15.452623-15.452623v-179.310178c0-8.536029 6.916594-15.452623 15.452623-15.452623s15.452623 6.916594 15.452623 15.452623v179.310178a15.452623 15.452623 0 0 1-15.452623 15.452623zM232.740197 818.684088a47.9567 47.9567 0 0 0-16.153142-10.610801c-6.119239-2.431213-12.835979-4.800615-19.944186-7.252431-21.922121-75.182162-76.954063-150.817601-91.582545-169.896439 3.111128-3.131732 6.572516-6.345877 10.363559-9.683644 3.955871-4.347338 8.323813-7.746915 13.000807-10.363559 20.685911 26.207649 87.400036 118.490713 104.315507 207.806874zM918.589417 630.594761c-8.612262 11.517355-22.478416 31.049471-36.983278 55.093752-19.655736 32.594733-40.465269 73.472072-50.849431 113.957944-4.491562 1.545262-8.8389 3.049318-13.021411 4.553373a88.553832 88.553832 0 0 0-21.880914 11.537958c13.515894-84.556753 73.616296-171.730151 99.20584-205.149023 4.883029 2.657851 9.415798 6.139842 13.515894 10.652008 3.667423 3.214146 7.005189 6.30467 10.0133 9.353988z" fill="#B2529F" /><path d="M282.221556 35.932499m-35.928379 0a35.928379 35.928379 0 1 0 71.856758 0 35.928379 35.928379 0 1 0-71.856758 0Z" fill="#FEA95C" /><path d="M282.221556 0.004121c-6.158385 0-11.952089 1.553504-17.018489 4.285527 11.257751 6.06773 18.90989 17.960069 18.90989 31.644912s-7.654199 25.577182-18.90989 31.644911a35.767671 35.767671 0 0 0 17.018489 4.285528c19.843228 0 35.928379-16.08515 35.928379-35.928379S302.064784 0.004121 282.221556 0.004121z" fill="#FE9738" /><path d="M741.360193 35.932499m-35.928379 0a35.928379 35.928379 0 1 0 71.856758 0 35.928379 35.928379 0 1 0-71.856758 0Z" fill="#FEA95C" /><path d="M741.360193 0.004121c-6.158385 0-11.952089 1.553504-17.018489 4.285527 11.257751 6.06773 18.90989 17.960069 18.90989 31.644912s-7.654199 25.577182-18.90989 31.644911a35.767671 35.767671 0 0 0 17.018489 4.285528c19.843228 0 35.928379-16.08515 35.928379-35.928379S761.203421 0.004121 741.360193 0.004121z" fill="#FE9738" /></svg>