<?xml version="1.0" standalone="no"?><!DOCTYPE svg PUBLIC "-//W3C//DTD SVG 1.1//EN" "http://www.w3.org/Graphics/SVG/1.1/DTD/svg11.dtd"><svg class="icon" width="200px" height="200.00px" viewBox="0 0 1024 1024" version="1.1" xmlns="http://www.w3.org/2000/svg"><path d="M535.79885 367.382254l188.777562-163.480854c29.089772-25.191632 72.259827 6.172743 57.289483 41.622748l-97.14241 230.056236c-7.029839 16.647451-0.764382 35.932122 14.708683 45.267468l213.814669 129.019806c32.948767 19.882166 16.459961 70.630107-21.882745 67.348005L642.548569 695.918051c-18.005207-1.541125-34.40954 10.377873-38.507532 27.977196l-56.634299 243.219671c-8.72755 37.479428-62.085927 37.479428-70.813476 0L419.958963 723.897307c-4.097993-17.599323-20.502325-29.518321-38.507532-27.977195L132.635908 717.217723c-38.342706 3.282103-54.831512-47.465839-21.882745-67.348005l213.814669-129.019805c15.473064-9.337407 21.738522-28.620018 14.708683-45.267469l-97.14241-230.056235c-14.970344-35.452066 28.199711-66.81438 57.289483-41.622748l188.777562 163.480853c13.659975 11.828344 33.935664 11.828344 47.5977-0.00206z" fill="#9BE69D" /><path d="M440.549882 367.382254c13.659975 11.830404 33.937724 11.830404 47.5977 0l0.026784-0.022664-188.750778-163.456129c-15.526633-13.445701-35.056483-10.773456-47.624484 0.022663zM913.244776 649.869718L699.430107 520.849913c-15.473064-9.335347-21.738522-28.620018-14.708682-45.267469l97.142409-230.056235c14.970344-35.452066-28.199711-66.81438-57.289483-41.622748l-0.026784 0.022663c10.979488 9.434242 16.645391 25.070072 9.664999 41.600085l-97.142409 230.056235c-7.029839 16.647451-0.764382 35.932122 14.708682 45.267469l213.814669 129.019805c27.37764 16.519711 20.603281 54.322611-4.45855 64.760233l30.227073 2.587772c38.342706 3.282103 54.831512-47.465839 21.882745-67.348005zM594.897301 695.920112c-18.005207-1.541125-34.40954 10.377873-38.507532 27.977195l-56.632239 243.219671c-1.953191 8.391716-6.1542 14.887931-11.581104 19.521609 18.810796 16.062318 52.460074 9.566103 59.232373-19.521609l56.634298-243.219671c2.744357-11.783016 11.014514-20.990623 21.575756-25.348217z" fill="#6FD7A3" /><path d="M648.20829 190.327959l-26.619439 112.576327c-10.816723 45.71868-48.623743 79.343235-94.13639 85.606632-5.068407 0.721115-10.219227 1.071371-15.452461 1.071371s-10.384054-0.350256-15.452461-1.071371c-45.512648-6.263397-83.319668-39.887952-94.13639-85.606632l-26.619439-112.576327c-11.970506-50.601658 5.974951-103.593297 46.213159-136.496737l47.16091-38.548738c24.909367-20.376645 60.759076-20.376645 85.668442 0l47.16091 38.548738c40.238208 32.9055 58.183665 85.897139 46.213159 136.496737z" fill="#EAF6FF" /><path d="M601.98483 53.833283L554.840402 15.282484c-19.091-15.611106-44.579319-19.251706-66.666036-10.946524a67.564339 67.564339 0 0 1 19.016828 10.946524l47.144428 38.550799a135.917784 135.917784 0 0 1 46.227581 136.498796l-26.62562 112.566026c-10.142995 42.881609-44.041573 75.133985-85.761157 84.14998a112.652559 112.652559 0 0 0 23.825634 2.540385c52.206654 0 97.568897-35.884734 109.586791-86.688305l26.62562-112.566025a135.923965 135.923965 0 0 0-46.229641-136.500857z" fill="#C8EFFE" /><path d="M473.018592 803.7309l-31.316987 111.360734a135.940448 135.940448 0 0 1-106.621979 96.95904l-59.934944 10.837326c-31.667243 5.748315-63.004833-11.640854-74.934133-41.556818l-22.519386-56.57661c-19.243464-48.294091-9.23027-103.346057 25.774705-141.791779l77.880402-85.524219c33.583348-36.900476 87.193085-47.0991 131.737378-25.815912 2.060328 0.968354 4.120656 2.039725 6.139778 3.152302 7.149338 3.95583 13.721785 8.612171 19.676133 13.866009 32.058705 28.100815 46.048333 72.708979 34.119033 115.089927z" fill="#EAF6FF" /><path d="M419.223426 674.777025c-24.561171-13.620829-52.422988-17.185197-78.399605-11.574923a112.473311 112.473311 0 0 1 30.748337 11.574923c45.656871 25.321432 67.920776 78.702473 53.788985 128.960056l-31.310806 111.354553a135.915724 135.915724 0 0 1-106.62816 96.950799l-46.060695 8.338147a67.44484 67.44484 0 0 0 33.78526 2.50948l59.924643-10.847627a135.911603 135.911603 0 0 0 106.62816-96.950799l31.310806-111.354553c14.135911-50.257583-8.130055-103.638624-53.786925-128.960056z" fill="#C8EFFE" /><path d="M846.308837 924.752512l-22.519386 56.57661c-11.9293 29.915964-43.26689 47.305133-74.934133 41.556817l-59.934944-10.837325a135.940448 135.940448 0 0 1-106.621979-96.959041l-31.316987-111.360733c-12.197142-43.369906 2.719633-89.067984 36.385394-117.026636 5.33625-4.470912 11.166978-8.467948 17.409772-11.9293 2.905063-1.607056 5.871935-3.090492 8.859411-4.409102 43.988005-19.59372 96.114306-9.086047 129.017745 27.072711l77.880402 85.52422c35.004974 38.445722 45.018169 93.497689 25.774705 141.791779z" fill="#EAF6FF" /><path d="M820.534132 782.964853l-77.880402-85.526279c-27.581612-30.288883-68.660434-42.57874-107.128819-34.236472a112.370294 112.370294 0 0 1 59.479612 34.236472l77.880402 85.526279a135.915724 135.915724 0 0 1 25.776764 141.79178L776.132002 981.335303c-7.540801 18.938536-22.873763 32.84163-41.144752 39.047338l13.863947 2.509479c31.681665 5.735953 63.019255-11.642914 74.930013-41.556817l22.529687-56.57867a135.915724 135.915724 0 0 0-25.776765-141.79178z" fill="#C8EFFE" /><path d="M390.646675 517.901583a112.102452 112.102452 0 0 1-8.653378 23.055072c-0.947751 1.874899-1.957312 3.729194-3.028682 5.542282-24.80635 42.937238-75.140166 64.797319-123.825719 53.032845l-112.452707-27.113917c-50.539848-12.197142-89.706685-52.146904-100.873664-102.933992l-13.083083-59.461069c-6.902099-31.46121 9.29208-63.416899 38.734168-76.438172l55.690668-24.641524c47.552372-21.015347 102.933992-13.083083 142.657118 20.459058l88.388075 74.625083c33.480332 28.288305 46.975481 72.768728 36.447204 113.874334z" fill="#EAF6FF" /><path d="M354.19123 404.025189l-88.381895-74.623023c-31.279901-26.409286-72.261887-36.935502-111.486413-29.957171a135.76532 135.76532 0 0 1 63.837205 29.957171l88.381895 74.623023c39.890012 33.680183 51.399005 90.36187 27.806188 136.933526-15.720303 31.028541-44.280571 52.128361-76.600938 59.147899 49.934112 10.810542 101.061153-13.371529 124.252206-59.147899 23.590757-46.569596 12.081764-103.251282-27.808248-136.933526z" fill="#C8EFFE" /><path d="M995.270558 410.022804l-13.083083 59.461069c-11.166978 50.787088-50.333815 90.736849-100.873664 102.933992l-112.452707 27.113917c-47.820215 11.558441-97.20628-9.312683-122.465902-50.725277-1.565849-2.534204-3.028682-5.15082-4.388499-7.84985a111.921143 111.921143 0 0 1-7.97347-20.500265c-11.74387-41.804057 1.586453-87.563944 35.767296-116.429141l88.388075-74.625083c39.723126-33.542141 95.104745-41.474405 142.657118-20.459058l55.690668 24.641524c29.442089 13.019213 45.636267 44.974902 38.734168 76.438172z" fill="#EAF6FF" /><path d="M956.540511 333.582571l-55.694789-24.631222a135.83125 135.83125 0 0 0-78.819912-9.504294 135.891 135.891 0 0 1 31.168643 9.504294l55.69479 24.631222c29.446209 13.023334 45.640388 44.989324 38.721806 76.434052l-13.083084 59.477552a135.915724 135.915724 0 0 1-100.873663 102.92575l-112.448587 27.120099c-0.867398 0.210153-1.736857 0.381161-2.604255 0.56865a112.316726 112.316726 0 0 0 50.255523-0.56865l112.448587-27.120099a135.915724 135.915724 0 0 0 100.873664-102.92575l13.083083-59.477552c6.918582-31.446788-9.275597-63.410718-38.721806-76.434052z" fill="#C8EFFE" /><path d="M512 667.293913m-15.674976 0a15.674976 15.674976 0 1 0 31.349952 0 15.674976 15.674976 0 1 0-31.349952 0Z" fill="#6FD7A3" /><path d="M512 450.011712m-15.674976 0a15.674976 15.674976 0 1 0 31.349952 0 15.674976 15.674976 0 1 0-31.349952 0Z" fill="#6FD7A3" /><path d="M428.047811 619.805411a15.452461 15.452461 0 0 1-7.579947-28.927007l47.729561-26.605016a15.44834 15.44834 0 0 1 21.04007 5.90696 15.452461 15.452461 0 0 1-5.90696 21.038011l-47.729561 26.605016a15.396832 15.396832 0 0 1-7.553163 1.982036zM603.919478 620.501802a15.372108 15.372108 0 0 1-7.120494-1.749219l-56.471533-29.279322c-7.569645-3.939347-10.513854-13.270573-6.572447-20.840219s13.272634-10.509734 20.840219-6.574507l56.471533 29.279323a15.4504 15.4504 0 0 1 6.572447 20.840218 15.44628 15.44628 0 0 1-13.719725 8.323726z" fill="#6FD7A3" /><path d="M527.452461 342.874651v45.636267c-5.068407 0.721115-10.219227 1.071371-15.452461 1.071371s-10.384054-0.350256-15.452461-1.071371v-45.636267c0-8.529758 6.922702-15.452461 15.452461-15.452461s15.452461 6.924763 15.452461 15.452461z" fill="#C8EFFE" /><path d="M527.452461 370.235808v18.27511c-5.068407 0.721115-10.219227 1.071371-15.452461 1.071371s-10.384054-0.350256-15.452461-1.071371v-3.626177a112.040642 112.040642 0 0 0 30.904922-14.648933z" fill="#99E6FC" /><path d="M512 284.835209a15.452461 15.452461 0 0 1-15.452461-15.452461V185.24925c0-8.535939 6.918582-15.452461 15.452461-15.452461s15.452461 6.916521 15.452461 15.452461v84.135558a15.452461 15.452461 0 0 1-15.452461 15.450401zM390.646675 517.901583a112.102452 112.102452 0 0 1-8.653378 23.055072c-0.947751 1.874899-1.957312 3.729194-3.028682 5.542282l-40.155795-15.57608-133.735897-51.899665a15.458642 15.458642 0 0 1-8.818204-20.005786c3.090492-7.952866 12.032316-11.888093 20.005786-8.797601l129.759464 50.354419z" fill="#C8EFFE" /><path d="M390.646675 517.901583a112.102452 112.102452 0 0 1-8.653378 23.055072c-0.947751 1.874899-1.957312 3.729194-3.028682 5.542282l-40.155795-15.57608c3.873417-9.868972 6.263397-20.088199 7.211149-30.348633z" fill="#99E6FC" /><path d="M826.241241 479.021132l-179.846039 69.783312c-1.565849-2.534204-3.028682-5.15082-4.388499-7.84985a111.921143 111.921143 0 0 1-7.97347-20.500264l181.020427-70.236585c7.97347-3.090492 16.915294 0.844735 20.005786 8.797601 3.090492 7.97347-0.865338 16.915294-8.818205 20.005786zM701.323549 854.78377a15.427737 15.427737 0 0 1-21.077157-5.748315l-92.87959-162.333251c5.33625-4.470912 11.166978-8.467948 17.409772-11.9293 2.905063-1.607056 5.871935-3.090492 8.859411-4.409102l93.435879 163.322208c4.223673 7.417181 1.668866 16.855544-5.748315 21.09776zM438.899559 688.638912l-20.85052 35.025578-74.810513 125.597601a15.468943 15.468943 0 0 1-13.289117 7.561404c-2.69903 0-5.418663-0.700512-7.891056-2.183948a15.44834 15.44834 0 0 1-5.377457-21.180173l82.001059-137.671123 14.401693-24.167649c2.060328 0.968354 4.120656 2.039725 6.139778 3.152302 7.149338 3.95583 13.721785 8.612171 19.676133 13.866008z" fill="#C8EFFE" /><path d="M438.899559 688.638912l-20.85052 35.025578a111.834609 111.834609 0 0 0-19.367084-27.876239l14.401693-24.167649c2.060328 0.968354 4.120656 2.039725 6.139778 3.152302 7.149338 3.95583 13.721785 8.612171 19.676133 13.866008z" fill="#99E6FC" /><path d="M512 557.200281m-47.651268 0a47.651268 47.651268 0 1 0 95.302536 0 47.651268 47.651268 0 1 0-95.302536 0Z" fill="#FFD15B" /><path d="M512 509.549013c-6.920642 0-13.488968 1.487557-19.422713 4.139199 16.633029 7.435724 28.228555 24.11408 28.228555 43.510009s-11.595527 36.074285-28.228555 43.510009a47.445235 47.445235 0 0 0 19.422713 4.139199c26.316571 0 47.651268-21.332637 47.651268-47.651268s-21.334697-47.647148-47.651268-47.647148z" fill="#FFC344" /></svg>