<?xml version="1.0" standalone="no"?><!DOCTYPE svg PUBLIC "-//W3C//DTD SVG 1.1//EN" "http://www.w3.org/Graphics/SVG/1.1/DTD/svg11.dtd"><svg class="icon" width="200px" height="200.00px" viewBox="0 0 1024 1024" version="1.1" xmlns="http://www.w3.org/2000/svg"><path d="M647.772831 71.426124a15.164666 15.164666 0 0 1-6.762429-1.593072 15.239849 15.239849 0 0 1-6.878252-20.425461l20.315735-40.938299a15.243913 15.243913 0 0 1 27.305745 13.549242l-20.315734 40.938298a15.252041 15.252041 0 0 1-13.665065 8.469292z" fill="#3EC3A4" /><path d="M610.238099 494.774907c-20.527061-9.867294-29.193455-34.53553-19.358672-55.109326l14.971627-31.325002c5.486346-11.480686 19.224562-16.324926 30.678832-10.820293l32.91401 15.820995c11.442079 5.50057 16.274127 19.250977 10.791845 30.721504l-14.961467 31.30265c-9.844942 20.592084-34.488794 29.284894-55.036175 19.409472z" fill="#9BE69D" /><path d="M669.429672 413.335185l-32.914009-15.820995c-9.07279-4.360629-19.56187-2.202666-26.26334 4.586179l23.3698 11.232784c11.448175 5.502601 16.280223 19.269265 10.793877 30.749952l-14.951308 31.284362a41.100857 41.100857 0 0 1-19.301776 19.362736c0.034544 0.016256 0.065023 0.038608 0.099567 0.054864 20.537221 9.871358 45.164817 1.178548 55.007727-19.4176l14.951308-31.284362c5.488378-11.478654 0.656329-25.24735-10.791846-30.74792z" fill="#6FD7A3" /><path d="M729.529541 245.241683c-25.552147-12.281286-56.062325 0.603498-65.155434 27.517071l-35.299555 104.482373c-4.830016 16.135952 2.775685 33.395589 17.924095 40.678205 15.150442 7.282616 33.330566 2.416024 42.846327-11.468494l59.104199-93.040295c15.227657-23.965171 6.132515-55.885542-19.419632-68.16886z" fill="#C365AF" /><path d="M729.529541 245.241683c-12.620627-6.06546-26.446218-5.984181-38.306884-1.113525 0.839208 0.345437 1.672319 0.715257 2.501367 1.113525 25.552147 12.281286 34.647289 44.20369 19.423695 68.16886l-59.104198 93.040295a34.015343 34.015343 0 0 1-10.210699 9.710831c1.020054 0.629914 2.068556 1.227316 3.169889 1.757663 15.14841 7.282616 33.330566 2.416024 42.846327-11.466462l59.104199-93.040295c15.223593-23.967203 6.128451-55.889606-19.423696-68.170892z" fill="#B2529F" /><path d="M426.173234 383.519945c20.527061-9.867294 29.193455-34.53553 19.358672-55.109326l-14.971627-31.325002c-5.486346-11.480686-19.224562-16.324926-30.678832-10.820293l-32.91401 15.820995c-11.442079 5.50057-16.274127 19.250977-10.791845 30.721504l14.961467 31.30265c9.844942 20.592084 34.488794 29.284894 55.036175 19.409472z" fill="#9BE69D" /><path d="M445.511587 328.365915l-14.951308-31.284362c-5.486346-11.480686-19.216434-16.326958-30.664608-10.824357l-9.54421 4.586179a22.955277 22.955277 0 0 1 4.401268 6.238178l14.951308 31.284362c9.826655 20.559572 1.198868 45.205456-19.263169 55.109326 10.88938 5.250636 23.961107 5.699704 35.70595 0.054864 20.539253-9.871358 29.207679-34.568042 19.364769-55.16419z" fill="#6FD7A3" /><path d="M306.881792 133.986721c25.552147-12.281286 56.062325 0.603498 65.155435 27.517071l35.299554 104.482373c4.830016 16.135952-2.775685 33.395589-17.924095 40.678205-15.150442 7.282616-33.330566 2.416024-42.846327-11.468494l-59.104199-93.040295c-15.227657-23.965171-6.132515-55.887574 19.419632-68.16886z" fill="#C365AF" /><path d="M407.336781 265.986165l-35.299554-104.484405c-8.798473-26.039822-37.646491-38.944926-62.654068-28.630596 12.155304 4.990543 22.246116 15.008203 26.846518 28.630596l35.299555 104.484405a34.238861 34.238861 0 0 1-14.754206 38.920543c9.623457 5.947605 21.886455 6.922955 32.635628 1.757662 15.150442-7.280584 22.756143-24.542253 17.926127-40.678205z" fill="#B2529F" /><path d="M495.126439 526.559136l-49.860722-202.842391a89.23846 89.23846 0 0 1 14.341714-73.697878l61.050835-84.483627a28.151049 28.151049 0 0 0 4.687778-22.439154L503.270614 51.896766c-3.970489-16.406205 6.071556-32.932298 22.431026-36.914978 16.35947-3.982681 32.838827 6.089844 36.809316 22.494017l22.144516 91.493957c0.04064 0.16459 0.077215 0.331213 0.115823 0.495803a89.441658 89.441658 0 0 1-14.752174 71.942248l-61.052867 84.483627a28.094154 28.094154 0 0 0-4.510995 23.19505l49.860722 202.842391z" fill="#6FD7A3" /><path d="M570.017089 201.407813a89.441658 89.441658 0 0 0 14.752174-71.942248c-0.038608-0.16459-0.075183-0.331213-0.115823-0.495803l-22.142484-91.493957c-3.970489-16.406205-20.449845-26.476698-36.809316-22.494017a30.31714 30.31714 0 0 0-11.098674 5.250636 30.449218 30.449218 0 0 1 11.332352 17.243381l22.144517 91.493957c0.04064 0.16459 0.077215 0.331213 0.115822 0.495803a89.441658 89.441658 0 0 1-14.752173 71.942248l-61.052868 84.483627a28.094154 28.094154 0 0 0-4.510995 23.19505l49.860722 202.842391-24.708875 6.108131 2.094971 8.522124 59.189542-14.630255-49.860722-202.842391a28.086026 28.086026 0 0 1 4.510995-23.19505z" fill="#3EC3A4" /><path d="M604.160447 145.258113c-20.527061-9.867294-29.193455-34.53553-19.358672-55.109326l14.971627-31.325002c5.486346-11.480686 19.224562-16.324926 30.678833-10.820293l32.91401 15.820996c11.442079 5.50057 16.274127 19.250977 10.791845 30.721503l-14.961468 31.30265c-9.844942 20.592084-34.490826 29.284894-55.036175 19.409472z" fill="#9BE69D" /><path d="M663.349989 63.81636l-32.91401-15.820995c-9.07279-4.360629-19.563902-2.202666-26.26334 4.586178l23.3698 11.232785c11.448175 5.502601 16.280223 19.269265 10.793877 30.749951l-14.951307 31.284362a41.100857 41.100857 0 0 1-19.301777 19.362736c0.034544 0.016256 0.065023 0.038608 0.099567 0.054864 20.537221 9.871358 45.164817 1.178548 55.007727-19.4176l14.951308-31.284362c5.488378-11.478654 0.656329-25.245318-10.791845-30.747919z" fill="#6FD7A3" /><path d="M512 748.835382l-106.207524-78.714836v-138.9224a61.058963 61.058963 0 0 1 26.824166-50.584107l45.345663-30.662576a60.691175 60.691175 0 0 1 68.057102 0.024383l45.235936 30.634129a61.060995 61.060995 0 0 1 26.789622 50.559723v140.537824z" fill="#D691C6" /><path d="M512 688.914327a15.237817 15.237817 0 0 1-15.239849-15.239849v-125.391445c0-8.418493 6.821356-15.239849 15.239849-15.239849s15.239849 6.821356 15.239849 15.239849v125.391445a15.239849 15.239849 0 0 1-15.239849 15.239849z" fill="#CD7CBB" /><path d="M591.255343 480.612007l-45.235936-30.634129a60.691175 60.691175 0 0 0-51.947565-7.739811 60.674919 60.674919 0 0 1 16.142048 7.739811l45.235936 30.634129a61.060995 61.060995 0 0 1 26.789622 50.559723v140.537824l-87.974568 63.982982 17.73512 13.142846 106.044965-77.12786v-140.537824c0-20.268999-10.037981-39.21518-26.789622-50.557691z" fill="#CD7CBB" /><path d="M765.794286 909.802731l-47.141933 27.594287a60.729782 60.729782 0 0 1-57.057995 2.296137l-126.267229-60.939076-19.954042-110.539705-3.373087-18.734855 16.560636-8.757833 100.217247-53.095634 124.824524 60.248203a61.01426 61.01426 0 0 1 33.832464 46.166583l7.884082 54.274182c3.576285 24.627596-8.1076 48.950395-29.524667 61.487711z" fill="#D691C6" /><path d="M691.789579 839.475908c-3.759163 7.518326-12.923392 10.566295-20.441718 6.807133l-155.974774-78.068667-3.373087-18.734855 16.560636-8.757833 156.42181 78.292185a15.233753 15.233753 0 0 1 6.807133 20.462037z" fill="#CD7CBB" /><path d="M795.318953 848.317052l-7.890177-54.27215a60.99394 60.99394 0 0 0-33.820273-46.174711l-124.828588-60.238043-17.070663 9.040279 106.093733 51.195732a60.99394 60.99394 0 0 1 33.820273 46.174711l7.890178 54.27215c3.578317 24.617436-8.1076 48.948363-29.530763 61.489743l-47.139901 27.594287a60.640375 60.640375 0 0 1-12.754738 5.592008 60.666791 60.666791 0 0 0 48.562287-5.592008l47.139901-27.594287c21.423164-12.539348 33.107048-36.870275 29.528731-61.487711z" fill="#CD7CBB" /><path d="M512 749.477487L395.220085 687.632148l-124.828588 60.238043a60.99394 60.99394 0 0 0-33.820273 46.174711l-7.890177 54.27215c-3.578317 24.617436 8.1076 48.948363 29.530763 61.489743l47.141933 27.594287a60.683047 60.683047 0 0 0 57.045803 2.285977l126.279421-60.937044z" fill="#DFA8D2" /><path d="M512 749.4592l-3.373087 18.755174-0.670553 3.698203-19.283489 106.821182-78.190585 37.754186-48.076644 23.20521a60.784646 60.784646 0 0 1-57.057995-2.275817l-47.141933-27.614607c-21.417068-12.537316-33.100952-36.860115-29.524667-61.487711l7.884082-54.274182c2.926051-20.075961 15.605605-37.38843 33.832464-46.166583l50.230543-24.241519 74.593981-36.006684 81.157276 42.976374 19.080291 10.09894z" fill="#D691C6" /><path d="M512 749.4592l-3.373087 18.755174-156.056054 78.068667c-2.194538 1.097269-4.510995 1.605264-6.807132 1.605264a15.219529 15.219529 0 0 1-13.634585-8.432717c-3.779483-7.518326-0.711193-16.682555 6.807132-20.441717l156.52341-78.312505z" fill="#CD7CBB" /><path d="M507.95636 771.904449l-19.283489 106.83947-78.190585 37.739962-12.029321-45.441166c-8.717194-33.011545 3.657564-67.979887 31.170571-88.072103l46.755857-34.133198zM476.379393 730.598363v18.237019l-53.075314 17.361236c-32.34912 10.596775-67.868128 0.142239-89.407115-26.287724l-13.268828-16.282254 74.593981-36.006684z" fill="#CD7CBB" /><path d="M558.743665 782.962484l-46.745697-34.127102-46.745697 34.127102c-27.521135 20.092217-39.901989 55.076814-31.170571 88.070071l30.877966 116.680348c12.803505 48.381441 81.273099 48.381441 94.076604 0l30.877966-116.680348c8.733449-32.993257-3.649436-67.977855-31.170571-88.070071z" fill="#C365AF" /><path d="M558.745697 782.962484l-46.745697-34.127102-17.903775 13.069694 28.841923 21.055376c27.521135 20.092217 39.901989 55.076814 31.170571 88.070071l-30.877966 116.680348c-4.480516 16.932488-15.788484 27.917371-29.134528 32.997322 24.78609 9.434483 56.619087-1.550401 64.940045-32.997322l30.877966-116.680348c8.731418-32.991225-3.649436-67.975823-31.168539-88.068039z" fill="#B2529F" /><path d="M675.545932 570.000833l-112.378647 43.281172c-26.533593 10.212731-45.550893 33.210679-51.169317 60.392473l-7.136313 38.664513 7.136313 36.496391 53.067186 17.35514c32.361311 10.596775 67.88032 0.15443 89.421338-26.279596l76.189086-93.460914c31.583063-38.757984-8.536347-94.397657-55.129646-76.449179z" fill="#C365AF" /><path d="M675.545932 570.000833l-0.140207 0.054864c27.582095 11.399407 42.342397 48.316417 19.464335 76.394315l-76.189085 93.460914a82.339888 82.339888 0 0 1-45.922745 28.376599 82.303313 82.303313 0 0 0 81.730294-28.376599l76.189086-93.460914c31.581031-38.757984-8.538379-94.397657-55.131678-76.449179z" fill="#B2529F" /><path d="M348.452036 570.000833l112.378647 43.281172c26.533593 10.212731 45.550893 33.210679 51.169317 60.392473v75.160904l-53.067186 17.35514c-32.361311 10.596775-67.88032 0.15443-89.421338-26.279596l-76.189086-93.460914c-31.581031-38.757984 8.536347-94.397657 55.129646-76.449179z" fill="#C365AF" /><path d="M460.830683 613.282005l-112.378647-43.281172c-12.838049-4.945839-25.176231-4.283414-35.667343 0.054864l112.238441 43.226308c26.533593 10.210699 45.550893 33.210679 51.169317 60.392473v56.137508a26.238956 26.238956 0 0 1-18.082589 24.938489l-34.984598 11.440047c-2.546071 0.833112-5.114493 1.521953-7.693075 2.099035a82.071667 82.071667 0 0 0 43.498593-2.099035l53.067186-17.35514v-75.160904c-5.616392-27.181795-24.633692-50.181775-51.167285-60.392473z" fill="#B2529F" /></svg>