<?xml version="1.0" standalone="no"?><!DOCTYPE svg PUBLIC "-//W3C//DTD SVG 1.1//EN" "http://www.w3.org/Graphics/SVG/1.1/DTD/svg11.dtd"><svg class="icon" width="200px" height="200.00px" viewBox="0 0 1024 1024" version="1.1" xmlns="http://www.w3.org/2000/svg"><path d="M859.73 692.27c-38.59-38.59-64-79.57-64-225.6 0-143.36-97.71-263.68-230.4-298.67V128c0-29.44-23.89-53.33-53.33-53.33-29.44 0-53.33 23.89-53.33 53.33v40c-132.69 34.99-230.4 155.31-230.4 298.67 0 146.03-25.41 187.01-64 225.6-14.19 14.19-18.47 35.52-10.88 54.19 7.59 18.67 25.6 30.87 45.95 30.87h200.53c7.77 53.04 52.95 93.87 107.8 93.87s100.03-40.83 107.8-93.87h201.87c20.35 0 38.36-12.2 45.95-30.87 7.59-18.67 3.31-40-3.56-54.19z m-358.06 121.06c-18.56 0-34.56-11.31-41.39-27.47h82.78c-6.83 16.16-22.83 27.47-41.39 27.47zM260.27 713.33c19.2-48 28.8-112.64 28.8-246.67 0-123.18 100.15-223.33 223.33-223.33 123.18 0 223.33 100.15 223.33 223.33 0 134.03 9.6 198.67 28.8 246.67H260.27z" /></svg>
