<?xml version="1.0" standalone="no"?><!DOCTYPE svg PUBLIC "-//W3C//DTD SVG 1.1//EN" "http://www.w3.org/Graphics/SVG/1.1/DTD/svg11.dtd"><svg class="icon" width="200px" height="200.00px" viewBox="0 0 1024 1024" version="1.1" xmlns="http://www.w3.org/2000/svg"><path d="M874.67 128H661.33c-56.89 0-109.33 19.2-149.33 52.05C472 147.2 419.56 128 362.67 128H149.33C114.15 128 85.33 156.82 85.33 192v576c0 35.18 28.82 64 64 64h213.34c47.06 0 85.33 38.27 85.33 85.33 0 17.67 14.33 32 32 32s32-14.33 32-32c0-47.06 38.27-85.33 85.33-85.33h213.34c35.18 0 64-28.82 64-64V192c0-35.18-28.82-64-64-64zM480 750.93c-30.93-17.6-67.2-27.6-106.67-27.6H149.33V192h213.34C427.73 192 480 244.27 480 309.33v441.6z m394.67-27.6H661.33c-39.47 0-75.73 10-106.67 27.6V309.33C554.67 244.27 606.93 192 672 192h213.34v541.33z" /></svg>
