<?xml version="1.0" standalone="no"?><!DOCTYPE svg PUBLIC "-//W3C//DTD SVG 1.1//EN" "http://www.w3.org/Graphics/SVG/1.1/DTD/svg11.dtd"><svg class="icon" width="200px" height="200.00px" viewBox="0 0 1024 1024" version="1.1" xmlns="http://www.w3.org/2000/svg"><path d="M819.03 887.52H205.98c-77.49 0-140.54-64.32-140.54-143.39v-355.4c0-79.07 63.05-143.39 140.54-143.39h613.05c77.49 0 140.52 64.32 140.52 143.39v355.4c0.01 79.08-63.03 143.39-140.52 143.39zM205.98 305.2c-44.48 0-80.69 37.47-80.69 83.53v355.4c0 46.06 36.2 83.53 80.69 83.53h613.05c44.48 0 80.67-37.47 80.67-83.53v-355.4c0-46.06-36.18-83.53-80.67-83.53H205.98zM512.48 720.43c-86.2 0-156.33-71.6-156.33-159.6s70.13-159.6 156.33-159.6 156.33 71.6 156.33 159.6-70.13 159.6-156.33 159.6z m0-259.34c-53.19 0-96.47 44.75-96.47 99.74 0 55 43.28 99.74 96.47 99.74s96.47-44.75 96.47-99.74c0-54.99-43.28-99.74-96.47-99.74zM541.45 188.23H794.25c38.52 0 38.58-59.86 0-59.86H541.45c-38.52 0-38.58 59.86 0 59.86z" /></svg>