<?xml version="1.0" standalone="no"?><!DOCTYPE svg PUBLIC "-//W3C//DTD SVG 1.1//EN" "http://www.w3.org/Graphics/SVG/1.1/DTD/svg11.dtd"><svg class="icon" width="200px" height="200.00px" viewBox="0 0 1024 1024" version="1.1" xmlns="http://www.w3.org/2000/svg"><path d="M736 128h-52.42c-15.89-45.78-59.11-78.77-109.58-78.77S464.31 82.22 448.42 128H384c-70.69 0-128 57.31-128 128v544c0 70.69 57.31 128 128 128h352c70.69 0 128-57.31 128-128V256c0-70.69-57.31-128-128-128z m-162.43-14.77c0.17 0 0.33-0.03 0.5-0.03h0.56c0.23 0 0.45 0.03 0.68 0.03h-1.74z m26.43 78.77h-176c-17.67 0-32-14.33-32-32 0-35.35 28.65-64 64-64h112c35.35 0 64 28.65 64 64 0 17.67-14.33 32-32 32z m200 608c0 35.35-28.65 64-64 64H384c-35.35 0-64-28.65-64-64V256c0-35.35 28.65-64 64-64h27.58c-1.02 6.91-3.58 21.06-3.58 32 0 53.02 42.98 96 96 96h112c53.02 0 96-42.98 96-96 0-10.94-2.56-25.09-3.58-32H736c35.35 0 64 28.65 64 64v544zM416 512h192c17.67 0 32-14.33 32-32s-14.33-32-32-32H416c-17.67 0-32 14.33-32 32s14.33 32 32 32z m0 128h256c17.67 0 32-14.33 32-32s-14.33-32-32-32H416c-17.67 0-32 14.33-32 32s14.33 32 32 32z m0 128h192c17.67 0 32-14.33 32-32s-14.33-32-32-32H416c-17.67 0-32 14.33-32 32s14.33 32 32 32z" /></svg>
