<?xml version="1.0" standalone="no"?><!DOCTYPE svg PUBLIC "-//W3C//DTD SVG 1.1//EN" "http://www.w3.org/Graphics/SVG/1.1/DTD/svg11.dtd"><svg class="icon" width="200px" height="200.00px" viewBox="0 0 1024 1024" version="1.1" xmlns="http://www.w3.org/2000/svg"><path d="M511.58 959.73c-246.89 0-447.75-200.86-447.75-447.75S264.69 64.22 511.58 64.22s447.75 200.86 447.75 447.75-200.86 447.76-447.75 447.76z m0-842.83c-217.85 0-395.08 177.24-395.08 395.08s177.23 395.08 395.08 395.08 395.08-177.24 395.08-395.08S729.43 116.9 511.58 116.9zM713.34 309.15a26.347 26.347 0 0 0-25.79-6.72l-289.86 81.96a26.347 26.347 0 0 0-18.18 18.18l-81.96 289.86a26.32 26.32 0 0 0 6.72 25.79 26.343 26.343 0 0 0 18.62 7.72c2.39 0 4.8-0.33 7.17-0.99l289.86-81.96a26.347 26.347 0 0 0 18.18-18.18l81.96-289.86c2.6-9.18 0.02-19.06-6.72-25.8zM417.98 460.11l144.41 144.4-201.33 56.92 56.92-201.32z m181.65 107.15l-144.41-144.4 201.33-56.92-56.92 201.32z" /></svg>