<?xml version="1.0" standalone="no"?><!DOCTYPE svg PUBLIC "-//W3C//DTD SVG 1.1//EN" "http://www.w3.org/Graphics/SVG/1.1/DTD/svg11.dtd"><svg class="icon" width="200px" height="200.00px" viewBox="0 0 1024 1024" version="1.1" xmlns="http://www.w3.org/2000/svg"><path d="M776.54 135.62h-61.76v-16.13-18.6c0-17.95-15.78-35.14-34.31-34.31-18.59 0.83-34.31 15.08-34.31 34.31v34.73H378.53v-16.13-18.6c0-17.95-15.78-35.14-34.31-34.31-18.59 0.83-34.31 15.08-34.31 34.31v34.73h-61.77c-85.14 0-154.41 69.26-154.41 154.41v513.43c0 85.15 69.27 154.41 154.41 154.41h528.42c85.14 0 154.41-69.26 154.41-154.41V290.03c-0.02-85.15-69.29-154.41-154.43-154.41z m-528.42 68.63h61.77V251.01c0 17.95 15.78 35.14 34.31 34.31 18.59-0.83 34.31-15.08 34.31-34.31v-46.76h267.63V251.01c0 17.95 15.78 35.14 34.31 34.31 18.59-0.83 34.31-15.08 34.31-34.31v-46.76h61.76c47.29 0 85.78 38.48 85.78 85.78v103.82H162.34V290.03c0-47.3 38.49-85.78 85.78-85.78z m528.42 684.99H248.12c-47.29 0-85.78-38.48-85.78-85.78V462.48h699.99v340.98c0 47.31-38.49 85.78-85.79 85.78zM263.79 603.95h165.62c17.95 0 35.14-15.78 34.31-34.31-0.83-18.59-15.08-34.31-34.31-34.31H263.79c-17.95 0-35.14 15.78-34.31 34.31 0.83 18.59 15.07 34.31 34.31 34.31zM741.32 698.09H263.79c-44.16 0-44.23 68.63 0 68.63H741.32c44.16 0 44.23-68.63 0-68.63z" /></svg>