<?xml version="1.0" standalone="no"?><!DOCTYPE svg PUBLIC "-//W3C//DTD SVG 1.1//EN" "http://www.w3.org/Graphics/SVG/1.1/DTD/svg11.dtd"><svg class="icon" width="200px" height="200.00px" viewBox="0 0 1024 1024" version="1.1" xmlns="http://www.w3.org/2000/svg"><path d="M820.8 256h-80v-48c0-53.02-42.98-96-96-96H379.2c-53.02 0-96 42.98-96 96v48h-80c-17.67 0-32 14.33-32 32s14.33 32 32 32h28.86l36.83 525.89c3.52 50.25 45.2 89.31 95.58 89.31h295.06c50.38 0 92.06-39.06 95.58-89.31L791.94 320H820.8c17.67 0 32-14.33 32-32s-14.33-32-32-32zM347.2 208c0-17.67 14.33-32 32-32h265.6c17.67 0 32 14.33 32 32v48H347.2v-48z m344.88 623.4c-1.17 16.75-15.07 29.8-31.85 29.8H364.47c-16.78 0-30.68-13.05-31.85-29.8L296.06 320h432.58l-36.56 511.4zM432 736V416c0-17.67 14.33-32 32-32s32 14.33 32 32v320c0 17.67-14.33 32-32 32s-32-14.33-32-32z m160 0V416c0-17.67 14.33-32 32-32s32 14.33 32 32v320c0 17.67-14.33 32-32 32s-32-14.33-32-32z" /></svg>
