<?xml version="1.0" standalone="no"?><!DOCTYPE svg PUBLIC "-//W3C//DTD SVG 1.1//EN" "http://www.w3.org/Graphics/SVG/1.1/DTD/svg11.dtd"><svg class="icon" width="200px" height="200.00px" viewBox="0 0 1024 1024" version="1.1" xmlns="http://www.w3.org/2000/svg"><path d="M512.28 112.87c-247.06 0-448.07 174.84-448.07 389.75 0 93.1 38.14 182.89 107.52 253.41 0.1 9.12-5.19 29.94-8.47 42.87-9.96 39.2-21.26 83.64 12.16 103.96 7.53 4.56 15.97 6.52 25.33 6.52 22.85-0.02 51.09-11.67 84.27-25.37 18.04-7.45 47.79-19.73 58.2-20.34 53.66 19.02 110.52 28.67 169.06 28.67 247.06 0 448.07-174.84 448.07-389.73 0-214.9-201-389.74-448.07-389.74z m-104.41 427.1c-17.16 0-31.07-13.91-31.07-31.07s13.91-31.08 31.07-31.08 31.07 13.91 31.07 31.08c0 17.15-13.91 31.07-31.07 31.07z m128.73-0.02c-17.15-0.64-30.53-15.06-29.9-32.21 0.64-17.15 15.06-30.54 32.21-29.89 17.15 0.64 30.53 15.06 29.9 32.21-0.64 17.14-15.06 30.53-32.21 29.89z m121.58 4.53c-17.15-0.64-30.53-15.06-29.9-32.21 0.64-17.15 15.06-30.53 32.21-29.89 17.15 0.64 30.53 15.06 29.89 32.21-0.63 17.15-15.05 30.54-32.2 29.89z" /></svg>