<?xml version="1.0" standalone="no"?><!DOCTYPE svg PUBLIC "-//W3C//DTD SVG 1.1//EN" "http://www.w3.org/Graphics/SVG/1.1/DTD/svg11.dtd"><svg class="icon" width="200px" height="200.00px" viewBox="0 0 1024 1024" version="1.1" xmlns="http://www.w3.org/2000/svg"><path d="M200.74 909.71c-9.35 0-17.78-1.95-25.29-6.5-33.44-20.32-22.16-64.74-12.2-103.96 3.28-12.93 8.57-33.78 8.47-42.89-69.36-70.5-107.5-160.3-107.5-253.42 0-214.9 200.99-389.74 448.06-389.74s448.08 174.84 448.08 389.74c0 214.92-201.01 389.76-448.08 389.76-58.5 0-115.36-9.65-169.06-28.67-10.41 0.61-40.18 12.89-58.24 20.34-33.18 13.69-61.41 25.34-84.24 25.34z m311.53-736.16c-213.78 0-387.7 147.76-387.7 329.38 0 78.44 33.07 154.44 93.12 214.04 22.93 22.77 13.75 58.89 4.07 97.13-2.34 9.22-5.7 22.4-7.41 32.58 14.01-4.24 34.01-12.5 47.59-18.1 46.49-19.22 76.2-30.5 99.58-22.11 47.75 17.15 98.48 25.86 150.75 25.86 213.78 0 387.72-147.76 387.72-329.4 0-181.61-173.93-329.38-387.72-329.38zM407.86 509.21m-31.08 0a31.08 31.08 0 1 0 62.16 0 31.08 31.08 0 1 0-62.16 0ZM537.75 509.21m-31.08 0a31.08 31.08 0 1 0 62.16 0 31.08 31.08 0 1 0-62.16 0ZM659.34 513.75m-31.08 0a31.08 31.08 0 1 0 62.16 0 31.08 31.08 0 1 0-62.16 0Z" /></svg>