<?xml version="1.0" standalone="no"?><!DOCTYPE svg PUBLIC "-//W3C//DTD SVG 1.1//EN" "http://www.w3.org/Graphics/SVG/1.1/DTD/svg11.dtd"><svg class="icon" width="200px" height="200.00px" viewBox="0 0 1024 1024" version="1.1" xmlns="http://www.w3.org/2000/svg"><path d="M834.56 189.44c-48.58-48.58-127.33-48.58-175.91 0L191.38 656.71c-5.98 5.98-10.24 13.41-12.32 21.5L128.1 862.97c-4.99 19.48 0.75 40.16 15.04 54.45 10.65 10.65 24.87 16.38 39.47 16.38 4.95 0 9.95-0.65 14.87-1.98l184.76-50.96c8.09-2.08 15.52-6.34 21.5-12.32L871.01 401.27c48.58-48.58 48.58-127.33 0-175.91l-36.45-35.92zM363.52 827.6l-136.76 37.72 37.72-136.76 367.58-367.58 99.04 99.04-367.58 367.58z m470.22-469.6l-59.37 59.37-99.04-99.04 59.37-59.37c23.15-23.15 60.78-23.15 83.93 0l15.11 15.11c23.15 23.15 23.15 60.78 0 83.93z" /></svg>
