<?xml version="1.0" standalone="no"?><!DOCTYPE svg PUBLIC "-//W3C//DTD SVG 1.1//EN" "http://www.w3.org/Graphics/SVG/1.1/DTD/svg11.dtd"><svg class="icon" width="200px" height="200.00px" viewBox="0 0 1024 1024" version="1.1" xmlns="http://www.w3.org/2000/svg"><path d="M861.42 172.03H161.09c-53.42 0-96.88 43.46-96.88 96.88v484.53c0 53.42 43.46 96.88 96.88 96.88h700.33c53.42 0 96.88-43.46 96.88-96.88V268.91c0-53.42-43.46-96.88-96.88-96.88z m-700.33 64.59h700.33c17.81 0 32.29 14.49 32.29 32.29v21.64L511.26 557.9 128.8 290.44v-21.52c0-17.81 14.49-32.3 32.29-32.3z m700.33 549.12H161.09c-17.81 0-32.29-14.49-32.29-32.29v-384.2l363.96 254.51a32.191 32.191 0 0 0 18.5 5.82c6.48 0 12.95-1.93 18.5-5.82l363.96-254.41v384.09c-0.01 17.81-14.49 32.3-32.3 32.3z" /></svg>