<?xml version="1.0" standalone="no"?><!DOCTYPE svg PUBLIC "-//W3C//DTD SVG 1.1//EN" "http://www.w3.org/Graphics/SVG/1.1/DTD/svg11.dtd"><svg class="icon" width="200px" height="200.00px" viewBox="0 0 1024 1024" version="1.1" xmlns="http://www.w3.org/2000/svg"><path d="M506.31 680.61c-93.13 0-168.9-75.77-168.9-168.89 0-93.13 75.77-168.9 168.9-168.9s168.9 75.77 168.9 168.9c-0.01 93.13-75.77 168.89-168.9 168.89z m0-279.54c-61.02 0-110.66 49.64-110.66 110.66s49.64 110.65 110.66 110.65 110.66-49.63 110.66-110.65-49.65-110.66-110.66-110.66zM517.24 815.55c-193.26 0-370.05-113.71-450.39-289.68-3.73-8.18-3.49-17.63 0.68-25.59 85.81-164.01 253.94-265.9 438.78-265.9 193.25 0 370.04 113.7 450.39 289.68 3.73 8.18 3.49 17.63-0.68 25.59-85.82 164.01-253.94 265.9-438.78 265.9zM126 514.65c73.5 147.88 225.51 242.66 391.23 242.66 158.29 0 302.71-84.7 380.3-222.03-73.5-147.88-225.51-242.66-391.22-242.66-158.29 0-302.71 84.71-380.31 222.03z" /></svg>