<?xml version="1.0" standalone="no"?><!DOCTYPE svg PUBLIC "-//W3C//DTD SVG 1.1//EN" "http://www.w3.org/Graphics/SVG/1.1/DTD/svg11.dtd"><svg class="icon" width="200px" height="200.00px" viewBox="0 0 1024 1024" version="1.1" xmlns="http://www.w3.org/2000/svg"><path d="M512.34 959.22c-247.03 0-448.01-200.98-448.01-448.01S265.31 63.2 512.34 63.2s448.01 200.98 448.01 448.01-200.98 448.01-448.01 448.01z m0-843.31c-217.97 0-395.3 177.34-395.3 395.3s177.33 395.3 395.3 395.3 395.3-177.34 395.3-395.3-177.32-395.3-395.3-395.3zM332.26 482.8c-14.56 0-26.35-11.8-26.35-26.35v-57.24c0-14.55 11.8-26.35 26.35-26.35 14.56 0 26.35 11.8 26.35 26.35v57.24c0 14.55-11.79 26.35-26.35 26.35zM692.43 482.8c-14.56 0-26.35-11.8-26.35-26.35v-57.24c0-14.55 11.8-26.35 26.35-26.35 14.56 0 26.35 11.8 26.35 26.35v57.24c0 14.55-11.8 26.35-26.35 26.35zM617.76 730.83H406.93c-14.56 0-26.35-11.8-26.35-26.35s11.8-26.35 26.35-26.35h210.83c14.56 0 26.35 11.8 26.35 26.35s-11.79 26.35-26.35 26.35z" /></svg>