<?xml version="1.0" standalone="no"?><!DOCTYPE svg PUBLIC "-//W3C//DTD SVG 1.1//EN" "http://www.w3.org/Graphics/SVG/1.1/DTD/svg11.dtd"><svg class="icon" width="200px" height="200.00px" viewBox="0 0 1024 1024" version="1.1" xmlns="http://www.w3.org/2000/svg"><path d="M512.33 959.22c-247.02 0-448-200.98-448-448s200.98-448 448-448 448 200.98 448 448-200.97 448-448 448z m0-843.29c-217.97 0-395.29 177.33-395.29 395.29s177.32 395.29 395.29 395.29 395.29-177.33 395.29-395.29S730.3 115.93 512.33 115.93zM332.25 465.24c-14.56 0-26.35-11.8-26.35-26.35v-57.24c0-14.55 11.8-26.35 26.35-26.35 14.56 0 26.35 11.8 26.35 26.35v57.24c0.01 14.55-11.79 26.35-26.35 26.35zM692.41 465.24c-14.56 0-26.35-11.8-26.35-26.35v-57.24c0-14.55 11.8-26.35 26.35-26.35 14.56 0 26.35 11.8 26.35 26.35v57.24c0 14.55-11.79 26.35-26.35 26.35zM729.75 565.03H294.92c-14.56 0-26.35 11.8-26.35 26.35 0 134.41 109.35 243.76 243.76 243.76S756.1 725.79 756.1 591.38c0-14.55-11.8-26.35-26.35-26.35z m-174.13 52.7c-6.37 17.85-23.27 30.75-43.28 30.75s-36.92-12.89-43.28-30.75h86.56z m-43.29 164.71c-96.41 0-176.37-71.78-189.25-164.71h91.75c7.42 47.2 48.25 83.45 97.5 83.45s90.08-36.25 97.5-83.45h91.75c-12.87 92.92-92.83 164.71-189.25 164.71z" /></svg>