<?xml version="1.0" standalone="no"?><!DOCTYPE svg PUBLIC "-//W3C//DTD SVG 1.1//EN" "http://www.w3.org/Graphics/SVG/1.1/DTD/svg11.dtd"><svg class="icon" width="200px" height="200.00px" viewBox="0 0 1024 1024" version="1.1" xmlns="http://www.w3.org/2000/svg"><path d="M512.02 959.25c-246.85 0-447.69-200.84-447.69-447.69S265.17 63.87 512.02 63.87 959.71 264.7 959.71 511.56 758.88 959.25 512.02 959.25z m0-842.71C294.2 116.54 117 293.75 117 511.56s177.2 395.02 395.02 395.02 395.02-177.21 395.02-395.02-177.2-395.02-395.02-395.02zM512.02 781.49c-94.38 0-171.18-76.79-171.18-171.18 0-14.54 11.79-26.33 26.33-26.33 14.55 0 26.33 11.8 26.33 26.33 0 65.34 53.16 118.51 118.51 118.51s118.51-53.17 118.51-118.51c0-14.54 11.79-26.33 26.33-26.33s26.33 11.8 26.33 26.33c0.02 94.39-76.77 171.18-171.16 171.18zM332.07 483.17c-14.55 0-26.33-11.8-26.33-26.33v-57.2c0-14.54 11.79-26.33 26.33-26.33 14.55 0 26.33 11.8 26.33 26.33v57.2c0 14.53-11.78 26.33-26.33 26.33zM691.98 483.17c-14.55 0-26.33-11.8-26.33-26.33v-57.2c0-14.54 11.79-26.33 26.33-26.33 14.55 0 26.33 11.8 26.33 26.33v57.2c0 14.53-11.79 26.33-26.33 26.33z" /></svg>