<?xml version="1.0" standalone="no"?><!DOCTYPE svg PUBLIC "-//W3C//DTD SVG 1.1//EN" "http://www.w3.org/Graphics/SVG/1.1/DTD/svg11.dtd"><svg class="icon" width="200px" height="200.00px" viewBox="0 0 1024 1024" version="1.1" xmlns="http://www.w3.org/2000/svg"><path d="M512.14 959.56c-246.92 0-447.81-200.89-447.81-447.81s200.89-447.8 447.81-447.8 447.81 200.89 447.81 447.81-200.89 447.8-447.81 447.8z m0-842.93c-217.88 0-395.12 177.26-395.12 395.12s177.25 395.12 395.12 395.12 395.12-177.26 395.12-395.12-177.25-395.12-395.12-395.12zM657.02 781.75c-14.55 0-26.34-11.8-26.34-26.34 0-65.36-53.17-118.54-118.54-118.54S393.6 690.05 393.6 755.41c0 14.54-11.79 26.34-26.34 26.34s-26.34-11.8-26.34-26.34c0-94.41 76.81-171.22 171.22-171.22S683.36 661 683.36 755.41c0 14.54-11.79 26.34-26.34 26.34zM332.14 483.35c-14.55 0-26.34-11.8-26.34-26.34V399.8c0-14.54 11.79-26.34 26.34-26.34s26.34 11.8 26.34 26.34v57.21c0 14.54-11.79 26.34-26.34 26.34zM692.14 483.35c-14.55 0-26.34-11.8-26.34-26.34V399.8c0-14.54 11.79-26.34 26.34-26.34s26.34 11.8 26.34 26.34v57.21c0 14.54-11.79 26.34-26.34 26.34z" /></svg>