<?xml version="1.0" standalone="no"?><!DOCTYPE svg PUBLIC "-//W3C//DTD SVG 1.1//EN" "http://www.w3.org/Graphics/SVG/1.1/DTD/svg11.dtd"><svg class="icon" width="200px" height="200.00px" viewBox="0 0 1024 1024" version="1.1" xmlns="http://www.w3.org/2000/svg"><path d="M954.6 689.42c0.34-0.46 0.65-0.94 0.96-1.43 4.44-6.28 5.18-13.87 3.15-21.17L917.52 255.2c-2.02-20.15-4.03-40.3-6.05-60.45-2.48-24.81-24.07-36.69-46.62-26.75-69.67 30.7-145.36 59.54-222.23 63.41-43.37 2.18-86.46-5.92-122.07-23.28-34.05-16.6-64.65-39.18-97.99-57.04-38.88-20.83-80.32-33.71-124.55-35.6-75.88-3.24-150.18 23.29-218.89 52.51-13.51 5.75-16.1 22.56-14.24 34.99 20.82 138.73 41.65 277.47 62.47 416.2 2.98 19.89 5.97 39.78 8.96 59.66 9.48 60.52 18.96 121.03 28.45 181.54 1.35 8.59 2.69 17.18 4.04 25.78 2.59 16.54 23.29 25.71 38.11 21.64 17.64-4.85 24.24-21.52 21.64-38.11l-28.2-179.99c52.08-21.07 108.23-38.49 164.5-36.46 36.83 1.33 66.44 12.87 98.56 32.45 30.74 18.74 59.21 41.14 91.9 56.61 42.53 20.13 88.28 29.16 135.34 27.06 86.95-3.88 170.43-35.73 249.29-70.34 5.63-1.49 10.59-4.45 14.1-8.92 0.18-0.23 0.37-0.46 0.56-0.69z" /></svg>