<?xml version="1.0" standalone="no"?><!DOCTYPE svg PUBLIC "-//W3C//DTD SVG 1.1//EN" "http://www.w3.org/Graphics/SVG/1.1/DTD/svg11.dtd"><svg class="icon" width="200px" height="200.00px" viewBox="0 0 1024 1024" version="1.1" xmlns="http://www.w3.org/2000/svg"><path d="M955.17 693.26c0.34-0.46 0.65-0.94 0.96-1.43 4.45-6.29 5.19-13.89 3.16-21.2-13.76-137.45-27.51-274.9-41.27-412.35l-6.06-60.56c-2.49-24.85-24.11-36.75-46.7-26.8-69.79 30.75-145.62 59.65-222.62 63.52-43.45 2.19-86.62-5.93-122.29-23.32-34.1-16.64-64.76-39.25-98.16-57.14-38.95-20.87-80.46-33.77-124.77-35.67-76.01-3.25-150.45 23.33-219.28 52.61-13.54 5.76-16.13 22.6-14.26 35.05l62.58 416.94 8.97 59.77 28.5 181.86 4.05 25.82c2.6 16.57 23.33 25.76 38.18 21.68 17.68-4.86 24.28-21.56 21.68-38.18-9.41-60.1-18.83-120.2-28.25-180.31 52.17-21.1 108.42-38.56 164.79-36.52 36.89 1.33 66.56 12.9 98.73 32.51 30.8 18.77 59.32 41.21 92.06 56.71 42.6 20.16 88.43 29.21 135.58 27.11 87.1-3.89 170.73-35.79 249.73-70.46 5.64-1.49 10.61-4.46 14.13-8.94 0.17-0.24 0.37-0.47 0.56-0.7z m-378.33-5.43c-31.91-16.63-60.09-39.26-91.23-57.14-36.83-21.15-76.79-33.78-119.34-35.67-60.39-2.68-119.89 14.43-176.22 36.23-19.12-127.34-38.23-254.68-57.34-382.02-1.62-10.77-3.23-21.53-4.85-32.3 53.11-21.4 110.2-38.63 167.59-36.62 38.42 1.34 71.89 13.77 104.87 32.51 33.11 18.8 64.14 41.05 98.99 56.71 44.53 20.01 92.15 29.23 141.01 27.11 74.09-3.22 145.61-26.17 214.04-54.21l37.17 371.44c1.38 13.75 2.75 27.49 4.13 41.24-64.09 27.52-132.92 52.44-202.68 56.05-42.21 2.17-82.04-5.56-116.14-23.33z" /></svg>