<?xml version="1.0" standalone="no"?><!DOCTYPE svg PUBLIC "-//W3C//DTD SVG 1.1//EN" "http://www.w3.org/Graphics/SVG/1.1/DTD/svg11.dtd"><svg class="icon" width="200px" height="200.00px" viewBox="0 0 1024 1024" version="1.1" xmlns="http://www.w3.org/2000/svg"><path d="M947.29 449.08c-4.07-15.75-22.07-62.26-92.5-62.9-33.22-0.3-178.31-0.13-238.04-0.04-13.86 0.02-24.65-11.93-23.29-25.72l19.67-198.99c0.43-4.35-0.3-8.67-2.26-12.58-10.13-20.27-45.59-84.62-87.76-84.62h-51.34c-10.93 0-20.4 7.56-22.83 18.21l-16.28 71.39c-0.16 0.71-0.36 1.42-0.59 2.11l-89.9 273.36c-0.77 2.36-1.17 4.83-1.17 7.32v499.54c0 12.93 10.48 23.42 23.42 23.42h415.53c65.04 0 85.81-52.48 89.2-62.56 0.37-1.1 0.6-2.07 0.8-3.22l77.62-435.05c0.58-3.26 0.54-6.48-0.28-9.67zM252.07 447.19H117.26c-21.4 0-38.74 17.35-38.74 38.74v452.53c0 11.65 9.45 21.1 21.1 21.1h152.45c11.65 0 21.1-9.45 21.1-21.1V468.29c0-11.66-9.45-21.1-21.1-21.1z" /></svg>