<?xml version="1.0" standalone="no"?><!DOCTYPE svg PUBLIC "-//W3C//DTD SVG 1.1//EN" "http://www.w3.org/Graphics/SVG/1.1/DTD/svg11.dtd"><svg class="icon" width="200px" height="200.00px" viewBox="0 0 1024 1024" version="1.1" xmlns="http://www.w3.org/2000/svg"><path d="M831.29 362.64c-28.83-0.27-148.46-0.13-209.31-0.06l17.68-178.89a32.61 32.61 0 0 0-2.69-16.48c-7.74-17.26-49.56-103.34-113.79-103.34h-64.97c-15.17 0-28.3 10.49-31.68 25.28l-18.85 82.64-81.38 247.48H110.6c-17.94 0-32.49 14.55-32.49 32.49v475.49c0 17.94 14.55 32.49 32.49 32.49h650.93c72.38 0 106.6-54.57 114.57-83.42 0.27-0.97 0.51-1.97 0.68-2.96L949.82 464c0.59-3.28 0.66-6.62 0.23-9.92-4.08-31.28-34.15-90.65-118.76-91.44z m-688.2 121.6h170.14v410.51H143.09V484.24z m670.08 375.8c-2.05 6.09-13.66 34.71-51.63 34.71H378.2V460.28c2.98-3.29 5.38-7.2 6.85-11.68l84.84-257.95c0.32-0.97 0.59-1.95 0.82-2.94l13.41-58.86h39.07c13.01 0 36.63 29.46 50.91 57.49l-20.33 205.61a32.517 32.517 0 0 0 8.29 25.02 32.451 32.451 0 0 0 24.05 10.66h0.06s205.56-0.36 244.52 0c39.74 0.36 50.97 20.96 54.04 31.2l-71.56 401.21z" /></svg>