<?xml version="1.0" standalone="no"?><!DOCTYPE svg PUBLIC "-//W3C//DTD SVG 1.1//EN" "http://www.w3.org/Graphics/SVG/1.1/DTD/svg11.dtd"><svg class="icon" width="200px" height="200.00px" viewBox="0 0 1024 1024" version="1.1" xmlns="http://www.w3.org/2000/svg"><path d="M850.57 142.78C785.93 94.4 700.7 84.51 627.44 118.85c-19.46 9.12-37.18 21.54-53.43 35.54-17.27 14.87-30.57 36.63-54.63 40.53-26.03 4.22-41.22-10.43-58.4-27.15-16.27-15.84-34.73-30.11-54.65-41.05-72.56-39.83-162.03-35.09-229.42 13.37C105.24 191.63 54.67 291.16 65.73 380.6c6.84 55.28 34.06 112.85 58.52 162.36 23.07 46.69 50.87 90.9 82.38 132.34 52.1 68.51 113.19 128.79 181.59 180.95 25 19.06 52.43 42.22 82.24 53.1 49.42 18.04 90.13-4.04 128.77-33.01 81.78-61.32 159.94-128.91 226.3-206.92 69.88-82.15 133.43-181.46 134.83-292.82-0.97-90.27-36.19-178.73-109.79-233.82z" /></svg>