<?xml version="1.0" standalone="no"?><!DOCTYPE svg PUBLIC "-//W3C//DTD SVG 1.1//EN" "http://www.w3.org/Graphics/SVG/1.1/DTD/svg11.dtd"><svg class="icon" width="200px" height="200.00px" viewBox="0 0 1024 1024" version="1.1" xmlns="http://www.w3.org/2000/svg"><path d="M899.72 376.39c-1.06 84.15-46.79 161.77-97.42 226.2-53.84 68.51-118.24 128.79-185.62 183.77-24.07 19.64-48.53 39.44-74.25 56.9-35.38 24.01-63.03 4.75-93.11-16.28-55.92-39.1-107.14-85.08-152.64-135.91-61.5-68.69-112.39-148.32-145.71-234.45-8.64-22.33-16.5-45.12-22.75-68.25-6.3-23.26-3.49-46.62 1.63-69.96 8.26-37.65 24.54-73.94 50.74-102.57 44.99-49.19 113.37-71.11 176.92-46.31 16.77 6.54 32.79 16.28 46.72 27.64 17.4 14.18 30.92 32.73 50.89 43.69 40.02 21.96 89.61 17.68 125.26-10.67 17.66-14.04 31.08-32.1 50.02-44.84 15.98-10.75 32.93-18.7 51.61-23.44 33.28-8.44 68.92-4.56 100.14 9.6 79.18 35.93 116.69 121.81 117.57 204.88 0.41 38.33 60.02 38.43 59.61 0-0.96-90.17-36.15-178.53-109.66-233.55-64.57-48.33-149.69-58.2-222.88-23.9-19.44 9.11-37.13 21.52-53.37 35.5-17.25 14.85-30.54 36.59-54.57 40.48-26 4.21-41.17-10.42-58.34-27.12-16.25-15.82-34.69-30.08-54.59-41-72.46-39.8-161.83-35.07-229.15 13.34-71.59 51.48-122.09 150.9-111.04 240.24 6.83 55.21 34.02 112.72 58.45 162.18 23.04 46.64 50.81 90.8 82.28 132.19 52.05 68.44 113.06 128.64 181.39 180.74 24.97 19.04 52.36 42.17 82.14 53.04 49.37 18.02 90.03-4.03 128.62-32.97 81.69-61.25 159.75-128.76 226.04-206.68 69.8-82.05 133.28-181.25 134.67-292.49 0.49-38.37-59.11-38.39-59.6 0z" /></svg>