<?xml version="1.0" standalone="no"?><!DOCTYPE svg PUBLIC "-//W3C//DTD SVG 1.1//EN" "http://www.w3.org/Graphics/SVG/1.1/DTD/svg11.dtd"><svg class="icon" width="200px" height="200.00px" viewBox="0 0 1024 1024" version="1.1" xmlns="http://www.w3.org/2000/svg"><path d="M512 64.33c-247.42 0-448 200.58-448 448s200.58 448 448 448 448-200.58 448-448-200.58-448-448-448z m0 843.35c-218.07 0-395.35-177.28-395.35-395.35S293.93 117 512 117s395.35 177.28 395.35 395.35S730.07 907.68 512 907.68zM512 298.67c-23.56 0-42.67 19.1-42.67 42.67 0 23.56 19.1 42.67 42.67 42.67 23.56 0 42.67-19.1 42.67-42.67 0-23.57-19.11-42.67-42.67-42.67z m0 170.66c-17.67 0-32 14.33-32 32v213.34c0 17.67 14.33 32 32 32s32-14.33 32-32V501.33c0-17.67-14.33-32-32-32z" /></svg>
