<?xml version="1.0" standalone="no"?><!DOCTYPE svg PUBLIC "-//W3C//DTD SVG 1.1//EN" "http://www.w3.org/Graphics/SVG/1.1/DTD/svg11.dtd"><svg class="icon" width="200px" height="200.00px" viewBox="0 0 1024 1024" version="1.1" xmlns="http://www.w3.org/2000/svg"><path d="M873.6 150.4c-6.27-6.27-14.76-9.6-23.6-9.6-2.94 0-5.91 0.39-8.8 1.18C718.4 178.56 576 236.8 460.8 352c-99.84 99.84-156.16 217.6-172.8 286.72L172.8 523.52c-12.5-12.5-32.77-12.5-45.25 0-12.5 12.5-12.5 32.77 0 45.25l176 176c6.25 6.25 14.44 9.38 22.63 9.38 8.19 0 16.37-3.12 22.63-9.38 0.58-0.58 1.08-1.21 1.61-1.82 13.42 9.17 27.16 17.23 40.78 23.67 53.76 25.41 106.24 30.37 143.83 30.37 60.99 0 98.17-10.62 100.74-11.36 8.85-2.55 15.96-9.01 19.39-17.56 3.43-8.55 2.96-18.13-1.25-26.31-22.91-44.54-34.38-96.24-34.38-148.16 0-87.04 33.79-169.07 95.17-230.45 76.8-76.8 148.48-118.08 190.08-138.88 9.02-4.51 15.14-13.2 16.59-23.57 1.45-10.37-2.55-20.76-10.87-28.2z m-201.38 477.2c-8.18 0.76-16.88 1.2-26.22 1.2-40.32 0-76.53-8.73-108.18-22.66-10.57-4.66-20.67-10.02-30.22-16.14 24.19-48.26 62.72-107.84 122.4-167.52 76.8-76.8 168.96-128 233.6-155.52-27.52 64.64-78.72 156.8-155.52 233.6-14.66 14.66-28.45 27.94-41.58 39.97 4.1 28.49 5.72 57.75 5.72 87.07z" /></svg>
