<?xml version="1.0" standalone="no"?><!DOCTYPE svg PUBLIC "-//W3C//DTD SVG 1.1//EN" "http://www.w3.org/Graphics/SVG/1.1/DTD/svg11.dtd"><svg class="icon" width="200px" height="200.00px" viewBox="0 0 1024 1024" version="1.1" xmlns="http://www.w3.org/2000/svg"><path d="M758.76 141.16h-30.14c-13.51-43.8-53.88-75.93-102.05-75.93H398.01c-48.18 0-88.55 32.13-102.05 75.93h-30.14c-55.46 0-100.58 45.11-100.58 100.58v616.52c0 55.46 45.11 100.59 100.58 100.59h492.95c55.46 0 100.58-45.12 100.58-100.59V241.73c-0.02-55.46-45.13-100.57-100.59-100.57z m-360.75-13.22h228.55c24.58 0 44.56 20 44.56 44.57s-19.98 44.57-44.56 44.57H398.01c-24.58 0-44.56-20-44.56-44.57s19.98-44.57 44.56-44.57z m398.61 730.31c0 20.88-16.98 37.88-37.87 37.88H265.81c-20.88 0-37.87-16.99-37.87-37.88V241.73c0-20.88 16.98-37.87 37.87-37.87h30.14c13.51 43.8 53.88 75.93 102.05 75.93h228.55c48.18 0 88.55-32.13 102.05-75.93h30.14c20.88 0 37.87 16.98 37.87 37.87v616.52zM648.3 377.9H335.58c-17.31 0-31.36 14.03-31.36 31.36s14.04 31.36 31.36 31.36H648.3c17.31 0 31.36-14.03 31.36-31.36s-14.05-31.36-31.36-31.36zM522.88 545.13h-187.3c-17.31 0-31.36 14.03-31.36 31.36s14.04 31.36 31.36 31.36h187.29c17.31 0 31.36-14.03 31.36-31.36s-14.04-31.36-31.35-31.36z" /></svg>