<?xml version="1.0" standalone="no"?><!DOCTYPE svg PUBLIC "-//W3C//DTD SVG 1.1//EN" "http://www.w3.org/Graphics/SVG/1.1/DTD/svg11.dtd"><svg class="icon" width="200px" height="200.00px" viewBox="0 0 1024 1024" version="1.1" xmlns="http://www.w3.org/2000/svg"><path d="M758.34 141.98h-30.09c-13.48-43.73-53.79-75.8-101.88-75.8H398.2c-48.09 0-88.4 32.07-101.88 75.8h-30.09c-55.37 0-100.41 45.04-100.41 100.41v615.46c0 55.37 45.04 100.42 100.41 100.42h492.1c55.37 0 100.41-45.05 100.41-100.42V242.39c0-55.38-45.04-100.41-100.4-100.41z m-360.14-13.2h228.16c24.54 0 44.49 19.96 44.49 44.5s-19.95 44.5-44.49 44.5H398.2c-24.54 0-44.49-19.96-44.49-44.5s19.96-44.5 44.49-44.5z m397.94 729.07c0 20.85-16.96 37.81-37.8 37.81h-492.1c-20.85 0-37.8-16.97-37.8-37.81V242.39c0-20.85 16.96-37.8 37.8-37.8h30.09c13.48 43.73 53.79 75.8 101.88 75.8h228.16c48.09 0 88.4-32.07 101.88-75.8h30.09c20.85 0 37.8 16.96 37.8 37.8v615.46zM556.56 566.64l72.75-72.75 31.49-31.49c28.52-28.52-15.73-72.8-44.27-44.27-34.74 34.74-69.49 69.49-104.24 104.23l-72.75-72.75-31.49-31.49c-28.52-28.52-72.8 15.73-44.27 44.27 34.75 34.75 69.49 69.49 104.23 104.24l-72.75 72.75c-10.49 10.5-20.99 20.99-31.49 31.49-28.52 28.52 15.73 72.81 44.27 44.27 34.75-34.74 69.49-69.49 104.23-104.23l72.75 72.75c10.5 10.49 20.99 20.99 31.49 31.49 28.53 28.53 72.8-15.73 44.27-44.27-34.73-34.75-69.48-69.49-104.22-104.24z" /></svg>