<?xml version="1.0" standalone="no"?><!DOCTYPE svg PUBLIC "-//W3C//DTD SVG 1.1//EN" "http://www.w3.org/Graphics/SVG/1.1/DTD/svg11.dtd"><svg class="icon" width="200px" height="200.00px" viewBox="0 0 1024 1024" version="1.1" xmlns="http://www.w3.org/2000/svg"><path d="M657.44 442.84L523.47 647.73a0.21 0.21 0 0 1-0.04 0.06c-39.8-31.31-79.6-62.63-119.4-93.94-13.29-10.45-31.35-12.97-44.32 0-10.87 10.87-13.38 33.79 0 44.32 49.72 39.12 99.44 78.24 149.16 117.35 16.26 12.8 37.19 12.06 49.22-6.34 44.66-68.3 89.31-136.6 133.97-204.89 6.5-9.94 13-19.88 19.49-29.81 22.15-33.86-32.1-65.3-54.11-31.64zM758.62 141.28h-30.13c-13.5-43.78-53.85-75.89-102-75.89H398.07c-48.15 0-88.5 32.11-102 75.89h-30.13c-55.43 0-100.52 45.09-100.52 100.52v616.18c0 55.43 45.09 100.53 100.52 100.53h492.67c55.43 0 100.52-45.1 100.52-100.53V241.8c0.01-55.43-45.08-100.52-100.51-100.52z m-360.55-13.21h228.42c24.56 0 44.54 19.98 44.54 44.55s-19.97 44.55-44.54 44.55H398.07c-24.56 0-44.54-19.98-44.54-44.55s19.98-44.55 44.54-44.55z m398.4 729.91c0 20.87-16.97 37.86-37.85 37.86H265.95c-20.87 0-37.85-16.99-37.85-37.86V241.8c0-20.87 16.97-37.85 37.85-37.85h30.13c13.5 43.78 53.85 75.89 102 75.89H626.5c48.15 0 88.5-32.11 102-75.89h30.13c20.87 0 37.85 16.97 37.85 37.85v616.18z" /></svg>