<?xml version="1.0" standalone="no"?><!DOCTYPE svg PUBLIC "-//W3C//DTD SVG 1.1//EN" "http://www.w3.org/Graphics/SVG/1.1/DTD/svg11.dtd"><svg class="icon" width="200px" height="200.00px" viewBox="0 0 1024 1024" version="1.1" xmlns="http://www.w3.org/2000/svg"><path d="M750.68 338.45H737.7V217.53c0-84.83-69.02-153.84-153.84-153.84H438.81c-84.82 0-153.84 69.01-153.84 153.84v120.92h-12.98c-91.49 0-165.93 74.43-165.93 165.93v290.11c0 91.49 74.43 165.93 165.93 165.93h478.7c91.49 0 165.93-74.43 165.93-165.93V504.38c-0.01-91.5-74.44-165.93-165.94-165.93zM620.15 685.66H404.18c-18.48 0-32.17-15.11-32.97-32.97-0.8-17.8 15.72-32.97 32.97-32.97h215.97c18.48 0 32.17 15.1 32.97 32.97 0.8 17.8-15.72 32.97-32.97 32.97z m51.61-347.21H350.9V217.53c0-48.47 39.43-87.91 87.91-87.91h145.04c48.48 0 87.91 39.44 87.91 87.91v120.92z" /></svg>