<?xml version="1.0" standalone="no"?><!DOCTYPE svg PUBLIC "-//W3C//DTD SVG 1.1//EN" "http://www.w3.org/Graphics/SVG/1.1/DTD/svg11.dtd"><svg class="icon" width="200px" height="200.00px" viewBox="0 0 1024 1024" version="1.1" xmlns="http://www.w3.org/2000/svg"><path d="M733.27 386.03h-11.98V207.3c0-78.39-63.78-142.16-142.16-142.16H445.09c-78.38 0-142.16 63.77-142.16 142.16v67.01c0 16.83 13.64 30.46 30.46 30.46s30.46-13.63 30.46-30.46V207.3c0-44.79 36.43-81.23 81.23-81.23h134.04c44.8 0 81.23 36.44 81.23 81.23v178.74H290.93c-84.54 0-153.32 68.79-153.32 153.33v268.06c0 84.54 68.78 153.33 153.32 153.33h442.33c84.54 0 153.32-68.79 153.32-153.33V539.37c0.01-84.55-68.77-153.34-153.31-153.34z m92.39 421.39c0 50.96-41.45 92.41-92.4 92.41H290.93c-50.95 0-92.4-41.45-92.4-92.41V539.37c0-50.96 41.45-92.41 92.4-92.41h442.33c50.95 0 92.4 41.45 92.4 92.41v268.05zM637.99 563.19c-14.08-9.18-32.96-5.28-42.18 8.83L503.23 713.6l-81.51-64.14c-13.27-10.41-32.39-8.11-42.78 5.1-10.41 13.23-8.11 32.38 5.1 42.78l107.65 84.7a30.513 30.513 0 0 0 23.78 6.12 30.518 30.518 0 0 0 20.57-13.4l110.78-169.41c9.2-14.07 5.25-32.95-8.83-42.16z" /></svg>