<?xml version="1.0" standalone="no"?><!DOCTYPE svg PUBLIC "-//W3C//DTD SVG 1.1//EN" "http://www.w3.org/Graphics/SVG/1.1/DTD/svg11.dtd"><svg class="icon" width="200px" height="200.00px" viewBox="0 0 1024 1024" version="1.1" xmlns="http://www.w3.org/2000/svg"><path d="M731.92 385.74h-11.96V207.6c0-78.12-63.57-141.68-141.68-141.68H444.71c-78.11 0-141.68 63.56-141.68 141.68v66.79c0 16.77 13.6 30.36 30.36 30.36 16.76 0 30.36-13.59 30.36-30.36V207.6c0-44.64 36.31-80.96 80.96-80.96h133.58c44.65 0 80.96 36.32 80.96 80.96v178.15H291.07c-84.26 0-152.81 68.55-152.81 152.81v267.17c0 84.26 68.55 152.81 152.81 152.81h440.85c84.26 0 152.81-68.55 152.81-152.81V538.55c0-84.26-68.55-152.81-152.81-152.81z m-86.18 218.58L535.35 773.18a30.322 30.322 0 0 1-20.5 13.34c-1.64 0.28-3.28 0.41-4.92 0.41-6.76 0-13.38-2.26-18.78-6.5L383.84 696c-13.16-10.37-15.46-29.45-5.08-42.63 10.36-13.16 29.43-15.46 42.63-5.08l81.26 63.93L594.9 571.1c9.19-14.03 28.03-17.95 42.02-8.8 14.06 9.17 17.99 27.99 8.82 42.02z" /></svg>