<?xml version="1.0" standalone="no"?><!DOCTYPE svg PUBLIC "-//W3C//DTD SVG 1.1//EN" "http://www.w3.org/Graphics/SVG/1.1/DTD/svg11.dtd"><svg class="icon" width="200px" height="200.00px" viewBox="0 0 1024 1024" version="1.1" xmlns="http://www.w3.org/2000/svg"><path d="M751.34 338.96h-12.98v-120.9c0-84.83-69.02-153.84-153.84-153.84H439.48c-84.82 0-153.84 69.01-153.84 153.84v120.9h-12.98c-91.49 0-165.92 74.44-165.92 165.93v290.09c0 91.49 74.43 165.93 165.92 165.93h478.68c91.49 0 165.92-74.44 165.92-165.93V504.9c0-91.5-74.43-165.94-165.92-165.94z m-399.77-120.9c0-48.47 39.43-87.91 87.91-87.91h145.04c48.48 0 87.91 39.44 87.91 87.91v120.9H351.57v-120.9z m499.76 576.92c0 55.15-44.85 100-99.99 100H272.66c-55.14 0-99.99-44.85-99.99-100V504.9c0-55.15 44.85-100 99.99-100h478.68c55.14 0 99.99 44.85 99.99 100v290.08zM620.82 620.23H404.85c-17.24 0-33.76 15.16-32.97 32.97 0.8 17.86 14.48 32.97 32.97 32.97h215.97c17.24 0 33.76-15.16 32.97-32.97-0.81-17.86-14.5-32.97-32.97-32.97z" /></svg>