<?xml version="1.0" standalone="no"?><!DOCTYPE svg PUBLIC "-//W3C//DTD SVG 1.1//EN" "http://www.w3.org/Graphics/SVG/1.1/DTD/svg11.dtd"><svg class="icon" width="200px" height="200.00px" viewBox="0 0 1024 1024" version="1.1" xmlns="http://www.w3.org/2000/svg"><path d="M697.45 370.69c2.61 0 5.19 0.11 7.79 0.16-29.4-126.46-159.86-221.8-316.39-221.8-178.18 0-322.63 123.51-322.63 275.87 0 82.19 42.08 155.94 108.77 206.48l-29.28 125.5 113.42-79.39c39.71 14.93 83.57 23.28 129.73 23.28 16.04 0 31.8-1.04 47.22-2.97-13.83-27.9-21.5-58.47-21.5-90.55-0.02-130.65 126.63-236.58 282.87-236.58z m-191.13-81.35c26.15 0 47.34 18.84 47.34 42.08s-21.2 42.08-47.34 42.08-47.34-18.84-47.34-42.08 21.2-42.08 47.34-42.08zM291.24 373.5c-26.15 0-47.34-18.84-47.34-42.08s21.2-42.08 47.34-42.08c26.15 0 47.34 18.84 47.34 42.08s-21.2 42.08-47.34 42.08zM954.62 611.97c0-118.79-115.14-215.09-257.17-215.09-142.03 0-257.17 96.3-257.17 215.09s115.14 215.09 257.17 215.09c20.38 0 40.18-2.04 59.19-5.79l109.14 52.55-3.23-96.97c56.26-39.46 92.07-98.67 92.07-164.88z m-346.01-23.38c-23.24 0-42.08-16.75-42.08-37.41s18.84-37.41 42.08-37.41 42.08 16.75 42.08 37.41-18.84 37.41-42.08 37.41z m173-74.82c23.24 0 42.08 16.75 42.08 37.41s-18.84 37.41-42.08 37.41-42.08-16.75-42.08-37.41 18.84-37.41 42.08-37.41z" /></svg>