<?xml version="1.0" standalone="no"?><!DOCTYPE svg PUBLIC "-//W3C//DTD SVG 1.1//EN" "http://www.w3.org/Graphics/SVG/1.1/DTD/svg11.dtd"><svg class="icon" width="200px" height="200.00px" viewBox="0 0 1024 1024" version="1.1" xmlns="http://www.w3.org/2000/svg"><path d="M501.52 647.71h21.59c71.76 0 130.14-58.38 130.14-130.14V196.93c0-71.76-58.39-130.14-130.14-130.14h-21.59c-71.76 0-130.14 58.38-130.14 130.14v320.65c-0.01 71.75 58.38 130.13 130.14 130.13z m-70.08-450.78c0-38.64 31.44-70.08 70.08-70.08h21.59c38.63 0 70.08 31.44 70.08 70.08v320.65c0 38.64-31.44 70.08-70.08 70.08h-21.59c-38.64 0-70.08-31.44-70.08-70.08V196.93zM791.89 427.03c0-38.65-60.07-38.71-60.07 0 0 39.13 2.51 79.1-0.69 118.12-5.94 72.37-55.03 137.69-122.52 164.24-28.21 11.1-56.91 13.54-86.84 13.54-26.99 0-53.77 0.98-80.2-5.55-70.13-17.32-125.87-73.07-143.19-143.2-11.53-46.67-5.55-99.46-5.55-147.16 0-38.65-60.07-38.71-60.07 0 0 49.37-4.19 101.13 4.83 149.91 15.68 84.73 77.09 155.9 156.31 187.93 26.18 10.59 56.9 16.65 88.38 19.07v116.21H352.15c-38.65 0-38.71 60.07 0 60.07H672.5c38.65 0 38.71-60.07 0-60.07H542.35V784.01c19.85-1.51 39.11-4.34 56.7-8.71 83.53-20.74 151.5-84.89 179.43-165.88 19.84-57.57 13.41-122.41 13.41-182.39z" /></svg>