<?xml version="1.0" standalone="no"?><!DOCTYPE svg PUBLIC "-//W3C//DTD SVG 1.1//EN" "http://www.w3.org/Graphics/SVG/1.1/DTD/svg11.dtd"><svg class="icon" width="200px" height="200.00px" viewBox="0 0 1024 1024" version="1.1" xmlns="http://www.w3.org/2000/svg"><path d="M500.97 647.57h21.6c71.79 0 130.21-58.41 130.21-130.21v-320.8c0-71.79-58.41-130.21-130.21-130.21h-21.6c-71.79 0-130.21 58.41-130.21 130.21v320.8c0 71.8 58.42 130.21 130.21 130.21zM791.46 426.78c0-38.67-60.1-38.73-60.1 0 0 39.14 2.52 79.14-0.69 118.18-5.95 72.4-55.06 137.75-122.59 164.32-28.22 11.11-56.94 13.55-86.89 13.55-27 0-53.79 0.98-80.24-5.56-70.16-17.33-125.93-73.1-143.25-143.26-11.53-46.69-5.55-99.51-5.55-147.23 0-38.67-60.1-38.73-60.1 0 0 49.39-4.19 101.18 4.84 149.98 15.68 84.77 77.12 155.97 156.38 188.03 26.19 10.59 56.94 16.66 88.44 19.08v116.27H351.5c-38.67 0-38.73 60.1 0 60.1H672c38.67 0 38.73-60.1 0-60.1H541.8v-116.2c19.85-1.51 39.12-4.34 56.72-8.71 83.57-20.75 151.57-84.93 179.51-165.96 19.87-57.61 13.43-122.48 13.43-182.49z" /></svg>