<?xml version="1.0" standalone="no"?><!DOCTYPE svg PUBLIC "-//W3C//DTD SVG 1.1//EN" "http://www.w3.org/Graphics/SVG/1.1/DTD/svg11.dtd"><svg class="icon" width="200px" height="200.00px" viewBox="0 0 1024 1024" version="1.1" xmlns="http://www.w3.org/2000/svg"><path d="M511.79 960.22c-247.12 0-448.18-201.06-448.18-448.18S264.67 63.87 511.79 63.87s448.18 201.06 448.18 448.18-201.06 448.17-448.18 448.17z m0-843.62c-218.05 0-395.45 177.4-395.45 395.45 0 218.05 177.4 395.45 395.45 395.45 218.05 0 395.45-177.4 395.45-395.45 0-218.05-177.4-395.45-395.45-395.45zM339.34 546.1h344.92c33.93 0 33.98-52.73 0-52.73H339.34c-33.93 0-33.99 52.73 0 52.73z" /></svg>