<?xml version="1.0" standalone="no"?><!DOCTYPE svg PUBLIC "-//W3C//DTD SVG 1.1//EN" "http://www.w3.org/Graphics/SVG/1.1/DTD/svg11.dtd"><svg class="icon" width="200px" height="200.00px" viewBox="0 0 1024 1024" version="1.1" xmlns="http://www.w3.org/2000/svg"><path d="M512 586.67c-41.24 0-74.67-33.43-74.67-74.67s33.43-74.67 74.67-74.67 74.67 33.43 74.67 74.67-33.43 74.67-74.67 74.67z m-298.67 0c-41.24 0-74.67-33.43-74.67-74.67s33.43-74.67 74.67-74.67 74.67 33.43 74.67 74.67-33.43 74.67-74.67 74.67z m597.34 0c-41.24 0-74.67-33.43-74.67-74.67s33.43-74.67 74.67-74.67 74.67 33.43 74.67 74.67-33.43 74.67-74.67 74.67z" /></svg>
