<?xml version="1.0" standalone="no"?><!DOCTYPE svg PUBLIC "-//W3C//DTD SVG 1.1//EN" "http://www.w3.org/Graphics/SVG/1.1/DTD/svg11.dtd"><svg class="icon" width="200px" height="200.00px" viewBox="0 0 1024 1024" version="1.1" xmlns="http://www.w3.org/2000/svg"><path d="M741.96 287.86H437.14c-18.09 0-32.75-14.66-32.75-32.76s14.66-32.76 32.75-32.76h304.82c18.09 0 32.75 14.66 32.75 32.76s-14.66 32.76-32.75 32.76zM829.74 959.31H349.36c-54.18 0-98.26-44.09-98.26-98.28V783.4h65.5v77.63c0 18.06 14.69 32.76 32.75 32.76h480.38c18.06 0 32.75-14.7 32.75-32.76V162.15c0-18.06-14.69-32.76-32.75-32.76H349.36c-18.06 0-32.75 14.7-32.75 32.76v143.7h-65.5v-143.7c0-54.19 44.07-98.28 98.26-98.28h480.38c54.18 0 98.26 44.09 98.26 98.28v698.89c-0.01 54.19-44.09 98.27-98.27 98.27zM377.28 584.28c23.48-23.69 38.01-56.26 38.01-92.18 0-72.26-58.77-131.04-131.01-131.04S153.27 419.84 153.27 492.1c0 35.92 14.54 68.48 38.01 92.18C135.62 616.54 98 676.64 98 745.48c0 18.1 14.66 32.76 32.75 32.76s32.75-14.66 32.75-32.76c0-66.61 54.18-120.8 120.77-120.8s120.77 54.19 120.77 120.8c0 18.1 14.66 32.76 32.75 32.76s32.75-14.66 32.75-32.76c0.02-68.84-37.6-128.94-93.26-161.2z m-93-157.69c36.12 0 65.5 29.39 65.5 65.52s-29.38 65.52-65.5 65.52-65.5-29.39-65.5-65.52 29.38-65.52 65.5-65.52z" /></svg>