<?xml version="1.0" standalone="no"?><!DOCTYPE svg PUBLIC "-//W3C//DTD SVG 1.1//EN" "http://www.w3.org/Graphics/SVG/1.1/DTD/svg11.dtd"><svg class="icon" width="200px" height="200.00px" viewBox="0 0 1024 1024" version="1.1" xmlns="http://www.w3.org/2000/svg"><path d="M511.71 959.33c-246.75 0-447.5-200.75-447.5-447.5s200.75-447.5 447.5-447.5 447.5 200.75 447.5 447.5-200.75 447.5-447.5 447.5z m0-842.35c-217.72 0-394.85 177.13-394.85 394.85s177.13 394.85 394.85 394.85 394.85-177.14 394.85-394.85-177.13-394.85-394.85-394.85zM543.07 510.24L665 388.3c10.3-10.3 10.3-26.97 0-37.27-10.3-10.3-26.97-10.3-37.27 0L505.8 472.97 383.86 351.03c-10.3-10.3-26.97-10.3-37.27 0-10.3 10.3-10.3 26.97 0 37.27l121.94 121.94-121.94 121.93c-10.3 10.3-10.3 26.97 0 37.27 5.15 5.15 11.89 7.72 18.64 7.72 6.74 0 13.49-2.57 18.64-7.72L505.8 547.51l121.94 121.94c5.15 5.15 11.89 7.72 18.64 7.72s13.49-2.57 18.64-7.72c10.3-10.3 10.3-26.97 0-37.27L543.07 510.24z" /></svg>