<?xml version="1.0" standalone="no"?><!DOCTYPE svg PUBLIC "-//W3C//DTD SVG 1.1//EN" "http://www.w3.org/Graphics/SVG/1.1/DTD/svg11.dtd"><svg class="icon" width="200px" height="200.00px" viewBox="0 0 1024 1024" version="1.1" xmlns="http://www.w3.org/2000/svg"><path d="M511.4 63.86c-246.99 0-447.93 200.95-447.93 447.93S264.41 959.73 511.4 959.73 959.33 758.78 959.33 511.8 758.39 63.86 511.4 63.86z m152.66 569.83c10.29 10.29 10.29 26.97 0 37.26-5.15 5.15-11.89 7.72-18.63 7.72s-13.48-2.57-18.63-7.72l-121.9-121.9L383 670.95c-5.15 5.15-11.89 7.72-18.63 7.72s-13.48-2.57-18.63-7.72c-10.29-10.29-10.29-26.97 0-37.26l121.9-121.9-121.9-121.9c-10.29-10.29-10.29-26.97 0-37.26s26.97-10.29 37.26 0l121.9 121.9 121.9-121.9c10.29-10.29 26.97-10.29 37.26 0s10.29 26.97 0 37.26l-121.9 121.9 121.9 121.9z" /></svg>