<?xml version="1.0" standalone="no"?><!DOCTYPE svg PUBLIC "-//W3C//DTD SVG 1.1//EN" "http://www.w3.org/Graphics/SVG/1.1/DTD/svg11.dtd"><svg class="icon" width="200px" height="200.00px" viewBox="0 0 1024 1024" version="1.1" xmlns="http://www.w3.org/2000/svg"><path d="M803.49 561.05l-137.92-17.36c60.73-50.99 96.79-126.4 96.79-207.94 0-149.87-121.94-271.81-271.8-271.81-149.88 0-271.82 121.94-271.82 271.81 0 112.32 67.84 210.58 169.14 251.63v94.27l-74.64-73.54c-16.81-16.8-39.16-26.05-62.91-26.05s-46.1 9.26-62.91 26.07l-12.74 12.76c-34.29 34.29-34.68 89.85-1.17 124.62l161.78 197.65c10.53 12.83 29.43 14.74 42.31 4.22 12.84-10.52 14.74-29.45 4.23-42.3L219.18 706.39a32.67 32.67 0 0 0-2.02-2.21c-11.23-11.23-11.21-29.53 0.04-40.79l12.74-12.76c10.88-10.9 29.73-11.04 40.96 0.16l125.95 124.1c8.63 8.51 21.57 10.99 32.7 6.32A30.08 30.08 0 0 0 448 753.48V331.11c0-15.9 12.95-28.84 28.86-28.84h18.02c15.91 0 28.86 12.94 28.86 28.84v228.81c0 15.15 11.27 27.93 26.3 29.82l247.04 31.09c0.88 0.11 1.74 0.18 2.62 0.22 13.91 0.52 13.6 13.27 13.48 18.21 0 22.54-21.96 187.43-35.79 286.06-2.31 16.44 9.14 31.63 25.6 33.94 1.41 0.21 2.82 0.29 4.21 0.29 14.76 0 27.61-10.86 29.73-25.88 3.72-26.54 36.38-260.25 36.38-293.66 1.38-55.01-40.42-77.17-69.82-78.96z m-308.6-318.89h-18.02c-49.06 0-88.98 39.9-88.98 88.95v189.85c-66.14-36.48-109.02-106.4-109.02-185.21 0-116.73 94.97-211.69 211.7-211.69s211.68 94.96 211.68 211.69c0 79.48-43.89 151.57-114.54 188.15-1.24 0.64-2.58 1.14-3.84 1.76V331.11c0-49.05-39.92-88.95-88.98-88.95z" /></svg>