<?xml version="1.0" standalone="no"?><!DOCTYPE svg PUBLIC "-//W3C//DTD SVG 1.1//EN" "http://www.w3.org/Graphics/SVG/1.1/DTD/svg11.dtd"><svg class="icon" width="200px" height="200.00px" viewBox="0 0 1024 1024" version="1.1" xmlns="http://www.w3.org/2000/svg"><path d="M512 959.89c-8.46 0-16.5-3.76-21.93-10.26-12.72-15.24-311.44-375.04-311.44-551.71C178.63 214.1 328.18 64.55 512 64.55S845.37 214.1 845.37 397.92c0 176.67-298.71 536.47-311.44 551.71A28.59 28.59 0 0 1 512 959.89z m0-838.19c-152.3 0-276.22 123.92-276.22 276.22 0 119.3 182.59 371.53 276.22 488.23 93.63-116.7 276.22-368.93 276.22-488.23 0-152.3-123.92-276.22-276.22-276.22zM512 545.58c-73.85 0-133.94-60.09-133.94-133.94S438.15 277.69 512 277.69s133.94 60.09 133.94 133.94S585.85 545.58 512 545.58z m0-210.74c-42.34 0-76.79 34.45-76.79 76.79s34.45 76.79 76.79 76.79 76.79-34.45 76.79-76.79-34.45-76.79-76.79-76.79z" /></svg>