<?xml version="1.0" standalone="no"?><!DOCTYPE svg PUBLIC "-//W3C//DTD SVG 1.1//EN" "http://www.w3.org/Graphics/SVG/1.1/DTD/svg11.dtd"><svg class="icon" width="200px" height="200.00px" viewBox="0 0 1024 1024" version="1.1" xmlns="http://www.w3.org/2000/svg"><path d="M512.28 64.58c-183.79 0-333.33 149.53-333.33 333.33 0 176.64 298.67 536.4 311.4 551.63a28.59 28.59 0 0 0 21.93 10.26c8.46 0 16.5-3.76 21.93-10.26 12.72-15.23 311.4-374.99 311.4-551.63 0-183.8-149.53-333.33-333.33-333.33z m76.79 347.04c0 42.34-34.45 76.78-76.78 76.78s-76.78-34.45-76.78-76.78 34.45-76.78 76.78-76.78 76.78 34.44 76.78 76.78z" /></svg>