<?xml version="1.0" standalone="no"?><!DOCTYPE svg PUBLIC "-//W3C//DTD SVG 1.1//EN" "http://www.w3.org/Graphics/SVG/1.1/DTD/svg11.dtd"><svg class="icon" width="200px" height="200.00px" viewBox="0 0 1024 1024" version="1.1" xmlns="http://www.w3.org/2000/svg"><path d="M512.55 63.95c-246.92 0-447.81 200.89-447.81 447.81 0 246.92 200.89 447.81 447.81 447.81 246.92 0 447.81-200.89 447.81-447.81-0.01-246.92-200.89-447.81-447.81-447.81z m0 842.93c-217.87 0-395.12-177.26-395.12-395.12 0-217.87 177.26-395.12 395.12-395.12 217.87 0 395.12 177.26 395.12 395.12S730.41 906.88 512.55 906.88zM684.87 493.09H538.89V389.82v-42.7c0-33.9-52.68-33.95-52.68 0V493.1H340.24c-33.9 0-33.95 52.68 0 52.68h145.98v145.97c0 33.9 52.68 33.95 52.68 0V545.77h145.97c33.9 0.01 33.96-52.68 0-52.68z" /></svg>