<?xml version="1.0" standalone="no"?><!DOCTYPE svg PUBLIC "-//W3C//DTD SVG 1.1//EN" "http://www.w3.org/Graphics/SVG/1.1/DTD/svg11.dtd"><svg class="icon" width="200px" height="200.00px" viewBox="0 0 1024 1024" version="1.1" xmlns="http://www.w3.org/2000/svg"><path d="M512.38 112.23c-247 0-447.95 174.79-447.95 389.65 0 93.07 38.13 182.84 107.49 253.34 0.1 9.11-5.19 29.94-8.47 42.86-9.96 39.19-21.25 83.62 12.16 103.93 7.52 4.56 15.97 6.52 25.32 6.52 22.85-0.02 51.07-11.67 84.25-25.36 18.03-7.44 47.77-19.72 58.18-20.33 53.65 19.02 110.5 28.66 169.01 28.66 247 0 447.95-174.79 447.95-389.63 0.01-214.86-200.94-389.64-447.94-389.64z m194.04 462.72c-28.23 75.27-101.22 125.86-181.64 125.86-82.39 0-155.99-52.23-183.14-129.98-5.5-15.71 2.81-32.92 18.54-38.42 15.7-5.52 32.94 2.81 38.42 18.54 18.7 53.55 69.4 89.52 126.17 89.52 55.41 0 105.7-34.85 125.15-86.69 5.83-15.62 23.26-23.55 38.84-17.66 15.62 5.85 23.51 23.23 17.66 38.83z" /></svg>