<?xml version="1.0" standalone="no"?><!DOCTYPE svg PUBLIC "-//W3C//DTD SVG 1.1//EN" "http://www.w3.org/Graphics/SVG/1.1/DTD/svg11.dtd"><svg class="icon" width="200px" height="200.00px" viewBox="0 0 1024 1024" version="1.1" xmlns="http://www.w3.org/2000/svg"><path d="M200.95 908.9c-9.33 0-17.78-1.94-25.28-6.5-33.43-20.31-22.14-64.74-12.18-103.93 3.28-12.94 8.56-33.77 8.47-42.88C102.6 685.13 64.47 595.36 64.47 502.26c0-214.83 200.94-389.61 447.93-389.61s447.93 174.78 447.93 389.61c0 214.85-200.94 389.63-447.93 389.63-58.46 0-115.32-9.64-169.03-28.66-10.41 0.61-40.17 12.89-58.2 20.33-33.15 13.69-61.38 25.34-84.22 25.34z m140.32-46.42h0.02-0.02zM512.4 172.99c-213.71 0-387.59 147.71-387.59 329.27 0 78.41 33.06 154.41 93.11 213.97 22.92 22.77 13.75 58.87 4.05 97.09-2.34 9.21-5.68 22.39-7.41 32.57 14.01-4.24 34.02-12.49 47.59-18.11 46.47-19.19 76.12-30.47 99.53-22.08 47.75 17.15 98.47 25.85 150.72 25.85 213.71 0 387.59-147.71 387.59-329.29 0-181.56-173.88-329.27-387.59-329.27zM524.8 701.2c-82.4 0-155.98-52.23-183.13-130-5.5-15.73 2.81-32.94 18.54-38.42 15.69-5.52 32.94 2.79 38.42 18.54 18.7 53.55 69.4 89.53 126.16 89.53 55.41 0 105.7-34.85 125.14-86.7 5.83-15.62 23.28-23.57 38.83-17.66 15.62 5.85 23.51 23.24 17.66 38.83-28.21 75.3-101.21 125.88-181.62 125.88z" /></svg>