<?xml version="1.0" standalone="no"?><!DOCTYPE svg PUBLIC "-//W3C//DTD SVG 1.1//EN" "http://www.w3.org/Graphics/SVG/1.1/DTD/svg11.dtd"><svg class="icon" width="200px" height="200.00px" viewBox="0 0 1024 1024" version="1.1" xmlns="http://www.w3.org/2000/svg"><path d="M742.33 284.2H440.86c-17.89 0-32.39-14.64-32.39-32.72s14.5-32.72 32.39-32.72h301.47c17.89 0 32.39 14.64 32.39 32.72s-14.49 32.72-32.39 32.72zM829.58 958.72H354.47c-53.59 0-97.18-44.03-97.18-98.15v-99.34h64.79v99.34c0 18.04 14.53 32.72 32.39 32.72h475.11c17.86 0 32.39-14.68 32.39-32.72V162.62c0-18.04-14.53-32.72-32.39-32.72H354.47c-17.86 0-32.39 14.68-32.39 32.72v318h-64.79v-318c0-54.12 43.59-98.15 97.18-98.15h475.11c53.59 0 97.18 44.03 97.18 98.15v697.95c0 54.12-43.59 98.15-97.18 98.15zM583.77 590.16L459.22 471c-13-12.44-33.51-11.86-45.8 1.25-12.31 13.12-11.75 33.82 1.23 46.25l69.55 66.54H130.63c-17.89 0-32.39 14.64-32.39 32.72s14.5 32.72 32.39 32.72h349.35l-66.03 67.25c-12.6 12.83-12.52 33.55 0.19 46.26 6.32 6.33 14.56 9.49 22.81 9.49 8.33 0 16.67-3.23 23-9.68L584.5 636.95c6.15-6.25 9.53-14.74 9.4-23.55s-3.8-17.19-10.13-23.24z" /></svg>