<?xml version="1.0" standalone="no"?><!DOCTYPE svg PUBLIC "-//W3C//DTD SVG 1.1//EN" "http://www.w3.org/Graphics/SVG/1.1/DTD/svg11.dtd"><svg class="icon" width="200px" height="200.00px" viewBox="0 0 1024 1024" version="1.1" xmlns="http://www.w3.org/2000/svg"><path d="M889.6 454.4h-184.53c-17.67 0-32-14.33-32-32s14.33-32 32-32h103.16c-55.1-119.43-176.38-202.24-316.23-202.24-192.37 0-348.8 156.43-348.8 348.8s156.43 348.8 348.8 348.8c132.29 0 248.45-74.09 307.42-182.88 8.46-15.62 27.95-21.44 43.57-12.98 15.62 8.46 21.44 27.95 12.98 43.57-71.9 132.75-213.62 223.29-363.97 223.29-233.6 0-412.8-179.2-412.8-412.8s179.2-412.8 412.8-412.8c154.37 0 289.79 83.11 363.97 206.67V222.4c0-17.67 14.33-32 32-32s32 14.33 32 32v200c0 17.67-14.33 32-32 32z" /></svg>
