<?xml version="1.0" standalone="no"?><!DOCTYPE svg PUBLIC "-//W3C//DTD SVG 1.1//EN" "http://www.w3.org/Graphics/SVG/1.1/DTD/svg11.dtd"><svg class="icon" width="200px" height="200.00px" viewBox="0 0 1024 1024" version="1.1" xmlns="http://www.w3.org/2000/svg"><path d="M664.81 389.55H361.5c-16.8 0-30.41-13.61-30.41-30.41s13.61-30.41 30.41-30.41h303.31c16.8 0 30.41 13.61 30.41 30.41s-13.61 30.41-30.41 30.41zM603.98 551.74H422.32c-16.8 0-30.41-13.61-30.41-30.41s13.61-30.41 30.41-30.41h181.65c16.8 0 30.41 13.61 30.41 30.41s-13.6 30.41-30.4 30.41zM511.54 957.23c-3.76 0-7.52-0.69-11.1-2.1-8.97-3.51-220.78-88.26-319.96-277.8a30.527 30.527 0 0 1-3.28-10.74l-40.56-364.91a30.403 30.403 0 0 1 14.8-29.57L496.11 69.35c9.53-5.6 21.33-5.6 30.85 0l344.66 202.76a30.403 30.403 0 0 1 14.8 29.57l-40.56 364.91c-0.37 3.32-1.28 6.54-2.69 9.56-79.98 170.51-309.54 274.12-319.28 278.45a30.358 30.358 0 0 1-12.35 2.63zM237.01 654.09c76.88 141.97 230.4 219.58 273.93 239.34 45.79-22.55 212.53-111.5 275.04-238.68l37.82-340.19-312.26-183.7-312.27 183.7 37.74 339.53z" /></svg>