<?xml version="1.0" standalone="no"?><!DOCTYPE svg PUBLIC "-//W3C//DTD SVG 1.1//EN" "http://www.w3.org/Graphics/SVG/1.1/DTD/svg11.dtd"><svg class="icon" width="200px" height="200.00px" viewBox="0 0 1024 1024" version="1.1" xmlns="http://www.w3.org/2000/svg"><path d="M512.69 957.7c-3.76 0-7.53-0.69-11.09-2.1-8.97-3.52-220.91-88.31-320.17-277.96a30.739 30.739 0 0 1-3.29-10.75l-40.57-365.14c-1.31-11.92 4.48-23.51 14.82-29.59L497.26 69.29a30.415 30.415 0 0 1 30.87 0L873 272.17c10.34 6.08 16.13 17.67 14.82 29.59L847.25 666.9c-0.38 3.32-1.29 6.55-2.69 9.57-80.05 170.6-309.76 274.27-319.51 278.6a30.335 30.335 0 0 1-12.36 2.63z m-274.7-303.32c76.93 142.05 230.54 219.7 274.1 239.48 45.82-22.57 212.67-111.56 275.21-238.82l37.84-340.4-312.45-183.82-312.46 183.81 37.76 339.75zM513.34 678.17c-6.53 0-12.94-2.1-18.25-6.08L349.16 562.65c-13.42-10.07-16.15-29.13-6.08-42.56 10.09-13.43 29.13-16.14 42.57-6.09l118.95 89.22 146.84-244.71c8.65-14.4 27.33-19.05 41.7-10.42 14.41 8.64 19.08 27.31 10.43 41.71L539.4 663.41a30.424 30.424 0 0 1-20.23 14.19c-1.93 0.38-3.89 0.57-5.83 0.57z" /></svg>