<?xml version="1.0" standalone="no"?><!DOCTYPE svg PUBLIC "-//W3C//DTD SVG 1.1//EN" "http://www.w3.org/Graphics/SVG/1.1/DTD/svg11.dtd"><svg class="icon" width="200px" height="200.00px" viewBox="0 0 1024 1024" version="1.1" xmlns="http://www.w3.org/2000/svg"><path d="M947.08 887.81L805.23 745.96c60.82-72.3 97.62-165.44 97.62-267.08 0-229.18-186.46-415.66-415.67-415.66S71.5 249.7 71.5 478.88s186.46 415.66 415.67 415.66c97.47 0 187.02-33.96 257.98-90.34l142.77 142.77c8.17 8.17 18.87 12.26 29.58 12.26s21.41-4.09 29.58-12.26c16.34-16.34 16.34-42.82 0-59.16zM155.17 478.88c0-183.07 148.93-331.99 332.01-331.99s332.01 148.92 332.01 331.99-148.94 331.99-332.01 331.99-332.01-148.92-332.01-331.99z" /></svg>