<?xml version="1.0" standalone="no"?><!DOCTYPE svg PUBLIC "-//W3C//DTD SVG 1.1//EN" "http://www.w3.org/Graphics/SVG/1.1/DTD/svg11.dtd"><svg class="icon" width="200px" height="200.00px" viewBox="0 0 1024 1024" version="1.1" xmlns="http://www.w3.org/2000/svg"><path d="M661.4 548.31a303.72 303.72 0 0 0 3.74-47.49c0-12.79-0.87-25.32-2.41-37.67-46.72-10.69-95.27-20.77-102.62-38.46-7.75-18.69 20.24-61.54 45.99-102.78a303.478 303.478 0 0 0-56.99-58.24c-41.48 25.87-84.74 54.27-103.53 46.46-18.28-7.57-28.38-58.93-39.48-106.87a298.24 298.24 0 0 0-41.44-2.91c-14.05 0-27.88 1.01-41.42 2.91-11.09 47.94-21.22 99.3-39.48 106.87-18.81 7.82-62.07-20.59-103.55-46.46-21.5 16.76-40.71 36.36-56.97 58.24 25.73 41.24 53.71 84.09 45.97 102.78-7.37 17.69-55.91 27.77-102.62 38.46-1.52 12.35-2.43 24.88-2.43 37.67 0 16.15 1.3 32.01 3.76 47.49 46.3 10.61 93.99 20.61 101.28 38.16 7.41 17.9-17.94 57.96-42.67 97.51a300.905 300.905 0 0 0 60.53 59.17c39.31-24.56 78.89-49.5 96.69-42.13 16.98 7.05 26.94 52.13 37.21 97.05 14.27 2.09 28.85 3.2 43.69 3.2 14.82 0 29.42-1.11 43.69-3.2 10.26-44.92 20.2-90 37.23-97.05 17.75-7.37 57.35 17.57 96.64 42.13 22.9-16.76 43.26-36.7 60.57-59.17-24.8-39.56-50.1-79.62-42.69-97.51 7.32-17.56 55.04-27.56 101.31-38.16z m-296.71 83.38c-70.53 0-127.72-57.21-127.72-127.72 0-70.53 57.19-127.7 127.72-127.7s127.72 57.17 127.72 127.7c0 70.51-57.19 127.72-127.72 127.72zM948.56 732.2c-0.59-11.99-2.23-24.13-5.08-36.22-2.98-12.09-7-23.69-11.98-34.58-31.88-1.5-65.39-1.76-76.54-13.42-11.46-12.11-10.36-45.75-10.3-77.64a191.293 191.293 0 0 0-67.45-20.16c-17.27 26.74-34.82 55.43-51.64 59.5-16.86 4.03-45.55-13.52-73.1-29.51-20.02 13.06-37.19 29.64-50.87 48.69 14.62 28.38 30.89 57.8 26.14 73.73-4.62 15.55-34.33 31.06-62.13 46.82 0.59 12.02 2.27 24.13 5.14 36.22 2.94 12.13 6.96 23.69 11.92 34.58 31.9 1.48 65.39 1.76 76.56 13.48 11.48 12.09 10.36 45.69 10.26 77.55 20.87 10.69 43.71 17.69 67.51 20.2 17.25-26.72 34.8-55.45 51.64-59.5 16.84-4.03 45.53 13.54 73.08 29.51a190.751 190.751 0 0 0 50.85-48.71c-14.6-28.36-30.87-57.76-26.07-73.75 4.57-15.49 34.25-31 62.06-46.79z m-172.41 87.84c-43.77 10.46-87.74-16.44-98.24-60.19-10.51-43.73 16.44-87.72 60.1-98.24 43.77-10.49 87.8 16.36 98.28 60.14 10.49 43.75-16.4 87.78-60.14 98.29zM934.47 385.87c6.13-10.32 11.46-21.34 15.71-33.02a192.01 192.01 0 0 0 9.15-35.41c-25.79-18.87-53.57-37.57-56.42-53.48-2.9-16.42 16.56-43.81 34.23-70.37-11.48-20.42-26.68-38.87-45.12-54.07-29.13 12.77-59.62 27.01-75.9 21.12-16.3-5.97-30.53-36.42-44.66-64.96-23.89-0.18-47.39 4.19-69.3 12.51-3.48 31.7-6.15 65.23-18.93 75.91-12.41 10.39-45.75 6.92-77.63 4.74a196.228 196.228 0 0 0-15.69 33.04 193.688 193.688 0 0 0-9.17 35.41c25.83 18.83 53.6 37.57 56.42 53.52 2.92 16.42-16.56 43.79-34.25 70.33 11.52 20.47 26.68 38.87 45.14 54.09 29.15-12.79 59.62-27.01 75.91-21.09 16.26 5.93 30.49 36.4 44.66 64.92 23.89 0.16 47.37-4.15 69.27-12.53 3.5-31.7 6.15-65.18 18.97-75.87 12.41-10.44 45.73-6.96 77.61-4.79zM742.2 363.94c-42.23-15.37-64.09-62.13-48.71-104.42 15.36-42.27 62.13-64.09 104.38-48.71 42.27 15.36 64.13 62.09 48.73 104.36-15.39 42.28-62.13 64.14-104.4 48.77z" /></svg>