<?xml version="1.0" standalone="no"?><!DOCTYPE svg PUBLIC "-//W3C//DTD SVG 1.1//EN" "http://www.w3.org/Graphics/SVG/1.1/DTD/svg11.dtd"><svg class="icon" width="200px" height="200.00px" viewBox="0 0 1024 1024" version="1.1" xmlns="http://www.w3.org/2000/svg"><path d="M955.75 456.58l-21.82-24.17-11.25-2.56c-37.3-8.5-98.99-22.54-111.94-34.72-0.15-18.3 34.79-74.06 55.91-107.76l5.95-9.5-1.29-31.97a451.78 451.78 0 0 0-84.93-86.82l-32.46-1.69-11.18 7c-33.46 20.93-88.74 55.53-107.04 55.53h-0.13c-12.12-12.81-26.09-74.02-34.53-111.04l-4.18-18.18L573.18 69a442.822 442.822 0 0 0-123.62 0l-23.68 21.7-4.14 17.99c-8.46 37.07-22.45 98.38-34.57 111.23-0.06 0.01-0.09 0.01-0.15 0.01-18.34 0-73.64-34.63-107.1-55.58l-11.12-6.95-32.46 1.69c-32.2 25.09-60.76 54.3-84.91 86.83l-1.29 31.94 6 9.62c21.08 33.65 55.92 89.32 55.81 107.63-12.97 12.19-74.6 26.23-111.9 34.72l-11.27 2.58-21.82 24.18c-2.44 19.73-3.62 38.09-3.62 56.11 0 23.6 1.88 47.42 5.61 70.8l21.69 23.18 10.25 2.35c37.01 8.44 98.18 22.4 111.05 34.49 0.15 18.26-34.62 73.86-55.65 107.46l-1.53 2.47 1.57 32.35c25.77 33.51 56.15 63.18 90.21 88.19l31.82 1.19 2.01-1.26c33.31-20.79 88.37-55.16 106.64-55.16h0.13c12.16 12.91 26.18 74.42 34.66 111.62l0.85 3.76 23.61 21.77c21.86 3.17 43.77 4.77 65.09 4.77s43.21-1.6 65.07-4.77l23.59-21.76 0.96-4.2c8.46-37.06 22.45-98.35 34.58-111.18h0.13c18.29 0 73.48 34.47 106.86 55.32l1.74 1.09 31.8-1.17c34.05-24.91 64.42-54.59 90.31-88.2l1.57-32.38-1.05-1.68c-21.23-33.86-56.33-89.85-56.15-108.24 12.88-12.08 74.01-26.04 111-34.48l10.31-2.36 21.69-23.23c3.69-23.44 5.58-47.24 5.58-70.75-0.01-18.1-1.21-36.99-3.59-56.11z m-294.42 60.56c0 82.68-67.29 149.95-149.98 149.95-82.71 0-150-67.27-150-149.95s67.29-149.96 150-149.96c82.7-0.01 149.98 67.27 149.98 149.96z" /></svg>