<?xml version="1.0" standalone="no"?><!DOCTYPE svg PUBLIC "-//W3C//DTD SVG 1.1//EN" "http://www.w3.org/Graphics/SVG/1.1/DTD/svg11.dtd"><svg class="icon" width="200px" height="200.00px" viewBox="0 0 1024 1024" version="1.1" xmlns="http://www.w3.org/2000/svg"><path d="M511.5 958.89c-21.31 0-43.22-1.6-65.07-4.76l-23.6-21.77-0.85-3.76c-8.48-37.19-22.5-98.67-34.65-111.58h-0.13c-18.25 0-73.21 34.31-106.49 55.07l-2.12 1.33-31.81-1.19c-34.06-25-64.42-54.66-90.18-88.16l-1.57-32.34 1.5-2.4c21.04-33.61 55.81-89.22 55.66-107.5-12.87-12.09-74.02-26.04-111.02-34.48L90.92 605l-21.68-23.18a450.306 450.306 0 0 1-5.61-70.77c0-18.03 1.18-36.38 3.62-56.09l21.81-24.18 11.27-2.58c37.27-8.49 98.9-22.52 111.87-34.71 0.11-18.3-34.72-73.95-55.78-107.59l-6.02-9.61 1.29-31.93c24.14-32.52 52.69-61.72 84.88-86.8l32.45-1.69 11.21 7c33.52 20.99 89.32 55.17 107.12 55.5 12.12-12.85 26.12-74.16 34.58-111.23l4.12-17.94 23.7-21.69c41.07-5.76 82.43-5.76 123.54 0l23.69 21.69 4.17 18.14c8.44 37.02 22.4 98.23 34.52 111.04h0.13c18.28 0 73.51-34.56 106.92-55.45l11.27-7.06 32.45 1.69c32.1 25 60.65 54.2 84.9 86.79l1.29 31.96-5.95 9.49c-21.11 33.69-56.04 89.42-55.89 107.71 12.95 12.18 74.61 26.22 111.9 34.71l11.25 2.56 21.81 24.16c2.38 19.1 3.58 37.98 3.58 56.12 0 23.5-1.88 47.3-5.58 70.73l-21.68 23.22-10.31 2.35c-36.98 8.44-98.09 22.39-110.96 34.47-0.19 18.39 34.94 74.41 56.16 108.27l1.02 1.62-1.57 32.37c-25.88 33.6-56.24 63.27-90.28 88.17l-31.79 1.17-1.85-1.15c-33.34-20.82-88.45-55.24-106.71-55.24h-0.13c-12.13 12.84-26.11 74.1-34.57 111.15l-0.96 4.2-23.59 21.76c-21.84 3.14-43.72 4.74-65.03 4.74z m-37.81-58.6c25.49 2.48 50.14 2.48 75.59 0 17.49-75.37 31.47-122.35 64.33-135.94 33.72-13.99 77.55 9.38 144.06 50.52a391.58 391.58 0 0 0 51.49-50.23c-41.54-66.91-65.05-111.04-51.03-144.89 14.02-33.71 63.15-47.5 142.1-65.66 1.57-14.35 2.36-28.77 2.36-43.04 0-9.6-0.39-19.47-1.16-29.5-79.68-18.27-129.27-32.13-143.3-65.96-14.57-35.09 11.34-81.25 55.83-152.53a394.349 394.349 0 0 0-47.19-48.3c-71.68 44.72-117.98 70.9-153.22 56.25-34.76-14.41-48.35-66.22-67.39-149.55-23.2-2.11-46.15-2.1-69.31-0.01-19.04 83.33-32.67 135.15-67.41 149.56-35.26 14.64-81.54-11.51-153.22-56.25a394.166 394.166 0 0 0-47.19 48.29c44.47 71.28 70.37 117.42 55.83 152.51-14.13 33.86-63.68 47.71-143.32 65.98-0.79 10.12-1.18 19.88-1.18 29.5 0 14.31 0.79 28.73 2.38 43.03 78.96 18.15 128.1 31.96 142.1 65.62 14.04 33.9-9.51 77.98-51.01 144.94 15.59 18.28 32.8 35.1 51.47 50.23 66.53-41.16 110.37-64.49 144.11-50.51 32.79 13.6 46.79 60.57 64.28 135.94z m452.05-322.94h0.19-0.19zM511.5 722.1c-113.97 0-206.69-92.7-206.69-206.64 0-113.95 92.71-206.65 206.69-206.65 113.95 0 206.67 92.71 206.67 206.65-0.01 113.94-92.72 206.64-206.67 206.64z m0-356.56c-82.69 0-149.95 67.26-149.95 149.91s67.26 149.9 149.95 149.9c82.67 0 149.93-67.24 149.93-149.9S594.16 365.54 511.5 365.54z" /></svg>