<?xml version="1.0" standalone="no"?><!DOCTYPE svg PUBLIC "-//W3C//DTD SVG 1.1//EN" "http://www.w3.org/Graphics/SVG/1.1/DTD/svg11.dtd"><svg class="icon" width="200px" height="200.00px" viewBox="0 0 1024 1024" version="1.1" xmlns="http://www.w3.org/2000/svg"><path d="M755.2 64c-74.17 0-134.4 60.23-134.4 134.4 0 11.52 1.54 22.66 4.3 33.34L370.25 371.46c-24.83-23.81-58.5-38.46-95.85-38.46-74.17 0-134.4 60.23-134.4 134.4s60.23 134.4 134.4 134.4c37.35 0 71.02-14.65 95.85-38.46l254.85 139.72c-2.76 10.68-4.3 21.82-4.3 33.34 0 74.17 60.23 134.4 134.4 134.4s134.4-60.23 134.4-134.4-60.23-134.4-134.4-134.4c-37.35 0-71.02 14.65-95.85 38.46L404.5 501.14c2.76-10.68 4.3-21.82 4.3-33.34s-1.54-22.66-4.3-33.34l254.85-139.72c24.83 23.81 58.5 38.46 95.85 38.46 74.17 0 134.4-60.23 134.4-134.4S829.37 64 755.2 64z m0 64c38.84 0 70.4 31.56 70.4 70.4s-31.56 70.4-70.4 70.4-70.4-31.56-70.4-70.4S716.36 128 755.2 128zM274.4 397c38.84 0 70.4 31.56 70.4 70.4s-31.56 70.4-70.4 70.4-70.4-31.56-70.4-70.4 31.56-70.4 70.4-70.4z m480.8 404.2c38.84 0 70.4 31.56 70.4 70.4s-31.56 70.4-70.4 70.4-70.4-31.56-70.4-70.4 31.56-70.4 70.4-70.4z" /></svg>
