<?xml version="1.0" standalone="no"?><!DOCTYPE svg PUBLIC "-//W3C//DTD SVG 1.1//EN" "http://www.w3.org/Graphics/SVG/1.1/DTD/svg11.dtd"><svg class="icon" width="200px" height="200.00px" viewBox="0 0 1024 1024" version="1.1" xmlns="http://www.w3.org/2000/svg"><path d="M511.69 960.35c-247.15 0-448.22-201.07-448.22-448.22S264.54 63.91 511.69 63.91s448.22 201.07 448.22 448.22-201.08 448.22-448.22 448.22z m0-843.71c-218.07 0-395.49 177.42-395.49 395.49s177.42 395.49 395.49 395.49S907.18 730.2 907.18 512.13 729.75 116.64 511.69 116.64zM503.38 656.49c-5.66 0-11.23-1.82-15.83-5.27l-132.88-99.66c-11.64-8.74-14.01-25.27-5.27-36.92 8.75-11.64 25.27-13.99 36.92-5.27l109.48 82.12 134.46-224.08c7.5-12.5 23.71-16.56 36.17-9.05 12.5 7.48 16.55 23.69 9.05 36.17l-149.5 249.16A26.365 26.365 0 0 1 508.44 656c-1.68 0.34-3.38 0.49-5.06 0.49z" /></svg>