<?xml version="1.0" standalone="no"?><!DOCTYPE svg PUBLIC "-//W3C//DTD SVG 1.1//EN" "http://www.w3.org/Graphics/SVG/1.1/DTD/svg11.dtd"><svg class="icon" width="200px" height="200.00px" viewBox="0 0 1024 1024" version="1.1" xmlns="http://www.w3.org/2000/svg"><path d="M511.77 64.31c-246.78 0-447.56 200.78-447.56 447.56s200.78 447.56 447.56 447.56 447.56-200.78 447.56-447.56S758.55 64.31 511.77 64.31z m163.55 330.13L526.05 643.21c-3.84 6.39-10.2 10.87-17.52 12.29-1.68 0.34-3.38 0.5-5.06 0.5-5.66 0-11.21-1.82-15.8-5.26l-132.68-99.5c-11.62-8.72-13.99-25.23-5.26-36.87 8.74-11.62 25.23-13.97 36.87-5.26l109.32 81.98 134.26-223.73c7.49-12.48 23.69-16.52 36.11-9.03 12.48 7.47 16.52 23.65 9.03 36.11z" /></svg>